<?xml version="1.0" encoding="UTF-8" standalone="no"?>
<svg
   xmlns:dc="http://purl.org/dc/elements/1.1/"
   xmlns:cc="http://creativecommons.org/ns#"
   xmlns:rdf="http://www.w3.org/1999/02/22-rdf-syntax-ns#"
   xmlns:svg="http://www.w3.org/2000/svg"
   xmlns="http://www.w3.org/2000/svg"
   width="85.096199mm"
   height="89.847458mm"
   viewBox="0 0 85.096199 89.847458"
   version="1.1"
   id="svg4033">
  <defs
     id="defs4027" />
  <metadata
     id="metadata4030">
    <rdf:RDF>
      <cc:Work
         rdf:about="">
        <dc:format>image/svg+xml</dc:format>
        <dc:type
           rdf:resource="http://purl.org/dc/dcmitype/StillImage" />
        <dc:title></dc:title>
      </cc:Work>
    </rdf:RDF>
  </metadata>
  <g
     id="layer1"
     transform="translate(-59.59401,-85.214435)">
    <path
       id="path3172"
       style="fill:#8e2781;fill-opacity:1;fill-rule:nonzero;stroke:none;stroke-width:1.33333"
       d="m 451.94727,322.07031 c -17.19466,3.27734 -33.34129,8.86727 -46.97461,20.44727 -1.38936,1.18 -4.18395,0.89162 -6.33594,0.96094 -11.28,0.35466 -22.69017,-0.3798 -33.82617,1.04687 -89.93467,11.52267 -151.44605,93.41429 -137.63672,182.73828 13.296,86.00935 95.85533,146.20658 181.61133,132.41992 95.88801,-15.41601 155.77512,-110.25022 128.42578,-202.99023 -1.13998,-3.86532 -0.20497,-8.66269 0.79101,-12.77734 2.76136,-11.396 8.1977,-22.55611 8.76172,-33.9961 1.77865,-36.08 -21.07102,-69.02446 -55.15234,-81.8418 -6.95335,-2.61599 -14.35674,-4.03714 -21.55274,-6.00781 z m 8.83593,13.73633 c 39.35882,0.13707 74.42066,32.88338 72.13868,73.87305 -0.71199,12.78266 -5.70535,26.16025 -11.77735,37.65625 -18.73198,35.46663 -38.93073,70.15737 -58.58008,105.13867 -0.34265,0.6107 -0.93294,1.08082 -2.18359,2.49414 -24.71067,-40.22532 -48.64907,-79.86905 -66.78906,-122.87305 -17.43201,-41.32535 11.70957,-84.95858 50.15625,-94.28125 5.70166,-1.3825 11.41247,-2.02739 17.03515,-2.00781 z m -68.9414,20.45313 c -22.67733,32.03998 -21.62937,63.86728 -3.55469,96.77929 h -27.70508 v -94.87695 c 10.14,-0.61866 19.60643,-1.19301 31.25977,-1.90234 z m 48.87695,1.02148 c -21.26884,0.28033 -39.87213,21.21949 -37.97852,40.2832 h 12.5586 c 2.33064,-16.10267 11.56367,-25.18912 27.48633,-27.45312 v -12.79297 c -0.69105,-0.0347 -1.38032,-0.0462 -2.06641,-0.0371 z m -94.64258,5.47852 v 90.46484 h -61.92969 c 0,-18.17201 -0.0234,-36.14837 0.0566,-54.12305 0.005,-1.12667 0.60959,-2.40358 1.29493,-3.35156 8.432,-11.67866 44.54346,-31.3569 60.57812,-32.99023 z m 114.45703,25.46289 c -17.07469,0.10533 -31.31435,14.53133 -30.90234,31.30468 0.41065,16.79732 14.26585,30.45586 31.03516,30.59571 17.07734,0.144 31.00288,-13.86125 30.9375,-31.11328 -0.064,-17.46267 -13.62368,-30.89634 -31.07032,-30.78711 z m 0.50196,13.62109 c 9.56534,0.11732 16.9775,7.70386 16.94726,17.33984 -0.0307,9.49202 -7.70869,17.29355 -17.08203,17.35743 -9.47732,0.0653 -17.80533,-8.42755 -17.5332,-17.88086 0.27069,-9.42667 8.15731,-16.93244 17.66797,-16.81641 z m -193.26368,11.64453 c 0.828,0.34133 1.65576,0.68133 2.48243,1.02149 v 38.50781 h -23.76172 c 7.40933,-13.7613 14.34462,-26.64531 21.27929,-39.5293 z m -9.54882,53.82422 c 3.8415,0.007 7.78702,0.0742 11.92968,0.0742 v 69.57617 c -8.29067,0 -16.23457,0.21563 -24.14257,-0.20703 -1.356,-0.0733 -3.34133,-2.6989 -3.72266,-4.43359 -4.41599,-20.108 -4.48668,-40.28833 0.084,-60.375 0.40267,-1.772 2.89488,-4.25154 4.54688,-4.35547 3.726,-0.23603 7.46319,-0.28662 11.30469,-0.2793 z m 117.81445,0.0449 c 5.07416,0 10.07174,0.0328 15.06641,0.16211 1.60267,0.0426 3.852,1.43043 4.63867,2.84375 12.14264,21.83868 24.09289,43.78484 36.35156,66.1875 h -71.58398 v -69.16211 c 5.30333,0 10.45318,-0.0312 15.52734,-0.0312 z m -91.41602,0.47656 h 61.33985 v 68.86719 h -61.33985 z m 241.80664,2.41797 c 5.14935,21.51066 4.81478,41.81088 0.4961,62.07617 -0.38532,1.80401 -2.9551,4.41339 -4.59375,4.47461 -10.71466,0.4029 -21.45114,0.20704 -33.3418,0.20704 12.63466,-22.52803 24.67678,-44.00181 37.43945,-66.75782 z m -119.07421,80.23243 c 9.55016,0.002 19.09854,0.0533 28.64453,0.25 2.832,0.0587 6.38802,2.23589 8.24804,4.5332 3.92531,4.84668 6.77332,10.54673 10.39063,15.66406 3.57868,5.06536 8.62762,5.15186 12.23828,0.11719 3.79733,-5.29599 6.92152,-11.07369 10.71484,-16.375 1.28402,-1.796 3.67657,-3.89328 5.61524,-3.94922 12.47735,-0.3549 24.96811,-0.18164 39.05078,-0.18164 -20.928,50.84402 -55.97519,83.09701 -108.45117,93.90234 -15.67336,3.22666 -32.36637,1.61226 -48.59571,1.84961 -1.68,0.0254 -4.86485,-2.43238 -4.87695,-3.76172 -0.28135,-30.34 -0.2168,-60.6839 -0.2168,-92.0039 h 18.58594 c 9.55066,0 19.10218,-0.0471 28.65235,-0.0449 z m -123.24414,0.51953 h 61.86523 v 91.05468 c -1.95867,-0.41469 -3.82423,-0.66569 -5.60156,-1.20703 -19.26,-5.85732 -36.41814,-15.58377 -51.35547,-28.98242 -2.56667,-2.30268 -4.59409,-6.59461 -4.69141,-10.0293 -0.47731,-16.77864 -0.21679,-33.57725 -0.21679,-50.83593 z m -37.96094,0.0586 h 23.97461 v 39.14258 c -0.70667,0.30931 -1.41443,0.61579 -2.1211,0.92383 -7.03466,-12.89734 -14.06951,-25.79442 -21.85351,-40.06641 z m 228.99218,20.98828 v 12.70508 h 12.71094 v -12.70508 z m -41.22851,0.0117 v 12.54297 h 12.39648 V 572.0625 Z m 20.60547,17.34961 v 12.9375 h 12.52148 v -12.9375 z"
       transform="scale(0.26458333)" />
  </g>
</svg>
