<?xml version="1.0" encoding="UTF-8" standalone="no"?>
<svg
   xmlns:dc="http://purl.org/dc/elements/1.1/"
   xmlns:cc="http://creativecommons.org/ns#"
   xmlns:rdf="http://www.w3.org/1999/02/22-rdf-syntax-ns#"
   xmlns:svg="http://www.w3.org/2000/svg"
   xmlns="http://www.w3.org/2000/svg"
   width="99.72374mm"
   height="101.32571mm"
   viewBox="0 0 99.72374 101.32571"
   version="1.1"
   id="svg4130">
  <defs
     id="defs4124" />
  <metadata
     id="metadata4127">
    <rdf:RDF>
      <cc:Work
         rdf:about="">
        <dc:format>image/svg+xml</dc:format>
        <dc:type
           rdf:resource="http://purl.org/dc/dcmitype/StillImage" />
        <dc:title></dc:title>
      </cc:Work>
    </rdf:RDF>
  </metadata>
  <g
     id="layer1"
     transform="translate(-49.168057,-95.235937)">
    <path
       id="path3190"
       style="fill:#8e2781;fill-opacity:1;fill-rule:nonzero;stroke:none;stroke-width:1.33333"
       d="m 375.48633,359.95117 c -11.30445,-0.0768 -22.725,0.8719 -34.25,2.83399 -33.98133,5.78533 -64.19572,19.9919 -90.37305,42.41992 -32.75733,28.06397 -53.74412,63.25973 -62.82812,105.48242 -0.76534,3.55465 -1.46979,7.12226 -2.20313,10.68359 v 55.61524 c 0.16933,0.71599 0.38268,1.42248 0.5,2.14648 3.832,23.48134 11.57083,45.57859 23.79883,66.00391 24.21067,40.44 58.5817,68.6115 103.20703,83.77148 36.20933,12.30134 72.97829,12.99718 109.93164,3.20118 1.86134,-0.49331 3.3683,-0.36354 5.09766,0.50976 16.78798,8.46935 34.57651,12.06234 53.22851,9.45703 37.63869,-5.26 63.34997,-25.96874 77.50196,-61.13672 2.5,-6.21335 3.77157,-12.62014 3.55273,-19.4375 -0.32768,-10.22933 -0.0592,-20.47681 -0.11133,-30.71679 -0.008,-1.62399 -0.0861,-3.34284 -0.60742,-4.85352 -2.11068,-6.13066 -4.45976,-12.18072 -6.5918,-18.30469 -0.4267,-1.23069 -0.70633,-2.78321 -0.34765,-3.97656 7.30265,-24.31865 9.20435,-49.14008 6.70703,-74.30273 -2.93734,-29.59733 -12.6506,-56.92778 -28.75195,-81.89844 C 512.0046,414.97057 483.77874,390.87599 448.30273,375.5 424.66559,365.25533 400.35611,360.12019 375.48633,359.95117 Z m -3.31836,15.8418 c 30.89435,-0.26295 62.02701,7.73212 89.91797,24.4707 70.14931,42.10133 96.2673,120.77256 80.47265,187.78321 h -0.004 c -17.11733,-19.41464 -38.25707,-30.41734 -63.87305,-33 v -3.03516 c 0,-17.93734 0.0379,-35.87517 -0.0195,-53.8125 -0.0307,-9.56134 -6.75099,-17.45311 -15.875,-18.48242 -3.61999,-0.40668 -7.31526,-0.16691 -10.97656,-0.19336 -3.20266,-0.0227 -6.40874,-0.004 -9.96875,-0.004 v 7.69531 c 0,2.01733 0.0962,4.04207 -0.0293,6.05274 -0.0973,1.60263 0.50945,2.05783 2.05078,2.03515 5.00667,-0.0733 10.0135,-0.0385 15.02149,-0.0234 3.244,0.009 4.02797,0.7593 4.02929,3.91797 0.0113,17.93865 -0.012,35.87711 0.0371,53.81445 0.005,1.57999 -0.378,2.16901 -2.05664,2.35156 -49.12535,5.35737 -85.43056,47.02445 -84.08789,96.42578 0.0363,1.32533 0.004,2.6528 0.004,4.16211 -0.784,0.048 -1.50523,0.12695 -2.22657,0.12695 -13.67733,0.006 -27.35524,0.008 -41.03125,0.004 -3.72133,-10e-4 -4.22327,-0.525 -4.22461,-4.31836 -0.003,-3.57331 0,-7.14941 0,-10.88672 h -15.88085 c 0.36399,6.07733 -0.85608,12.15281 0.91992,18.04883 2.404,7.98531 9.39854,12.91325 18.17187,12.94727 14.648,0.0563 29.29731,0.0889 43.94532,-0.043 2.51334,-0.0227 3.38083,0.81663 4.04882,3.14062 4.68401,16.30802 13.30853,30.2649 25.56055,41.99024 0.64664,0.61999 1.29708,1.23511 1.92773,1.87109 0.0815,0.0813 0.0574,0.27145 0.0801,0.41016 -59.90399,13.37333 -137.25864,-8.14562 -181.16797,-76.9043 -43.38,-67.92933 -34.04769,-156.22127 22.18164,-213.97461 33.25792,-34.15962 77.89946,-52.186 123.05274,-52.57031 z m -25.55078,61.08984 c -21.00283,2e-5 -42.00515,0.0113 -63.00781,0.0332 -11.76534,0.012 -19.62967,7.99821 -19.65235,19.79687 -0.0333,18.31336 -0.0143,36.62745 -0.0156,54.93945 -0.003,32.516 -0.0457,65.03089 0.0703,97.54688 0.0107,2.98533 0.51227,6.20491 1.71094,8.90625 3.41466,7.69466 9.76184,11.1686 18.08984,11.16992 26.23466,0.004 52.47236,0.006 78.70703,0.002 0.72933,0 1.45802,-0.0714 2.30469,-0.11523 v -15.55273 c -0.912,-0.0416 -1.71234,-0.1061 -2.51367,-0.10743 -3.88667,-0.008 -7.77349,-10e-4 -11.66016,0 -22.2,0 -44.39961,0.004 -66.59961,-0.004 -3.38266,0 -4.29902,-0.90944 -4.3457,-4.21875 -0.009,-0.672 0,-1.34558 0,-2.01758 V 484.82227 c 0,-9.26801 -0.009,-18.53728 0.004,-27.80665 0.005,-3.39998 0.90313,-4.30273 4.20313,-4.30273 41.63333,-0.001 83.26573,-0.001 124.90039,0 3.68803,0 4.41469,0.71648 4.41602,4.48047 0.0102,22.27468 0.003,44.54758 0.002,66.82226 v 2.74805 h 15.69726 v -0.002 c 0.0786,-0.70133 0.18555,-1.20694 0.18555,-1.71094 0.007,-23.02269 0.11187,-46.04508 -0.0469,-69.0664 -0.0773,-11.29335 -8.12138,-19.05507 -19.44141,-19.06641 -21.00199,-0.0234 -42.00498,-0.0352 -63.00781,-0.0352 z m -54.85742,36.89258 v 15.50781 h 98.91601 v -15.50781 z m 68.06835,35.83008 c -22.04,0.0748 -44.08109,0.0491 -66.12109,0.0566 -0.644,0 -1.2862,0.0949 -2.01953,0.15234 v 15.42969 h 70.85352 c 0,-4.43467 -0.12593,-8.68897 0.0527,-12.93164 0.0933,-2.21734 -0.65629,-2.71459 -2.76563,-2.70703 z m -68.13867,36.51758 v 15.60937 c 6.45734,0 12.63836,0.003 18.81836,0 7.23733,-0.003 14.47494,0.0188 21.71094,-0.0625 0.676,-0.008 1.9191,-0.66043 1.92969,-1.03906 0.1333,-4.81735 0.0879,-9.63982 0.0879,-14.50781 z m 178.64844,24.47656 c 43.03465,-0.40532 78.18002,34.40087 78.69336,77.93555 0.49867,42.27201 -34.38951,77.91105 -76.79883,78.45507 -43.75869,0.56134 -79.12093,-33.86674 -79.68359,-77.58007 -0.55332,-42.95997 34.4304,-78.40255 77.78906,-78.81055 z m 36.17578,24.26367 c -3.69464,0.0613 -7.16429,0.93908 -9.90429,3.50977 -2.99468,2.80932 -5.89592,5.73705 -8.64258,8.78906 -18.10133,20.09998 -36.15797,40.24171 -54.19532,60.40039 -0.92534,1.03332 -1.75152,2.27061 -2.24218,3.55859 -3.07866,8.09602 -6.01166,16.24563 -9.07032,24.34961 -1.31066,3.47335 -0.74228,6.5239 1.92969,9.00391 2.62001,2.43466 5.67109,2.64134 8.95508,1.22266 7.81466,-3.37599 15.68242,-6.62647 23.48242,-10.03711 1.32401,-0.57869 2.58205,-1.53385 3.58203,-2.58985 9.91068,-10.47734 19.76359,-21.01123 29.62891,-31.53125 11.60133,-12.37466 23.24063,-24.71448 34.7793,-37.14648 4.81202,-5.184 4.59644,-13.73023 -0.43555,-18.71289 -2.80668,-2.78 -5.82855,-5.3562 -8.89258,-7.85352 -2.56664,-2.092 -5.6306,-3.02563 -8.97461,-2.96289 z m 0.14649,16.51172 c 0.23833,-0.008 0.4563,0.01 0.59765,0.12305 1.48933,1.18934 2.90008,2.47399 4.30274,3.69531 -0.62933,1.28266 -1.2277,1.7154 -2.23438,0.63672 -1.008,-1.07996 -2.1408,-2.04729 -3.13281,-3.14063 -0.25096,-0.2773 -0.17794,-0.84719 -0.25391,-1.2832 0.224,0.01 0.48237,-0.0234 0.72071,-0.0312 z m -12.05078,12.11523 c 1.61196,1.73469 3.11234,3.34712 4.73632,5.09375 -15.06667,16.03068 -30.19697,32.12535 -45.43164,48.33204 -1.27997,-1.38535 -2.42162,-2.62297 -3.68164,-3.98829 14.69465,-16.36932 29.45428,-32.81347 44.37696,-49.4375 z"
       transform="scale(0.26458333)" />
  </g>
</svg>
