<?xml version="1.0" encoding="UTF-8" standalone="no"?>
<svg
   xmlns:dc="http://purl.org/dc/elements/1.1/"
   xmlns:cc="http://creativecommons.org/ns#"
   xmlns:rdf="http://www.w3.org/1999/02/22-rdf-syntax-ns#"
   xmlns:svg="http://www.w3.org/2000/svg"
   xmlns="http://www.w3.org/2000/svg"
   width="16px"
   height="16px"
   viewBox="0 0 12.534103 12.277985"
   version="1.1"
   id="svg3890">
  <defs
     id="defs3884" />
  <metadata
     id="metadata3887">
    <rdf:RDF>
      <cc:Work
         rdf:about="">
        <dc:format>image/svg+xml</dc:format>
        <dc:type
           rdf:resource="http://purl.org/dc/dcmitype/StillImage" />
        <dc:title></dc:title>
      </cc:Work>
    </rdf:RDF>
  </metadata>
  <g
     id="layer1"
     transform="translate(-54.166552,-120.19817)">
    <g
       id="g3362"
       transform="matrix(0.35277777,0,0,-0.35277777,55.004181,125.90616)">
      <path
         d="m 0,0 c 1.433,-0.164 2.731,-0.615 3.986,-1.164 1.59,-0.695 3.15,-1.459 4.704,-2.231 0.425,-0.211 0.672,-0.16 0.97,0.197 3.487,4.18 7.178,8.176 11.061,11.988 2.292,2.249 4.644,4.448 7.376,6.174 1.037,0.655 2.107,1.296 3.419,1.208 0.615,-0.041 1.147,-0.25 1.465,-0.811 0.326,-0.572 0.165,-1.113 -0.236,-1.56 -0.714,-0.796 -1.436,-1.588 -2.211,-2.322 -4.182,-3.969 -7.916,-8.313 -11.07,-13.146 -3.106,-4.76 -5.708,-9.782 -7.839,-15.049 -0.167,-0.41 -0.329,-0.825 -0.527,-1.221 -0.437,-0.873 -1.262,-0.925 -1.771,-0.09 -0.914,1.499 -1.779,3.027 -2.692,4.526 -1.588,2.609 -3.308,5.126 -5.413,7.354 -1.027,1.085 -2.1,2.128 -3.167,3.177 -0.703,0.691 -0.529,1.963 0.421,2.475 C -1.062,-0.245 -0.511,-0.16 0,0"
         style="fill:#fcd947;fill-opacity:1;fill-rule:nonzero;stroke:none"
         id="path3364" />
    </g>
  </g>
</svg>
