<?xml version="1.0" encoding="UTF-8" standalone="no"?>
<svg
   xmlns:dc="http://purl.org/dc/elements/1.1/"
   xmlns:cc="http://creativecommons.org/ns#"
   xmlns:rdf="http://www.w3.org/1999/02/22-rdf-syntax-ns#"
   xmlns:svg="http://www.w3.org/2000/svg"
   xmlns="http://www.w3.org/2000/svg"
   xmlns:sodipodi="http://sodipodi.sourceforge.net/DTD/sodipodi-0.dtd"
   xmlns:inkscape="http://www.inkscape.org/namespaces/inkscape"
   width="234.2359mm"
   height="280.48529mm"
   viewBox="0 0 234.2359 280.48529"
   version="1.1"
   id="svg3605"
   sodipodi:docname="comisiones.svg"
   inkscape:version="1.0.1 (1.0.1+r75)">
  <sodipodi:namedview
     pagecolor="#ffffff"
     bordercolor="#666666"
     borderopacity="1"
     objecttolerance="10"
     gridtolerance="10"
     guidetolerance="10"
     inkscape:pageopacity="0"
     inkscape:pageshadow="2"
     inkscape:window-width="1360"
     inkscape:window-height="698"
     id="namedview90"
     showgrid="false"
     inkscape:zoom="1.9884881"
     inkscape:cx="201.27564"
     inkscape:cy="500.17243"
     inkscape:window-x="0"
     inkscape:window-y="0"
     inkscape:window-maximized="1"
     inkscape:current-layer="g5485" />
  <defs
     id="defs3599">
    <clipPath
       clipPathUnits="userSpaceOnUse"
       id="clipPath1470">
      <path
         d="M 0,9466.858 H 9740.623 V 0 H 0 Z"
         id="path1468" />
    </clipPath>
    <clipPath
       clipPathUnits="userSpaceOnUse"
       id="clipPath1520">
      <path
         d="M 0,9466.858 H 9740.623 V 0 H 0 Z"
         id="path1518" />
    </clipPath>
    <clipPath
       clipPathUnits="userSpaceOnUse"
       id="clipPath1574">
      <path
         d="M 0,9466.858 H 9740.623 V 0 H 0 Z"
         id="path1572" />
    </clipPath>
    <clipPath
       clipPathUnits="userSpaceOnUse"
       id="clipPath1558">
      <path
         d="M 0,9466.858 H 9740.623 V 0 H 0 Z"
         id="path1556" />
    </clipPath>
    <clipPath
       clipPathUnits="userSpaceOnUse"
       id="clipPath1438">
      <path
         d="M 0,9466.858 H 9740.623 V 0 H 0 Z"
         id="path1436" />
    </clipPath>
    <clipPath
       clipPathUnits="userSpaceOnUse"
       id="clipPath1536">
      <path
         d="M 0,9466.858 H 9740.623 V 0 H 0 Z"
         id="path1534" />
    </clipPath>
  </defs>
  <metadata
     id="metadata3602">
    <rdf:RDF>
      <cc:Work
         rdf:about="">
        <dc:format>image/svg+xml</dc:format>
        <dc:type
           rdf:resource="http://purl.org/dc/dcmitype/StillImage" />
        <dc:title />
      </cc:Work>
    </rdf:RDF>
  </metadata>
  <g
     id="layer1"
     transform="translate(9.1451141,-11.535732)">
    <g
       id="g5535">
      <path
         d="m 96.340166,162.93977 12.079814,86.65527 11.63003,-87.79016"
         style="fill:none;stroke:#ff0000;stroke-width:0.215547;stroke-linecap:butt;stroke-linejoin:miter;stroke-miterlimit:10;stroke-dasharray:none;stroke-opacity:1"
         id="path1474" />
      <path
         d="M 120.05001,129.63709 107.97019,56.369733 96.340169,130.77198"
         style="fill:none;stroke:#ff0000;stroke-width:0.215547;stroke-linecap:butt;stroke-linejoin:miter;stroke-miterlimit:10;stroke-dasharray:none;stroke-opacity:1"
         id="path1478" />
      <path
         d="m 125.75217,157.44811 42.20669,-12.07946 -43.34158,-11.63003"
         style="fill:none;stroke:#ff0000;stroke-width:0.215547;stroke-linecap:butt;stroke-linejoin:miter;stroke-miterlimit:10;stroke-dasharray:none;stroke-opacity:1"
         id="path1482" />
      <path
         d="M 89.263444,133.73848 47.057112,145.8183 90.39833,157.44797"
         style="fill:none;stroke:#ff0000;stroke-width:0.215547;stroke-linecap:butt;stroke-linejoin:miter;stroke-miterlimit:10;stroke-dasharray:none;stroke-opacity:1"
         id="path1486" />
      <path
         d="m 131.46103,141.52076 21.30284,-38.3861 -38.87047,22.42326"
         style="fill:none;stroke:#ff0000;stroke-width:0.215547;stroke-linecap:butt;stroke-linejoin:miter;stroke-miterlimit:10;stroke-dasharray:none;stroke-opacity:1"
         id="path1490" />
      <path
         d="m 86.392997,151.66795 -21.302838,38.3861 38.870821,-22.42326"
         style="fill:none;stroke:#ff0000;stroke-width:0.215547;stroke-linecap:butt;stroke-linejoin:miter;stroke-miterlimit:10;stroke-dasharray:none;stroke-opacity:1"
         id="path1494" />
      <path
         d="M 104.80341,126.13153 66.417308,104.82869 88.840569,143.69916"
         style="fill:none;stroke:#ff0000;stroke-width:0.215547;stroke-linecap:butt;stroke-linejoin:miter;stroke-miterlimit:10;stroke-dasharray:none;stroke-opacity:1"
         id="path1498" />
      <path
         d="m 111.5868,166.44535 38.3861,21.30284 -22.42326,-38.87047"
         style="fill:none;stroke:#ff0000;stroke-width:0.215547;stroke-linecap:butt;stroke-linejoin:miter;stroke-miterlimit:10;stroke-dasharray:none;stroke-opacity:1"
         id="path1502" />
    </g>
    <g
       id="g5525">
      <path
         d="m 138.94309,146.38334 c 0,16.98166 -13.76645,30.74776 -30.74811,30.74776 -16.981311,0 -30.747758,-13.7661 -30.747758,-30.74776 0,-16.98166 13.766447,-30.74776 30.747758,-30.74776 16.98166,0 30.74811,13.7661 30.74811,30.74776"
         style="fill:#8e2781;fill-opacity:1;fill-rule:nonzero;stroke:none;stroke-width:0.352778"
         id="path1506" />
      <text
         style="font-variant:normal;font-weight:bold;font-stretch:normal;font-size:9.96992px;font-family:Helvetica;-inkscape-font-specification:Helvetica-Bold;text-align:center;writing-mode:lr-tb;text-anchor:middle;fill:#ffffff;fill-opacity:1;fill-rule:nonzero;stroke:none;stroke-width:0.352777"
         id="text1512"
         x="108.19759"
         y="142.65012"><tspan
           x="108.19759"
           y="142.65012"
           id="tspan1508"
           style="text-align:center;text-anchor:middle;stroke-width:0.352777">Comisiones</tspan><tspan
           x="108.19759"
           y="155.27193"
           id="tspan1510"
           style="text-align:center;text-anchor:middle;stroke-width:0.352777">de Trabajo</tspan></text>
    </g>
    <g
       id="g5514">
      <path
         d="m 74.449177,84.227602 c 0,-15.713427 -12.7381,-28.451527 -28.451527,-28.451527 -15.713428,0 -28.45188,12.7381 -28.45188,28.451527 0,15.713427 12.738452,28.451878 28.45188,28.451878 15.713427,0 28.451527,-12.738451 28.451527,-28.451878"
         style="fill:#f4cb00;fill-opacity:1;fill-rule:nonzero;stroke:none;stroke-width:0.352778"
         id="path1562" />
      <text
         style="font-variant:normal;font-weight:bold;font-stretch:normal;font-size:7.23601px;font-family:Helvetica;-inkscape-font-specification:Helvetica-Bold;writing-mode:lr-tb;fill:#000000;fill-opacity:1;fill-rule:nonzero;stroke:none;stroke-width:0.352777"
         id="text1566"
         x="23.96439"
         y="85.966118"><tspan
           x="23.96439"
           y="85.966118"
           id="tspan1564"
           style="stroke-width:0.352777">Presupuesto</tspan></text>
    </g>
    <g
       id="g5479">
      <path
         d="m 202.55901,84.227602 c 0,-15.713427 -12.73845,-28.451527 -28.45188,-28.451527 -15.71343,0 -28.45153,12.7381 -28.45153,28.451527 0,15.713427 12.7381,28.451878 28.45153,28.451878 15.71343,0 28.45188,-12.738451 28.45188,-28.451878"
         style="fill:#f4cb00;fill-opacity:1;fill-rule:nonzero;stroke:none;stroke-width:0.352778"
         id="path1578" />
      <text
         style="font-variant:normal;font-weight:bold;font-stretch:normal;font-size:7.23601px;font-family:Helvetica;-inkscape-font-specification:Helvetica-Bold;text-align:center;writing-mode:lr-tb;text-anchor:middle;fill:#000000;fill-opacity:1;fill-rule:nonzero;stroke:none;stroke-width:0.352777"
         id="text1584"
         x="174.30516"
         y="81.550056"><tspan
           x="174.30516"
           y="81.550056"
           id="tspan1580"
           style="text-align:center;text-anchor:middle;stroke-width:0.352777">Tecnología</tspan><tspan
           x="174.30516"
           y="90.710762"
           id="tspan1582"
           style="text-align:center;text-anchor:middle;stroke-width:0.352777">y comunicación</tspan></text>
    </g>
    <g
       id="g5503">
      <path
         d="m 225.09079,145.72809 c 0,-15.71343 -12.7381,-28.45153 -28.45153,-28.45153 -15.71342,0 -28.45188,12.7381 -28.45188,28.45153 0,15.71343 12.73846,28.45153 28.45188,28.45153 15.71343,0 28.45153,-12.7381 28.45153,-28.45153"
         style="fill:#f4cb00;fill-opacity:1;fill-rule:nonzero;stroke:none;stroke-width:0.352778"
         id="path1450" />
      <text
         id="text3841"
         style="font-variant:normal;font-weight:bold;font-stretch:normal;font-size:7.23601px;font-family:Helvetica;-inkscape-font-specification:Helvetica-Bold;writing-mode:lr-tb;white-space:pre;inline-size:32.5409;fill:#000000;fill-opacity:1;fill-rule:nonzero;stroke:none;stroke-width:0.352777"
         x="183.18117"
         y="145.90891 -0.95039403 -0.95039403 -0.95039403 -0.95039403 -0.95039403 -0.95039403 -0.95039403 -0.95039403"
         transform="translate(-2.2953638,2.4372921)"
         xml:space="preserve"><tspan
           x="183.18117"
           y="145.90891"><tspan
             style="stroke-width:0.352777">Relatoría</tspan></tspan></text>
    </g>
    <g
       id="g5497">
      <path
         d="m 199.99051,206.52317 c 0,-15.71343 -12.7381,-28.45153 -28.45153,-28.45153 -15.71342,0 -28.45188,12.7381 -28.45188,28.45153 0,15.71343 12.73846,28.45153 28.45188,28.45153 15.71343,0 28.45153,-12.7381 28.45153,-28.45153"
         style="fill:#f4cb00;fill-opacity:1;fill-rule:nonzero;stroke:none;stroke-width:0.352778"
         id="path1446" />
      <text
         id="text3845"
         style="font-variant:normal;font-weight:bold;font-stretch:normal;font-size:7.23601px;font-family:Helvetica;-inkscape-font-specification:Helvetica-Bold;text-align:center;writing-mode:lr-tb;text-anchor:middle;white-space:pre;inline-size:47.5821;fill:#000000;fill-opacity:1;fill-rule:nonzero;stroke:none;stroke-width:0.352777"
         x="176.64221"
         y="204.71898 0.5505175 0.5505175 0.5505175 0.5505175 0.5505175 0.5505175 0.5505175 0.5505175 0.5505175 0.5505175 0.5505175 0.5505175 0.5505175 0.5505175 0.5505175 0.5505175 0.5505175 0.5505175 0.5505175 0.5505175 0.5505175 0.5505175 0.5505175 0.5505175"
         transform="translate(-5.1020066,-0.15805452)"
         xml:space="preserve"><tspan
           x="176.64221"
           y="204.71898"><tspan
             style="text-align:center;text-anchor:middle;stroke-width:0.352777">Evaluación
</tspan></tspan><tspan
           x="176.64221"
           y="213.87968"><tspan
             style="text-align:center;text-anchor:middle;stroke-width:0.352777">de servidores</tspan></tspan></text>
    </g>
    <g
       id="g5485">
      <path
         d="m 47.758293,145.72809 c 0,-15.71343 -12.7381,-28.45153 -28.451527,-28.45153 -15.7134276,0 -28.4518801,12.7381 -28.4518801,28.45153 0,15.71343 12.7384525,28.45153 28.4518801,28.45153 15.713427,0 28.451527,-12.7381 28.451527,-28.45153"
         style="fill:#f4cb00;fill-opacity:1;fill-rule:nonzero;stroke:none;stroke-width:0.352778"
         id="path1442" />
      <text
         id="text3853"
         style="font-variant:normal;font-weight:bold;font-stretch:normal;font-size:7.23601px;font-family:Helvetica;-inkscape-font-specification:Helvetica-Bold;text-align:center;writing-mode:lr-tb;text-anchor:middle;white-space:pre;inline-size:36.7469;fill:#000000;fill-opacity:1;fill-rule:nonzero;stroke:none;stroke-width:0.352777"
         x="-28.935087"
         y="166.88278 22.006144 22.006144 22.006144 22.006144 22.006144 22.006144 22.006144 22.006144"
         xml:space="preserve"
         transform="translate(48.092765,-23.148736)"><tspan
           x="-28.935087"
           y="166.88278"><tspan
             style="text-align:center;text-anchor:middle;stroke-width:0.352777">Calidad y</tspan><tspan></tspan><tspan
             y="166.88278"> </tspan></tspan><tspan
           x="-28.935087"
           y="176.04349"><tspan
             style="text-align:center;text-anchor:middle;stroke-width:0.352777">archivo</tspan></tspan></text>
    </g>
    <g
       id="g5509">
      <path
         d="m 137.17335,263.56948 c 0,-15.71343 -12.7381,-28.45153 -28.45153,-28.45153 -15.713421,0 -28.451873,12.7381 -28.451873,28.45153 0,15.71343 12.738452,28.45153 28.451873,28.45153 15.71343,0 28.45153,-12.7381 28.45153,-28.45153"
         style="fill:#f4cb00;fill-opacity:1;fill-rule:nonzero;stroke:none;stroke-width:0.352778"
         id="path1540" />
      <text
         id="text4190"
         style="font-variant:normal;font-weight:bold;font-stretch:normal;font-size:7.23601px;font-family:Helvetica;-inkscape-font-specification:Helvetica-Bold;writing-mode:lr-tb;white-space:pre;inline-size:26.33;fill:#000000;fill-opacity:1;fill-rule:nonzero;stroke:none;stroke-width:0.352777"
         x="96.804001"
         y="266.42593 0.16758178 0.16758178 0.16758178 0.16758178 0.16758178"
         transform="translate(-0.75842287,-0.23834668)"
         xml:space="preserve"><tspan
           x="96.804001"
           y="266.42593"><tspan
             style="stroke-width:0.352777">Género</tspan></tspan></text>
    </g>
    <g
       id="g5491">
      <path
         d="m 78.47737,213.04285 c 0,-15.71343 -12.7381,-28.45153 -28.451527,-28.45153 -15.713428,0 -28.45188,12.7381 -28.45188,28.45153 0,15.71343 12.738452,28.45153 28.45188,28.45153 15.713427,0 28.451527,-12.7381 28.451527,-28.45153"
         style="fill:#f4cb00;fill-opacity:1;fill-rule:nonzero;stroke:none;stroke-width:0.352778"
         id="path1544" />
      <text
         id="text4194"
         style="font-variant:normal;font-weight:bold;font-stretch:normal;font-size:7.23601px;font-family:Helvetica;-inkscape-font-specification:Helvetica-Bold;writing-mode:lr-tb;white-space:pre;inline-size:51.227;fill:#000000;fill-opacity:1;fill-rule:nonzero;stroke:none;stroke-width:0.352777"
         x="27.250389"
         y="213.99591 -1.8708867 -1.8708867 -1.8708867 -1.8708867 -1.8708867 -1.8708867 -1.8708867 -1.8708867 -1.8708867 -1.8708867 -1.8708867 -1.8708867"
         transform="translate(-1.8348947,0.91777301)"
         xml:space="preserve"><tspan
           x="27.250389"
           y="213.99591"><tspan
             style="stroke-width:0.352777">Transparencia</tspan></tspan></text>
    </g>
    <g
       id="g5519">
      <path
         d="m 137.17335,39.987259 c 0,-15.713427 -12.7381,-28.451527 -28.45153,-28.451527 -15.713425,0 -28.451877,12.7381 -28.451877,28.451527 0,15.713427 12.738452,28.451527 28.451877,28.451527 15.71343,0 28.45153,-12.7381 28.45153,-28.451527"
         style="fill:#f4cb00;fill-opacity:1;fill-rule:nonzero;stroke:none;stroke-width:0.352778"
         id="path1524" />
      <text
         style="font-variant:normal;font-weight:bold;font-stretch:normal;font-size:7.23601px;font-family:Helvetica;-inkscape-font-specification:Helvetica-Bold;writing-mode:lr-tb;fill:#000000;fill-opacity:1;fill-rule:nonzero;stroke:none;stroke-width:0.352777"
         id="text1528"
         x="90.75705"
         y="42.573566"><tspan
           x="90.75705"
           y="42.573566"
           id="tspan1526"
           style="stroke-width:0.352777">Normativa</tspan></text>
    </g>
  </g>
</svg>
