<?xml version="1.0" encoding="UTF-8" standalone="no"?>
<svg
   xmlns:dc="http://purl.org/dc/elements/1.1/"
   xmlns:cc="http://creativecommons.org/ns#"
   xmlns:rdf="http://www.w3.org/1999/02/22-rdf-syntax-ns#"
   xmlns:svg="http://www.w3.org/2000/svg"
   xmlns="http://www.w3.org/2000/svg"
   width="497.05008mm"
   height="515.51837mm"
   viewBox="0 0 497.05008 515.51837"
   version="1.1"
   id="svg1112">
  <defs
     id="defs1106">
    <clipPath
       clipPathUnits="userSpaceOnUse"
       id="clipPath20">
      <path
         d="M 0,2294.987 H 1920 V 0 H 0 Z"
         id="path18" />
    </clipPath>
    <clipPath
       clipPathUnits="userSpaceOnUse"
       id="clipPath20-3">
      <path
         d="M 0,2294.987 H 1920 V 0 H 0 Z"
         id="path18-6" />
    </clipPath>
  </defs>
  <metadata
     id="metadata1109">
    <rdf:RDF>
      <cc:Work
         rdf:about="">
        <dc:format>image/svg+xml</dc:format>
        <dc:type
           rdf:resource="http://purl.org/dc/dcmitype/StillImage" />
        <dc:title></dc:title>
      </cc:Work>
    </rdf:RDF>
  </metadata>
  <g
     id="layer1"
     transform="translate(120.87172,79.377366)">
    <g
       id="g4705"
       transform="translate(-19.188844,4.4904974)">
      <path
         d="m 255.04331,116.87028 c -0.41169,-0.003 -0.82197,-0.16334 -1.13383,-0.48013 l -53.0038,-53.834241 c -0.29951,-0.303742 -0.46602,-0.714375 -0.46249,-1.141236 0.003,-0.426156 0.17604,-0.83432 0.48013,-1.133475 15.66263,-15.420622 24.38294,-36.019669 24.55333,-58.0008988 0.17075,-21.9801722 -8.22819,-42.7122162 -23.64987,-58.3748432 -15.42238,-15.66298 -36.02143,-24.382941 -58.0009,-24.553686 -21.98017,-0.170744 -42.71221,8.228542 -58.375191,23.649869 C 69.787003,-41.575975 61.067042,-20.977634 60.89665,1.0025381 60.725906,22.983768 69.124839,43.715107 84.547225,59.377734 c 0.623358,0.633236 0.615597,1.651 -0.01764,2.274711 -0.633236,0.623358 -1.651,0.615597 -2.274711,-0.01764 C 66.229592,45.360109 57.502223,23.818088 57.679317,0.97784367 57.856764,-21.861695 66.917509,-43.26578 83.193969,-59.290358 c 16.275403,-16.02493 37.816371,-24.752299 60.656961,-24.574852 22.83954,0.177094 44.24257,9.238191 60.2682,25.513594 16.02458,16.275402 24.75195,37.816718 24.57486,60.6569624 -0.17322,22.3040216 -8.81663,43.2375016 -24.37801,59.1294346 l 51.88585,52.698649 c 0.62371,0.63324 0.61595,1.651 -0.0176,2.27436 -0.31644,0.31185 -0.72919,0.46566 -1.14088,0.46249"
         style="fill:#292c64;fill-opacity:1;fill-rule:nonzero;stroke:none;stroke-width:0.352778"
         id="path24" />
      <path
         d="m 238.20086,116.89706 0.13935,-3.21733 15.84713,0.70414 -0.45544,-15.858418 3.21875,-0.08961 0.55103,19.313868 z"
         style="fill:#292c64;fill-opacity:1;fill-rule:nonzero;stroke:none;stroke-width:0.352778"
         id="path28" />
      <path
         d="m 192.03879,281.51191 c -0.42227,0 -0.8442,-0.16087 -1.16664,-0.48331 -0.64417,-0.64452 -0.64417,-1.68839 0,-2.33291 l 54.78674,-54.78745 c 0.61878,-0.61842 1.7145,-0.61842 2.33328,0 15.94061,15.94097 37.1355,24.71984 59.67871,24.71984 22.54285,0 43.73668,-8.77887 59.67765,-24.71984 15.94026,-15.93991 24.71914,-37.1348 24.71914,-59.67765 0,-22.5425 -8.77888,-43.73739 -24.71914,-59.67801 -15.94027,-15.94026 -37.24522,-24.490888 -59.67765,-24.719135 -22.36964,-0.227542 -30.13146,-0.124531 -48.82868,14.692136 -0.68333,0.541514 -1.41111,0.705555 -2.11667,0.352778 -0.87877,-0.439209 -1.48449,-2.259542 -0.70555,-2.822223 19.05,-13.758333 28.22539,-15.522221 51.6509,-15.522221 23.42479,0 45.44695,9.122127 62.01057,25.685745 16.56362,16.56433 25.68575,38.58613 25.68575,62.01093 0,23.42479 -9.12213,45.44695 -25.68575,62.01057 -16.56362,16.56468 -38.58613,25.68645 -62.01057,25.68645 -22.86882,0 -44.40097,-8.6942 -60.82312,-24.51911 -0.007,-0.006 -0.0169,-0.006 -0.0236,3.5e-4 l -53.61869,53.61975 c -0.32244,0.32244 -0.74437,0.48331 -1.16664,0.48331"
         style="fill:#ffc807;fill-opacity:1;fill-rule:nonzero;stroke:none;stroke-width:0.352778"
         id="path32" />
      <path
         d="m 190.22784,262.5892 3.30024,0.11747 -0.59585,16.25742 16.25988,-0.59338 0.11713,3.30024 -19.80283,0.71896 z"
         style="fill:#ffc807;fill-opacity:1;fill-rule:nonzero;stroke:none;stroke-width:0.352778"
         id="path36" />
      <path
         d="m 157.31212,431.65053 c -23.16198,0 -44.93683,-9.01947 -61.315599,-25.39753 -16.37806,-16.37806 -25.397882,-38.15397 -25.397882,-61.31666 0,-22.61764 8.600016,-43.91342 24.254882,-60.15178 L 41.823967,231.755 c -0.637117,-0.63747 -0.637117,-1.66969 0,-2.30681 0.637117,-0.63712 1.669344,-0.63712 2.306461,0 l 54.172907,54.17255 c 0.636764,0.63712 0.636764,1.6697 0,2.30647 -15.761758,15.7614 -24.442208,36.71887 -24.442208,59.00913 0,22.29132 8.68045,43.24844 24.442208,59.00985 15.762115,15.7614 36.719225,24.44185 59.008785,24.44185 22.28991,0 43.24667,-8.68045 59.00914,-24.44185 15.7614,-15.76141 24.44185,-36.71853 24.44185,-59.00985 0,-22.29026 -8.68045,-43.24773 -24.44185,-59.00913 -0.63747,-0.63677 -0.63747,-1.66935 0,-2.30647 0.63711,-0.63711 1.66934,-0.63711 2.30646,0 16.37806,16.37807 25.39788,38.15292 25.39788,61.3156 0,23.16269 -9.01982,44.9386 -25.39788,61.31666 -16.37841,16.37806 -38.15362,25.39753 -61.3156,25.39753"
         style="fill:#292c64;fill-opacity:1;fill-rule:nonzero;stroke:none;stroke-width:0.352778"
         id="path40" />
      <path
         d="m 60.055878,228.81037 -0.115711,3.26319 -16.07573,-0.58878 0.587022,16.07749 -3.263547,0.11607 -0.710847,-19.58093 z"
         style="fill:#292c64;fill-opacity:1;fill-rule:nonzero;stroke:none;stroke-width:0.352778"
         id="path44" />
      <path
         d="m -24.817655,251.9721 c -22.663502,-2.24578 -43.095685,-13.18295 -57.534174,-30.79644 -14.437783,-17.61455 -21.152201,-39.79651 -18.906421,-62.46001 2.245786,-22.66386 13.182602,-43.09569 30.796443,-57.53417 C -52.84726,86.743693 -30.666005,80.029626 -8.0025026,82.275057 14.128658,84.468276 34.132569,94.947892 48.504029,111.8403 L 105.53514,65.093015 c 0.6851,-0.561622 1.69545,-0.461433 2.25707,0.223661 0.56198,0.685448 0.46179,1.69545 -0.22366,2.257073 L 49.30801,115.32857 c -0.685447,0.56162 -1.69545,0.46179 -2.257072,-0.22366 C 33.156785,98.15429 13.491894,87.628812 -8.3189443,85.467343 -30.129077,83.306226 -51.477071,89.768056 -68.428396,103.66221 c -16.950619,13.89486 -27.476096,33.5594 -29.637566,55.36988 -2.161118,21.81084 4.300714,43.15848 18.194867,60.11016 13.894858,16.95062 33.559749,27.47645 55.369882,29.63756 21.8108381,2.16112 43.158832,-4.30071 60.109451,-18.19486 0.685095,-0.56162 1.695097,-0.46144 2.257072,0.22366 0.561622,0.68545 0.461434,1.69545 -0.223661,2.25707 -17.613841,14.43778 -39.7947434,21.1522 -62.459304,18.90642"
         style="fill:#ffc807;fill-opacity:1;fill-rule:nonzero;stroke:none;stroke-width:0.352778"
         id="path48" />
      <path
         d="m 106.64819,83.218845 -3.18206,-0.430036 2.13502,-15.672505 -15.788574,-0.984603 0.202848,-3.204281 19.228856,1.202973 z"
         style="fill:#ffc807;fill-opacity:1;fill-rule:nonzero;stroke:none;stroke-width:0.352778"
         id="path52" />
      <text
         style="font-variant:normal;font-weight:normal;font-stretch:normal;font-size:10.5833px;font-family:Helvetica;-inkscape-font-specification:Helvetica;writing-mode:lr-tb;fill:#ffffff;fill-opacity:1;fill-rule:nonzero;stroke:none;stroke-width:0.352777"
         id="text136"
         x="98.652977"
         y="-31.560003"><tspan
           x="98.652977 104.11396 109.57496 112.0938 114.01997 122.41254 127.87354 129.79971 135.26071 143.65329 149.11429 154.57529 157.09412 162.55511 167.42343 169.34964 174.81064 180.27161 182.79044 188.25146 193.71246"
           y="-31.560003"
           id="tspan134"
           style="stroke-width:0.352777">La implementación de</tspan></text>
      <text
         style="font-variant:normal;font-weight:normal;font-stretch:normal;font-size:10.5833px;font-family:Helvetica;-inkscape-font-specification:Helvetica;writing-mode:lr-tb;fill:#ffffff;fill-opacity:1;fill-rule:nonzero;stroke:none;stroke-width:0.352777"
         id="text140"
         x="89.710045"
         y="-18.860006"><tspan
           x="89.710045 95.171043 100.63204 103.73296 106.83389 112.29487 120.68746 122.61362 128.07465 133.53561 136.05447 141.51547 146.38379 148.90262 151.42145 156.88245 161.75079 167.21182 172.67279 174.59897 180.05997 185.52097 187.44711 192.31546 197.77646 202.64481"
           y="-18.860006"
           id="tspan138"
           style="stroke-width:0.352777">herramientas tecnológicas</tspan></text>
      <text
         style="font-variant:normal;font-weight:normal;font-stretch:normal;font-size:10.5833px;font-family:Helvetica;-inkscape-font-specification:Helvetica;writing-mode:lr-tb;fill:#ffffff;fill-opacity:1;fill-rule:nonzero;stroke:none;stroke-width:0.352777"
         id="text154"
         x="86.736122"
         y="-6.1600056"><tspan
           x="86.736122 92.197136 97.658134 103.11912 105.63796 110.50629 115.96729 121.42829 126.88929 129.9902 132.50903 137.97003 143.43106 145.94986 151.41089 153.33704 155.85587 160.72421 166.18524 169.28613 174.15445 176.08063 180.94897 182.87512 188.33612 190.85495 195.7233 198.24213 203.70312 205.62927"
           y="-6.1600056"
           id="tspan142"
           style="stroke-width:0.352777">que soportan el servicio y el</tspan><tspan
           x="85.942375 91.403374 96.271721 101.14004 106.60105 111.46937 116.93038 119.44921 124.91022 127.42904 129.35522 134.81619 137.33505 139.2612 144.7222 147.24103 152.70206 155.80295 164.19553 169.65652 174.52487 176.45105 181.91205 187.37302 189.89185 192.41071 197.8717 203.3327 206.43362"
           y="6.5399914"
           id="tspan144"
           style="stroke-width:0.352777">acceso a la información, por</tspan><tspan
           x="94.715965 100.17696 102.10313 107.56414 115.95672 121.41772 123.34386 128.80487 131.32373 133.84253 135.76871 141.22971 143.74854 148.61688 154.07788 159.53888 162.05771 167.51871 172.97971 174.90588 176.83203 178.75821 184.21919 186.73804 192.19904 197.66003"
           y="19.239996"
           id="tspan146"
           style="stroke-width:0.352777">ejemplo, la ventanilla de</tspan><tspan
           x="92.377052 97.838051 100.35686 105.81788 111.27888 116.14722 118.07337 123.53439 128.99539 131.51422 136.38254 138.30872 141.40964 143.92844 149.38947 154.85046 156.77661 159.29544 164.16379 166.68262 173.31839 179.95413 188.34671 194.98245 197.50128"
           y="31.939993"
           id="tspan148"
           style="stroke-width:0.352777">atención virtual y SAMAI.</tspan><tspan
           x="254.66187 260.12286 265.58386 268.10269 270.62152 272.5477 275.64859 284.04117 289.5022 292.02103 297.48203 302.94302 305.46185 307.388 312.84903 317.71735 320.23618 328.62875 334.08978 342.48236 347.94336 351.04425 356.50528 361.96628 367.42728 372.88828 377.75662"
           y="137.77333"
           id="tspan150"
           style="stroke-width:0.352777">La firma de los memorandos</tspan><tspan
           x="269.84897 275.30994 280.77097 283.28976 288.75076 294.21176 296.73062 302.19162 307.65259 313.11362 315.03976 323.43237 325.35852 330.81952 336.28052 338.79938 344.26038 346.77921 351.64752 357.10852 362.56952"
           y="150.47333"
           id="tspan152"
           style="stroke-width:0.352777">de entendimiento con</tspan></text>
      <text
         style="font-variant:normal;font-weight:normal;font-stretch:normal;font-size:10.5833px;font-family:Helvetica;-inkscape-font-specification:Helvetica;writing-mode:lr-tb;fill:#ffffff;fill-opacity:1;fill-rule:nonzero;stroke:none;stroke-width:0.352777"
         id="text160"
         x="254.55603"
         y="163.17334"><tspan
           x="254.55603 260.59915 266.06009 271.52112 276.38943 278.31561 283.77661 289.23764 290.28537 296.92111 302.38211 307.84311 309.76929 311.69547 316.56378 322.02478 324.54361 327.06244 328.98862 334.44962 336.96844 344.18628 346.70511 353.34085 360.55869 363.07755 367.94586 370.46472 372.39084 377.85187"
           y="163.17334"
           id="tspan156"
           style="stroke-width:0.352777">Función Pública, la DIAN y la</tspan><tspan
           x="252.92621 260.14404 265.60504 268.12387 273.58487 279.04587 283.91422 289.37518 292.47614 294.99496 300.45593 302.97476 308.43579 313.89679 315.82297 318.3418 324.97754 330.43854 335.89954 341.36053 343.28668 348.74768 351.26654 353.78537 358.65372 364.11472 369.57571 372.09451 377.55551 379.48169"
           y="175.87334"
           id="tspan158"
           style="stroke-width:0.352777">Defensoría del Pueblo, con el</tspan></text>
      <text
         style="font-variant:normal;font-weight:normal;font-stretch:normal;font-size:10.5833px;font-family:Helvetica;-inkscape-font-specification:Helvetica;writing-mode:lr-tb;fill:#ffffff;fill-opacity:1;fill-rule:nonzero;stroke:none;stroke-width:0.352777"
         id="text170"
         x="257.84747"
         y="188.57333"><tspan
           x="257.84747 260.3663 262.29245 267.75345 270.27228 275.73328 281.19427 283.71313 286.23196 291.69293 294.79388 297.31271 302.77368 304.69986 310.16086 315.02921 320.4902 323.59113 326.10995 331.57095 337.03195 338.9581 341.47696 343.99579 345.92197 350.79025 356.25128 361.1196 363.63846 369.09946 374.56046"
           y="188.57333"
           id="tspan162"
           style="stroke-width:0.352777">fin de fortalecer políticas de</tspan><tspan
           x="255.41327 260.8743 266.33527 271.20361 273.72244 275.64862 281.10959 286.57062 289.08945 293.95779 296.47662 298.4028 303.86377 306.3826 308.30878 313.76978 318.63812 321.15695 323.0831 325.60196 331.06296 335.93127 337.85745 343.31842 348.77945 354.24045 356.16663 358.0928 363.5538 369.01477 374.47577 376.9946"
           y="201.27332"
           id="tspan164"
           style="stroke-width:0.352777">gestión y la institucionalidad.</tspan><tspan
           x="94.493736 96.917305 105.21464 110.58038 112.41131 117.77706 126.07439 131.44012 136.80588 139.22946 144.59521 149.36829 151.19922 156.56494 161.93073 164.35431 169.72006 175.08578 176.9167 179.3403 181.76385 187.12964 192.49539 194.32632 199.69205 202.69769 208.06345 210.48706 215.85281 221.21854"
           y="312.04907"
           id="tspan166"
           style="stroke-width:0.352777">Implementación del tablero de</tspan><tspan
           x="108.82355 111.82922 117.19495 121.96806 127.33381 129.16473 131.58829 136.95404 142.31979 147.68555 152.45862 154.8822 160.24796 165.61371 168.61942 173.98514 176.40869 181.77448 187.14021 192.50598 194.92953 196.76045 202.12622 206.89929"
           y="324.74908"
           id="tspan168"
           style="stroke-width:0.352777">resultados para que los</tspan></text>
      <text
         style="font-variant:normal;font-weight:normal;font-stretch:normal;font-size:10.5833px;font-family:Helvetica;-inkscape-font-specification:Helvetica;writing-mode:lr-tb;fill:#ffffff;fill-opacity:1;fill-rule:nonzero;stroke:none;stroke-width:0.352777"
         id="text176"
         x="91.953712"
         y="337.44904"><tspan
           x="91.953712 96.726799 98.557701 103.92347 109.28921 114.65496 120.02071 125.38647 130.7522 136.11795 140.89105 143.31464 145.73822 151.10397 156.4697 161.83545 167.2012 172.56696 174.99054 180.35629 185.12936 189.90247 195.26822 200.04129 205.40704 207.83063 213.19638 215.61993 217.45087 222.81662 223.7691"
           y="337.44904"
           id="tspan172"
           style="stroke-width:0.352777">ciudadanos tengan acceso a la </tspan><tspan
           x="93.435387 95.266289 100.63204 103.05563 108.42138 111.42704 119.72439 125.09013 129.86322 131.69412 137.05988 142.42563 143.37811 145.8017 150.5748 155.94055 161.3063 164.31195 169.6777 172.10129 177.46704 179.29797 181.72154 187.08728 192.45305 197.81879 200.24237 209.13239 211.55594 216.92169 222.28745"
           y="350.14905"
           id="tspan174"
           style="stroke-width:0.352777">información  sobre el 100 % de</tspan></text>
      <text
         style="font-variant:normal;font-weight:normal;font-stretch:normal;font-size:10.5833px;font-family:Helvetica;-inkscape-font-specification:Helvetica;writing-mode:lr-tb;fill:#ffffff;fill-opacity:1;fill-rule:nonzero;stroke:none;stroke-width:0.352777"
         id="text180"
         x="89.392555"
         y="362.84906"><tspan
           x="89.392555 91.223473 96.589211 101.3623 103.78588 109.15163 114.51737 119.29044 121.12138 125.89446 127.72538 133.09113 138.45688 143.82263 148.5957 151.01929 156.38504 161.75079 167.11655 172.4823 174.90588 180.27161 185.63736 191.00311 195.77621 198.19977 203.56555 208.9313 211.93695 214.36053 216.19144 221.55722 226.33029"
           y="362.84906"
           id="tspan178"
           style="stroke-width:0.352777">las decisiones adoptadas por las</tspan></text>
      <text
         style="font-variant:normal;font-weight:normal;font-stretch:normal;font-size:10.5833px;font-family:Helvetica;-inkscape-font-specification:Helvetica;writing-mode:lr-tb;fill:#ffffff;fill-opacity:1;fill-rule:nonzero;stroke:none;stroke-width:0.352777"
         id="text184"
         x="99.912376"
         y="375.54904"><tspan
           x="99.912376 106.45289 111.81863 116.59173 121.36478 123.1957 128.56146 133.92722 139.29297 144.06604 146.48962 153.03012 156.0358 157.8667 166.16403 171.52982 174.53546 179.90121 182.32477 184.74838 191.87097 197.23671 202.60245 205.60812 208.03171 213.39746 215.82101"
           y="375.54904"
           id="tspan182"
           style="stroke-width:0.352777">Secciones Primera, Cuarta,</tspan></text>
      <text
         style="font-variant:normal;font-weight:normal;font-stretch:normal;font-size:10.5833px;font-family:Helvetica;-inkscape-font-specification:Helvetica;writing-mode:lr-tb;fill:#ffffff;fill-opacity:1;fill-rule:nonzero;stroke:none;stroke-width:0.352777"
         id="text190"
         x="94.461967"
         y="388.24905"><tspan
           x="94.461967 102.17721 107.54296 109.37388 114.73963 117.16322 122.52895 124.95254 129.72562 132.1492 133.98013 139.34589 141.76947 148.30997 153.67572 155.50662 160.87238 163.29596 168.66168 174.02747 176.45105 183.57364 188.93936 194.30511 199.07822 204.44397 206.27487 208.69846 214.06421 216.48779 221.26086"
           y="388.24905"
           id="tspan186"
           style="stroke-width:0.352777">Quinta y la Sala de Consulta y</tspan><tspan
           x="103.92347 110.46395 115.8297 118.83538 123.60845 125.43938 130.21246 132.0434 137.40912 139.8327 146.95529 148.78622 153.5593 155.39023 157.22113 159.64471 162.65036 165.07394 166.90488 172.27063 177.63638 179.46732 181.29819 186.07129 191.43704 196.8028 202.16852 204.59213 206.42307 211.78879"
           y="400.94904"
           id="tspan188"
           style="stroke-width:0.352777">Servicio Civil (finalizada la</tspan></text>
      <text
         style="font-variant:normal;font-weight:normal;font-stretch:normal;font-size:10.5833px;font-family:Helvetica;-inkscape-font-specification:Helvetica;writing-mode:lr-tb;fill:#ffffff;fill-opacity:1;fill-rule:nonzero;stroke:none;stroke-width:0.352777"
         id="text202"
         x="138.84845"
         y="413.64905"><tspan
           x="138.84845 141.85413 147.21988 151.99295 157.3587 160.36438 165.13745 170.5032 173.50888 175.93246 176.88498"
           y="413.64905"
           id="tspan192"
           style="stroke-width:0.352777">reserva). </tspan><tspan
           x="-82.957039 -76.45887 -71.135445 -68.754189 -63.430794 -58.107368 -52.783974 -50.995369 -49.206795 -47.41819 -45.036964 -39.713539 -36.750191 -31.426796 -26.103371 -23.722115 -21.93354 -19.552284 -14.228889 -8.9054337 -3.5820389 1.148735 3.5299606 4.4401169 6.821373 12.144798 13.933372 19.256798 21.638054 26.961449 32.284874 34.073479 38.804222 44.127617 48.858376"
           y="136.36574"
           id="tspan194"
           style="stroke-width:0.352777">Se habilitaron líneas  telefónicas</tspan><tspan
           x="-82.004524 -81.094368 -75.770943 -71.040199 -65.716774 -60.393379 -55.662605 -53.28138 -50.900124 -49.111519 -44.380775 -39.05735 -34.326637 -31.945381 -27.214638 -21.891212 -16.567787 -14.186531 -8.8631058 -4.1323624 0.59838104 5.9218063 10.65255 15.975975 18.357201 21.320549 26.643974 34.898949 40.222374 42.60363 47.927055"
           y="149.06573"
           id="tspan196"
           style="stroke-width:0.352777"> específicas con acceso remoto</tspan><tspan
           x="-61.028358 -55.704933 -50.381538 -47.41819 -42.094765 -39.713539 -34.390114 -29.066719 -26.103371 -20.779945 -15.45652 -13.075294 -11.28669 -6.5559464 -1.2325211 1.7307968 3.519371 8.8427963 11.224052 16.547478 18.928703 20.717308 26.040703 26.95089"
           y="161.76573"
           id="tspan198"
           style="stroke-width:0.352777">para garantizarle a la </tspan><tspan
           x="-70.19352 -65.462776 -63.674202 -58.350777 -53.027382 -47.703957 -42.380531 -37.057106 -31.733711 -29.352455 -24.02903 -21.647774 -20.737617 -15.414192 -13.625618 -11.244362 -5.9209671 -1.1901932 3.5405502 8.8639755 13.594719 18.918144 21.29937 26.622795 29.004051 30.792625 36.116051"
           y="174.46573"
           id="tspan200"
           style="stroke-width:0.352777">ciudadanía  el acceso a la</tspan></text>
      <text
         style="font-variant:normal;font-weight:normal;font-stretch:normal;font-size:10.5833px;font-family:Helvetica;-inkscape-font-specification:Helvetica;writing-mode:lr-tb;fill:#ffffff;fill-opacity:1;fill-rule:nonzero;stroke:none;stroke-width:0.352777"
         id="text206"
         x="-82.480782"
         y="187.16577"><tspan
           x="-82.480782 -80.692177 -75.368782 -70.638008 -68.256783 -66.468178 -61.737434 -59.94886 -54.625435 -52.244179 -49.862953 -44.539528 -39.808784 -37.427528 -35.046272 -30.315529 -24.992104 -16.737099 -11.413704 -9.0324478 -7.2438431 -1.9204483 0.4608078 5.1915512 10.514977 15.838402 20.569145 25.89257 27.681145 30.062401 35.385796 37.767052 43.090477 48.413902"
           y="187.16577"
           id="tspan204"
           style="stroke-width:0.352777">justicia, así como la consulta de</tspan></text>
      <text
         style="font-variant:normal;font-weight:normal;font-stretch:normal;font-size:10.5833px;font-family:Helvetica;-inkscape-font-specification:Helvetica;writing-mode:lr-tb;fill:#ffffff;fill-opacity:1;fill-rule:nonzero;stroke:none;stroke-width:0.352777"
         id="text212"
         x="-81.454201"
         y="199.86575"><tspan
           x="-81.454201 -79.665596 -74.342201 -71.960945 -66.63752 -63.674202 -55.419197 -50.095772 -45.365028 -43.576454 -38.253029 -32.929604 -30.548347 -28.167122 -26.378517 -21.055122 -18.091774 -16.3032 -11.572456 -6.2490311 -3.2856827 2.0377121 7.3611374 12.684563 18.007957 22.738731 24.527306 29.850731 32.231987 36.96273 39.343987 41.13253 46.455956 47.366142"
           y="199.86575"
           id="tspan208"
           style="stroke-width:0.352777">información, jurisprudencia y la </tspan><tspan
           x="-70.733284 -65.409859 -62.44651 -57.123116 -52.392372 -47.068947 -41.745522 -39.364265 -34.040871 -29.310097 -27.521523 -22.198097 -16.874702 -15.964516 -13.58329 -8.2598648 -2.9364395 -0.55518341 5.9429855 13.615898 20.696129 27.194298 34.274559 36.655785"
           y="212.56577"
           id="tspan210"
           style="stroke-width:0.352777">presentación  de PQRSD.</tspan></text>
    </g>
  </g>
</svg>
