<?xml version="1.0" encoding="UTF-8" standalone="no"?>
<svg
   xmlns:dc="http://purl.org/dc/elements/1.1/"
   xmlns:cc="http://creativecommons.org/ns#"
   xmlns:rdf="http://www.w3.org/1999/02/22-rdf-syntax-ns#"
   xmlns:svg="http://www.w3.org/2000/svg"
   xmlns="http://www.w3.org/2000/svg"
   width="555.2724mm"
   height="388.82257mm"
   viewBox="0 0 555.2724 388.82257"
   version="1.1"
   id="svg258">
  <defs
     id="defs252" />
  <metadata
     id="metadata255">
    <rdf:RDF>
      <cc:Work
         rdf:about="">
        <dc:format>image/svg+xml</dc:format>
        <dc:type
           rdf:resource="http://purl.org/dc/dcmitype/StillImage" />
        <dc:title></dc:title>
      </cc:Work>
    </rdf:RDF>
  </metadata>
  <g
     id="layer1"
     transform="translate(180.98421,47.96753)">
    <g
       id="g22"
       transform="matrix(0.35277777,0,0,-0.35277777,97.38892,340.1494)">
      <path
         d="m 0,0 c -74.256,0 -146.296,14.547 -214.123,43.234 -65.503,27.704 -124.328,67.367 -174.846,117.882 -50.521,50.518 -90.182,109.348 -117.886,174.851 -28.687,67.826 -43.234,139.867 -43.234,214.122 0,74.256 14.547,146.296 43.234,214.123 27.704,65.507 67.37,124.332 117.886,174.846 50.505,50.512 109.334,90.173 174.846,117.886 67.818,28.687 139.859,43.23 214.123,43.23 74.264,0 146.304,-14.543 214.121,-43.23 65.512,-27.713 124.342,-67.374 174.847,-117.886 l -12.013,-12.013 c -48.953,48.957 -105.966,87.395 -169.454,114.253 -65.71,27.791 -135.527,41.886 -207.501,41.886 -71.975,0 -141.791,-14.095 -207.503,-41.886 C -270.99,1014.44 -328.002,976.002 -376.956,927.045 -425.918,878.083 -464.36,821.074 -491.209,757.592 -519.005,691.872 -533.1,622.06 -533.1,550.089 c 0,-71.97 14.095,-141.782 41.891,-207.502 26.849,-63.48 65.291,-120.491 114.253,-169.458 48.961,-48.961 105.975,-87.4 169.453,-114.249 C -141.783,31.085 -71.971,16.99 0,16.99 c 71.969,0 141.782,14.095 207.501,41.89 63.48,26.849 120.492,65.288 169.454,114.249 48.962,48.967 87.405,105.978 114.254,169.458 27.795,65.72 41.89,135.532 41.89,207.502 v 8.495 h 235.383 v -16.99 H 550.025 C 548.956,470.342 534.446,401.2 506.854,335.967 479.151,270.464 439.488,211.634 388.968,161.116 338.45,110.601 279.625,70.938 214.121,43.234 146.296,14.547 74.255,0 0,0"
         style="fill:#f6e200;fill-opacity:1;fill-rule:nonzero;stroke:none"
         id="path24" />
    </g>
    <g
       id="g34"
       transform="matrix(0.35277777,0,0,-0.35277777,347.92795,171.30906)">
      <path
         d="M 0,0 -11.59,12.444 49.774,69.47 -11.59,126.511 0,138.954 74.722,69.47 Z"
         style="fill:#f6e200;fill-opacity:1;fill-rule:nonzero;stroke:none"
         id="path36" />
    </g>
    <g
       id="g42"
       transform="matrix(0.35277777,0,0,-0.35277777,284.66153,143.86888)">
      <path
         d="m 0,0 c 0.042,-2.763 0.069,-5.527 0.069,-8.297 0,-71.97 -14.093,-141.782 -41.889,-207.502 -26.849,-63.479 -65.292,-120.491 -114.253,-169.458 -48.961,-48.961 -105.975,-87.4 -169.453,-114.249 -65.72,-27.795 -135.533,-41.89 -207.503,-41.89 -71.97,0 -141.783,14.095 -207.501,41.89 -63.481,26.849 -120.492,65.288 -169.454,114.249 -48.962,48.967 -87.406,105.979 -114.254,169.458 -27.795,65.72 -41.89,135.532 -41.89,207.502 v 8.495 h -235.384 v -16.99 h 218.457 c 1.07,-71.252 15.579,-140.394 43.171,-205.627 27.703,-65.503 67.365,-124.333 117.887,-174.851 50.518,-50.515 109.342,-90.178 174.846,-117.881 67.826,-28.688 139.867,-43.235 214.122,-43.235 74.255,0 146.296,14.547 214.122,43.235 65.504,27.703 124.329,67.366 174.845,117.881 50.522,50.518 90.184,109.348 117.887,174.851 28.688,67.826 43.235,139.867 43.235,214.122 0,2.77 -0.028,5.534 -0.068,8.297 z"
         style="fill:#f6e200;fill-opacity:1;fill-rule:nonzero;stroke:none"
         id="path44" />
    </g>
    <g
       id="g46"
       transform="matrix(0.35277777,0,0,-0.35277777,-154.62395,171.30906)">
      <path
         d="M 0,0 11.59,12.444 -49.774,69.47 11.59,126.511 0,138.954 -74.722,69.47 Z"
         style="fill:#f6e200;fill-opacity:1;fill-rule:nonzero;stroke:none"
         id="path48" />
    </g>
    <text
       style="font-variant:normal;font-weight:normal;font-stretch:normal;font-size:21.1667px;font-family:Helvetica;-inkscape-font-specification:Helvetica;writing-mode:lr-tb;fill:#ffffff;fill-opacity:1;fill-rule:nonzero;stroke:none;stroke-width:0.352777"
       id="text228"
       x="-39.45993"
       y="95.133148"><tspan
         x="-39.45993 -25.045431 -14.144613 -3.2437649 7.6570683 12.673567 16.504728 27.405577 31.236738 37.4174 42.43388 46.265087 57.165905 66.881409 71.897903 81.613419 92.514236 109.27824 120.17906 131.07991 136.09642 146.99724 157.89809 167.61357 171.44478 182.34557 192.06108 197.07756 207.97838 218.87923 223.89574 230.0764 240.97725"
         y="95.133148"
         id="tspan218"
         style="stroke-width:0.352777">Redefinir las competencias entre</tspan><tspan
         x="-37.703102 -26.802275 -22.971106 -17.954596 -3.5400906 7.3607273 18.26158 27.977064 38.877895 42.709057 53.609921 58.6264 69.527252 80.428055 85.444565 98.694901 108.41042 113.42693 124.32774 135.22856 146.12941 151.14592 156.16243 161.17891 167.35954 171.19072 182.09157 192.99242 203.89323 214.79402 218.62526 229.52605 239.24156"
         y="123.3483"
         id="tspan220"
         style="stroke-width:0.352777">el Consejo de Estado, tribunales</tspan><tspan
         x="-33.99894 -24.283422 -19.266943 -15.435781 -4.5349178 5.1805668 16.081404 26.982237 37.883068 48.783886 58.499416 63.515896 74.416748 85.317551 102.08156 105.9127 116.81358 120.64473 130.36024 135.37675 141.55742 152.45827 157.47475 161.30592 171.02141 181.92223 191.63774 196.65425 207.55507 218.45589 224.63655 235.5374"
         y="151.56348"
         id="tspan222"
         style="stroke-width:0.352777">y juzgados administrativos para</tspan><tspan
         x="-20.155935 -16.324774 -5.4239407 5.4769077 11.657576 22.558409 28.739088 33.755566 44.656414 55.557232 60.573742 71.474564 82.375412 93.27626 97.107407 100.93858 104.76973 115.67058 121.85124 125.68242 136.58324 141.59975 152.50056 158.68123 175.44524 186.34608 197.24687 201.07811 210.79356 221.69438"
         y="179.77864"
         id="tspan224"
         style="stroke-width:0.352777">lograr un equilibrio armónico</tspan><tspan
         x="-3.9422512 6.9585667 17.859404 22.875898 29.056578 39.957409 44.973888 54.689404 65.590225 75.30574 80.32225 90.037704 100.93858 117.70256 128.60338 139.50423 144.52077 155.42159 166.3224 176.03789 179.86906 190.76988 200.4854 205.50188"
         y="207.9938"
         id="tspan226"
         style="stroke-width:0.352777">entre sus competencias.</tspan></text>
  </g>
</svg>
