<?xml version="1.0" encoding="UTF-8" standalone="no"?>
<svg
   xmlns:dc="http://purl.org/dc/elements/1.1/"
   xmlns:cc="http://creativecommons.org/ns#"
   xmlns:rdf="http://www.w3.org/1999/02/22-rdf-syntax-ns#"
   xmlns:svg="http://www.w3.org/2000/svg"
   xmlns="http://www.w3.org/2000/svg"
   width="555.2724mm"
   height="391.64447mm"
   viewBox="0 0 555.2724 391.64447"
   version="1.1"
   id="svg255">
  <defs
     id="defs249" />
  <metadata
     id="metadata252">
    <rdf:RDF>
      <cc:Work
         rdf:about="">
        <dc:format>image/svg+xml</dc:format>
        <dc:type
           rdf:resource="http://purl.org/dc/dcmitype/StillImage" />
        <dc:title></dc:title>
      </cc:Work>
    </rdf:RDF>
  </metadata>
  <g
     id="layer1"
     transform="translate(174.82669,62.018658)">
    <g
       id="g22"
       transform="matrix(0.35277777,0,0,-0.35277777,101.42977,326.09792)">
      <path
         d="m 0,0 c -74.256,0 -146.296,14.547 -214.123,43.234 -65.503,27.704 -124.328,67.366 -174.846,117.882 -50.521,50.518 -90.182,109.347 -117.886,174.851 -28.687,67.826 -43.234,139.866 -43.234,214.122 0,74.255 14.547,146.296 43.234,214.122 27.704,65.508 67.37,124.333 117.886,174.846 50.505,50.513 109.334,90.174 174.846,117.886 67.818,28.688 139.859,43.23 214.123,43.23 74.264,0 146.304,-14.542 214.121,-43.23 65.512,-27.712 124.342,-67.373 174.847,-117.886 l -12.013,-12.013 c -48.953,48.958 -105.966,87.396 -169.454,114.254 -65.71,27.791 -135.527,41.886 -207.501,41.886 -71.975,0 -141.791,-14.095 -207.503,-41.886 -63.487,-26.858 -120.499,-65.296 -169.453,-114.254 -48.962,-48.962 -87.404,-105.97 -114.253,-169.453 -27.796,-65.719 -41.891,-135.532 -41.891,-207.502 0,-71.971 14.095,-141.783 41.891,-207.503 26.849,-63.479 65.291,-120.491 114.253,-169.457 48.961,-48.962 105.975,-87.4 169.453,-114.249 C -141.783,31.085 -71.971,16.99 0,16.99 c 71.969,0 141.782,14.095 207.501,41.89 63.48,26.849 120.492,65.287 169.454,114.249 48.962,48.966 87.405,105.978 114.254,169.457 27.795,65.72 41.89,135.532 41.89,207.503 v 8.495 h 235.383 v -16.99 H 550.025 C 548.956,470.342 534.446,401.2 506.854,335.967 479.151,270.463 439.488,211.634 388.968,161.116 338.45,110.6 279.625,70.938 214.121,43.234 146.296,14.547 74.255,0 0,0"
         style="fill:#f6e200;fill-opacity:1;fill-rule:nonzero;stroke:none"
         id="path24" />
    </g>
    <g
       id="g34"
       transform="matrix(0.35277777,0,0,-0.35277777,354.08547,160.07981)">
      <path
         d="M 0,0 -11.59,12.444 49.774,69.47 -11.59,126.511 0,138.954 74.722,69.47 Z"
         style="fill:#f6e200;fill-opacity:1;fill-rule:nonzero;stroke:none"
         id="path36" />
    </g>
    <g
       id="g42"
       transform="matrix(0.35277777,0,0,-0.35277777,290.81905,132.63963)">
      <path
         d="m 0,0 c 0.042,-2.763 0.069,-5.527 0.069,-8.297 0,-71.971 -14.093,-141.783 -41.889,-207.503 -26.849,-63.478 -65.292,-120.491 -114.253,-169.457 -48.961,-48.962 -105.975,-87.4 -169.453,-114.249 -65.72,-27.795 -135.533,-41.89 -207.503,-41.89 -71.97,0 -141.783,14.095 -207.501,41.89 -63.481,26.849 -120.492,65.287 -169.454,114.249 -48.962,48.966 -87.406,105.979 -114.254,169.457 -27.795,65.72 -41.89,135.532 -41.89,207.503 v 8.495 h -235.384 v -16.99 h 218.457 c 1.07,-71.252 15.579,-140.394 43.171,-205.628 27.703,-65.503 67.365,-124.332 117.887,-174.85 50.518,-50.516 109.342,-90.178 174.846,-117.881 67.826,-28.688 139.867,-43.235 214.122,-43.235 74.255,0 146.296,14.547 214.122,43.235 65.504,27.703 124.329,67.365 174.845,117.881 50.522,50.518 90.184,109.347 117.887,174.85 28.688,67.827 43.235,139.867 43.235,214.123 0,2.769 -0.028,5.534 -0.068,8.297 z"
         style="fill:#f6e200;fill-opacity:1;fill-rule:nonzero;stroke:none"
         id="path44" />
    </g>
    <g
       id="g46"
       transform="matrix(0.35277777,0,0,-0.35277777,-148.46643,160.07981)">
      <path
         d="M 0,0 11.59,12.444 -49.774,69.47 11.59,126.511 0,138.954 -74.722,69.47 Z"
         style="fill:#f6e200;fill-opacity:1;fill-rule:nonzero;stroke:none"
         id="path48" />
    </g>
    <text
       style="font-variant:normal;font-weight:normal;font-stretch:normal;font-size:21.1667px;font-family:Helvetica;-inkscape-font-specification:Helvetica;writing-mode:lr-tb;fill:#ffffff;fill-opacity:1;fill-rule:nonzero;stroke:none;stroke-width:0.352777"
       id="text226"
       x="-11.208323"
       y="97.406342"><tspan
         x="-11.208323 2.042012 18.806004 29.706837 33.537998 38.554508 49.455341 54.471836 58.303013 69.20385 74.220345 85.121162 90.137672 101.03852 107.21918 112.23566 123.13651 128.15302 139.05383 149.95468 154.97116 158.80234 169.70319 179.41867 184.43518 188.26633 197.98181 201.81302 212.71384"
         y="97.406342"
         id="tspan218"
         style="stroke-width:0.352777">Amplía la oferta de justicia</tspan><tspan
         x="-30.935665 -21.22015 -10.319316 0.58150166 5.5980115 16.498844 27.399677 37.115177 40.946339 51.847172 61.562687 72.463509 77.480003 88.380836 99.281685 116.04569 119.87684 130.77768 134.60886 144.32434 149.34082 155.52148 166.42233 171.43884 175.26999 184.98553 195.88635 200.90283 210.61832 221.51917 232.41998"
         y="125.62152"
         id="tspan220"
         style="stroke-width:0.352777">contenciosa administrativa con</tspan><tspan
         x="-29.453991 -18.553158 -7.6523242 -2.6358292 14.128179 25.029011 34.744495 45.645344 51.825993 56.842503 67.74334 78.644188 95.40818 106.309 112.48969 123.39051 128.40698 139.30786 150.20868 160.24167 164.07285 174.97366 185.87448 195.59 206.49081 216.20636 221.22284 230.93832"
         y="153.83669"
         id="tspan222"
         style="stroke-width:0.352777">un mayor número de jueces y</tspan><tspan
         x="-9.8748121 -4.8583331 1.3223464 5.1535077 16.05434 26.955189 37.856007 48.75684 52.588001 63.488834 73.204353 78.220833 89.121681 100.0225 116.78654 120.61768 131.51849 135.34967 145.06519 150.08167 156.26233 167.16315 172.17969 176.01083 185.72635 196.6272 206.34268 211.35916"
         y="182.05185"
         id="tspan224"
         style="stroke-width:0.352777">tribunales administrativos.</tspan></text>
  </g>
</svg>
