<?xml version="1.0" encoding="UTF-8" standalone="no"?>
<svg
   xmlns:dc="http://purl.org/dc/elements/1.1/"
   xmlns:cc="http://creativecommons.org/ns#"
   xmlns:rdf="http://www.w3.org/1999/02/22-rdf-syntax-ns#"
   xmlns:svg="http://www.w3.org/2000/svg"
   xmlns="http://www.w3.org/2000/svg"
   width="471.66403mm"
   height="388.11658mm"
   viewBox="0 0 471.66403 388.11658"
   version="1.1"
   id="svg279">
  <defs
     id="defs273" />
  <metadata
     id="metadata276">
    <rdf:RDF>
      <cc:Work
         rdf:about="">
        <dc:format>image/svg+xml</dc:format>
        <dc:type
           rdf:resource="http://purl.org/dc/dcmitype/StillImage" />
        <dc:title></dc:title>
      </cc:Work>
    </rdf:RDF>
  </metadata>
  <g
     id="layer1"
     transform="translate(128.19869,63.240988)">
    <g
       id="g22"
       transform="matrix(0.35277777,0,0,-0.35277777,65.86048,324.87559)">
      <path
         d="m 0,0 c -74.255,0 -146.296,14.547 -214.123,43.233 -65.503,27.705 -124.328,67.367 -174.845,117.883 -50.522,50.518 -90.184,109.347 -117.887,174.85 -28.687,67.827 -43.234,139.867 -43.234,214.123 0,74.255 14.547,146.296 43.234,214.122 27.703,65.508 67.369,124.333 117.887,174.846 50.504,50.513 109.334,90.174 174.845,117.886 67.818,28.688 139.859,43.23 214.123,43.23 74.264,0 146.304,-14.542 214.121,-43.23 65.512,-27.712 124.342,-67.373 174.847,-117.886 l -12.013,-12.013 c -48.953,48.958 -105.966,87.396 -169.454,114.254 -65.71,27.791 -135.527,41.886 -207.501,41.886 -71.975,0 -141.792,-14.095 -207.503,-41.886 -63.487,-26.858 -120.499,-65.296 -169.453,-114.254 -48.961,-48.962 -87.404,-105.97 -114.253,-169.453 -27.795,-65.72 -41.89,-135.532 -41.89,-207.502 0,-71.971 14.095,-141.783 41.89,-207.503 26.849,-63.479 65.292,-120.491 114.253,-169.457 48.961,-48.962 105.975,-87.4 169.453,-114.249 C -141.783,31.085 -71.97,16.99 0,16.99 c 71.969,0 141.782,14.095 207.501,41.89 63.48,26.849 120.492,65.287 169.454,114.249 48.962,48.966 87.405,105.978 114.254,169.457 27.795,65.72 41.89,135.532 41.89,207.503 v 8.495 h 235.383 v -16.99 H 550.025 C 548.956,470.342 534.446,401.2 506.854,335.966 479.151,270.463 439.488,211.634 388.968,161.116 338.45,110.6 279.625,70.938 214.121,43.233 146.296,14.547 74.255,0 0,0"
         style="fill:#f6e200;fill-opacity:1;fill-rule:nonzero;stroke:none"
         id="path24" />
    </g>
    <g
       id="g26"
       transform="matrix(0.35277777,0,0,-0.35277777,317.10509,155.32971)">
      <path
         d="M 0,0 -11.59,12.444 49.774,69.469 -11.59,126.511 0,138.954 74.722,69.469 Z"
         style="fill:#f6e200;fill-opacity:1;fill-rule:nonzero;stroke:none"
         id="path28" />
    </g>
    <text
       style="font-variant:normal;font-weight:normal;font-stretch:normal;font-size:21.1667px;font-family:Helvetica;-inkscape-font-specification:Helvetica;writing-mode:lr-tb;fill:#ffffff;fill-opacity:1;fill-rule:nonzero;stroke:none;stroke-width:0.352777"
       id="text216"
       x="-83.246193"
       y="122.30628"><tspan
         x="-83.246193 -69.995857 -59.095039 -55.263863 -51.432686 -47.601509 -37.886024 -26.985174 -20.80451 -15.788015 -4.8871975 -1.0560361 3.960474 8.976984 15.157648 26.058481 42.822456 46.653648 51.670143 62.570976 67.587471 78.488304 89.389122 94.405647 98.236809 109.13765 118.85316 123.86963 134.77049 140.95116 151.85194 161.56752 172.46834 182.18382 193.08467 202.80019 207.8167 217.53215"
         y="122.30628"
         id="tspan212"
         style="stroke-width:0.352777">Agilizar el trámite de los procesos y</tspan><tspan
         x="-55.285011 -49.104347 -38.203529 -27.302679 -16.401861 -6.6863461 -2.8551846 3.3254795 8.3419743 12.173151 23.073969 28.090479 37.805962 48.706825 59.607643 70.508476 81.409294 91.124809 96.141289 99.97245 110.87331 121.77413 126.79066 130.62181 141.52269 152.42348 156.25465 165.97017 169.80135 180.70219 184.53337 189.54985"
         y="150.52145"
         id="tspan214"
         style="stroke-width:0.352777">reducir la congestión judicial.</tspan></text>
  </g>
</svg>
