<?xml version="1.0" encoding="UTF-8" standalone="no"?>
<svg
   xmlns:dc="http://purl.org/dc/elements/1.1/"
   xmlns:cc="http://creativecommons.org/ns#"
   xmlns:rdf="http://www.w3.org/1999/02/22-rdf-syntax-ns#"
   xmlns:svg="http://www.w3.org/2000/svg"
   xmlns="http://www.w3.org/2000/svg"
   width="549.12372mm"
   height="388.11658mm"
   viewBox="0 0 549.12372 388.11658"
   version="1.1"
   id="svg263">
  <defs
     id="defs257" />
  <metadata
     id="metadata260">
    <rdf:RDF>
      <cc:Work
         rdf:about="">
        <dc:format>image/svg+xml</dc:format>
        <dc:type
           rdf:resource="http://purl.org/dc/dcmitype/StillImage" />
        <dc:title></dc:title>
      </cc:Work>
    </rdf:RDF>
  </metadata>
  <g
     id="layer1"
     transform="translate(156.99955,57.483298)">
    <g
       id="g22"
       transform="matrix(0.35277777,0,0,-0.35277777,121.02081,330.63328)">
      <path
         d="m 0,0 c -74.256,0 -146.296,14.547 -214.123,43.234 -65.503,27.704 -124.328,67.366 -174.846,117.882 -50.521,50.518 -90.182,109.347 -117.886,174.85 -28.687,67.827 -43.234,139.867 -43.234,214.123 0,74.255 14.547,146.296 43.234,214.122 27.704,65.508 67.37,124.333 117.886,174.846 50.505,50.513 109.334,90.174 174.846,117.886 67.818,28.688 139.859,43.23 214.123,43.23 74.264,0 146.304,-14.542 214.121,-43.23 65.512,-27.712 124.342,-67.373 174.847,-117.886 l -12.013,-12.013 c -48.953,48.958 -105.966,87.396 -169.454,114.254 -65.71,27.791 -135.527,41.886 -207.501,41.886 -71.975,0 -141.791,-14.095 -207.503,-41.886 -63.487,-26.858 -120.499,-65.296 -169.453,-114.254 -48.962,-48.962 -87.404,-105.97 -114.253,-169.453 -27.796,-65.719 -41.891,-135.532 -41.891,-207.502 0,-71.971 14.095,-141.783 41.891,-207.503 26.849,-63.479 65.291,-120.491 114.253,-169.457 48.961,-48.962 105.975,-87.4 169.453,-114.249 C -141.783,31.085 -71.971,16.99 0,16.99 c 71.969,0 141.782,14.095 207.501,41.89 63.48,26.849 120.492,65.287 169.454,114.249 48.962,48.966 87.405,105.978 114.254,169.457 27.795,65.72 41.89,135.532 41.89,207.503 v 8.495 h 235.383 v -16.99 H 550.025 C 548.956,470.342 534.446,401.2 506.854,335.966 479.151,270.463 439.488,211.634 388.968,161.116 338.45,110.6 279.625,70.938 214.121,43.234 146.296,14.547 74.255,0 0,0"
         style="fill:#f6e200;fill-opacity:1;fill-rule:nonzero;stroke:none"
         id="path24" />
    </g>
    <g
       id="g34"
       transform="matrix(0.35277777,0,0,-0.35277777,308.64619,133.29445)">
      <path
         d="m 0,0 c 0.042,-2.763 0.069,-5.527 0.069,-8.297 0,-71.971 -14.093,-141.783 -41.889,-207.503 -26.849,-63.478 -65.292,-120.491 -114.253,-169.457 -48.961,-48.962 -105.975,-87.4 -169.453,-114.249 -65.72,-27.795 -135.533,-41.89 -207.503,-41.89 -71.97,0 -141.783,14.095 -207.501,41.89 -63.481,26.849 -120.492,65.287 -169.454,114.249 -48.962,48.966 -87.406,105.979 -114.254,169.457 -27.795,65.72 -41.89,135.532 -41.89,207.503 v 8.495 h -235.384 v -16.99 h 218.457 c 1.07,-71.252 15.579,-140.394 43.171,-205.628 27.703,-65.503 67.365,-124.332 117.887,-174.85 50.518,-50.516 109.342,-90.178 174.846,-117.881 67.826,-28.688 139.867,-43.235 214.122,-43.235 74.255,0 146.296,14.547 214.122,43.235 65.504,27.703 124.329,67.365 174.845,117.881 50.522,50.518 90.184,109.347 117.887,174.85 28.688,67.827 43.235,139.867 43.235,214.123 0,2.769 -0.028,5.534 -0.068,8.297 z"
         style="fill:#f6e200;fill-opacity:1;fill-rule:nonzero;stroke:none"
         id="path36" />
    </g>
    <g
       id="g38"
       transform="matrix(0.35277777,0,0,-0.35277777,-130.63929,160.73464)">
      <path
         d="M 0,0 11.59,12.444 -49.774,69.47 11.59,126.511 0,138.954 -74.722,69.47 Z"
         style="fill:#f6e200;fill-opacity:1;fill-rule:nonzero;stroke:none"
         id="path40" />
    </g>
    <text
       style="font-variant:normal;font-weight:normal;font-stretch:normal;font-size:17.6389px;font-family:Helvetica;-inkscape-font-specification:Helvetica;writing-mode:lr-tb;fill:#ffffff;fill-opacity:1;fill-rule:nonzero;stroke:none;stroke-width:0.352777"
       id="text230"
       x="-16.489141"
       y="33.342037"><tspan
         x="-16.489141 -12.538031 -3.6833265 4.1836166 13.038338 17.959602 26.814312 35.669033 40.590298 49.445004 53.39613 58.317379 67.172089 76.026825 78.990158 87.844879 95.711823 99.662933 108.51767 113.4389 122.29361 130.16058 133.1239 140.99088 149.84558 157.71252 161.66364 170.51834 179.37308 183.32419 197.06485 205.91962 209.87073 218.72543 223.6467 226.61002 235.46475 239.41586 248.2706 257.12527"
         y="33.342037"
         id="tspan210"
         style="stroke-width:0.352777">Incorpora reglas precisas en materia de</tspan><tspan
         x="9.5811234 13.532234 18.453484 27.308208 36.16293 44.029888 46.993206 54.860149 57.823483 66.678207 75.532944 79.484039 87.350998 91.302094 99.169037 102.13239 110.98709 119.84183 128.69656 136.56348 139.52682 148.38156 152.33264 156.28375 159.2471 168.10184 175.96875 179.91989 188.7746 197.62933 206.48404 214.35098 223.20572 231.07266"
         y="57.683697"
         id="tspan212"
         style="stroke-width:0.352777">transición y vigencia: las nuevas</tspan><tspan
         x="-12.555685 -4.6887436 4.1659775 17.906685 26.76141 35.616116 39.567242 48.421963 57.276684 65.143639 68.106964 76.961685 84.828644 88.779739 97.63446 106.4892 110.44028 115.36154 124.21628 129.13751 137.99225 146.84695 150.79807 159.6528 163.60391 168.52515 177.37988 186.23462 189.19794 194.11917 198.07028 206.92502 215.77972 220.70099 229.55569 233.50684 236.47015 245.32489 253.19183"
         y="82.025368"
         id="tspan214"
         style="stroke-width:0.352777">competencias entrarán a regir para los</tspan><tspan
         x="-14.53124 -5.6765213 -0.75525647 8.0994644 15.966408 24.821117 32.688061 41.542797 49.40974 53.360851 62.215572 71.070297 79.925018 83.876129 91.743073 100.59781 104.54892 107.51224 116.36697 119.33029 127.19724 130.16058 139.01529 147.87003 151.82114 160.67587 169.53055 177.39752 186.25226 195.10696 203.9617 211.82861 215.77972 224.63446 233.4892 237.44031 246.29501 255.14975"
         y="106.36703"
         id="tspan216"
         style="stroke-width:0.352777">procesos que se inicien después de un</tspan><tspan
         x="-15.37789 -6.5231705 2.3315356 11.186256 15.137383 23.992107 32.846828 36.797924 45.652645 50.57391 59.428616 73.169327 82.024048 84.987389 93.842102 102.69684 111.55154 120.40625 124.35739 127.32071 136.17542 140.12653 143.0899 151.94461 158.51157 162.46268 166.41379 177.22641 185.09338 189.04449 197.8992 206.75394 214.62085 217.58423 221.54236 225.4935 229.44461 238.29929 247.15405 256.00873"
         y="130.70871"
         id="tspan218"
         style="stroke-width:0.352777">año de promulgada la ley. Es decir, que</tspan><tspan
         x="-13.049566 -10.086233 -1.2314985 6.6354446 10.58654 19.441261 24.362514 33.217236 41.084179 49.9389 57.805843 66.660583 74.527527 78.478638 87.333344 96.188065 105.04279 108.9939 116.86084 125.71558 129.66669 137.53363 140.49695 149.35168 158.20642 167.06113 175.91586 179.86694 183.81805 188.73935 197.59402 211.33472 214.29807 218.24921 227.10391 235.95862 244.81335 253.66806"
         y="155.05037"
         id="tspan220"
         style="stroke-width:0.352777">los procesos que se vienen tramitando</tspan><tspan
         x="0.72640246 9.5811234 18.435844 22.386974 31.24168 34.205013 38.156124 49.9389 58.793629 67.648369 75.515289 84.370003 87.333344 96.188065 100.13919 108.9939 117.84863 121.79974 132.61237 140.47934 144.43045 153.28516 162.13989 170.99463 174.94574 182.81265 191.66739 195.6185 204.47321 213.32794 222.18265 231.03738 239.89209"
         y="179.39204"
         id="tspan222"
         style="stroke-width:0.352777">en el Consejo de Estado se deben</tspan><tspan
         x="0.19722766 4.1483536 7.1116867 15.966408 24.821117 27.784466 30.747799 38.614742 47.469463 52.390713 56.341824 65.196548 68.159866 71.123215 75.074326 79.025436 82.976562 91.831268 100.68597 104.63712 118.37781 127.23251 136.08725 144.94199 148.89307 157.74777 166.60251 175.45724 179.40836 188.26306 197.1178 201.06891 208.93585 217.79056 222.71182 231.56656 240.42126"
         y="203.7337"
         id="tspan224"
         style="stroke-width:0.352777">finalizar allí, de modo que no serán</tspan><tspan
         x="-0.77291089 8.08181 16.936531 24.803493 27.766827 36.621548 45.476254 54.330975 62.197933 66.149048 75.003769 78.954865 81.918228 90.772934 98.639877 107.4946 116.3493 125.20404 134.05875 141.92572 145.87683 154.73157 157.69489 161.646 170.50073 174.45184 178.40295 183.32419 186.28751 195.14224 203.99695 212.85168 221.70642 224.66974 233.52444 241.39142"
         y="228.07535"
         id="tspan226"
         style="stroke-width:0.352777">enviados a juzgados ni a tribunales</tspan><tspan
         x="66.678207 75.532944 84.387665 98.128342 101.09167 109.94641 112.90973 120.77667 124.72781 129.64905 138.50378 142.4549 145.41821 153.28516 162.13989 170.00684 173.95795"
         y="252.41701"
         id="tspan228"
         style="stroke-width:0.352777">administrativos.</tspan></text>
  </g>
</svg>
