<?xml version="1.0" encoding="UTF-8" standalone="no"?>
<svg
   xmlns:dc="http://purl.org/dc/elements/1.1/"
   xmlns:cc="http://creativecommons.org/ns#"
   xmlns:rdf="http://www.w3.org/1999/02/22-rdf-syntax-ns#"
   xmlns:svg="http://www.w3.org/2000/svg"
   xmlns="http://www.w3.org/2000/svg"
   width="555.2724mm"
   height="389.17538mm"
   viewBox="0 0 555.2724 389.17538"
   version="1.1"
   id="svg249">
  <defs
     id="defs243" />
  <metadata
     id="metadata246">
    <rdf:RDF>
      <cc:Work
         rdf:about="">
        <dc:format>image/svg+xml</dc:format>
        <dc:type
           rdf:resource="http://purl.org/dc/dcmitype/StillImage" />
        <dc:title></dc:title>
      </cc:Work>
    </rdf:RDF>
  </metadata>
  <g
     id="layer1"
     transform="translate(177.15392,31.6489)">
    <g
       id="g22"
       transform="matrix(0.35277777,0,0,-0.35277777,99.455305,356.46803)">
      <path
         d="m 0,0 c -74.256,0 -146.296,14.547 -214.123,43.234 -65.503,27.704 -124.328,67.367 -174.846,117.882 -50.521,50.518 -90.182,109.348 -117.886,174.851 -28.687,67.826 -43.234,139.867 -43.234,214.122 0,74.256 14.547,146.296 43.234,214.123 27.704,65.507 67.37,124.332 117.886,174.846 50.505,50.512 109.334,90.173 174.846,117.886 67.818,28.687 139.859,43.23 214.123,43.23 74.264,0 146.304,-14.543 214.121,-43.23 65.512,-27.713 124.342,-67.374 174.847,-117.886 l -12.013,-12.013 c -48.953,48.957 -105.966,87.395 -169.454,114.253 -65.71,27.791 -135.527,41.886 -207.501,41.886 -71.975,0 -141.791,-14.095 -207.503,-41.886 C -270.99,1014.44 -328.002,976.002 -376.956,927.045 -425.918,878.083 -464.36,821.074 -491.209,757.592 -519.005,691.872 -533.1,622.06 -533.1,550.089 c 0,-71.97 14.095,-141.782 41.891,-207.502 26.849,-63.48 65.291,-120.491 114.253,-169.458 48.961,-48.961 105.975,-87.4 169.453,-114.249 C -141.783,31.085 -71.971,16.99 0,16.99 c 71.969,0 141.782,14.095 207.501,41.89 63.48,26.849 120.492,65.288 169.454,114.249 48.962,48.967 87.405,105.978 114.254,169.458 27.795,65.72 41.89,135.532 41.89,207.502 v 8.495 h 235.383 v -16.99 H 550.025 C 548.956,470.342 534.446,401.2 506.854,335.967 479.151,270.464 439.488,211.634 388.968,161.116 338.45,110.601 279.625,70.938 214.121,43.234 146.296,14.547 74.255,0 0,0"
         style="fill:#f6e200;fill-opacity:1;fill-rule:nonzero;stroke:none"
         id="path24" />
    </g>
    <g
       id="g34"
       transform="matrix(0.35277777,0,0,-0.35277777,351.75824,187.9805)">
      <path
         d="M 0,0 -11.59,12.444 49.774,69.47 -11.59,126.511 0,138.954 74.722,69.47 Z"
         style="fill:#f6e200;fill-opacity:1;fill-rule:nonzero;stroke:none"
         id="path36" />
    </g>
    <g
       id="g42"
       transform="matrix(0.35277777,0,0,-0.35277777,288.49182,160.54031)">
      <path
         d="m 0,0 c 0.042,-2.763 0.069,-5.527 0.069,-8.297 0,-71.97 -14.093,-141.782 -41.889,-207.502 -26.849,-63.479 -65.292,-120.491 -114.253,-169.458 -48.961,-48.961 -105.975,-87.4 -169.453,-114.249 -65.72,-27.795 -135.533,-41.89 -207.503,-41.89 -71.97,0 -141.783,14.095 -207.501,41.89 -63.481,26.849 -120.492,65.288 -169.454,114.249 -48.962,48.967 -87.406,105.979 -114.254,169.458 -27.795,65.72 -41.89,135.532 -41.89,207.502 v 8.495 h -235.384 v -16.99 h 218.457 c 1.07,-71.252 15.579,-140.394 43.171,-205.627 27.703,-65.503 67.365,-124.333 117.887,-174.851 50.518,-50.515 109.342,-90.178 174.846,-117.881 67.826,-28.688 139.867,-43.235 214.122,-43.235 74.255,0 146.296,14.547 214.122,43.235 65.504,27.703 124.329,67.366 174.845,117.881 50.522,50.518 90.184,109.348 117.887,174.851 28.688,67.826 43.235,139.867 43.235,214.122 0,2.77 -0.028,5.534 -0.068,8.297 z"
         style="fill:#f6e200;fill-opacity:1;fill-rule:nonzero;stroke:none"
         id="path44" />
    </g>
    <g
       id="g46"
       transform="matrix(0.35277777,0,0,-0.35277777,-150.79366,187.9805)">
      <path
         d="M 0,0 11.59,12.444 -49.774,69.47 11.59,126.511 0,138.954 -74.722,69.47 Z"
         style="fill:#f6e200;fill-opacity:1;fill-rule:nonzero;stroke:none"
         id="path48" />
    </g>
    <text
       style="font-variant:normal;font-weight:normal;font-stretch:normal;font-size:21.1667px;font-family:Helvetica;-inkscape-font-specification:Helvetica;writing-mode:lr-tb;fill:#ffffff;fill-opacity:1;fill-rule:nonzero;stroke:none;stroke-width:0.352777"
       id="text222"
       x="20.196417"
       y="155.86743"><tspan
         x="20.196417 33.446754 37.277912 48.178749 57.894249 62.910759 73.811577 79.992256 85.008736 88.839943 99.74073 109.45628 114.47276 125.37357 136.27443 142.45509 159.2191 170.11992 179.8354"
         y="155.86743"
         id="tspan218"
         style="stroke-width:0.352777">Ajustar las normas</tspan><tspan
         x="-11.045589 -1.3300896 9.5707455 20.471579 26.652243 37.553074 42.569584 48.750252 59.651085 69.36657 80.267403 86.448067 96.163582 107.06443 116.77991 121.79639 132.69725 138.87791 149.77873 153.60989 164.51076 175.41158 181.59224 185.42342 196.32426 206.03975 211.05626"
         y="184.0826"
         id="tspan220"
         style="stroke-width:0.352777">sobre recursos ordinarios.</tspan></text>
  </g>
</svg>
