<?xml version="1.0" encoding="UTF-8" standalone="no"?>
<svg
   xmlns:dc="http://purl.org/dc/elements/1.1/"
   xmlns:cc="http://creativecommons.org/ns#"
   xmlns:rdf="http://www.w3.org/1999/02/22-rdf-syntax-ns#"
   xmlns:svg="http://www.w3.org/2000/svg"
   xmlns="http://www.w3.org/2000/svg"
   width="555.2724mm"
   height="388.11978mm"
   viewBox="0 0 555.2724 388.11978"
   version="1.1"
   id="svg255">
  <defs
     id="defs249" />
  <metadata
     id="metadata252">
    <rdf:RDF>
      <cc:Work
         rdf:about="">
        <dc:format>image/svg+xml</dc:format>
        <dc:type
           rdf:resource="http://purl.org/dc/dcmitype/StillImage" />
        <dc:title></dc:title>
      </cc:Work>
    </rdf:RDF>
  </metadata>
  <g
     id="layer1"
     transform="translate(170.22869,53.117898)">
    <g
       id="g22"
       transform="matrix(0.35277777,0,0,-0.35277777,107.43888,334.99868)">
      <path
         d="m 0,0 c -74.256,0 -146.296,14.546 -214.123,43.233 -65.503,27.704 -124.328,67.367 -174.846,117.883 -50.521,50.517 -90.182,109.347 -117.886,174.85 -28.687,67.826 -43.234,139.867 -43.234,214.122 0,74.256 14.547,146.297 43.234,214.123 27.704,65.507 67.37,124.333 117.886,174.846 50.505,50.512 109.334,90.174 174.846,117.886 67.818,28.687 139.859,43.23 214.123,43.23 74.264,0 146.304,-14.543 214.121,-43.23 65.512,-27.712 124.342,-67.374 174.847,-117.886 l -12.013,-12.013 c -48.953,48.957 -105.966,87.395 -169.454,114.253 -65.71,27.791 -135.527,41.886 -207.501,41.886 -71.975,0 -141.791,-14.095 -207.503,-41.886 -63.487,-26.858 -120.499,-65.296 -169.453,-114.253 -48.962,-48.962 -87.404,-105.971 -114.253,-169.453 -27.796,-65.72 -41.891,-135.532 -41.891,-207.503 0,-71.97 14.095,-141.782 41.891,-207.502 26.849,-63.479 65.291,-120.491 114.253,-169.457 48.961,-48.962 105.975,-87.4 169.453,-114.25 65.72,-27.795 135.532,-41.89 207.503,-41.89 71.969,0 141.782,14.095 207.501,41.89 63.48,26.85 120.492,65.288 169.454,114.25 48.962,48.966 87.405,105.978 114.254,169.457 27.795,65.72 41.89,135.532 41.89,207.502 v 8.495 H 768.482 V 541.594 H 550.025 C 548.956,470.341 534.446,401.199 506.854,335.966 479.151,270.463 439.488,211.633 388.968,161.116 338.45,110.6 279.625,70.937 214.121,43.233 146.296,14.546 74.255,0 0,0"
         style="fill:#f6e200;fill-opacity:1;fill-rule:nonzero;stroke:none"
         id="path24" />
    </g>
    <g
       id="g34"
       transform="matrix(0.35277777,0,0,-0.35277777,358.68347,165.45593)">
      <path
         d="M 0,0 -11.59,12.443 49.774,69.469 -11.59,126.51 0,138.953 74.722,69.469 Z"
         style="fill:#f6e200;fill-opacity:1;fill-rule:nonzero;stroke:none"
         id="path36" />
    </g>
    <g
       id="g42"
       transform="matrix(0.35277777,0,0,-0.35277777,295.41705,138.01608)">
      <path
         d="m 0,0 c 0.042,-2.763 0.069,-5.527 0.069,-8.296 0,-71.971 -14.093,-141.783 -41.889,-207.503 -26.849,-63.478 -65.292,-120.491 -114.253,-169.457 -48.961,-48.962 -105.975,-87.4 -169.453,-114.249 -65.72,-27.796 -135.533,-41.891 -207.503,-41.891 -71.97,0 -141.783,14.095 -207.501,41.891 -63.481,26.849 -120.492,65.287 -169.454,114.249 -48.962,48.966 -87.406,105.979 -114.254,169.457 -27.795,65.72 -41.89,135.532 -41.89,207.503 v 8.494 h -235.384 v -16.989 h 218.457 c 1.07,-71.252 15.579,-140.394 43.171,-205.628 27.703,-65.503 67.365,-124.332 117.887,-174.85 50.518,-50.516 109.342,-90.178 174.846,-117.882 67.826,-28.687 139.867,-43.234 214.122,-43.234 74.255,0 146.296,14.547 214.122,43.234 65.504,27.704 124.329,67.366 174.845,117.882 50.522,50.518 90.184,109.347 117.887,174.85 28.688,67.827 43.235,139.867 43.235,214.123 0,2.769 -0.028,5.533 -0.068,8.296 z"
         style="fill:#f6e200;fill-opacity:1;fill-rule:nonzero;stroke:none"
         id="path44" />
    </g>
    <g
       id="g46"
       transform="matrix(0.35277777,0,0,-0.35277777,-143.86843,165.45593)">
      <path
         d="M 0,0 11.59,12.443 -49.774,69.469 11.59,126.51 0,138.953 -74.722,69.469 Z"
         style="fill:#f6e200;fill-opacity:1;fill-rule:nonzero;stroke:none"
         id="path48" />
    </g>
    <text
       style="font-variant:normal;font-weight:normal;font-stretch:normal;font-size:21.1667px;font-family:Helvetica;-inkscape-font-specification:Helvetica;writing-mode:lr-tb;fill:#ffffff;fill-opacity:1;fill-rule:nonzero;stroke:none;stroke-width:0.352777"
       id="text226"
       x="-39.835007"
       y="106.18307"><tspan
         x="-39.835007 -27.770002 -16.869169 -10.688508 -5.6719975 5.2288213 9.0599976 19.960831 29.676331 40.577164 46.757828 51.774338 61.489822 66.506332 77.407166 83.58783 94.488663 111.25264 122.15349 131.869 142.76982 148.95052 153.967 164.86781 168.69899 173.7155 184.61632 194.33186 205.23268 210.24916 221.14998 232.05083 237.06731 240.89851 251.79933 261.51483"
         y="106.18307"
         id="tspan218"
         style="stroke-width:0.352777">Fortalecer y promover el uso de los</tspan><tspan
         x="-37.929993 -21.165998 -10.265153 0.63566524 4.4668431 15.367661 25.08316 30.09967 35.116165 46.016998 55.732498 66.633331 77.534164 81.365326 92.266159 103.16701 106.99815 116.71364 127.61452 137.33 142.34648 152.06203 157.07851 167.97932 171.81047 182.71135 192.42683 197.44331 203.62398 214.52483 225.42564 229.25685 238.97234 249.87315 259.58865"
         y="134.39825"
         id="tspan220"
         style="stroke-width:0.352777">medios tecnológicos y electrónicos</tspan><tspan
         x="-27.029173 -16.12834 -5.2274938 -0.21101443 3.6201632 14.521011 24.236496 29.253006 34.269485 40.450165 51.351013 68.115005 71.946167 76.962662 87.86351 97.578995 102.5955 112.31099 117.3275 128.22832 134.40898 145.30981 155.02534 165.92616 176.82698 180.65816 197.42216 201.25331 212.15416 223.05501 228.07149 238.97234 248.68782"
         y="162.61342"
         id="tspan222"
         style="stroke-width:0.352777">en los trámites y procedimientos</tspan><tspan
         x="44.260162 55.160995 66.061829 82.825836 86.656998 97.557816 101.38899 111.10451 116.12099 122.30166 133.2025 138.21901 142.05016 151.76564 162.66649 172.382 177.39851"
         y="190.8286"
         id="tspan224"
         style="stroke-width:0.352777">administrativos.</tspan></text>
  </g>
</svg>
