<?xml version="1.0" encoding="UTF-8" standalone="no"?>
<svg
   xmlns:dc="http://purl.org/dc/elements/1.1/"
   xmlns:cc="http://creativecommons.org/ns#"
   xmlns:rdf="http://www.w3.org/1999/02/22-rdf-syntax-ns#"
   xmlns:svg="http://www.w3.org/2000/svg"
   xmlns="http://www.w3.org/2000/svg"
   width="79.341843mm"
   height="32.31868mm"
   viewBox="0 0 79.341843 32.31868"
   version="1.1"
   id="svg373">
  <defs
     id="defs367">
    <clipPath
       clipPathUnits="userSpaceOnUse"
       id="clipPath40">
      <path
         d="m 1527.1,230.745 h 56.9 v -91.613 h -56.9 z"
         id="path38" />
    </clipPath>
    <clipPath
       clipPathUnits="userSpaceOnUse"
       id="clipPath56">
      <path
         d="m 1490.1,228.745 h 56.9 v -91.613 h -56.9 z"
         id="path54" />
    </clipPath>
    <clipPath
       clipPathUnits="userSpaceOnUse"
       id="clipPath72">
      <path
         d="m 1458.1,227.745 h 56.9 v -91.613 h -56.9 z"
         id="path70" />
    </clipPath>
    <clipPath
       clipPathUnits="userSpaceOnUse"
       id="clipPath88">
      <path
         d="m 1423.1,227.745 h 56.9 v -91.613 h -56.9 z"
         id="path86" />
    </clipPath>
    <clipPath
       clipPathUnits="userSpaceOnUse"
       id="clipPath104">
      <path
         d="m 1391.1,226.745 h 56.9 v -91.613 h -56.9 z"
         id="path102" />
    </clipPath>
  </defs>
  <metadata
     id="metadata370">
    <rdf:RDF>
      <cc:Work
         rdf:about="">
        <dc:format>image/svg+xml</dc:format>
        <dc:type
           rdf:resource="http://purl.org/dc/dcmitype/StillImage" />
        <dc:title></dc:title>
      </cc:Work>
    </rdf:RDF>
  </metadata>
  <g
     id="layer1"
     transform="translate(-57.083655,-184.12199)">
    <path
       d="m 107.75736,216.44067 -2.69593,-2.89419 14.27269,-13.26338 -14.27269,-13.26692 2.69593,-2.89419 17.37924,16.16111 z"
       style="opacity:0.850006;fill:#ffffff;fill-opacity:1;fill-rule:nonzero;stroke:none;stroke-width:0.352778"
       id="path42" />
    <path
       d="m 94.704582,216.44067 -2.695928,-2.89419 14.272686,-13.26338 -14.272686,-13.26692 2.695928,-2.89419 17.379248,16.16111 z"
       style="opacity:0.610001;fill:#ffffff;fill-opacity:1;fill-rule:nonzero;stroke:none;stroke-width:0.352778"
       id="path58" />
    <path
       d="m 83.415693,216.44067 -2.695928,-2.89419 14.272683,-13.26338 -14.272683,-13.26692 2.695928,-2.89419 17.379247,16.16111 z"
       style="opacity:0.229996;fill:#ffffff;fill-opacity:1;fill-rule:nonzero;stroke:none;stroke-width:0.352778"
       id="path74" />
    <path
       d="m 71.068471,216.44067 -2.695928,-2.89419 14.272683,-13.26338 -14.272683,-13.26692 2.695928,-2.89419 17.379244,16.16111 z"
       style="opacity:0.139999;fill:#ffffff;fill-opacity:1;fill-rule:nonzero;stroke:none;stroke-width:0.352778"
       id="path90" />
    <path
       d="m 59.779583,216.44067 -2.695928,-2.89419 14.272683,-13.26338 -14.272683,-13.26692 2.695928,-2.89419 17.379244,16.16111 z"
       style="opacity:0.0700073;fill:#ffffff;fill-opacity:1;fill-rule:nonzero;stroke:none;stroke-width:0.352778"
       id="path106" />
    <path
       d="m 119.04626,216.44067 -2.69593,-2.89419 14.27269,-13.26338 -14.27269,-13.26692 2.69593,-2.89419 17.37924,16.16111 z"
       style="fill:#ffffff;fill-opacity:1;fill-rule:nonzero;stroke:none;stroke-width:0.352778"
       id="path32" />
  </g>
</svg>
