<?xml version="1.0" encoding="UTF-8" standalone="no"?>
<svg
   xmlns:dc="http://purl.org/dc/elements/1.1/"
   xmlns:cc="http://creativecommons.org/ns#"
   xmlns:rdf="http://www.w3.org/1999/02/22-rdf-syntax-ns#"
   xmlns:svg="http://www.w3.org/2000/svg"
   xmlns="http://www.w3.org/2000/svg"
   width="555.2724mm"
   height="388.1167mm"
   viewBox="0 0 555.2724 388.1167"
   version="1.1"
   id="svg252">
  <defs
     id="defs246" />
  <metadata
     id="metadata249">
    <rdf:RDF>
      <cc:Work
         rdf:about="">
        <dc:format>image/svg+xml</dc:format>
        <dc:type
           rdf:resource="http://purl.org/dc/dcmitype/StillImage" />
        <dc:title></dc:title>
      </cc:Work>
    </rdf:RDF>
  </metadata>
  <g
     id="layer1"
     transform="translate(171.88532,40.741088)">
    <g
       id="g318">
      <path
         d="m 105.78224,347.37549 c -26.195866,0 -51.609977,-5.13186 -75.537834,-15.25199 -23.1080027,-9.77336 -43.860155,-23.76523 -61.681782,-41.58615 -17.822686,-17.82163 -31.814205,-38.57519 -41.587561,-61.68355 -10.120136,-23.9275 -15.251994,-49.34197 -15.251994,-75.53748 0,-26.19587 5.131858,-51.60998 15.251994,-75.537482 9.773356,-23.109767 23.766639,-43.861919 41.587561,-61.681782 17.817041,-17.8198639 38.5706043,-31.811383 61.681782,-41.587561 23.924682,-10.120488 49.339146,-15.250583 75.537834,-15.250583 26.19869,0 51.6128,5.130095 75.53713,15.250583 23.11118,9.776178 43.86509,23.7676971 61.68213,41.587561 l -4.23792,4.237566 c -17.26953,-17.2709411 -37.38244,-30.831013 -59.7796,-40.305918 -23.18103,-9.804047 -47.81091,-14.77645 -73.20174,-14.77645 -25.39118,0 -50.020713,4.972403 -73.202446,14.77645 -22.396802,9.474905 -42.5093681,23.0349769 -59.779251,40.305918 -17.272705,17.272705 -30.834188,37.384213 -40.305919,59.779252 -9.805811,23.184556 -14.778213,47.812676 -14.778213,73.202446 0,25.38942 4.972402,50.01789 14.778213,73.20209 9.471731,22.39433 23.033214,42.5069 40.305919,59.78102 17.2723523,17.2727 37.385624,30.83277 59.779251,40.3045 23.184555,9.80546 47.812677,14.77787 73.202446,14.77787 25.38906,0 50.01754,-4.97241 73.20174,-14.77787 22.39433,-9.47173 42.5069,-23.0318 59.7796,-40.3045 17.27271,-17.27412 30.83455,-37.38669 40.30628,-59.78102 9.80545,-23.1842 14.77786,-47.81267 14.77786,-73.20209 v -2.99685 h 83.03789 v 5.9937 h -77.06678 c -0.37712,25.13612 -5.49592,49.52788 -15.22977,72.54063 -9.773,23.10836 -23.76522,43.86192 -41.58756,61.68355 -17.82162,17.82092 -38.57378,31.81279 -61.68213,41.58615 -23.92715,10.12013 -49.34162,15.25199 -75.53713,15.25199"
         style="fill:#f6e200;fill-opacity:1;fill-rule:nonzero;stroke:none;stroke-width:0.352778"
         id="path24" />
      <path
         d="m 357.02684,177.82961 -4.08869,-4.38997 21.64785,-20.1175 -21.64785,-20.1228 4.08869,-4.38961 26.36026,24.51241 z"
         style="fill:#f6e200;fill-opacity:1;fill-rule:nonzero;stroke:none;stroke-width:0.352778"
         id="path36" />
      <path
         d="m 293.76042,150.38943 c 0.0148,0.97472 0.0243,1.9498 0.0243,2.927 0,25.38941 -4.9717,50.01753 -14.77751,73.20209 -9.47173,22.39398 -23.03356,42.50655 -40.30591,59.78102 -17.27236,17.2727 -37.38563,30.83277 -59.77926,40.3045 -23.18455,9.80546 -47.81303,14.77786 -73.20244,14.77786 -25.389418,0 -50.017893,-4.9724 -73.201742,-14.77786 -22.394686,-9.47173 -42.5068991,-23.0318 -59.779604,-40.3045 -17.272705,-17.27447 -30.834894,-37.38704 -40.306272,-59.78102 -9.805458,-23.18456 -14.77786,-47.81268 -14.77786,-73.20209 v -2.99685 h -83.038242 v 5.99369 h 77.066772 c 0.377473,25.13613 5.495925,49.52789 15.229769,72.54064 9.773003,23.10835 23.764875,43.86192 41.587913,61.68354 17.821628,17.82093 38.5734273,31.8128 61.681782,41.5858 23.927505,10.12049 49.341969,15.25235 75.537484,15.25235 26.19551,0 51.60997,-5.13186 75.53748,-15.25235 23.10835,-9.773 43.86051,-23.76487 61.68143,-41.5858 17.82304,-17.82162 31.81491,-38.57519 41.58791,-61.68354 10.12049,-23.92751 15.25235,-49.34197 15.25235,-75.53748 0,-0.97684 -0.01,-1.95228 -0.024,-2.927 z"
         style="fill:#f6e200;fill-opacity:1;fill-rule:nonzero;stroke:none;stroke-width:0.352778"
         id="path44" />
      <path
         d="m -145.52506,177.82961 4.08869,-4.38997 -21.64785,-20.1175 21.64785,-20.1228 -4.08869,-4.38961 -26.36026,24.51241 z"
         style="fill:#f6e200;fill-opacity:1;fill-rule:nonzero;stroke:none;stroke-width:0.352778"
         id="path48" />
      <text
         style="font-variant:normal;font-weight:normal;font-stretch:normal;font-size:21.1667px;font-family:Helvetica;-inkscape-font-specification:Helvetica;writing-mode:lr-tb;fill:#ffffff;fill-opacity:1;fill-rule:nonzero;stroke:none;stroke-width:0.352777"
         id="text228"
         x="-30.16964"
         y="96.310303"><tspan
           x="-30.16964 -18.104649 -7.2038078 -1.023144 3.9933507 14.894207 18.725361 29.626171 39.341686 50.242512 56.423191 61.439671 72.340515 76.171677 81.188187 95.602676 106.50352 117.40434 127.11984 138.02068 141.85184 152.7527 157.7692 168.67003 179.57085 184.58736 197.83766 207.55318 212.56966 223.4705 234.37135 245.27217"
           y="96.310303"
           id="tspan218"
           style="stroke-width:0.352777">Fortalecer al Consejo de Estado</tspan><tspan
           x="-12.495472 -2.7799799 8.1208611 24.884846 35.785686 40.802174 51.703007 57.883686 68.784515 79.685349 90.586166 101.487 106.50352 117.40434 128.30518 133.32167 143.03719 146.86835 157.7692 163.94986 170.13054 181.03133 186.04787 196.94865 207.8495 212.86598 216.69719 227.59801"
           y="124.52547"
           id="tspan220"
           style="stroke-width:0.352777">como 贸rgano de cierre de la</tspan><tspan
           x="-20.009632 -10.294147 0.60670072 6.7873497 10.618526 20.334026 31.234844 35.066021 44.781513 54.497013 58.32819 69.229004 80.129852 85.146332 96.04718 106.948 111.96451 115.79567 126.6965 131.713 141.42853 152.32935 163.23018 168.24666 179.14751 190.04836 199.76387 203.59502 214.49583 224.21132 235.11217"
           y="152.74065"
           id="tspan222"
           style="stroke-width:0.352777">Jurisdicci贸n de lo contencioso</tspan><tspan
           x="-53.579979 -42.679146 -31.778313 -15.014317 -11.183155 -0.28230685 3.5488622 13.264362 18.280857 24.461521 35.362347 40.378849 44.210011 53.92551 64.826355 69.84285 79.55835 84.574844 90.755524 101.65634 112.55717 123.45801 133.17351 138.18999 149.09085 158.80634 169.70717 175.88786 180.90434 190.61986 201.52068 206.53719 211.55367 222.45451 233.35533 243.07085 246.90202 257.80283 268.70367"
           y="180.95581"
           id="tspan224"
           style="stroke-width:0.352777">administrativo y robustecer su funci贸n</tspan><tspan
           x="-29.301811 -18.400974 -7.5001488 -2.483639 8.4171791 19.318027 23.149197 28.165691 31.996853 41.712345 52.613194 62.328678 66.159836 77.060684 87.961502 92.978012 103.87885 114.77966 119.79619 123.62735 134.52817 140.70883 144.54002 154.25554 165.15634 171.33699 182.23787 193.13869 204.03954 214.94032 224.65584 228.48701 239.38786 244.40434"
           y="209.17101"
           id="tspan226"
           style="stroke-width:0.352777">de unificaci贸n de jurisprudencia.</tspan></text>
    </g>
  </g>
</svg>
