<?xml version="1.0" encoding="UTF-8" standalone="no"?>
<svg
   xmlns:dc="http://purl.org/dc/elements/1.1/"
   xmlns:cc="http://creativecommons.org/ns#"
   xmlns:rdf="http://www.w3.org/1999/02/22-rdf-syntax-ns#"
   xmlns:svg="http://www.w3.org/2000/svg"
   xmlns="http://www.w3.org/2000/svg"
   width="79.341698mm"
   height="32.318676mm"
   viewBox="0 0 79.341698 32.318676"
   version="1.1"
   id="svg394">
  <defs
     id="defs388">
    <clipPath
       clipPathUnits="userSpaceOnUse"
       id="clipPath144">
      <path
         d="M 206.095,247.099 H 263 v -91.612 h -56.905 z"
         id="path142" />
    </clipPath>
    <clipPath
       clipPathUnits="userSpaceOnUse"
       id="clipPath160">
      <path
         d="M 243.095,249.099 H 300 v -91.612 h -56.905 z"
         id="path158" />
    </clipPath>
    <clipPath
       clipPathUnits="userSpaceOnUse"
       id="clipPath176">
      <path
         d="M 275.095,250.099 H 332 v -91.612 h -56.905 z"
         id="path174" />
    </clipPath>
    <clipPath
       clipPathUnits="userSpaceOnUse"
       id="clipPath192">
      <path
         d="M 310.095,250.099 H 367 v -91.612 h -56.905 z"
         id="path190" />
    </clipPath>
    <clipPath
       clipPathUnits="userSpaceOnUse"
       id="clipPath208">
      <path
         d="M 342.095,251.099 H 399 v -91.612 h -56.905 z"
         id="path206" />
    </clipPath>
  </defs>
  <metadata
     id="metadata391">
    <rdf:RDF>
      <cc:Work
         rdf:about="">
        <dc:format>image/svg+xml</dc:format>
        <dc:type
           rdf:resource="http://purl.org/dc/dcmitype/StillImage" />
        <dc:title></dc:title>
      </cc:Work>
    </rdf:RDF>
  </metadata>
  <g
     id="g144">
    <path
       d="M 76.646266,3.5286324e-5 79.341841,2.8942241 65.069511,16.15761 79.341841,29.424524 76.646266,32.318712 59.266669,16.15761 Z"
       style="opacity:0.0700073;fill:#ffffff;fill-opacity:1;fill-rule:nonzero;stroke:none;stroke-width:0.352778"
       id="path210" />
    <path
       d="M 17.379597,0 20.075172,2.8941888 5.8028417,16.157575 20.075172,29.424488 17.379597,32.318677 1.6095e-7,16.157575 Z"
       style="fill:#ffffff;fill-opacity:1;fill-rule:nonzero;stroke:none;stroke-width:0.352778"
       id="path136" />
    <path
       d="M 28.66849,3.6366324e-5 31.364065,2.8942252 17.091735,16.157611 31.364065,29.424525 28.66849,32.318713 11.288893,16.157611 Z"
       style="opacity:0.850006;fill:#ffffff;fill-opacity:1;fill-rule:nonzero;stroke:none;stroke-width:0.352778"
       id="path146" />
    <path
       d="M 41.721267,3.0826324e-5 44.416842,2.8942197 30.144512,16.157605 44.416842,29.424519 41.721267,32.318708 24.34167,16.157605 Z"
       style="opacity:0.610001;fill:#ffffff;fill-opacity:1;fill-rule:nonzero;stroke:none;stroke-width:0.352778"
       id="path162" />
    <path
       d="M 53.010156,3.3056324e-5 55.705731,2.8942219 41.433401,16.157608 55.705731,29.424521 53.010156,32.31871 35.630559,16.157608 Z"
       style="opacity:0.229996;fill:#ffffff;fill-opacity:1;fill-rule:nonzero;stroke:none;stroke-width:0.352778"
       id="path178" />
    <path
       d="M 65.357378,3.3056324e-5 68.052953,2.8942219 53.780623,16.157608 68.052953,29.424521 65.357378,32.31871 47.977781,16.157608 Z"
       style="opacity:0.139999;fill:#ffffff;fill-opacity:1;fill-rule:nonzero;stroke:none;stroke-width:0.352778"
       id="path194" />
  </g>
</svg>
