<?xml version="1.0" encoding="UTF-8" standalone="no"?>
<svg
   xmlns:dc="http://purl.org/dc/elements/1.1/"
   xmlns:cc="http://creativecommons.org/ns#"
   xmlns:rdf="http://www.w3.org/1999/02/22-rdf-syntax-ns#"
   xmlns:svg="http://www.w3.org/2000/svg"
   xmlns="http://www.w3.org/2000/svg"
   width="31.71796mm"
   height="22.966379mm"
   viewBox="0 0 31.71796 22.966379"
   version="1.1"
   id="svg1394">
  <defs
     id="defs1388" />
  <metadata
     id="metadata1391">
    <rdf:RDF>
      <cc:Work
         rdf:about="">
        <dc:format>image/svg+xml</dc:format>
        <dc:type
           rdf:resource="http://purl.org/dc/dcmitype/StillImage" />
        <dc:title></dc:title>
      </cc:Work>
    </rdf:RDF>
  </metadata>
  <g
     id="layer1"
     transform="translate(-83.279154,-130.71628)">
    <path
       id="path526"
       style="fill:#fff100;fill-opacity:1;fill-rule:nonzero;stroke:none;stroke-width:1.33333"
       d="m 374.51562,494.05273 c -1.80938,-0.0765 -3.54901,0.47023 -5.08984,2.04688 -2.48266,2.54135 -2.75964,5.65877 -1.43164,8.63477 1.392,3.12 3.38827,5.97596 5.21094,8.89062 0.64533,1.032 1.56004,1.8959 2.60937,3.14258 -1.02267,0.0881 -1.75052,0.20375 -2.47851,0.20508 -9.93867,0.0151 -19.8797,0.008 -29.81836,0.0234 -3.95734,0.007 -7.1215,1.578 -8.9375,5.16602 -1.64667,3.25066 -1.4254,6.55296 0.69726,9.57031 1.86,2.64265 4.47581,3.93933 7.73047,3.93555 5.14667,-0.008 10.29341,-0.005 15.44141,0.01 0.852,0.002 1.70273,0.0827 2.08008,0.10157 -0.14665,2.88933 -0.93776,5.74158 -0.23242,8.15625 0.70666,2.41334 2.90915,4.38701 4.78515,7.01367 -1.43333,2.33333 -2.29614,5.65602 -0.74414,9.19336 1.53467,3.49735 4.44643,5.14 8.12109,5.63867 -0.46666,1.58268 -1.08785,2.95874 -1.25586,4.38672 -0.65333,5.55866 3.10134,10.37603 8.77735,10.5 8.86001,0.19332 17.78131,0.41018 26.58398,-0.39649 14.41599,-1.324 25.25102,-12.12687 27.65235,-26.46289 0.0706,-0.42667 0.2751,-0.82948 0.41797,-1.24414 v -7.99414 c -1.344,-4.00131 -2.33401,-8.16751 -4.11133,-11.96484 -2.77467,-5.92135 -7.45815,-10.35637 -12.91016,-13.8457 -10.97201,-7.02399 -22.02237,-13.92639 -33.0957,-20.78907 -2.09333,-1.296 -4.38259,-2.3473 -6.69727,-3.19531 -1.109,-0.407 -2.21905,-0.67678 -3.30469,-0.72266 z m -24.82031,2.79883 c -1.136,4.91331 -2.21913,9.59642 -3.34179,14.45508 1.35333,0.30803 2.29354,0.52132 3.54687,0.80664 1.10933,-4.73197 2.20629,-9.41494 3.37695,-14.4043 -1.18266,-0.28384 -2.23269,-0.53476 -3.58203,-0.85742 z m 24.56446,0.97071 c 0.53988,-0.007 1.12371,0.0906 1.73046,0.30859 2.89069,1.03997 5.6984,2.46205 8.31836,4.08203 9.50536,5.88 18.94509,11.86865 28.34375,17.91797 2.90004,1.86667 5.79727,3.835 8.33594,6.15234 8.59733,7.84668 11.83147,17.70441 9.07813,28.95508 -2.71333,11.09068 -10.0279,18.90303 -21.22657,20.73633 -9.61065,1.57602 -19.61723,0.87645 -29.44922,0.86133 -2.85734,-0.004 -4.92962,-3.11894 -4.71093,-5.84961 0.232,-2.88801 2.38561,-4.95481 5.43359,-5.21485 0.59868,-0.0521 1.19764,-0.11682 1.9043,-0.1875 v -3.52539 c -1.556,0 -3.04581,0.003 -4.53516,0 -1.508,-0.004 -3.02272,0.0698 -4.52539,-0.0273 -3.38533,-0.21868 -5.86629,-2.73093 -5.79297,-5.76563 0.076,-3.12933 2.51762,-5.41534 5.98828,-5.53515 1.66267,-0.0593 3.32907,-0.01 5.15039,-0.01 v -3.64843 c -2.74265,0 -5.38024,0.0169 -8.01757,-0.002 -4.20534,-0.032 -6.88884,-2.32161 -6.82618,-5.79492 0.0627,-3.39201 2.66629,-5.57303 6.73829,-5.5957 3.89066,-0.0227 7.78143,-0.004 11.80273,-0.004 v -3.63867 h -2.65625 c -11.27866,-10e-4 -22.5547,-0.002 -33.83203,-0.002 -0.70933,0 -1.42153,0.0185 -2.13086,-0.0117 -3.67067,-0.14533 -6.16369,-2.42039 -6.17578,-5.62305 -0.0133,-3.25334 2.63624,-5.69557 6.3789,-5.70312 12.07601,-0.0302 24.15447,-0.009 36.23047,-0.008 l 4.93946,0.002 c -3.21067,-3.51999 -6.23676,-6.42205 -8.7461,-9.72071 -1.94933,-2.56399 -3.69866,-5.46808 -4.72265,-8.49609 -0.89051,-2.63035 0.63513,-4.62171 2.97461,-4.65234 z m -46.92579,4.10742 c -0.95866,0.80133 -1.82697,1.52808 -2.82031,2.35742 3.13334,3.87065 6.17913,7.63371 9.3418,11.53906 1.024,-0.82934 1.89466,-1.53374 2.86133,-2.3164 -3.176,-3.92002 -6.23748,-7.69741 -9.38282,-11.58008 z m -12.57812,22.38672 v 3.73047 h 14.83203 v -3.73047 z m 19.13086,12.5625 c -3.09734,3.82136 -6.12313,7.55469 -9.3418,11.52539 0.89067,0.77998 1.71301,1.50127 2.76367,2.41992 3.13601,-3.85331 6.17893,-7.59118 9.4336,-11.58984 -1.00267,-0.82799 -1.8048,-1.48879 -2.85547,-2.35547 z m 16.05859,3.79687 c -1.23866,0.27742 -2.29822,0.51547 -3.57422,0.80078 1.12,4.86267 2.19489,9.54071 3.32422,14.44336 1.25334,-0.288 2.25112,-0.51897 3.56446,-0.82031 -1.10001,-4.78798 -2.17312,-9.45984 -3.31446,-14.42383 z"
       transform="scale(0.26458333)" />
  </g>
</svg>
