<?xml version="1.0" encoding="UTF-8" standalone="no"?>
<svg
   xmlns:dc="http://purl.org/dc/elements/1.1/"
   xmlns:cc="http://creativecommons.org/ns#"
   xmlns:rdf="http://www.w3.org/1999/02/22-rdf-syntax-ns#"
   xmlns:svg="http://www.w3.org/2000/svg"
   xmlns="http://www.w3.org/2000/svg"
   width="336.20859mm"
   height="276.50427mm"
   viewBox="0 0 336.20859 276.50427"
   version="1.1"
   id="svg2074">
  <defs
     id="defs2068">
    <clipPath
       clipPathUnits="userSpaceOnUse"
       id="clipPath118">
      <path
         d="M 0,8031.439 H 6864.277 V 0 H 0 Z"
         id="path116" />
    </clipPath>
    <clipPath
       clipPathUnits="userSpaceOnUse"
       id="clipPath160">
      <path
         d="M 0,8031.439 H 6864.277 V 0 H 0 Z"
         id="path158" />
    </clipPath>
  </defs>
  <metadata
     id="metadata2071">
    <rdf:RDF>
      <cc:Work
         rdf:about="">
        <dc:format>image/svg+xml</dc:format>
        <dc:type
           rdf:resource="http://purl.org/dc/dcmitype/StillImage" />
        <dc:title></dc:title>
      </cc:Work>
    </rdf:RDF>
  </metadata>
  <g
     id="layer1"
     transform="translate(50.194231,-15.309184)">
    <path
       id="path122"
       style="fill:#2198d2;fill-opacity:1;fill-rule:nonzero;stroke:none;stroke-width:1.33333"
       d="M 953.52539 14.324219 C 948.52416 14.486877 943.53298 15.955796 939.24023 18.873047 C 926.17225 27.753047 923.13833 40.202757 928.34766 54.857422 C 928.25695 54.922732 928.20645 54.990853 928.1543 54.992188 C 926.2343 55.038865 924.31384 55.038866 922.39648 55.130859 C 919.25781 55.282857 917.81728 56.817279 917.77344 59.974609 C 917.75945 60.995944 917.77148 62.015636 917.77148 63.292969 L 915 63.292969 C 896.16 63.292969 877.31984 63.291638 858.47852 63.292969 C 853.82384 63.292969 852.60742 64.508963 852.60742 69.154297 L 852.60742 253.00977 C 852.60742 257.63243 853.86496 258.90101 858.46094 258.90234 C 922.47827 258.90367 986.49697 258.90367 1050.5156 258.90234 C 1055.0343 258.90101 1056.3073 257.63959 1056.3086 253.18359 L 1056.3086 69.119141 C 1056.3086 64.468477 1055.1257 63.292969 1050.4297 63.292969 C 1031.519 63.291638 1012.6105 63.292969 993.70117 63.292969 L 991.125 63.292969 L 991.125 60.628906 C 991.11967 56.458239 989.78104 55.134573 985.54102 55.117188 C 983.86634 55.110562 982.19159 55.115234 980.40625 55.115234 C 986.76489 39.303237 980.1162 26.497047 971.4082 19.873047 C 966.4027 16.065299 959.95554 14.115086 953.52539 14.324219 z M 955.43555 22.650391 C 962.79634 22.870142 968.58764 26.355092 972.29297 33.183594 C 976.51697 40.967591 975.66251 48.694957 970.20117 55.765625 C 968.95979 57.373625 967.95271 58.961672 968.99805 61.013672 C 970.01807 63.015019 971.83527 63.369635 973.89258 63.320312 C 976.83127 63.248464 979.77158 63.300781 982.82227 63.300781 L 982.82227 71.355469 L 926.11719 71.355469 L 926.11719 63.300781 L 932.72266 63.300781 C 933.75466 63.300781 934.78772 63.285349 935.81836 63.302734 C 937.70771 63.336066 939.16079 62.629761 939.99414 60.871094 C 940.81146 59.148427 940.27405 57.648069 939.13672 56.302734 C 936.68736 53.405401 935.11559 50.124237 934.40625 46.378906 C 932.25959 35.036238 940.66882 23.806526 952.1875 22.755859 C 953.30166 22.654192 954.38401 22.618998 955.43555 22.650391 z M 954.45117 30.708984 C 947.7605 30.724983 942.25756 36.22225 942.25 42.90625 C 942.24066 49.667583 947.62399 55.079895 954.39062 55.109375 C 961.15999 55.138708 966.68663 49.745692 966.73047 43.068359 C 966.77446 36.319026 961.18584 30.69311 954.45117 30.708984 z M 954.39844 38.916016 C 956.66245 38.878681 958.48293 40.62195 958.52148 42.863281 C 958.56015 45.096615 956.78447 46.912745 954.53516 46.943359 C 952.29647 46.974026 950.42275 45.197238 950.37891 43.003906 C 950.33624 40.833237 952.18511 38.951921 954.39844 38.916016 z M 885.3418 71.628906 L 917.77539 71.628906 C 917.77539 72.846239 917.7352 74.055052 917.7832 75.261719 C 917.88586 77.859052 919.2585 79.301614 921.83984 79.572266 C 922.24784 79.614785 922.66221 79.619141 923.07422 79.619141 C 943.97822 79.621809 964.88116 79.621809 985.78516 79.619141 C 986.26516 79.619141 986.75057 79.608747 987.22656 79.552734 C 989.67989 79.267403 991.05111 77.789889 991.11914 75.337891 C 991.14938 74.173891 991.12305 73.006013 991.12305 71.666016 L 1023.5742 71.666016 L 1023.5742 250.62305 L 885.3418 250.62305 L 885.3418 71.628906 z M 1032.043 71.630859 L 1047.9688 71.630859 L 1047.9688 250.62305 L 1032.043 250.62305 L 1032.043 71.630859 z M 860.87305 71.675781 L 876.95703 71.675781 L 876.95703 250.58789 L 860.87305 250.58789 L 860.87305 71.675781 z M 901.69727 87.822266 L 901.69727 96.015625 L 908.41016 96.015625 C 905.2208 100.00896 902.23696 103.68082 899.32227 107.41016 C 892.00363 116.77415 893.4111 112.61963 893.38086 124.6543 C 893.35418 134.57696 901.08472 143.33217 910.63672 144.57617 C 921.16202 145.94684 930.8495 139.81971 933.26953 129.73438 C 934.18153 125.92771 934.09985 121.82719 934.03711 117.86719 C 934.0091 116.09519 933.29253 114.05424 932.22852 112.62891 C 928.36584 107.44891 924.22268 102.48045 920.19336 97.425781 C 919.87735 97.029781 919.62519 96.584978 919.28125 96.070312 L 950.24023 96.070312 L 950.24023 136.57617 C 949.46827 136.61083 948.80081 136.66797 948.13281 136.66797 C 943.28882 136.69997 942.26562 137.74168 942.26562 142.65234 C 942.2643 146.00376 942.26562 149.35668 942.26562 152.89844 L 939.57617 152.89844 C 928.64151 152.89844 917.7081 152.88105 906.77344 152.89844 C 902.98008 152.9051 901.53711 154.36785 901.53711 158.11719 L 901.53711 172.15234 C 901.53979 176.01235 902.84578 177.34224 906.73242 177.35547 C 912.71511 177.38344 918.69763 177.36719 924.68164 177.36719 L 1001.4297 177.36719 C 1006.3177 177.36719 1007.4283 176.27628 1007.4297 171.48828 C 1007.4283 167.22295 1007.4277 162.95674 1007.4277 158.69141 C 1007.4251 154.20607 1006.1413 152.90234 1001.6973 152.90234 L 969.09961 152.90234 L 966.99609 152.90234 C 966.85361 152.52766 966.76699 152.40526 966.76562 152.28125 C 966.74559 148.84258 966.73777 145.40351 966.72266 141.96484 C 966.712 138.01284 965.38032 136.69039 961.375 136.67188 L 958.64453 136.67188 L 958.64453 96.021484 L 989.80664 96.021484 C 989.11329 96.924153 988.59477 97.624686 988.05078 98.304688 C 984.1881 103.14069 980.26545 107.92794 976.49609 112.83594 C 975.66679 113.91727 975.01567 115.39118 974.92383 116.72852 C 974.71331 119.80718 974.74122 122.92319 974.94531 126.00586 C 975.59067 135.71652 983.62811 143.82592 992.82812 144.66992 C 1004.2974 145.72192 1013.2804 138.09041 1014.9844 128.84375 C 1015.6617 125.16908 1015.5701 121.31407 1015.4473 117.55273 C 1015.3939 115.8994 1014.7453 114.01079 1013.752 112.68945 C 1009.9559 107.63345 1005.907 102.76493 1001.959 97.822266 C 1001.5243 97.278267 1001.131 96.703108 1000.4551 95.787109 L 1007.2734 95.787109 L 1007.2734 87.822266 L 901.69727 87.822266 z M 995.19141 102.42969 C 997.76209 105.64169 1000.1814 108.6658 1002.832 111.98047 L 987.58008 111.98047 C 990.14672 108.75914 992.55141 105.74302 995.19141 102.42969 z M 913.73633 102.43164 C 916.28566 105.61964 918.73583 108.68483 921.42383 112.04883 L 906.05859 112.04883 C 908.75994 108.66616 911.18432 105.62897 913.73633 102.43164 z M 901.76562 120.38086 L 925.55859 120.38086 C 927.00925 125.08619 925.19587 130.9637 921.39453 133.95703 C 917.46518 137.0517 912.00773 137.46223 907.65039 134.99023 C 902.89839 132.29423 900.77762 127.12486 901.76562 120.38086 z M 983.0957 120.49805 L 1007.2227 120.49805 C 1008.04 126.08471 1006.9884 130.96946 1002.2617 134.32812 C 998.00839 137.34946 993.35721 137.5094 988.89453 134.80273 C 983.58388 131.5814 982.36773 126.48071 983.0957 120.49805 z M 950.51367 144.93555 L 958.39062 144.93555 L 958.39062 152.83008 L 950.51367 152.83008 L 950.51367 144.93555 z M 909.81055 161.26953 L 999.19141 161.26953 L 999.19141 169.07812 L 909.81055 169.07812 L 909.81055 161.26953 z M 950.4707 185.625 L 950.4707 193.58398 L 1007.2852 193.58398 L 1007.2852 185.625 L 950.4707 185.625 z M 901.67188 185.6543 L 901.67188 193.55273 L 942.18555 193.55273 L 942.18555 185.6543 L 901.67188 185.6543 z M 934.24805 201.95703 L 934.24805 209.81836 L 1007.2461 209.81836 L 1007.2461 201.95703 L 934.24805 201.95703 z M 901.66016 201.96094 L 901.66016 209.81641 L 925.78906 209.81641 L 925.78906 201.96094 L 901.66016 201.96094 z M 901.66016 218.24023 L 901.66016 226.19922 L 970.67188 226.19922 L 970.67188 218.24023 L 901.66016 218.24023 z M 979.01758 218.25391 L 979.01758 226.1543 L 1007.291 226.1543 L 1007.291 218.25391 L 979.01758 218.25391 z M 901.63867 234.57422 L 901.63867 242.38672 L 1007.3066 242.38672 L 1007.3066 234.57422 L 901.63867 234.57422 z "
       transform="matrix(0.26458333,0,0,0.26458333,-50.194231,15.309184)" />
    <text
       style="font-variant:normal;font-weight:normal;font-stretch:normal;font-size:12.7px;font-family:Helvetica;-inkscape-font-specification:Helvetica;writing-mode:lr-tb;fill:#ffffff;fill-opacity:1;fill-rule:nonzero;stroke:none;stroke-width:0.352777"
       id="text152"
       x="-45.896469"
       y="110.94645"><tspan
         x="-45.896469 -42.873878 -36.320656 -33.298061 -26.744886 -23.023752 -16.470579 -9.9173603 -3.3641872 3.1890278 6.91012 9.9327183 16.485939 23.039106 33.110245 39.66341 46.216637 52.769814 59.323029 65.165054 68.187637 74.029617"
         y="110.94645"
         id="tspan144"
         style="stroke-width:0.352777">Interponer demandas y</tspan><tspan
         x="-37.933563 -31.38035 -25.53837 -19.696348 -17.384951 -10.831778 -4.2785587 2.2746143 8.1166363 11.139235 17.692404 23.534422 30.087645 36.640823 42.482841 44.794243 51.34742 53.658813 60.212044 66.054024"
         y="125.33557"
         id="tspan146"
         style="stroke-width:0.352777">acciones especiales.</tspan><tspan
         x="145.04807 153.01089 156.73203 163.2852 169.12721 175.68039 182.23366 185.25621 191.80948 195.53052 198.55315 208.62422 215.17747 225.24852 231.80177 235.52281 237.83421 244.38741 246.69881 253.25203 259.09399"
         y="111.02276"
         id="tspan148"
         style="stroke-width:0.352777">Presentar memoriales</tspan><tspan
         x="176.29001 182.13203 185.15466 191.70784 197.54985 203.3918 207.11293 209.42433 212.44698 219.00017 224.84215"
         y="125.41188"
         id="tspan150"
         style="stroke-width:0.352777">y escritos.</tspan></text>
    <path
       id="path164"
       style="fill:#2198d2;fill-opacity:1;fill-rule:nonzero;stroke:none;stroke-width:1.33333"
       d="M 298.96875 0.005859375 C 293.25931 0.18033156 287.8538 4.109532 284.0918 10.332031 C 283.29581 11.649363 283.2686 13.54688 283.22461 15.185547 C 283.04728 21.678881 283.14721 28.184589 282.83789 34.669922 C 282.72989 36.956589 281.20693 38.738743 278.57227 38.580078 C 275.0456 38.366743 272.24625 39.627405 269.90625 42.191406 C 267.47158 44.858071 264.97689 47.468583 262.57422 50.03125 C 253.53022 42.796584 246.48186 42.268505 240.64453 47.951172 C 234.68453 53.753839 235.10724 60.798268 242.39258 70.322266 C 239.52991 73.036934 236.71818 75.652125 233.96484 78.328125 C 231.79284 80.440125 230.85411 83.051894 231.02344 86.087891 C 231.15143 88.371893 228.67622 91.423729 226.32422 91.566406 C 220.71355 91.903744 215.00409 92.748791 209.49609 92.078125 C 204.09343 91.419459 200.48413 93.130361 196.9668 96.818359 C 190.05213 104.07169 189.9157 112.12365 196.95703 119.20898 C 211.34503 133.68498 225.86068 148.0352 240.11133 162.64453 C 249.46999 172.2392 260.56393 167.86274 266.69727 157.58008 C 267.4839 156.26008 267.45991 154.3536 267.50391 152.71094 C 267.67591 146.22027 267.39435 139.69257 268.04102 133.25391 C 268.21435 131.52191 271.01565 128.79866 272.70898 128.72266 C 276.73165 128.54132 279.73573 127.14655 282.28906 124.31055 C 283.90773 122.51321 285.45071 120.64942 287.10938 118.71875 C 299.72671 132.47208 311.71203 145.53037 323.69336 158.5957 C 336.56003 172.62637 349.43468 186.64979 362.27734 200.70312 C 367.73868 206.68046 374.42193 209.48293 382.44727 208.07227 C 390.9646 206.5736 396.74837 201.47841 399.20703 193.20508 C 401.8097 184.45308 399.39618 176.83058 392.71484 170.64258 C 368.32418 148.05724 343.90276 125.50745 319.49609 102.93945 C 316.77343 100.42079 314.07744 97.874064 310.91211 94.914062 C 313.17611 92.872732 315.16828 91.106641 317.12695 89.306641 C 319.60028 87.031974 320.77539 84.264988 320.49805 80.847656 C 320.28205 78.194322 322.08726 76.669785 324.30859 76.480469 C 329.90593 76.003118 335.62614 75.250928 341.13281 75.933594 C 346.78881 76.634927 350.49719 74.657552 354.11719 70.824219 C 360.52787 64.033553 360.78947 55.919633 354.24414 49.292969 C 339.75881 34.623636 325.06555 20.157385 310.68555 5.3867188 C 306.92476 1.5240943 302.87521 -0.11351633 298.96875 0.005859375 z M 299.38867 9.4589844 C 300.64551 9.4646522 301.88811 10.161552 303.30078 11.574219 C 313.48078 21.756886 323.63092 31.968684 333.79492 42.166016 C 337.76292 46.147347 341.73708 50.119608 345.70508 54.099609 C 350.91174 59.324942 350.71877 61.808058 345.13477 66.025391 C 327.6721 48.85206 310.25668 31.723638 292.16602 13.931641 C 293.51002 12.922306 294.52262 12.28428 295.39062 11.488281 C 296.86129 10.138285 298.13184 9.4533165 299.38867 9.4589844 z M 292.6543 29.199219 C 305.10363 41.544554 317.61992 53.95572 330.28125 66.511719 C 325.01325 67.615719 318.24016 64.94122 314.9375 71.449219 C 305.76016 62.377219 296.81184 53.531338 287.5625 44.388672 C 294.15183 40.854005 291.94896 34.360553 292.6543 29.199219 z M 277.89258 49.328125 C 288.47925 59.790791 299.60737 70.791392 310.7207 81.775391 C 298.39537 93.954056 286.08832 106.11489 273.95898 118.10156 C 263.15632 107.49623 251.99192 96.535347 240.91992 85.666016 C 253.36526 73.434013 265.69924 61.312126 277.89258 49.328125 z M 250.17188 53.527344 C 251.64579 53.611921 253.31608 54.668452 255.26758 56.751953 C 253.15291 58.84662 251.15206 60.828164 249.16406 62.798828 C 245.80006 60.126831 245.06616 57.324452 247.04883 55.064453 C 247.99791 53.983537 249.0255 53.461562 250.17188 53.527344 z M 283.7168 70.402344 C 282.81399 70.479743 281.94091 70.831031 281.19141 71.457031 C 279.09007 73.211696 278.91013 75.781645 280.7168 78.320312 C 281.11813 78.881644 281.59047 79.400715 281.92383 79.998047 C 283.35048 82.552713 283.29622 85.114781 281.68555 87.550781 C 280.13088 89.902781 277.80684 91.031308 275.07617 90.556641 C 273.51084 90.284643 271.982 89.39572 270.61133 88.511719 C 268.062 86.867719 265.37084 86.967286 263.71484 89.001953 C 262.06951 91.021956 262.41208 93.854475 264.58008 95.869141 C 267.68141 98.747806 271.36308 100.18258 275.59375 100.17578 C 276.08708 100.17578 276.58231 100.21524 277.07031 100.16992 C 283.91298 99.535256 288.74647 95.963347 291.23047 89.666016 C 293.71713 83.358014 292.54911 77.434024 288.03711 72.304688 C 286.80711 70.907188 285.22147 70.273346 283.7168 70.402344 z M 236.64062 95.507812 C 245.82729 104.63182 254.69028 113.43335 264.09961 122.77734 C 257.03961 126.44668 258.4723 133.17163 258.04297 139.1543 C 245.38163 126.6303 232.84995 114.23143 219.86328 101.38477 C 226.35261 100.8901 233.28329 102.55448 236.64062 95.507812 z M 205.53125 102.01172 C 223.13125 119.28639 240.55879 136.38953 258.68945 154.18555 C 257.37878 155.09888 256.2392 155.74051 255.2832 156.58984 C 252.5352 159.02983 250.21258 159.09346 247.53125 156.4668 C 241.75525 150.80813 236.0165 145.11091 230.3125 139.37891 C 221.9005 130.92557 213.53601 122.42246 205.13867 113.95312 C 199.72534 108.49313 199.81525 106.76905 205.53125 102.01172 z M 305.01367 102.5293 C 308.903 106.1173 313.16587 110.04323 317.42188 113.97656 C 340.30721 135.13123 363.20303 156.2765 386.06836 177.45117 C 391.33103 182.32584 392.1734 189.03935 388.30273 194.16602 C 383.69873 200.26601 375.27353 200.60852 369.76953 194.72852 C 362.35486 186.80985 355.09177 178.75186 347.75977 170.75586 C 330.5651 152.00919 313.36778 133.26496 296.17578 114.51562 C 295.58645 113.87296 295.04463 113.18665 294.41797 112.44531 C 297.94463 109.14398 301.36967 105.93997 305.01367 102.5293 z M 375.21289 178.80664 C 374.06656 178.86364 372.94437 179.37187 372.0957 180.2832 C 370.31035 182.20053 370.14752 184.4126 371.74219 186.44727 C 373.00619 188.05926 374.4143 189.7807 376.1543 190.7207 C 377.48763 191.44202 379.65612 191.53712 381.05078 190.95312 C 382.32145 190.41979 383.0521 188.59723 384.49609 186.72656 C 382.30943 184.26656 380.54056 181.99897 378.47656 180.04297 C 377.52923 179.14496 376.35922 178.74964 375.21289 178.80664 z M 188.31836 184.60938 C 177.05587 184.59242 165.77167 185.37336 154.48242 186.80078 C 143.31709 188.21278 132.2852 190.38896 122.0332 195.37695 C 117.2412 197.70762 113.09228 200.86437 110.34961 205.48438 C 106.22294 212.43371 102.36901 219.5471 98.263672 226.50977 C 96.539659 229.43376 96.516435 232.38816 98.509766 234.79883 C 100.66043 237.40016 103.21024 239.97317 106.12891 241.5625 C 110.59291 243.99183 115.39477 245.99431 120.27344 247.43164 C 142.0321 253.84898 164.4317 255.4747 193.43164 255.9707 C 201.27164 255.26404 215.53351 254.27418 229.71484 252.60352 C 240.88285 251.28885 251.95554 248.99072 262.29688 244.38672 C 266.45421 242.53605 270.43977 239.93985 273.89844 236.97852 C 277.71844 233.70918 277.81352 230.19066 275.35352 225.86133 C 271.84552 219.68933 268.2267 213.57966 264.83203 207.34766 C 261.88536 201.93699 257.70603 197.73553 252.08203 195.51953 C 245.42203 192.89686 238.59471 190.39393 231.60938 188.94727 C 217.24163 185.97127 202.7987 184.63117 188.31836 184.60938 z M 190.66797 194.02734 C 206.8913 194.24884 223.08241 196.39422 239.20508 200.71289 C 243.52108 201.86889 247.66556 203.96063 251.60156 206.14062 C 255.09495 208.07663 254.98098 210.10565 251.57031 212.32031 C 244.82765 216.69764 237.13549 218.57131 229.41016 220.19531 C 224.68749 221.18864 219.90804 222.07305 215.10938 222.51172 C 205.78671 223.36238 196.4308 223.86586 191.60547 224.19922 C 169.6588 223.97122 152.33992 222.92399 135.55859 217.86133 C 131.07326 216.50799 126.70408 214.52844 122.58008 212.28711 C 118.90275 210.28844 118.84158 207.81602 122.65625 206.05469 C 128.87358 203.18669 135.28826 200.26415 141.93359 198.88281 C 158.18959 195.50748 174.44464 193.80584 190.66797 194.02734 z M 227.4043 203.74609 C 226.51348 203.74745 225.57317 203.98803 224.63867 204.45703 C 222.83601 205.36103 220.87363 206.22259 218.9043 206.47461 C 198.57763 209.09329 178.21671 209.06232 157.85938 206.84766 C 155.25937 206.56499 152.52303 206.10242 150.20703 204.98242 C 146.74037 203.30775 144.08733 203.44808 142.61133 206.21875 C 141.11133 209.03342 142.10273 212.01602 145.52539 213.41602 C 148.50272 214.63335 151.68604 215.71428 154.85938 216.01562 C 165.53937 217.02762 176.25375 217.66531 186.95508 218.44531 C 186.96841 218.25599 186.98471 218.0669 186.99805 217.87891 C 188.57405 217.87891 190.15118 217.90631 191.72852 217.87305 C 202.66318 217.64105 213.62874 217.65294 224.33008 214.96094 C 226.38608 214.4436 228.44437 213.53138 230.20703 212.35938 C 232.39103 210.90738 232.64973 207.90944 231.17773 205.77344 C 230.23523 204.40427 228.88898 203.74384 227.4043 203.74609 z M 259.82812 217.84961 C 262.10546 221.83228 264.3722 225.62697 266.4082 229.54297 C 266.70953 230.12297 266.18851 231.72081 265.58984 232.07812 C 262.97784 233.63413 260.29232 235.15499 257.45898 236.23633 C 244.36299 241.23233 230.6432 243.50794 216.7832 244.83594 C 189.45254 247.45461 162.18818 247.0015 135.21484 241.4375 C 127.82417 239.9135 120.66531 237.24503 113.44531 234.95703 C 111.78665 234.43036 110.30029 233.33455 108.76562 232.44922 C 107.26962 231.58522 106.76409 230.60124 107.85742 228.86523 C 110.10009 225.30123 112.1038 221.58663 114.23047 217.89062 C 123.38914 225.26663 134.07814 228.04803 144.99414 229.9707 C 174.83147 235.22403 204.66142 235.10253 234.35742 228.89453 C 243.44676 226.9932 252.26679 224.16294 259.82812 217.84961 z "
       transform="matrix(0.26458333,0,0,0.26458333,-50.194231,15.309184)" />
    <text
       style="font-variant:normal;font-weight:normal;font-stretch:normal;font-size:12.7px;font-family:Helvetica;-inkscape-font-specification:Helvetica;writing-mode:lr-tb;fill:#ffffff;fill-opacity:1;fill-rule:nonzero;stroke:none;stroke-width:0.352777"
       id="text194"
       x="154.63896"
       y="246.42656"><tspan
         x="154.63896 163.30037 169.85353 176.40671 182.24872 188.80191 191.1133 194.13594 200.68912 204.41026 207.43282 213.98607 219.82802 222.85063 229.40382 235.95699 242.51027 248.35228 251.37483"
         y="246.42656"
         id="tspan182"
         style="stroke-width:0.352777">Consultar estados,</tspan><tspan
         x="152.32755 158.16949 164.72276 171.27592 174.29855 180.85175 187.40491 193.24693 195.55833 202.11151 207.95354 210.97609 213.99873 220.5519 227.10515 229.41655 235.2585 238.28111 244.8343 250.67632 253.69887"
         y="261.51419"
         id="tspan184"
         style="stroke-width:0.352777">sentencias, edictos,</tspan><tspan
         x="141.59601 144.61864 148.33968 154.89294 160.73497 163.04637 169.59955 176.15271 182.7059 188.54791 191.57056 197.41249 200.43512 203.45776 205.76917 208.08058 214.63374 220.47575 222.78716 229.34032 235.89351 242.4467 248.28871 251.31133 257.8645 264.41769"
         y="276.60181"
         id="tspan186"
         style="stroke-width:0.352777">traslados y fijaciones en</tspan><tspan
         x="119.33292 121.64433 123.95573 129.79774 132.82031 139.37357 142.39612 152.46725 159.02042 165.57361 167.88499 174.43826 180.99144 184.01399 190.56726 193.58981 195.90121 202.45438 205.47702 211.31905 217.87224 221.59334 224.61589 231.16914 233.48058 240.03374 243.75478 250.30803 253.33058 259.17261 261.48401 265.20514 268.22769 274.78088 281.33414 283.64551 286.66806"
         y="291.68942"
         id="tspan188"
         style="stroke-width:0.352777">lista mediante la cartelera virtual.</tspan><tspan
         x="-35.772156 -27.80929 -21.967272 -16.12525 -9.5720768 -3.0188618 3.5343113 7.2554493 10.278048 16.831221 23.384436 26.407034 36.478127 43.031349 49.584518 56.137733 59.858818 66.412041"
         y="245.28363"
         id="tspan190"
         style="stroke-width:0.352777">Acceder de manera</tspan><tspan
         x="-51.03759 -47.316452 -40.763283 -30.69219 -24.138971 -21.116377 -14.563162 -11.540564 -4.9873905 -1.9647464 0.34661302 6.899828 12.74185 15.764448 22.317625 28.159643 34.712814 41.266029 47.819252 50.130653 56.683823 63.237038 66.259644 72.812813 78.654831"
         y="259.67279"
         id="tspan192"
         style="stroke-width:0.352777">remota a los expedientes.</tspan></text>
    <path
       id="path206"
       style="fill:#2198d2;fill-opacity:1;fill-rule:nonzero;stroke:none;stroke-width:1.33333"
       d="M 227.6582 532.39062 C 221.14754 533.1773 214.57539 533.64236 208.13672 534.81836 C 195.70339 537.08902 184.26108 541.98008 173.70508 548.94141 C 170.93041 550.77074 169.94027 553.17194 171.57227 556.19727 C 173.0336 558.90658 176.11997 559.33641 179.30664 557.45508 C 179.85997 557.12841 180.36987 556.7265 180.92188 556.39844 C 208.28721 540.13177 236.5141 538.47876 265.52344 551.58008 C 269.37677 553.31874 272.80226 556.02511 276.68359 557.67578 C 278.36626 558.39177 281.20175 558.25224 282.59375 557.24023 C 283.80574 556.35624 284.29873 553.60757 284.02539 551.85156 C 283.82272 550.54487 282.0466 549.26128 280.69727 548.39062 C 264.5786 537.98128 246.87154 532.90661 227.6582 532.39062 z M 228.30273 555.45703 C 213.1724 555.32919 197.9829 559.79415 185.10156 568.85547 C 180.75623 571.9128 179.62577 574.7834 181.64844 577.63672 C 183.64044 580.44873 186.50126 580.2638 191.05859 577.14648 C 205.91459 566.9825 222.19549 563.50974 239.91016 566.81641 C 249.44349 568.59505 257.94467 572.62625 265.88867 578.12891 C 267.41934 579.18899 270.038 579.46249 271.88867 579.00781 C 273.17934 578.69184 274.01472 576.51653 275.52539 574.56055 C 273.87739 572.66054 272.76434 570.79603 271.15234 569.60938 C 258.50434 560.30471 243.43307 555.58487 228.30273 555.45703 z M 227.26367 581.06836 C 215.19967 581.34702 204.42189 585.51105 195.33789 593.92969 C 195.14856 594.10438 194.96258 594.28343 194.78125 594.46484 C 191.82658 597.42486 191.42061 600.6618 193.72461 602.89648 C 195.90994 605.01514 198.8728 604.63493 201.85547 601.84961 C 217.0048 587.70556 238.44833 587.66908 253.375 601.75977 C 256.443 604.65708 259.63058 605.02196 261.78125 602.72461 C 263.91725 600.44461 263.41847 597.18621 260.36914 594.29688 C 251.16914 585.58355 240.18367 581.27775 227.26367 581.06836 z M 236.81055 640.3125 C 224.69855 640.41833 212.58404 640.33815 200.4707 640.38086 C 195.29604 640.39821 193.93538 641.84649 193.91406 647.14648 C 193.89407 652.64781 193.91016 658.1493 193.91016 664.0293 C 187.98216 664.0293 182.59184 664.01431 177.20117 664.0332 C 171.64117 664.0532 170.11657 665.56806 170.11523 671.16406 C 170.10456 703.76804 170.10395 736.37059 170.11328 768.97461 C 170.11461 774.65993 171.57291 776.19068 177.12891 776.19336 C 221.45957 776.20848 265.78847 776.20444 310.11914 776.18555 C 315.82181 776.1829 317.25996 774.75467 317.30664 769.13867 C 317.35313 763.74933 317.31836 758.36027 317.31836 752.51758 C 323.19169 752.51758 328.33194 752.53074 333.47461 752.51562 C 339.59328 752.49828 340.9557 751.14324 340.95703 745.03125 C 340.96232 718.35523 340.95911 691.68184 340.95117 665.00586 C 340.94984 658.8845 339.68892 657.6582 333.40625 657.6582 C 309.05025 657.65556 284.69256 657.59762 260.33789 657.73633 C 257.17922 657.75368 255.07582 656.83277 253.14648 654.38477 C 250.19982 650.64609 246.81526 647.25459 243.80859 643.55859 C 241.93659 641.25724 239.77588 640.28604 236.81055 640.3125 z M 219.79492 650.5293 C 224.95876 650.53341 230.09385 650.55672 235.22852 650.63477 C 236.23918 650.65075 237.39174 651.85525 238.20508 652.75391 C 241.57574 656.47924 244.95818 660.20582 248.10352 664.11914 C 250.22752 666.76182 252.65279 667.79624 256.07812 667.77734 C 279.27413 667.65224 302.47002 667.71352 325.66602 667.71484 L 330.53906 667.71484 L 330.53906 742.04492 L 317.5332 742.04492 C 317.46521 740.72095 317.3236 739.23853 317.32227 737.75586 C 317.30866 721.51852 317.32699 705.28031 317.31641 689.04297 C 317.31107 682.56698 316.12186 681.38155 309.64453 681.37891 C 285.1592 681.36795 260.67345 681.33047 236.18945 681.42383 C 233.49345 681.43449 231.62897 680.70684 229.93164 678.57617 C 227.04497 674.95217 223.68304 671.70358 220.8457 668.04492 C 218.48304 665.00093 215.74867 663.58323 211.88867 663.97656 C 209.47534 664.22299 207.01674 664.02344 204.19141 664.02344 L 204.19141 650.54102 C 209.43874 650.54102 214.63109 650.52519 219.79492 650.5293 z M 208.95703 674.09961 C 211.47036 674.06227 213.27611 674.71106 214.91211 676.76172 C 218.04144 680.6857 221.58305 684.27802 224.76172 688.16602 C 226.72572 690.57002 228.96842 691.53074 232.09375 691.51562 C 255.54442 691.41282 278.9966 691.45703 302.44727 691.45703 L 306.85156 691.45703 L 306.85156 765.72461 L 180.44531 765.72461 L 180.44531 674.39453 C 181.73465 674.31176 182.97546 674.16589 184.2168 674.16211 C 192.46346 674.1383 200.7117 674.21829 208.95703 674.09961 z "
       transform="matrix(0.26458333,0,0,0.26458333,-50.194231,15.309184)" />
    <path
       id="path220"
       style="fill:#2198d2;fill-opacity:1;fill-rule:nonzero;stroke:none;stroke-width:1.33333"
       d="M 952.44531 528.35742 C 935.35421 528.4252 918.16484 538.0852 909.21875 558.01367 C 908.44141 557.66569 907.65883 557.32214 906.88281 556.96875 C 891.63612 550.0261 876.80294 550.82207 862.76562 559.96875 C 849.59896 568.54741 842.61846 581.1971 840.25977 596.53711 C 840.04513 597.93576 839.77461 598.71295 838.16797 599.04102 C 820.50397 602.65833 808.88135 613.51548 802.19336 629.85547 C 794.25201 649.26349 799.13116 671.68754 813.8418 684.99023 C 818.1658 688.90091 823.02371 691.04446 829.04102 690.92578 C 840.529 690.70052 852.02558 690.85938 863.51758 690.85938 L 866.91602 690.85938 L 866.91602 695.20312 C 866.91602 710.26847 866.9009 725.33313 866.91602 740.39844 C 866.9187 745.35979 868.33473 746.75977 873.30273 746.75977 L 930.08594 746.75977 L 933.1875 746.75977 L 933.1875 756.4668 L 929.81641 756.4668 C 910.59906 756.47058 891.38273 756.46743 872.16406 756.48633 C 868.25339 756.49033 866.72989 757.99124 866.67773 761.89258 C 866.62407 765.85258 866.66211 769.81148 866.66211 773.77148 C 866.66479 779.36881 867.78449 780.47461 873.48047 780.47461 L 1008.7754 780.47461 C 1015.7288 780.47461 1022.6834 780.49729 1029.6367 780.47461 C 1034.2527 780.45994 1035.6066 779.07562 1035.6406 774.37695 C 1035.6633 770.51431 1035.6671 766.65174 1035.6406 762.78906 C 1035.606 757.72639 1034.3586 756.48242 1029.2773 756.48242 C 1010.2519 756.47486 991.22907 756.4741 972.20508 756.45898 L 969.07422 756.45898 L 969.07422 746.76367 L 972.73438 746.76367 C 991.75972 746.76367 1010.7846 746.76512 1029.8086 746.75 C 1034.606 746.74868 1035.9922 745.35568 1035.9922 740.54102 C 1035.996 724.60634 1035.9965 708.67164 1036.0078 692.73828 C 1036.0093 691.72227 1036.0953 690.70884 1036.1523 689.46484 L 1039.9082 689.46484 C 1053.9109 689.46484 1067.9134 689.49363 1081.916 689.47852 C 1095.6734 689.46786 1105.7878 683.01715 1112.3691 671.28516 C 1119.3225 658.8945 1118.5439 645.797 1114.0879 632.84766 C 1106.5079 610.81698 1085.9764 597.88493 1063.6523 600.73828 C 1062.1617 600.9276 1060.6775 601.17923 1059.0508 601.42188 C 1056.6815 586.37788 1050.1062 574.02956 1037.6875 565.37891 C 1025.0142 556.55224 1011.1624 555.08344 996.62109 559.93945 L 996.62305 559.9375 C 988.72024 539.08288 970.63907 528.28527 952.44531 528.35742 z M 953.62891 537.47461 C 966.84958 537.71893 979.18783 545.7137 985.61719 558.68945 C 987.81721 563.13081 989.17597 567.99188 991.0293 572.94922 C 1005.2786 564.34652 1019.7906 563.47155 1033.6133 573.79688 C 1047.0573 583.84089 1050.9803 598.25978 1050.2109 614.75977 C 1052.047 614.00242 1053.4485 613.43431 1054.8418 612.84766 C 1073.1365 605.14899 1092.1372 611.38688 1101.9492 628.68555 C 1108.3185 639.91354 1110.6649 651.94131 1105.5156 664.25195 C 1101.1369 674.71463 1093.0048 680.35704 1081.3301 680.31055 C 1067.3274 680.25574 1053.325 680.27098 1039.3223 680.25586 L 1035.9902 680.25586 L 1035.9902 677.0332 C 1035.9902 664.0932 1036.0016 651.15094 1035.9902 638.21094 C 1035.9849 633.4456 1034.5503 632.01562 1029.7637 632.01562 L 873.02539 632.01562 C 868.48674 632.01563 866.91406 633.57599 866.91406 638.08398 C 866.89894 651.21463 866.91406 664.3427 866.91406 677.4707 L 866.91406 681.64453 L 866.91016 681.63867 L 855.77344 681.63867 C 847.08275 681.63867 838.38444 681.42798 829.70312 681.72656 C 825.20178 681.88122 821.83733 680.21865 818.94531 677.13867 C 808.84804 666.38134 805.55198 653.74802 808.80664 639.41602 C 812.58398 622.78001 825.20343 610.3805 840.88477 607.86719 C 843.4381 607.45779 846.04641 607.39997 848.51172 607.18945 C 848.98904 602.87081 849.184 598.71156 849.94531 594.6582 C 853.08799 577.92355 865.9009 564.79661 881.71289 562.14062 C 890.97288 560.58331 899.56394 562.5901 907.33594 567.88477 C 909.56125 569.40209 911.68213 571.06963 914.13281 572.875 C 915.02482 570.05097 915.72793 567.38626 916.69727 564.82227 C 921.96528 550.88624 931.28194 541.19296 946.22461 538.1543 C 948.70148 537.65034 951.18063 537.42937 953.62891 537.47461 z M 879.53516 641.17188 C 913.03383 641.25578 946.53453 641.23047 980.0332 641.23047 L 1023.1465 641.23047 L 1026.6895 641.23047 L 1026.6895 641.23242 L 1026.6895 720.24414 L 876.11719 720.24414 L 876.11719 716.82227 C 876.10283 692.78628 876.13846 668.7495 876.00391 644.71484 C 875.98792 641.88817 876.78181 641.15676 879.53516 641.17188 z M 954.35352 650.53516 C 937.28286 650.44581 923.54422 664.04266 923.48828 681.08398 C 923.43363 698.012 937.01518 711.77509 953.86719 711.87109 C 970.8432 711.96978 984.72783 698.23263 984.78906 681.2793 C 984.8504 664.47797 971.1322 650.62057 954.35352 650.53516 z M 955.21875 657.68945 L 955.21875 657.69141 C 956.5694 661.20871 957.92033 664.72889 959.42969 668.6582 L 949.5293 668.6582 C 950.99863 664.75954 952.32433 661.23811 953.65234 657.7168 C 954.17365 657.70924 954.69608 657.69701 955.21875 657.68945 z M 945.16016 659.16992 C 944.35618 662.51658 943.69083 665.54661 942.85352 668.5293 C 942.70283 669.0706 941.92031 669.64778 941.32031 669.81445 C 938.47233 670.60248 935.58494 671.25418 932.09961 672.10352 C 934.95429 666.02486 938.97349 661.79923 945.16016 659.16992 z M 963.93164 659.53125 C 969.56763 662.31525 973.40859 666.2257 976.00195 671.92969 C 972.85126 671.16169 970.07088 670.52747 967.32422 669.77148 C 966.7949 669.6248 966.10986 669.07014 965.98438 668.57812 C 965.24971 665.71948 964.65965 662.82326 963.93164 659.53125 z M 953.69531 675.73438 C 955.20048 675.73088 956.67644 675.75216 958.14844 675.85156 C 958.81775 675.89692 959.89316 676.97945 959.95703 677.66211 C 960.18078 680.04212 960.18103 682.46692 959.96484 684.84961 C 959.8995 685.57494 958.90555 686.75347 958.26953 686.79883 C 955.32554 687.00821 952.35894 686.89258 949.07227 686.89258 L 949.07422 675.76562 C 950.65623 675.76562 952.19014 675.73787 953.69531 675.73438 z M 967.17969 676.52344 C 970.68766 677.8581 973.97504 679.1081 977.26172 680.35742 C 977.29233 680.92541 977.32328 681.49256 977.35352 682.06055 C 974.10951 683.39121 970.86499 684.72238 967.17969 686.23438 L 967.17969 676.52344 z M 941.82031 676.87305 L 941.82031 686.27539 C 937.87498 684.77673 934.36801 683.44331 930.86133 682.11133 C 930.89497 681.76199 930.92875 681.41563 930.95898 681.06641 C 933.99765 678.51704 937.73098 677.62506 941.82031 676.87305 z M 932.52539 690.65625 C 935.63341 691.38559 938.70276 692.03765 941.71875 692.875 C 942.26678 693.02697 942.83112 693.8713 943.00195 694.50195 C 943.72592 697.17397 944.30489 699.88417 944.93555 702.57617 C 940.48489 701.95614 934.65338 696.39361 932.52539 690.65625 z M 975.86133 690.76562 C 973.25867 696.27897 969.51901 700.08977 964.01367 702.78711 C 964.72169 699.5871 965.28987 696.78042 966.00586 694.00977 C 966.13255 693.51911 966.82151 692.96627 967.35352 692.82227 C 970.02152 692.10227 972.72534 691.50963 975.86133 690.76562 z M 949.48828 693.96484 L 959.375 693.96484 C 957.90435 697.88217 956.56904 701.43628 955.23438 704.98828 L 953.72461 704.98828 C 952.38458 701.50295 951.0456 698.01684 949.48828 693.96484 z M 876.34961 729.87109 L 1026.625 729.87109 L 1026.625 737.38867 L 876.34961 737.38867 L 876.34961 729.87109 z M 942.77344 747.00781 L 959.4668 747.00781 L 959.4668 756.20117 L 942.77344 756.20117 L 942.77344 747.00781 z M 876.0332 765.91016 L 1026.2441 765.91016 L 1026.2441 771.13086 L 876.0332 771.13086 L 876.0332 765.91016 z "
       transform="matrix(0.26458333,0,0,0.26458333,-50.194231,15.309184)" />
  </g>
</svg>
