<?xml version="1.0" encoding="UTF-8" standalone="no"?>
<svg
   xmlns:dc="http://purl.org/dc/elements/1.1/"
   xmlns:cc="http://creativecommons.org/ns#"
   xmlns:rdf="http://www.w3.org/1999/02/22-rdf-syntax-ns#"
   xmlns:svg="http://www.w3.org/2000/svg"
   xmlns="http://www.w3.org/2000/svg"
   width="33.207695mm"
   height="33.243904mm"
   viewBox="0 0 33.207695 33.243904"
   version="1.1"
   id="svg1673">
  <defs
     id="defs1667" />
  <metadata
     id="metadata1670">
    <rdf:RDF>
      <cc:Work
         rdf:about="">
        <dc:format>image/svg+xml</dc:format>
        <dc:type
           rdf:resource="http://purl.org/dc/dcmitype/StillImage" />
        <dc:title></dc:title>
      </cc:Work>
    </rdf:RDF>
  </metadata>
  <g
     id="layer1"
     transform="translate(-117.95568,-138.3482)">
    <path
       id="path170"
       style="fill:#ffffff;fill-opacity:1;fill-rule:nonzero;stroke:none;stroke-width:0;stroke-miterlimit:4.66666985;stroke-dasharray:none"
       d="M 62.271484 0.005859375 C 54.453544 0.11262937 46.542891 1.7418163 38.900391 5.0039062 C 14.872381 15.259886 1.941985 34.097112 0.140625 60.175781 C -0.71668499 72.599761 2.3754895 84.319233 8.8808594 94.976562 C 18.738169 111.12591 33.017456 121.04529 51.634766 124.61328 C 54.016136 125.06928 56.437797 125.30783 58.841797 125.64648 L 66.685547 125.64648 C 69.088237 125.30783 71.506719 125.06991 73.886719 124.61523 C 92.586689 121.0339 106.87978 111.0327 116.75977 94.804688 C 121.7918 86.539358 124.56442 77.490152 125.28711 67.826172 C 125.31241 67.487482 125.43229 67.156756 125.50977 66.822266 L 125.50977 58.978516 C 125.34317 57.734526 125.16825 56.491414 125.01367 55.246094 C 123.35234 41.812744 117.94438 30.075363 108.70703 20.220703 C 96.225701 6.9042633 79.470944 -0.22902062 62.271484 0.005859375 z M 62.771484 6.4296875 C 93.856814 6.4366875 119.2117 31.787614 119.23438 62.876953 C 119.25567 93.950303 93.918982 119.32158 62.820312 119.37109 C 31.761633 119.42039 6.3715787 94.094234 6.2929688 62.990234 C 6.2156688 31.894245 31.651465 6.4221275 62.771484 6.4296875 z M 36.9375 32.419922 A 2.8252904 2.8252904 0 0 0 34.109375 35.248047 L 34.109375 90.404297 A 2.8252904 2.8252904 0 0 0 36.9375 93.224609 L 56.742188 93.224609 A 2.8252904 2.8252904 0 0 0 59.570312 90.404297 L 59.570312 35.248047 A 2.8252904 2.8252904 0 0 0 56.742188 32.419922 L 36.9375 32.419922 z M 68.765625 32.419922 A 2.8252904 2.8252904 0 0 0 65.9375 35.248047 L 65.9375 90.404297 A 2.8252904 2.8252904 0 0 0 68.765625 93.224609 L 88.570312 93.224609 A 2.8252904 2.8252904 0 0 0 91.398438 90.404297 L 91.398438 35.248047 A 2.8252904 2.8252904 0 0 0 88.570312 32.419922 L 68.765625 32.419922 z M 39.757812 38.066406 L 53.923828 38.066406 L 53.923828 87.578125 L 39.757812 87.578125 L 39.757812 38.066406 z M 71.583984 38.066406 L 85.75 38.066406 L 85.75 87.578125 L 71.583984 87.578125 L 71.583984 38.066406 z "
       transform="matrix(0.26458333,0,0,0.26458333,117.95568,138.3482)" />
  </g>
</svg>
