<?xml version="1.0" encoding="UTF-8" standalone="no"?>
<svg
   xmlns:dc="http://purl.org/dc/elements/1.1/"
   xmlns:cc="http://creativecommons.org/ns#"
   xmlns:rdf="http://www.w3.org/1999/02/22-rdf-syntax-ns#"
   xmlns:svg="http://www.w3.org/2000/svg"
   xmlns="http://www.w3.org/2000/svg"
   width="66.928658mm"
   height="81.761185mm"
   viewBox="0 0 66.928658 81.761185"
   version="1.1"
   id="svg1052">
  <defs
     id="defs1046" />
  <metadata
     id="metadata1049">
    <rdf:RDF>
      <cc:Work
         rdf:about="">
        <dc:format>image/svg+xml</dc:format>
        <dc:type
           rdf:resource="http://purl.org/dc/dcmitype/StillImage" />
        <dc:title></dc:title>
      </cc:Work>
    </rdf:RDF>
  </metadata>
  <g
     id="layer1"
     transform="translate(-64.809508,-106.53016)">
    <path
       id="path52"
       style="fill:#ffffff;fill-opacity:1;fill-rule:nonzero;stroke:none;stroke-width:1.33333"
       d="m 343.0918,402.63477 c -10.02896,0.0569 -20.25295,2.34487 -29.97461,7.18554 -24.32,12.10931 -37.14502,32.22584 -37.67969,59.53516 -0.37334,19.08665 -0.13755,38.18791 -0.0469,57.28125 0.0453,9.43869 -0.54438,19.00361 0.73829,28.29297 6.48133,46.92665 56.2864,70.33159 97.5664,51.26758 0.94667,-0.43733 1.86581,-1.49906 2.25781,-2.48438 3.40532,-8.58535 9.45982,-13.72952 18.73047,-14.99219 1.05332,-0.14267 2.3296,-0.74206 2.96289,-1.55273 7.66802,-9.82001 12.64398,-20.95492 13.16797,-33.37891 0.63481,-15.04131 0.15235,-30.1299 0.15235,-45.19922 h 0.41601 c 0,-12.26135 0.2129,-24.52727 -0.0898,-36.77929 -0.15065,-6.08667 -0.56345,-12.31991 -2.02344,-18.19727 -7.75899,-31.24698 -36.09085,-51.1492 -66.17773,-50.97851 z m -0.75391,12.17187 c 9.75717,-0.1338 19.64367,2.55453 29.48242,8.08203 18.18132,10.21467 26.96785,26.54453 27.19727,47.92188 l -28.25196,-0.004 c -1.30666,0 -2.6152,-0.004 -3.92187,0 -5.668,0.016 -8.0196,1.85724 -7.96094,6.22656 0.0573,4.28667 2.47206,6.0741 8.16407,6.07032 9.55199,-0.009 19.10166,-0.0116 28.65234,-0.008 0.97867,0 1.95555,0.0826 3.07422,0.13477 v 12.2793 h -3.25586 c -10.05336,0 -20.10816,-0.0506 -30.16016,0.0254 -4.32933,0.032 -6.50673,2.2465 -6.47461,6.20117 0.0307,3.79332 2.28137,6.02212 6.33203,6.04101 9.852,0.0454 19.70271,0.0156 29.55469,0.0156 h 3.99805 v 12.41797 h -3.56055 c -9.95331,0 -19.90542,-0.0379 -29.85742,0.0195 -4.152,0.0226 -6.41032,2.18013 -6.48633,5.91211 -0.0813,3.92402 2.23776,6.32888 6.3711,6.35156 10.05199,0.0529 20.10683,0.0162 30.16015,0.0176 h 3.20117 c 2.26402,25.32665 -2.61182,47.59172 -29.28515,61.65039 -31.724,16.72135 -70.8452,-0.42156 -79.89453,-34.4082 -2.36667,-8.89202 -1.36971,-17.91821 -1.62305,-27.24219 2.164,0 4.04445,-0.001 5.92578,0 8.54667,0.008 17.09334,0.0232 25.63867,0.0156 5.672,-0.007 8.93979,-2.32704 8.89844,-6.26172 -0.04,-3.81732 -3.26563,-6.05005 -8.76563,-6.05273 -9.24933,-0.004 -18.50004,-0.003 -27.74804,-0.004 h -3.7461 v -12.24609 c 0.81734,-0.0491 1.68093,-0.14708 2.54493,-0.14844 9.95199,-0.0151 19.90408,-0.006 29.85742,-0.0215 4.68666,-0.007 7.78045,-2.40791 7.84179,-6.05859 0.0627,-3.73467 -3.11966,-6.2317 -7.98632,-6.23438 -9.55067,-0.004 -19.10035,0.006 -28.65235,0.01 h -3.53515 v -12.41993 c 4.38533,0 8.77277,-0.003 13.16211,0 6.33333,0.004 12.66728,0.0124 19.00195,0.0137 4.844,10e-4 8.04302,-2.48482 8.00976,-6.2168 -0.032,-3.65068 -3.0884,-6.0552 -7.8164,-6.07031 -9.65067,-0.0227 -19.30113,-0.0119 -28.95313,-0.0156 h -3.66797 c -0.13466,-18.88135 7.01862,-34.05613 22.11329,-44.68945 10.47129,-7.37659 21.36375,-11.15305 32.42187,-11.30469 z m -91.54687,93.61719 c -3.21067,-0.088 -5.65776,2.34959 -5.64454,6.10156 0.0427,12.66002 -0.73479,25.41754 0.53321,37.96289 4.11466,40.73201 25.75946,68.67691 63.71679,83.90625 4.88267,1.95867 10.10686,3.06474 15.13086,4.55274 v 39.26562 h -3.82031 c -12.06533,0 -24.12936,-0.062 -36.19336,0.0234 -10.04266,0.072 -18.79148,6.96386 -20.77148,16.83984 -0.89052,4.43868 -0.61243,9.1135 -0.8711,13.79883 h 113.8086 c -0.99733,-3.86132 -1.96177,-7.59956 -3.00977,-11.6582 h -97.24609 v -0.002 c 1.36267,-4.43467 4.04332,-6.15234 9.33398,-6.15234 h 84.75 3.50781 v -12.33203 h -11.87695 v -39.29102 c 3.48533,-0.92666 6.79559,-1.72594 10.04492,-2.72461 0.77601,-0.23867 1.88597,-1.11017 1.92188,-1.74218 0.19204,-3.37735 0.0898,-6.76987 0.0898,-10.42188 -1.26933,0.39867 -2.21048,0.68151 -3.14648,0.99219 -14.02,4.64802 -28.34837,5.71746 -42.84571,3.10547 -42.09466,-7.58536 -71.86567,-43.37898 -71.8789,-86.18164 -0.003,-9.95067 0.0367,-19.90285 -0.0312,-29.85352 -0.028,-3.93067 -2.06996,-6.09761 -5.50195,-6.18945 z m 185.14453,0.002 c -2.69602,0.0507 -4.88567,1.96365 -5.375,4.79297 -0.15232,0.88267 -0.13735,1.80046 -0.13867,2.70313 -0.0113,9.24801 -0.0803,18.49616 0.008,27.74414 0.10934,11.69733 -1.70874,23.05527 -6.33008,33.80859 -2.48266,5.77999 -5.66002,11.26214 -8.60938,17.04883 2.89471,1.444 6.00938,2.99436 9.38672,4.67968 h 0.002 c 5.13067,-7.50134 8.74195,-15.27972 11.64062,-23.45703 7.22668,-20.38133 4.77581,-41.51946 4.98633,-62.43945 0.0293,-2.87467 -2.79565,-4.93302 -5.57031,-4.88086 z m -37.8086,92.24805 c -0.42129,-0.0238 -0.8379,-0.0212 -1.24023,0.008 -5.87736,0.42667 -10.18202,5.37219 -10.19336,11.76953 -0.0506,29.04132 -0.0751,58.08368 0.0742,87.125 0.012,2.348 0.86157,5.12383 2.29492,6.92383 1.71598,2.15335 4.48165,3.47234 6.79102,5.15234 h 4.2246 c 1.03998,-0.59467 2.05298,-1.24533 3.125,-1.77734 27.95468,-13.88266 55.93023,-27.72182 83.85157,-41.67383 2.74533,-1.37197 5.46291,-3.10073 7.65625,-5.2207 4.2825,-4.1387 4.25919,-9.76366 -0.0488,-13.87695 -2.20664,-2.10668 -4.92326,-3.82526 -7.66992,-5.19727 -28.36668,-14.18536 -56.77743,-28.28164 -85.21875,-42.32031 -1.07901,-0.53286 -2.38262,-0.8407 -3.64649,-0.91211 z m 0.86914,13.41797 c 28.42402,14.20403 56.49754,28.2353 85.21485,42.58593 -28.62399,14.10668 -56.70285,27.94607 -85.21485,41.99805 z m -61.59375,28.72851 h 11.80469 v 37.75 h -11.80469 z"
       transform="scale(0.26458333)" />
  </g>
</svg>
