<?xml version="1.0" encoding="UTF-8" standalone="no"?>
<svg
   xmlns:dc="http://purl.org/dc/elements/1.1/"
   xmlns:cc="http://creativecommons.org/ns#"
   xmlns:rdf="http://www.w3.org/1999/02/22-rdf-syntax-ns#"
   xmlns:svg="http://www.w3.org/2000/svg"
   xmlns="http://www.w3.org/2000/svg"
   width="33.207695mm"
   height="33.243904mm"
   viewBox="0 0 33.207695 33.243904"
   version="1.1"
   id="svg1673">
  <defs
     id="defs1667" />
  <metadata
     id="metadata1670">
    <rdf:RDF>
      <cc:Work
         rdf:about="">
        <dc:format>image/svg+xml</dc:format>
        <dc:type
           rdf:resource="http://purl.org/dc/dcmitype/StillImage" />
        <dc:title></dc:title>
      </cc:Work>
    </rdf:RDF>
  </metadata>
  <g
     id="layer1"
     transform="translate(-117.95568,-138.3482)">
    <path
       id="path170"
       style="fill:#ffffff;fill-opacity:1;fill-rule:nonzero;stroke:none;stroke-width:1.33333"
       d="m 508.08789,522.89648 c -7.81794,0.10677 -15.72859,1.73596 -23.37109,4.99805 -24.02801,10.25598 -36.95841,29.09321 -38.75977,55.17188 -0.85731,12.42398 2.23487,24.14345 8.74024,34.80078 9.85731,16.14935 24.13659,26.06873 42.7539,29.63672 2.38137,0.456 4.80303,0.69455 7.20703,1.0332 h 7.84375 c 2.40269,-0.33865 4.82117,-0.57657 7.20117,-1.03125 18.69997,-3.58133 32.99306,-13.58254 42.87305,-29.81055 5.03203,-8.26533 7.80466,-17.31453 8.52735,-26.97851 0.0253,-0.33869 0.14517,-0.66942 0.22265,-1.00391 v -7.84375 c -0.1666,-1.24399 -0.34151,-2.4871 -0.49609,-3.73242 -1.66133,-13.43335 -7.06929,-25.17073 -16.30664,-35.02539 -12.48133,-13.31644 -29.23609,-20.44973 -46.43555,-20.21485 z m 0.5,6.42383 c 31.08533,0.007 56.44021,25.35793 56.46289,56.44727 0.0213,31.07335 -25.31539,56.44463 -56.41406,56.49414 -31.05868,0.0493 -56.44873,-25.27686 -56.52734,-56.38086 -0.0773,-31.09599 25.35849,-56.56811 56.47851,-56.56055 z m -13.14062,25.91602 c -2.83125,-0.0999 -4.99958,1.86842 -5.47657,5.35742 -0.13455,0.98801 -0.20434,1.99485 -0.20703,2.99219 -0.0151,7.36267 -0.008,14.72326 -0.008,22.08594 0,7.44933 -0.007,14.89832 0.008,22.34765 0.003,0.99734 0.0674,2.00554 0.21289,2.99219 0.69865,4.7308 4.24531,6.2519 7.5293,4.86523 1.23333,-0.52134 2.45814,-1.11636 3.57812,-1.8457 10.61602,-6.91064 21.21136,-13.85217 31.80469,-20.79883 0.76267,-0.49999 1.49213,-1.06045 2.18945,-1.64844 3.40933,-2.87603 3.83853,-6.95587 0.97852,-10.36523 -0.87866,-1.04666 -2.00372,-1.94055 -3.15039,-2.69922 -10.63465,-7.04266 -21.2957,-14.04553 -31.95703,-21.04687 -0.79869,-0.524 -1.63093,-1.00908 -2.48828,-1.42774 -1.053,-0.51333 -2.06993,-0.77528 -3.01367,-0.80859 z m 2.46289,8.23242 c 0.30796,0.007 0.64242,0.0862 0.99609,0.24023 0.47467,0.20667 0.91297,0.50415 1.34766,0.79102 9.38664,6.17333 18.77102,12.35064 28.15234,18.5293 0.40003,0.26267 0.80513,0.5233 1.16797,0.83398 1.41464,1.21202 1.39312,2.81367 -0.0469,4.01367 -0.33331,0.27867 -0.70243,0.51347 -1.0664,0.75196 -9.40003,6.15065 -18.80182,12.29989 -28.20313,18.44921 -0.1454,0.096 -0.29085,0.1903 -0.4375,0.28516 -0.86267,0.55336 -1.90208,1.20699 -2.74609,0.45899 -0.60798,-0.53734 -0.98671,-1.64011 -0.99805,-2.4961 -0.0816,-6.53469 -0.0449,-13.06945 -0.0449,-19.60547 0,-6.31865 -6.9e-4,-12.63575 0.002,-18.95312 0,-0.52263 -0.0235,-1.05649 0.0684,-1.56446 0.205,-1.13802 0.88471,-1.75624 1.8086,-1.73437 z"
       transform="scale(0.26458333)" />
  </g>
</svg>
