<?xml version="1.0" encoding="UTF-8" standalone="no"?>
<svg
   xmlns:dc="http://purl.org/dc/elements/1.1/"
   xmlns:cc="http://creativecommons.org/ns#"
   xmlns:rdf="http://www.w3.org/1999/02/22-rdf-syntax-ns#"
   xmlns:svg="http://www.w3.org/2000/svg"
   xmlns="http://www.w3.org/2000/svg"
   width="56.776794mm"
   height="55.290165mm"
   viewBox="0 0 56.776794 55.290165"
   version="1.1"
   id="svg460">
  <defs
     id="defs454" />
  <metadata
     id="metadata457">
    <rdf:RDF>
      <cc:Work
         rdf:about="">
        <dc:format>image/svg+xml</dc:format>
        <dc:type
           rdf:resource="http://purl.org/dc/dcmitype/StillImage" />
        <dc:title></dc:title>
      </cc:Work>
    </rdf:RDF>
  </metadata>
  <g
     id="layer1"
     transform="translate(-82.346394,-157.49271)">
    <path
       id="path162"
       style="fill:#ffffff;fill-opacity:1;fill-rule:nonzero;stroke:none;stroke-width:1.33333"
       d="m 419.71484,595.24805 c -0.20674,0 -0.41184,0.003 -0.61718,0.008 -0.41065,0.008 -0.81731,0.0295 -1.22266,0.0606 -1.26531,0.096 -2.50243,0.29233 -3.70508,0.57617 -0.25587,0.0612 -0.50974,0.1281 -0.76172,0.19726 -1.19867,0.32542 -2.35995,0.74024 -3.47461,1.24024 -0.034,0.0189 -0.0668,0.0291 -0.10156,0.0469 -1.18666,0.53866 -2.32181,1.17327 -3.39648,1.89063 -0.0627,0.0412 -0.12432,0.0838 -0.18555,0.125 -0.42667,0.29064 -0.84137,0.5961 -1.24805,0.91211 -0.18255,0.14249 -0.3649,0.2893 -0.54492,0.4375 -0.27326,0.2279 -0.54264,0.45862 -0.80664,0.69726 -0.15345,0.13985 -0.30427,0.27987 -0.45508,0.42383 -1.57598,1.50399 -2.94443,3.22344 -4.06445,5.10742 -0.0945,0.15723 -0.18664,0.31591 -0.27734,0.47461 -0.3001,0.53469 -0.57922,1.07939 -0.8379,1.63672 -0.0378,0.0801 -0.0727,0.16011 -0.10742,0.24024 -0.0378,0.0786 -0.0692,0.1601 -0.10547,0.24023 -0.49065,1.11734 -0.89556,2.27852 -1.21289,3.47852 -0.16403,0.62267 -0.29623,1.25772 -0.41211,1.90039 -0.0786,0.44133 -0.12834,0.88795 -0.18164,1.33593 -0.0189,0.15081 9e-5,0.30233 -0.0137,0.45313 -0.0151,0.15458 0.0293,0.3094 0.0293,0.46289 v 0.006 c 0,0.24794 -0.109,0.49739 -0.1211,0.74805 -0.0227,0.408 -0.10351,0.81846 -0.10351,1.23046 0,0.41333 0.0104,0.82443 0.0293,1.23243 0.0189,0.408 0.0521,0.81217 0.0918,1.21484 0.0612,0.60268 0.14537,1.19972 0.25196,1.78906 0.11338,0.64135 0.25581,1.27444 0.41992,1.89844 0.31748,1.19864 0.72673,2.36121 1.21875,3.47852 0.0692,0.16138 0.14001,0.32059 0.21484,0.48046 0.25852,0.55733 0.53983,1.10472 0.83985,1.63672 0.0907,0.15874 0.18285,0.31919 0.27734,0.47657 1.02266,1.72267 2.25339,3.30549 3.66406,4.71484 0.27742,0.27855 0.56482,0.55045 0.85547,0.81445 0.26419,0.23849 0.53331,0.47193 0.80664,0.69727 0.17991,0.14929 0.36031,0.2956 0.54297,0.43945 0.40668,0.31748 0.82333,0.61947 1.25,0.91016 0.0612,0.0412 0.12318,0.0849 0.18555,0.125 0.61734,0.41333 1.25672,0.80158 1.91406,1.15625 0.48401,0.26116 0.97974,0.50635 1.48242,0.73437 0.034,0.0189 0.0668,0.0306 0.10156,0.0469 1.11466,0.49999 2.27594,0.9188 3.47461,1.24414 0.2521,0.068 0.5057,0.13213 0.76172,0.19336 1.20265,0.28535 2.43977,0.48212 3.70508,0.57812 0.40535,0.0302 0.81201,0.0515 1.22266,0.0606 0.20522,0.008 0.41052,0.008 0.61718,0.008 0.20674,0 0.41317,-0.002 0.61719,-0.008 0.41065,-0.008 0.81926,-0.0296 1.22461,-0.0606 1.26531,-0.096 2.50243,-0.29258 3.70508,-0.57812 0.25587,-0.0612 0.50974,-0.12533 0.76172,-0.19336 1.19735,-0.32542 2.358,-0.74415 3.47265,-1.24414 0.034,-0.0151 0.0688,-0.0306 0.10352,-0.0469 0.56266,-0.25587 1.1156,-0.53079 1.6543,-0.82812 0.59731,-0.3292 1.17816,-0.68515 1.74218,-1.0625 0.0627,-0.0401 0.12432,-0.0834 0.18555,-0.125 0.42535,-0.29065 0.84137,-0.59283 1.24805,-0.91016 0.18255,-0.144 0.36641,-0.28993 0.54492,-0.43945 0.27326,-0.22526 0.54201,-0.45863 0.80469,-0.69727 0.15458,-0.13984 0.30755,-0.28037 0.45703,-0.42187 1.57731,-1.50531 2.94579,-3.22341 4.06445,-5.10742 0.0945,-0.15723 0.18468,-0.31805 0.27539,-0.47657 0.30123,-0.532 0.57985,-1.07939 0.83985,-1.63672 0.0748,-0.15987 0.14807,-0.31908 0.21875,-0.48046 0.49069,-1.11731 0.89814,-2.27988 1.21679,-3.47852 0.16403,-0.624 0.30533,-1.25709 0.41992,-1.89844 0.10659,-0.58934 0.18991,-1.18638 0.25,-1.78906 0.0412,-0.40267 0.0722,-0.80684 0.0937,-1.21484 0.0189,-0.408 0.0312,-0.8191 0.0312,-1.23243 0,-0.412 -0.0123,-0.82246 -0.0312,-1.23046 -0.0113,-0.21733 -0.0267,-0.4344 -0.043,-0.65039 -0.0151,-0.18785 -0.0304,-0.3783 -0.0508,-0.56641 -0.0601,-0.60401 -0.14341,-1.19909 -0.25,-1.78711 -0.11452,-0.64267 -0.25581,-1.27771 -0.41992,-1.90039 -0.31861,-1.2 -0.7261,-2.36313 -1.21679,-3.48047 -0.0707,-0.16139 -0.14392,-0.31996 -0.21875,-0.47852 -0.26004,-0.55732 -0.53851,-1.10202 -0.83985,-1.63671 -0.0907,-0.15874 -0.1809,-0.31742 -0.27539,-0.47461 -1.12002,-1.88531 -2.49168,-3.60794 -4.07031,-5.11328 -0.14816,-0.14136 -0.29908,-0.28051 -0.45117,-0.41797 -0.26268,-0.23849 -0.53136,-0.47124 -0.80469,-0.69922 -0.17877,-0.14816 -0.36226,-0.29498 -0.54492,-0.4375 -0.40668,-0.31597 -0.8227,-0.62147 -1.24805,-0.91211 -0.0612,-0.0412 -0.12281,-0.0818 -0.18555,-0.12305 -1.07467,-0.71735 -2.20846,-1.35197 -3.39648,-1.89062 -0.034,-0.0189 -0.0687,-0.0311 -0.10352,-0.0488 -1.11465,-0.5 -2.2753,-0.91493 -3.47265,-1.24024 -0.2521,-0.0692 -0.5057,-0.13603 -0.76172,-0.19726 -1.20265,-0.28384 -2.43977,-0.47822 -3.70508,-0.57422 -0.40535,-0.0302 -0.81396,-0.053 -1.22461,-0.0625 -0.20409,-0.004 -0.41052,-0.008 -0.61719,-0.008 z m 0,3.99804 v 0.002 c 0.17084,0 0.34357,0.002 0.52344,0.008 0.3428,0.008 0.68433,0.0266 1.01367,0.0508 1.03469,0.0801 2.07281,0.24135 3.07813,0.47852 0.21468,0.0521 0.42985,0.10743 0.64453,0.16601 0.98532,0.26948 1.95743,0.61458 2.82812,1.00391 l 0.0996,0.0469 0.0449,0.0215 c 0.97198,0.43997 1.92271,0.97206 2.83203,1.58008 l 0.14843,0.0977 c 0.35074,0.24 0.70091,0.49434 1.04493,0.76367 0.15345,0.11868 0.30388,0.24177 0.44531,0.35743 0.22942,0.19048 0.45514,0.3847 0.67383,0.58203 0.12548,0.11452 0.25081,0.23068 0.3789,0.35351 1.31864,1.25734 2.46049,2.69096 3.39649,4.26563 0.0786,0.13341 0.15475,0.26721 0.22656,0.39258 0.24113,0.43067 0.47789,0.88993 0.69922,1.36328 0.0612,0.13077 0.12224,0.26406 0.17969,0.39453 0.412,0.93868 0.75172,1.90927 1.01172,2.89062 0.13984,0.53466 0.25738,1.06665 0.3496,1.58399 0.0881,0.48933 0.15834,0.99219 0.20899,1.49218 0.0151,0.15723 0.0312,0.31451 0.041,0.45704 0.0151,0.18784 0.0258,0.37877 0.0371,0.55078 0.0151,0.34129 0.0274,0.68459 0.0274,1.03125 0,0.34658 -0.008,0.69081 -0.0274,1.02148 -0.0189,0.34394 -0.0425,0.68549 -0.0762,1.02149 -0.0506,0.49867 -0.12287,0.99894 -0.21094,1.48828 -0.0918,0.51602 -0.20938,1.05135 -0.3496,1.58203 -0.26004,0.984 -0.60108,1.95727 -1.01172,2.89062 -0.0586,0.13455 -0.11764,0.26756 -0.17774,0.39844 -0.22148,0.47463 -0.45663,0.93085 -0.69531,1.35352 -0.076,0.13341 -0.15394,0.26909 -0.23633,0.40625 -0.93199,1.56933 -2.07125,3.00037 -3.39258,4.26172 -0.12397,0.11981 -0.25216,0.23622 -0.375,0.3496 -0.22148,0.19994 -0.44796,0.3941 -0.66797,0.57813 -0.1508,0.12246 -0.3002,0.24586 -0.45898,0.36719 -0.33865,0.26683 -0.68952,0.52357 -1.04687,0.76758 l -0.14454,0.0957 c -0.48,0.32012 -0.97101,0.61871 -1.45898,0.88672 -0.44134,0.24264 -0.90238,0.47418 -1.37305,0.6875 -0.0113,0.004 -0.0217,0.0118 -0.0293,0.0156 -0.0151,0.008 -0.0354,0.016 -0.0547,0.0274 -0.92803,0.41601 -1.90004,0.76192 -2.88672,1.03125 -0.21317,0.0575 -0.42615,0.11297 -0.63281,0.16211 -1.01333,0.24 -2.05278,0.40373 -3.07813,0.48242 -0.33864,0.0227 -0.67926,0.0417 -1.03125,0.0508 -0.17083,0.004 -0.34314,0.004 -0.51367,0.004 -0.17197,0 -0.34357,-0.002 -0.52344,-0.008 -0.3428,-0.008 -0.683,-0.0266 -1.01367,-0.0508 -1.03468,-0.0786 -2.07218,-0.24003 -3.07617,-0.47851 -0.21581,-0.0507 -0.43181,-0.10744 -0.64649,-0.16602 -0.98664,-0.26797 -1.95674,-0.61524 -2.88476,-1.03125 l -0.082,-0.0371 c -0.42531,-0.192 -0.84094,-0.39787 -1.23828,-0.61523 -0.54267,-0.29216 -1.07628,-0.61504 -1.62696,-0.98438 l -0.125,-0.082 c -0.34658,-0.23584 -0.69651,-0.49054 -1.03515,-0.75586 -0.15459,-0.12132 -0.30774,-0.24517 -0.45703,-0.36914 -0.22791,-0.18935 -0.45197,-0.3802 -0.66797,-0.57617 -0.24416,-0.22148 -0.48345,-0.45025 -0.7168,-0.6836 -1.17468,-1.17331 -2.20198,-2.49617 -3.05664,-3.9375 -0.0786,-0.13077 -0.15658,-0.26539 -0.22461,-0.38671 -0.25058,-0.44535 -0.48649,-0.90391 -0.70117,-1.36524 -0.0612,-0.1319 -0.12155,-0.26308 -0.18164,-0.40039 -0.41065,-0.93335 -0.75173,-1.90467 -1.01172,-2.88867 -0.14136,-0.53333 -0.25972,-1.06737 -0.35156,-1.58203 -0.0854,-0.48133 -0.15639,-0.98359 -0.20704,-1.49024 -0.034,-0.33335 -0.0588,-0.67082 -0.0762,-1.02148 -0.0189,-0.33865 -0.0273,-0.67867 -0.0273,-1 0.004,-0.0945 0.0199,-0.1879 0.0312,-0.28125 0.0189,-0.16668 0.0364,-0.33238 0.0508,-0.50586 0.0586,-0.26154 0.14453,-0.68615 0.14453,-1.2168 0,-0.15987 -0.008,-0.32039 -0.0273,-0.48828 0.001,-0.0378 0.004,-0.0707 0.004,-0.10547 l 0.004,-0.0469 c 0.034,-0.30274 0.0682,-0.60491 0.12305,-0.90625 0.10923,-0.60802 0.21852,-1.12666 0.33984,-1.58399 0.26419,-0.99866 0.60378,-1.97065 1.00781,-2.89062 l 0.0606,-0.14063 0.0352,-0.082 0.082,-0.17773 c 0.21468,-0.46402 0.45008,-0.92416 0.6914,-1.35352 0.076,-0.13455 0.15463,-0.26632 0.23438,-0.40234 0.93332,-1.56934 2.07394,-3.00111 3.39258,-4.25977 0.12548,-0.11981 0.25254,-0.23969 0.375,-0.35156 0.21997,-0.19729 0.44326,-0.39145 0.66992,-0.57813 0.15194,-0.12548 0.30623,-0.25046 0.45703,-0.36914 0.34129,-0.26683 0.69078,-0.51897 1.05078,-0.76562 l 0.14649,-0.0977 c 0.89865,-0.60136 1.84909,-1.13199 2.84375,-1.58398 0.0151,-0.004 0.0419,-0.0199 0.0684,-0.0312 0.92802,-0.41598 1.89739,-0.76251 2.88671,-1.0332 0.21204,-0.0575 0.42483,-0.11065 0.63282,-0.16016 1.01333,-0.24 2.0534,-0.40241 3.08008,-0.48242 0.33864,-0.0265 0.6773,-0.0429 1.02929,-0.0508 0.17084,-0.004 0.34163,-0.008 0.51367,-0.008 z m 22.0625,43.48243 c -1.036,0.99333 -2.1212,1.8618 -3.25586,2.70312 -0.18784,0.14135 -0.37963,0.31445 -0.57031,0.31445 -1.72535,1.30266 -3.56053,2.45572 -5.50586,3.31836 -0.39602,0.17462 -0.79142,0.5302 -1.1914,0.6875 -1.008,0.39867 -2.0311,1.21289 -3.06446,1.21289 h -1.18359 -0.002 c -0.26381,0 -0.52765,0.10032 -0.79297,0.15625 -2.12799,0.452 -4.30362,0.65625 -6.51563,0.65625 -1.93334,0 -3.84337,-0.17415 -5.7207,-0.51953 -1.91203,-0.35187 -3.79167,-0.8864 -5.625,-1.5957 -0.47331,-0.18406 -0.94413,-0.37732 -1.41211,-0.58399 -2.48803,-1.10135 -4.83566,-2.50475 -6.98633,-4.1914 -0.84132,-0.6587 -1.65235,-1.36078 -2.42969,-2.10742 -0.63465,0.14664 -1.26029,0.32152 -1.875,0.52539 -0.15344,0.0506 -0.30748,0.10378 -0.46093,0.1582 -0.68534,0.24151 -1.35571,0.51818 -2.01172,0.82617 -0.14514,0.068 -0.28613,0.1368 -0.43164,0.20899 -2.37733,1.18 -4.52833,2.77716 -6.375,4.70117 -0.11188,0.11603 -0.21499,0.23484 -0.32422,0.35351 -3.69736,4.01466 -6.05717,9.36759 -6.33985,15.26758 -0.0189,0.39334 0.004,0.79138 0.004,1.19141 v 24.7793 c 0,0.50932 0.43069,0.60546 0.91602,0.60546 h 78.18359 c 0.48665,0 0.46289,-0.0961 0.46289,-0.60546 v -24.7793 c 0,-0.40003 0.1216,-0.82151 0.10156,-1.21484 -0.508,-10.79868 -7.78175,-19.78436 -17.59375,-22.06836 z m 1,4.45703 c 7.08533,2.52933 12.14318,9.50247 12.58985,17.64648 l -0.008,0.0723 c -0.0378,0.25738 -0.0879,0.64874 -0.0879,1.10742 v 21.38476 h -71.5625 v -21.38476 c 0,-0.16668 -0.003,-0.33059 -0.008,-0.4961 -0.003,-0.16667 -0.008,-0.33247 -0.002,-0.50195 0.22942,-4.76935 2.10607,-9.2989 5.27539,-12.74023 l 0.16016,-0.17578 0.11718,-0.12696 c 1.54934,-1.61336 3.32179,-2.92281 5.25782,-3.88281 l 0.36328,-0.17773 c 0.53733,-0.2521 1.08687,-0.47856 1.63086,-0.67188 0.32277,0.27213 0.64979,0.53761 0.98047,0.79492 2.39599,1.88002 5.03141,3.46251 7.83007,4.70118 0.528,0.2347 1.06248,0.45418 1.5918,0.6582 2.05466,0.79464 4.18839,1.40079 6.3457,1.80078 2.11068,0.38801 4.27999,0.58398 6.44532,0.58398 2.548,0 5.01727,-0.24896 7.33593,-0.74218 0.10394,-0.0227 0.20579,-0.045 0.3086,-0.0703 h 0.84961 c 1.68536,0 3.03503,-0.71673 3.92968,-1.1914 0.22413,-0.11868 0.47776,-0.25152 0.59375,-0.29688 0.59732,-0.23471 1.05993,-0.53827 1.36524,-0.73828 0.034,-0.0227 0.066,-0.0449 0.0996,-0.0664 1.896,-0.8507 3.76461,-1.95774 5.69531,-3.3711 0.48397,-0.23471 0.83197,-0.50155 1.0293,-0.65625 0.68398,-0.50532 1.30105,-0.98832 1.87304,-1.45898 z m -24.8789,50.12695 c -2.26398,0 -4.11524,1.85258 -4.11524,4.11523 v 28.59375 l -25.21875,20.08594 c -1.76934,1.40935 -2.06364,4.01058 -0.65429,5.78125 l 0.73437,0.92383 c 0.81063,1.01734 2.01454,1.54688 3.22656,1.54688 0.89998,0 1.8039,-0.29122 2.5586,-0.89258 l 23.20117,-18.48047 23.20117,18.48047 c 0.7547,0.60132 1.65798,0.89258 2.55664,0.89258 1.21334,0 2.41593,-0.52954 3.22656,-1.54688 l 0.73633,-0.92383 c 1.40935,-1.77067 1.1131,-4.3719 -0.65625,-5.78125 l -23.50195,-18.71875 v -29.96094 c 0,-2.26265 -1.85318,-4.11523 -4.11719,-4.11523 z m 0,4 h 1.17773 c 0.0548,0 0.11719,0.0619 0.11719,0.11523 v 27.36915 c -0.26423,-0.0521 -0.53125,-0.0859 -0.79883,-0.0859 -0.20551,0 -0.40828,0.0362 -0.61133,0.0664 v -27.34961 c 0,-0.0533 0.0604,-0.11523 0.11524,-0.11523 z m 68.18945,6.41016 c -0.20674,0 -0.41185,0.002 -0.61719,0.008 -0.41064,0.0113 -0.81866,0.03 -1.22265,0.0625 -1.26667,0.096 -2.50244,0.29233 -3.70508,0.57617 -0.25588,0.0612 -0.50974,0.12577 -0.76172,0.19531 -1.19735,0.32542 -2.35995,0.7422 -3.47461,1.24219 -0.034,0.0151 -0.0668,0.0306 -0.10156,0.0469 -1.18666,0.53865 -2.32182,1.17194 -3.39649,1.89062 -0.0627,0.0401 -0.12431,0.0838 -0.18554,0.125 -0.42667,0.29065 -0.84333,0.59474 -1.25,0.91211 -0.18255,0.14249 -0.36295,0.2893 -0.54297,0.4375 -0.27326,0.22677 -0.54264,0.45863 -0.80664,0.69727 -0.15345,0.1387 -0.30579,0.28122 -0.45508,0.42382 -1.57599,1.50535 -2.94642,3.22344 -4.06641,5.10743 -0.0934,0.15609 -0.18468,0.3159 -0.27539,0.47461 -0.30009,0.53332 -0.58176,1.08134 -0.84179,1.63867 -0.0378,0.0801 -0.0769,0.15815 -0.11133,0.23828 -0.0378,0.0786 -0.0789,0.16011 -0.11328,0.24023 -0.49202,1.11734 -0.91119,2.2772 -1.22852,3.47852 -0.16554,0.62268 -0.32873,1.25772 -0.44336,1.90039 -0.0801,0.44266 -0.18934,0.88663 -0.24414,1.33594 -0.0189,0.1508 -0.1267,0.30173 -0.14258,0.45117 -0.0151,0.15458 -0.22461,0.30974 -0.22461,0.46289 v 0.008 c 0,0.24794 0.14491,0.49676 0.13282,0.7461 -0.0227,0.40799 0.15039,0.82041 0.15039,1.23242 0,0.41333 0.007,0.82247 0.0293,1.23047 0.0189,0.40932 0.0526,0.81412 0.0937,1.21679 0.0601,0.60401 0.14304,1.20105 0.25,1.78906 0.11452,0.64132 0.25582,1.2764 0.41992,1.9004 0.31749,1.19863 0.72674,2.36121 1.21876,3.47851 0.0707,0.16139 0.14189,0.31864 0.21484,0.47852 0.25852,0.55733 0.53982,1.10339 0.83984,1.63672 0.0907,0.15874 0.18286,0.31804 0.27735,0.47656 1.02266,1.72267 2.25339,3.30549 3.66406,4.71484 0.27855,0.27742 0.56545,0.54909 0.85742,0.81445 0.26268,0.23849 0.53135,0.47194 0.80469,0.69727 0.1799,0.14929 0.3603,0.29542 0.54297,0.43945 0.40667,0.31597 0.82333,0.61948 1.25,0.91016 0.0612,0.0412 0.1228,0.0854 0.18554,0.12695 0.61867,0.41333 1.25732,0.79904 1.91602,1.15235 0.48265,0.26267 0.97779,0.50894 1.48047,0.73828 0.034,0.0189 0.0668,0.0287 0.10156,0.0449 1.11466,0.49999 2.27726,0.91685 3.47461,1.24219 0.25209,0.068 0.50569,0.1337 0.76172,0.19531 1.20264,0.28535 2.43841,0.48213 3.70508,0.57812 0.40399,0.0302 0.81201,0.0515 1.22265,0.0606 0.20523,0.004 0.41053,0.008 0.61719,0.008 0.20674,0 0.4138,-0.003 0.61914,-0.008 0.40932,-0.008 0.81863,-0.0296 1.22266,-0.0606 1.26531,-0.096 2.50243,-0.29295 3.70508,-0.57812 0.25587,-0.0612 0.50973,-0.12728 0.76171,-0.19531 1.19736,-0.32542 2.358,-0.7422 3.47266,-1.24219 0.034,-0.0189 0.0699,-0.0287 0.10352,-0.0449 0.56265,-0.25588 1.1156,-0.53407 1.65429,-0.83008 0.59732,-0.3292 1.17685,-0.68456 1.74219,-1.06055 0.0612,-0.0412 0.12432,-0.0854 0.18555,-0.12695 0.42531,-0.29065 0.84137,-0.59415 1.24804,-0.91016 0.18407,-0.144 0.3651,-0.29012 0.54493,-0.43945 0.27212,-0.22526 0.54201,-0.45863 0.80468,-0.69727 0.15459,-0.13984 0.30623,-0.28099 0.45704,-0.42382 1.57598,-1.50399 2.94578,-3.22145 4.06445,-5.10547 0.0945,-0.15874 0.18468,-0.31805 0.27539,-0.47656 0.30123,-0.53333 0.5818,-1.07939 0.8418,-1.63672 0.0733,-0.15988 0.14612,-0.31713 0.21679,-0.47852 0.4907,-1.1173 0.89947,-2.27988 1.2168,-3.47851 0.16403,-0.624 0.30646,-1.25908 0.41992,-1.9004 0.10658,-0.58801 0.18991,-1.18505 0.25,-1.78906 0.0412,-0.40267 0.0722,-0.80747 0.0937,-1.21679 0.0189,-0.408 0.0312,-0.81714 0.0312,-1.23047 0,-0.41201 -0.0123,-0.82442 -0.0312,-1.23242 -0.0113,-0.21733 -0.0263,-0.43244 -0.041,-0.64844 -0.0151,-0.18936 -0.0308,-0.37694 -0.0527,-0.56641 -0.0601,-0.60264 -0.14342,-1.19972 -0.25,-1.78906 -0.11338,-0.64267 -0.25581,-1.27576 -0.41992,-1.89844 -0.31748,-1.20132 -0.7261,-2.36313 -1.2168,-3.48047 -0.0707,-0.16138 -0.14309,-0.31996 -0.21679,-0.47851 -0.26004,-0.55733 -0.54046,-1.10339 -0.8418,-1.63672 -0.0907,-0.15874 -0.1809,-0.31855 -0.27539,-0.47461 -1.12003,-1.88667 -2.49168,-3.60793 -4.07031,-5.11328 -0.14816,-0.14136 -0.29909,-0.28051 -0.45118,-0.41797 -0.26267,-0.23849 -0.53267,-0.47256 -0.80468,-0.69922 -0.17991,-0.14816 -0.36094,-0.29497 -0.54493,-0.4375 -0.40667,-0.31748 -0.82273,-0.62146 -1.24804,-0.91211 -0.0612,-0.0412 -0.12432,-0.083 -0.18555,-0.12305 -1.07599,-0.71867 -2.20846,-1.35392 -3.39648,-1.89257 -0.034,-0.0151 -0.0688,-0.0287 -0.10352,-0.0449 -1.11466,-0.49999 -2.2753,-0.91684 -3.47266,-1.24218 -0.25209,-0.0692 -0.50569,-0.13371 -0.76171,-0.19532 -1.20265,-0.28384 -2.43977,-0.48017 -3.70508,-0.57617 -0.40403,-0.0302 -0.81334,-0.0539 -1.22266,-0.0645 -0.20523,-0.004 -0.41247,-0.006 -0.61914,-0.006 z m -134.67187,0.4082 c -0.20667,0 -0.41186,0.003 -0.61719,0.008 -0.41067,0.008 -0.81866,0.0296 -1.22266,0.0605 -1.26667,0.096 -2.50241,0.29292 -3.70508,0.57812 -0.25598,0.0612 -0.51167,0.12577 -0.76367,0.19532 -1.19733,0.32541 -2.35799,0.74219 -3.47265,1.24218 -0.0348,0.0151 -0.0669,0.0287 -0.10157,0.0449 -1.18666,0.53865 -2.32181,1.1739 -3.39648,1.89257 -0.0627,0.0401 -0.12421,0.0815 -0.18555,0.12305 -0.42667,0.29065 -0.84333,0.59673 -1.25,0.91406 -0.18266,0.14136 -0.36297,0.28735 -0.54297,0.43555 -0.27333,0.22677 -0.54397,0.45922 -0.80664,0.69922 -0.15466,0.13871 -0.30442,0.27971 -0.45508,0.42383 -1.57599,1.50398 -2.9464,3.22281 -4.0664,5.10547 -0.0947,0.15722 -0.18472,0.3159 -0.27539,0.4746 -0.29998,0.53469 -0.58118,1.08135 -0.83985,1.63868 -0.0374,0.0801 -0.0747,0.15702 -0.10937,0.23828 -0.0359,0.0786 -0.0714,0.16048 -0.10742,0.24023 -0.49067,1.11734 -0.90142,2.27915 -1.21875,3.48047 -0.164,0.62268 -0.30722,1.25577 -0.42188,1.89844 -0.08,0.44133 -0.14847,0.88795 -0.20312,1.33594 -0.0174,0.15193 -0.0459,0.30232 -0.0605,0.45312 -0.0147,0.15458 -0.0586,0.30745 -0.0586,0.46094 v 0.008 c 0,0.24794 -0.0211,0.49739 -0.0332,0.74805 -0.0227,0.408 -0.0156,0.81846 -0.0156,1.23047 0,0.41469 0.0101,0.82442 0.0312,1.23242 0.02,0.40932 0.0524,0.81217 0.0937,1.21484 0.06,0.60269 0.14139,1.19972 0.24805,1.78907 0.11467,0.64134 0.2559,1.27443 0.41992,1.89843 0.31865,1.2 0.72675,2.36121 1.21875,3.47852 0.0707,0.16138 0.1441,0.32119 0.21875,0.48242 0.25867,0.55597 0.53789,1.10144 0.83789,1.63477 0.0907,0.15874 0.18071,0.31937 0.27539,0.47656 1.02267,1.72267 2.25535,3.30549 3.66601,4.71484 0.27867,0.27855 0.56347,0.55045 0.85547,0.81446 0.26268,0.23848 0.53331,0.47193 0.80664,0.69726 0.17998,0.14929 0.36029,0.2956 0.54297,0.43945 0.40667,0.31748 0.82333,0.61948 1.25,0.91016 0.0613,0.0427 0.12288,0.0849 0.18555,0.125 0.61867,0.41333 1.25868,0.80158 1.91601,1.15625 0.48267,0.26268 0.97781,0.50699 1.48047,0.73633 0.0348,0.0151 0.0669,0.0298 0.10157,0.0449 1.11466,0.49999 2.27532,0.9188 3.47265,1.24414 0.25202,0.068 0.50768,0.13213 0.76367,0.19336 1.20267,0.28535 2.43841,0.48076 3.70508,0.57813 0.404,0.0302 0.81199,0.0519 1.22266,0.0625 0.20534,0.004 0.41052,0.008 0.61719,0.008 0.20666,0 0.4138,-0.003 0.61914,-0.008 0.40933,-0.0113 0.81865,-0.0315 1.22265,-0.0625 1.26534,-0.0975 2.50046,-0.29274 3.70313,-0.57813 0.25598,-0.0612 0.51167,-0.12533 0.76367,-0.19336 1.19733,-0.32542 2.35799,-0.74415 3.47266,-1.24414 0.0348,-0.0151 0.0702,-0.0298 0.10351,-0.0449 0.56267,-0.25739 1.11368,-0.53274 1.65234,-0.83008 0.59734,-0.32806 1.17882,-0.68515 1.74415,-1.0625 0.0613,-0.0401 0.1242,-0.0823 0.18554,-0.125 0.42534,-0.29065 0.84138,-0.59283 1.24805,-0.91016 0.18399,-0.144 0.36491,-0.28993 0.54492,-0.43945 0.27201,-0.22526 0.54264,-0.45863 0.80664,-0.69726 0.15334,-0.13871 0.30443,-0.27924 0.45508,-0.42188 1.576,-1.50399 2.94578,-3.2234 4.06445,-5.10742 0.0947,-0.15723 0.18472,-0.31786 0.27539,-0.47656 0.30135,-0.53333 0.5818,-1.0788 0.8418,-1.63477 0.0733,-0.16139 0.14417,-0.32119 0.21484,-0.48242 0.49067,-1.11731 0.90142,-2.27852 1.21875,-3.47852 0.164,-0.624 0.3066,-1.25709 0.41993,-1.89843 0.10665,-0.58935 0.19002,-1.18638 0.25,-1.78907 0.0413,-0.40267 0.0724,-0.80552 0.0937,-1.21484 0.02,-0.408 0.0312,-0.81773 0.0312,-1.23242 0,-0.41201 -0.0112,-0.82247 -0.0312,-1.23047 -0.0121,-0.21732 -0.025,-0.43635 -0.041,-0.65235 -0.0159,-0.18784 -0.0328,-0.37521 -0.0527,-0.56445 -0.06,-0.60268 -0.14335,-1.19909 -0.25,-1.78711 -0.11335,-0.64267 -0.25591,-1.27771 -0.41993,-1.90039 -0.31732,-1.20132 -0.72808,-2.36313 -1.21875,-3.48047 -0.0707,-0.15987 -0.14152,-0.31996 -0.21484,-0.47851 -0.25999,-0.55733 -0.54046,-1.10203 -0.8418,-1.63672 -0.0907,-0.15874 -0.18071,-0.31742 -0.27539,-0.47461 -1.12,-1.88531 -2.49298,-3.60602 -4.07031,-5.11133 -0.14933,-0.14135 -0.29853,-0.28202 -0.44922,-0.41797 -0.264,-0.24 -0.53464,-0.47256 -0.80664,-0.69922 -0.17998,-0.14815 -0.36091,-0.2961 -0.54492,-0.4375 -0.40667,-0.31748 -0.82271,-0.62341 -1.24805,-0.91406 -0.0613,-0.0412 -0.1242,-0.083 -0.18554,-0.12305 -1.076,-0.71867 -2.20849,-1.35196 -3.39649,-1.89062 -0.0333,-0.0151 -0.0689,-0.0306 -0.10351,-0.0469 -1.11467,-0.49999 -2.27533,-0.91688 -3.47266,-1.24218 -0.25202,-0.0692 -0.50767,-0.13371 -0.76367,-0.19532 -1.20267,-0.28535 -2.43779,-0.48212 -3.70313,-0.57812 -0.404,-0.0302 -0.81332,-0.0511 -1.22265,-0.0605 -0.20535,-0.004 -0.41248,-0.008 -0.61914,-0.008 z m 134.67187,3.59375 c 0.17084,0 0.34137,-3.4e-4 0.52539,0.006 0.34129,0.008 0.68373,0.0266 1.01172,0.0508 1.03468,0.0786 2.0735,0.24267 3.07617,0.47852 0.21732,0.0521 0.43181,0.10743 0.64649,0.16601 0.98664,0.26948 1.95611,0.61517 2.82812,1.00586 l 0.0977,0.043 c 0.0151,0.008 0.0306,0.0159 0.0469,0.0234 0.97066,0.44133 1.92272,0.97147 2.83203,1.57812 l 0.14844,0.0996 c 0.3481,0.23887 0.70022,0.49497 1.04688,0.76563 0.15345,0.12019 0.30384,0.24139 0.44531,0.35742 0.2279,0.18935 0.45187,0.3847 0.67187,0.58203 0.12548,0.11452 0.25034,0.23024 0.37696,0.35156 1.32,1.2573 2.4618,2.69096 3.39648,4.26563 0.0786,0.1319 0.15519,0.26456 0.22852,0.39257 0.24264,0.43068 0.47858,0.89067 0.69726,1.36133 0.0627,0.13191 0.12262,0.26447 0.17969,0.39649 0.41201,0.93732 0.75173,1.91122 1.01172,2.89258 0.13984,0.53332 0.25934,1.06472 0.35156,1.58203 0.0881,0.49202 0.15834,0.99351 0.20899,1.49218 0.0151,0.15723 0.0301,0.31451 0.041,0.45704 0.0151,0.18784 0.0258,0.37936 0.0371,0.55273 0.0151,0.34129 0.0273,0.68459 0.0273,1.03125 0,0.34545 -0.008,0.68949 -0.0273,1.02148 -0.0189,0.34394 -0.0425,0.68221 -0.0762,1.01954 -0.0507,0.49731 -0.12243,0.99957 -0.20899,1.49023 -0.0933,0.51602 -0.21172,1.04943 -0.35156,1.58008 -0.26003,0.98536 -0.59912,1.9579 -1.00976,2.89258 -0.0586,0.13455 -0.1196,0.2656 -0.17969,0.39648 -0.22148,0.47463 -0.45727,0.93211 -0.69727,1.35742 -0.076,0.13342 -0.1516,0.26714 -0.23437,0.4043 -0.93067,1.56801 -2.07126,3.00038 -3.39258,4.26172 -0.12397,0.11868 -0.25103,0.2354 -0.375,0.34765 -0.22148,0.20145 -0.44737,0.39414 -0.66602,0.57813 -0.1508,0.12283 -0.3002,0.24631 -0.45898,0.36914 -0.34129,0.26683 -0.6923,0.52172 -1.04297,0.76172 l -0.15039,0.0996 c -0.48,0.32126 -0.96833,0.61934 -1.45898,0.88867 -0.43866,0.24265 -0.90103,0.47418 -1.37305,0.6875 -0.0113,0.004 -0.0217,0.0118 -0.0293,0.0156 -0.0189,0.008 -0.0483,0.0236 -0.0547,0.0273 -0.92803,0.41601 -1.90004,0.76129 -2.88672,1.0293 -0.21317,0.0586 -0.42615,0.11341 -0.63282,0.16406 -1.01333,0.24 -2.05082,0.40181 -3.07617,0.48047 -0.33864,0.0264 -0.68121,0.0444 -1.0332,0.0527 -0.17084,0.004 -0.34163,0.008 -0.51367,0.008 -0.17084,0 -0.34206,-0.002 -0.52344,-0.008 -0.3428,-0.008 -0.68432,-0.0266 -1.01367,-0.0508 -1.03469,-0.0801 -2.07218,-0.24198 -3.07617,-0.48047 -0.21619,-0.0522 -0.43181,-0.10548 -0.64649,-0.16406 -0.98532,-0.26797 -1.95674,-0.61587 -2.88476,-1.0332 l -0.002,0.002 -0.0801,-0.0391 c -0.42398,-0.192 -0.83961,-0.39792 -1.23828,-0.61524 -0.54266,-0.29064 -1.0777,-0.61381 -1.62304,-0.98047 l -0.12891,-0.0859 c -0.34545,-0.23471 -0.69515,-0.49054 -1.03516,-0.75586 -0.15458,-0.12133 -0.30774,-0.24322 -0.45703,-0.36719 -0.2279,-0.18936 -0.45197,-0.38407 -0.66797,-0.58008 -0.24378,-0.22148 -0.48345,-0.44766 -0.71679,-0.67969 -1.17336,-1.17331 -2.20066,-2.4975 -3.05664,-3.9375 -0.0786,-0.1319 -0.15507,-0.2652 -0.22461,-0.38672 -0.2521,-0.4467 -0.48782,-0.90463 -0.70118,-1.36328 -0.0627,-0.13455 -0.12072,-0.2665 -0.17968,-0.40234 -0.41201,-0.93468 -0.75368,-1.906 -1.01367,-2.88867 -0.13985,-0.53333 -0.25739,-1.06797 -0.34961,-1.58399 -0.0866,-0.48132 -0.15834,-0.98296 -0.20899,-1.48828 -0.034,-0.33449 -0.0588,-0.67072 -0.0762,-1.02539 -0.0189,-0.33751 -0.0273,-0.67625 -0.0273,-1.01758 0,-0.57732 -0.093,-1.05575 -0.15039,-1.34375 0,-0.0533 -0.003,-0.10755 -0.004,-0.1582 0.0801,-0.23471 0.16558,-0.54989 0.21094,-0.92187 0.0227,-0.18671 0.0657,-0.36864 0.10156,-0.55274 0.0386,-0.18406 0.0761,-0.36817 0.10937,-0.55469 0.0881,-0.48933 0.22596,-1.02871 0.3711,-1.58203 0.24945,-0.94 0.59392,-1.91165 1.03125,-2.90234 l 0.0957,-0.21094 0.0293,-0.0625 0.0566,-0.11719 c 0.20938,-0.44798 0.44462,-0.90754 0.69531,-1.35156 0.076,-0.13455 0.15312,-0.26827 0.23438,-0.4043 0.93199,-1.56933 2.07257,-3.00173 3.39257,-4.26171 0.12548,-0.12019 0.25255,-0.23579 0.375,-0.34766 0.21997,-0.1988 0.44459,-0.39341 0.66993,-0.58008 0.15193,-0.12548 0.30622,-0.24851 0.45703,-0.36719 0.34129,-0.26683 0.69005,-0.52092 1.05273,-0.76757 l 0.14453,-0.0977 c 0.89998,-0.60268 1.85095,-1.13063 2.84961,-1.58399 0.0113,-0.008 0.0372,-0.0199 0.0625,-0.0312 0.92799,-0.41601 1.89871,-0.76192 2.88672,-1.03125 0.21317,-0.0586 0.42943,-0.11297 0.63477,-0.16211 1.01333,-0.23848 2.05082,-0.40177 3.07617,-0.48046 0.33864,-0.0265 0.67912,-0.0433 1.03515,-0.0527 0.17084,-0.004 0.34123,-0.004 0.51172,-0.004 z m -134.67187,0.4043 v 0.002 c 0.17068,0 0.34138,0.003 0.52539,0.008 0.34133,0.008 0.68238,0.0266 1.01171,0.0508 1.03467,0.0801 2.07218,0.24135 3.07618,0.47852 0.216,0.0522 0.43181,0.10743 0.64648,0.16601 0.98667,0.26948 1.95676,0.61587 2.88477,1.03321 l 0.002,-0.002 0.0352,0.0156 0.0508,0.0215 c 0.972,0.43998 1.92269,0.97207 2.83203,1.58008 l 0.14844,0.0977 c 0.34934,0.23849 0.70021,0.49434 1.04687,0.76367 0.15201,0.11981 0.30264,0.24221 0.44531,0.35937 0.22935,0.18936 0.45454,0.38603 0.67188,0.58204 0.12533,0.11452 0.25027,0.22872 0.37695,0.35156 1.32,1.25733 2.46182,2.69096 3.39649,4.26562 0.0786,0.13191 0.15515,0.26652 0.22851,0.39454 0.24269,0.43067 0.4786,0.88811 0.69727,1.35742 0.0627,0.1319 0.12239,0.26793 0.17969,0.39843 0.412,0.93869 0.75171,1.91064 1.01171,2.89063 0.14,0.53465 0.2602,1.06664 0.35352,1.58398 0.0867,0.48934 0.15638,0.9922 0.20703,1.49219 0.0159,0.15874 0.0303,0.31715 0.041,0.45703 0.0147,0.18785 0.0265,0.37805 0.0371,0.55274 0.0159,0.34129 0.0254,0.68396 0.0254,1.02929 0,0.34659 -0.01,0.69082 -0.0254,1.02149 -0.0174,0.34545 -0.0448,0.68681 -0.0781,1.02148 -0.0507,0.5 -0.12232,1.0009 -0.20898,1.49024 -0.0933,0.51602 -0.21157,1.04939 -0.35157,1.58008 -0.25999,0.984 -0.59909,1.95594 -1.00976,2.89062 -0.0587,0.13606 -0.11971,0.27058 -0.17969,0.39844 -0.22133,0.47331 -0.45665,0.93148 -0.69531,1.35547 -0.076,0.13341 -0.15367,0.26695 -0.23633,0.40429 -0.93067,1.56934 -2.07124,3.00174 -3.39258,4.26172 -0.124,0.11868 -0.2504,0.23541 -0.37304,0.34766 -0.22133,0.20145 -0.44726,0.39668 -0.66993,0.58203 -0.14933,0.12283 -0.29836,0.24391 -0.45703,0.36523 -0.34133,0.26797 -0.6923,0.52235 -1.04297,0.76368 l -0.15039,0.10156 c -0.48,0.32012 -0.96903,0.61739 -1.45703,0.88672 -0.44,0.24264 -0.90433,0.47613 -1.375,0.68945 -0.009,0.004 -0.0203,0.006 -0.0312,0.0137 -0.0147,0.008 -0.0327,0.0159 -0.0527,0.0234 -0.92801,0.41601 -1.89872,0.76328 -2.88672,1.03125 -0.21332,0.0586 -0.4281,0.11493 -0.63477,0.16406 -1.01333,0.24151 -2.05279,0.40178 -3.07812,0.48047 -0.33733,0.0227 -0.67854,0.0433 -1.03321,0.0527 -0.16932,0.004 -0.34104,0.008 -0.51171,0.008 -0.17069,0 -0.34077,-0.003 -0.52344,-0.008 -0.34133,-0.008 -0.68105,-0.0266 -1.01172,-0.0508 -1.03467,-0.0801 -2.07484,-0.24198 -3.07617,-0.48047 -0.21733,-0.0521 -0.43182,-0.10856 -0.64649,-0.16601 -0.98666,-0.26797 -1.95807,-0.61521 -2.83008,-1.00586 l -0.13867,-0.0625 c -0.424,-0.19351 -0.83961,-0.39983 -1.23828,-0.61719 -0.54266,-0.29215 -1.07576,-0.61318 -1.62109,-0.97851 l -0.13086,-0.0879 c -0.34534,-0.23585 -0.69454,-0.48991 -1.0332,-0.75391 -0.15466,-0.12132 -0.30831,-0.24404 -0.45899,-0.36914 -0.22802,-0.18784 -0.45064,-0.3808 -0.66797,-0.57813 -0.24268,-0.22148 -0.48346,-0.44829 -0.71679,-0.68164 -1.17467,-1.17331 -2.20065,-2.49614 -3.05665,-3.9375 -0.0787,-0.1319 -0.15657,-0.26653 -0.2246,-0.38672 -0.25066,-0.44666 -0.48651,-0.90258 -0.70118,-1.36523 -0.0613,-0.13342 -0.12099,-0.2651 -0.17968,-0.39844 -0.41067,-0.93467 -0.75172,-1.90662 -1.01172,-2.89062 -0.14,-0.53201 -0.25957,-1.06542 -0.35156,-1.58008 -0.0867,-0.48533 -0.15639,-0.98686 -0.20704,-1.49219 -0.0348,-0.33335 -0.0608,-0.67012 -0.0781,-1.02344 -0.0174,-0.33751 -0.0254,-0.67684 -0.0254,-1.01953 l -0.002,-0.25195 c 0,-0.25474 -0.003,-0.50507 0.0137,-0.78906 l 0.01,-0.18555 c 0.0106,-0.16403 0.0181,-0.32754 0.0234,-0.49414 0.0174,-0.11074 0.0318,-0.21757 0.041,-0.31055 l 0.0117,-0.0937 c 0.0147,-0.0971 0.0276,-0.19338 0.041,-0.29882 0.044,-0.37078 0.10325,-0.73882 0.16992,-1.10547 0.092,-0.51334 0.20893,-1.04533 0.35156,-1.58399 0.25868,-0.97735 0.59901,-1.95062 1.01368,-2.89062 l 0.0664,-0.15235 0.0332,-0.0703 0.082,-0.17969 c 0.21331,-0.45467 0.4474,-0.91297 0.6914,-1.34765 0.0773,-0.13607 0.15304,-0.27042 0.23438,-0.40625 0.93333,-1.5707 2.0732,-3.00306 3.39453,-4.26172 0.12401,-0.11981 0.25235,-0.23736 0.375,-0.34961 0.21868,-0.19729 0.44326,-0.39341 0.66992,-0.58008 0.15201,-0.12548 0.30443,-0.24851 0.45508,-0.36719 0.34265,-0.26683 0.69202,-0.52092 1.05469,-0.76757 l 0.14258,-0.0977 c 0.9,-0.60136 1.85227,-1.13067 2.8496,-1.58399 0.005,-0.003 0.0572,-0.0254 0.0625,-0.0254 0.92801,-0.41733 1.89872,-0.76383 2.88672,-1.0332 0.21332,-0.0586 0.4281,-0.11297 0.63477,-0.16211 1.01334,-0.24 2.05341,-0.40181 3.08008,-0.48047 0.33732,-0.0264 0.67853,-0.0448 1.0332,-0.0527 0.17068,-0.004 0.3391,-0.008 0.50977,-0.008 z m 62.37695,22.99609 c 0.0538,0.15174 0.1158,0.30005 0.1875,0.44531 0.0974,0.31734 0.22731,0.61837 0.39453,0.89844 l -22.4375,17.86914 c -0.0113,0.008 -0.0263,0.0195 -0.0664,0.0195 -0.0227,0 -0.0708,-0.004 -0.0976,-0.0391 l -0.73438,-0.92188 c -0.034,-0.0427 -0.022,-0.12998 0.0195,-0.1621 z m 8.97461,1.03906 21.43554,17.07422 c 0.0427,0.0302 0.0539,0.11745 0.0195,0.16016 l -0.73633,0.92383 c -0.0265,0.0302 -0.0667,0.0371 -0.0977,0.0371 -0.0401,0 -0.0539,-0.01 -0.0644,-0.0176 l -21.37695,-17.02735 c 0.33797,-0.33039 0.61104,-0.72151 0.82031,-1.15039 z m 41.1289,19.08789 c -0.63598,0.14816 -1.26029,0.32521 -1.875,0.5293 -0.15344,0.0507 -0.30685,0.10296 -0.45898,0.15625 -0.68666,0.24265 -1.35375,0.51818 -2.00977,0.82617 -0.14513,0.0692 -0.2844,0.13831 -0.42968,0.20899 -2.376,1.18133 -4.51856,2.77848 -6.36524,4.70117 -0.11187,0.11716 -0.19741,0.23484 -0.30664,0.35351 -3.69732,4.01602 -6.02006,9.3669 -6.30273,15.26954 -0.0189,0.39333 0.0762,0.79078 0.0762,1.18945 v 24.77929 c 0,0.50801 0.28682,0.95313 0.77344,0.95313 h 78.18164 c 0.48669,0 0.60742,-0.44512 0.60742,-0.95313 v -24.77929 c 0,-0.39867 0.0489,-0.77659 0.0273,-1.16992 -0.508,-10.79864 -7.85266,-19.74334 -17.66601,-22.02735 -1.03597,0.99334 -2.12117,1.95102 -3.25586,2.79102 -0.18936,0.14286 -0.37831,0.48828 -0.57031,0.48828 h -0.002 c -1.72399,1.3053 -3.55722,2.20704 -5.5039,3.06836 -0.39466,0.17612 -0.79338,0.28023 -1.19336,0.4375 -1.00668,0.39999 -2.02918,1.05859 -3.0625,1.05859 h -1.1836 -0.002 c -0.26268,0 -0.52956,0.25461 -0.79492,0.31055 -2.12799,0.45067 -4.29971,0.81055 -6.51172,0.81055 -1.93467,0 -3.84529,-0.17611 -5.72266,-0.52149 -1.91198,-0.35338 -3.78971,-0.88573 -5.62304,-1.59375 -0.47467,-0.18406 -0.94737,-0.37923 -1.41407,-0.58594 -2.48931,-1.10263 -4.83566,-2.50471 -6.98632,-4.1914 -0.84,-0.65866 -1.6504,-1.36074 -2.42774,-2.10742 z m -90.41992,0.34375 c -1.036,0.99334 -2.12119,1.84813 -3.25586,2.68946 -0.18799,0.13984 -0.37769,0.2832 -0.56836,0.2832 h -0.002 c -1.72533,1.30401 -3.55919,2.47263 -5.50586,3.33398 -0.39466,0.17462 -0.79141,0.54383 -1.19141,0.70118 -1.00666,0.39998 -2.02916,1.18164 -3.0625,1.18164 h -0.002 -1.18359 c -0.26268,0 -0.52959,0.13156 -0.79492,0.1875 -2.12801,0.45199 -4.30034,0.6875 -6.51368,0.6875 -1.93333,0 -3.8447,-0.1724 -5.7207,-0.51758 -1.91333,-0.35339 -3.79166,-0.88832 -5.625,-1.59766 -0.47333,-0.18255 -0.94606,-0.37795 -1.41406,-0.58594 -2.488,-1.10003 -4.83371,-2.5028 -6.98438,-4.18945 -0.84133,-0.65866 -1.65235,-1.3621 -2.42968,-2.10742 -0.636,0.14816 -1.26096,0.32285 -1.87696,0.52539 -0.15333,0.0507 -0.30893,0.1034 -0.46093,0.1582 -0.68667,0.24265 -1.35963,0.51818 -2.01563,0.82618 -0.14532,0.068 -0.2935,0.13679 -0.4375,0.20898 -2.37733,1.18133 -4.54139,2.78048 -6.38672,4.70312 -0.11199,0.11604 -0.23636,0.23289 -0.3457,0.35157 -3.69734,4.01465 -6.10015,9.36685 -6.38281,15.26953 -0.02,0.39333 -0.0859,0.78946 -0.0859,1.18945 v 24.7793 c 0,0.508 0.60903,0.54492 1.0957,0.54492 h 78.18164 c 0.48533,0 0.9375,-0.0387 0.9375,-0.54492 v -24.7793 c 0,-0.39999 -0.11782,-0.828 -0.13672,-1.22265 -0.50933,-10.79868 -8.02002,-19.79217 -17.83203,-22.07618 z m 89.39844,4.11914 h 0.002 c 0.32277,0.27213 0.64917,0.53758 0.97852,0.79493 2.39599,1.88001 5.03009,3.4586 7.83008,4.69726 0.528,0.23471 1.06111,0.45618 1.59179,0.66016 2.05467,0.796 4.18968,1.40211 6.34571,1.80078 2.112,0.38933 4.28134,0.58594 6.44531,0.58594 2.76537,0 5.37658,-0.47915 7.33789,-0.89649 0.28006,-0.0586 0.53009,-0.13919 0.74609,-0.22461 h 0.40821 c 1.636,0 2.95528,-0.6151 3.91797,-1.06445 0.20787,-0.096 0.41346,-0.194 0.60546,-0.27148 0.10923,-0.0412 0.21764,-0.0759 0.32422,-0.11329 0.28271,-0.096 0.63269,-0.21402 1.02735,-0.38867 1.91331,-0.84665 3.95156,-1.83022 5.93554,-3.26758 0.41201,-0.2347 0.79996,-0.54495 1.16797,-0.93164 0.53866,-0.40932 1.08647,-0.85392 1.64649,-1.33789 7.15733,2.55999 12.2494,9.58209 12.63476,17.7461 10e-4,0.096 -0.008,0.18789 -0.0117,0.28125 -0.0113,0.23055 -0.0234,0.46385 -0.0234,0.70117 v 21.73242 h -71.5625 v -21.73242 c 0,-0.39867 -0.0376,-0.73455 -0.0625,-0.97852 -0.004,-0.0385 -0.008,-0.0767 -0.0156,-0.11523 0.24945,-4.7613 2.111,-9.2512 5.23633,-12.64453 0.096,-0.10394 0.18544,-0.20769 0.29883,-0.34375 1.54401,-1.59999 3.29901,-2.89514 5.20703,-3.8418 l 0.15039,-0.0742 0.20703,-0.10156 c 0.5413,-0.25474 1.09352,-0.4812 1.63086,-0.67188 z m -88.40039,0.33204 h 0.002 c 7.27466,2.56267 12.45062,9.62091 12.83594,17.82226 0.0189,0.38532 0.072,0.71693 0.10938,0.96094 0.008,0.0506 0.0177,0.1017 0.0215,0.15234 v 21.23438 h -72.21484 v -21.31836 c 10e-4,-0.10659 0.0179,-0.21487 0.0273,-0.32032 0.0227,-0.22677 0.044,-0.45034 0.0547,-0.67968 0.22798,-4.73866 2.11969,-9.26825 5.31836,-12.74024 l 0.0976,-0.0976 0.20313,-0.20899 c 1.54133,-1.60531 3.31824,-2.91347 5.26758,-3.88281 l 0.36914,-0.17578 c 0.53199,-0.24794 1.08472,-0.47723 1.63671,-0.67188 0.32266,0.27213 0.64981,0.53821 0.98047,0.79688 2.39467,1.87733 5.0307,3.46055 7.83203,4.69922 0.52801,0.23319 1.06113,0.45481 1.5918,0.66015 2.05334,0.79469 4.18642,1.39954 6.34375,1.79688 2.11067,0.38801 4.27936,0.58594 6.44336,0.58594 2.452,0 4.92385,-0.26014 7.33985,-0.77344 0.13201,-0.0265 0.26419,-0.0615 0.4082,-0.10156 h 0.74609 c 1.672,0 2.97388,-0.67082 3.92188,-1.16016 0.23467,-0.12132 0.47685,-0.24818 0.60351,-0.29883 0.62134,-0.24416 1.0923,-0.56276 1.4043,-0.77344 0.028,-0.0189 0.0573,-0.0373 0.084,-0.0547 1.85201,-0.83203 3.70391,-1.93351 5.64258,-3.35352 0.50667,-0.2332 0.8666,-0.50381 1.0586,-0.64648 0.57733,-0.42932 1.21109,-0.90983 1.87109,-1.45117 z"
       transform="scale(0.26458333)" />
  </g>
</svg>
