<?xml version="1.0" encoding="UTF-8" standalone="no"?>
<svg
   xmlns:dc="http://purl.org/dc/elements/1.1/"
   xmlns:cc="http://creativecommons.org/ns#"
   xmlns:rdf="http://www.w3.org/1999/02/22-rdf-syntax-ns#"
   xmlns:svg="http://www.w3.org/2000/svg"
   xmlns="http://www.w3.org/2000/svg"
   width="59.469517mm"
   height="55.386021mm"
   viewBox="0 0 59.469517 55.386021"
   version="1.1"
   id="svg676">
  <defs
     id="defs670" />
  <metadata
     id="metadata673">
    <rdf:RDF>
      <cc:Work
         rdf:about="">
        <dc:format>image/svg+xml</dc:format>
        <dc:type
           rdf:resource="http://purl.org/dc/dcmitype/StillImage" />
        <dc:title></dc:title>
      </cc:Work>
    </rdf:RDF>
  </metadata>
  <g
     id="layer1"
     transform="translate(-85.099879,-106.65543)">
    <path
       id="path84"
       style="fill:#ffffff;fill-opacity:1;fill-rule:nonzero;stroke:none;stroke-width:0.352777"
       d="m 114.82845,106.65543 c -0.48895,0 -0.97761,0.1318 -1.48208,0.39532 -4.47604,2.33892 -8.96414,4.65426 -13.447239,6.97942 -4.6228,2.39783 -9.245655,4.79475 -13.866339,7.19646 -0.971901,0.50518 -1.159888,1.10311 -0.677994,2.08101 0.269168,0.54645 0.557789,1.08311 0.813906,1.63556 0.465666,1.004 1.24815,1.45624 2.343525,1.45624 h 0.0026 c 4.740629,-0.003 9.482441,-0.004 14.223421,-0.004 3.79236,0 7.58386,0 11.37657,0 h 0.72605 6.08025 c 3.53942,0 7.07922,-10e-4 10.61899,-10e-4 3.20922,0 6.4181,8.3e-4 9.62732,0.004 h 0.004 c 1.09502,0 1.87819,-0.45177 2.34456,-1.45366 0.24871,-0.53445 0.52872,-1.05387 0.79013,-1.58233 0.49601,-1.00365 0.30192,-1.61492 -0.67386,-2.13527 -0.0868,-0.0466 -0.17382,-0.0915 -0.26097,-0.13694 -9.01875,-4.67713 -18.03984,-9.34948 -27.05261,-14.0379 -0.508,-0.26423 -0.99912,-0.39688 -1.48983,-0.39688 z m 0,1.05833 c 0.31503,0 0.64272,0.0909 1.00149,0.2775 6.94373,3.61209 14.00765,7.27502 20.83956,10.81691 l 6.21357,3.22203 0.0264,0.0134 c 0.0748,0.0392 0.1495,0.0778 0.22428,0.11731 0.30763,0.16439 0.37374,0.26717 0.3762,0.26717 0.001,0.0102 0.01,0.13698 -0.15348,0.46612 -0.096,0.19473 -0.19475,0.38769 -0.29352,0.58136 -0.16863,0.3302 -0.34361,0.67201 -0.50694,1.02267 -0.28223,0.60608 -0.67031,0.84233 -1.38752,0.84233 -3.20957,-0.003 -6.41878,-0.004 -9.62835,-0.004 l -5.54488,5.1e-4 -5.07411,5.2e-4 h -2.33887 -3.74138 -0.36276 -0.36329 -5.68802 -5.68855 c -4.740977,0 -9.482905,3.3e-4 -14.226001,0.004 -0.714375,0 -1.102214,-0.23606 -1.383379,-0.84284 -0.168627,-0.36371 -0.349374,-0.71853 -0.523999,-1.06143 -0.101246,-0.19862 -0.202332,-0.39683 -0.300757,-0.59686 -0.127352,-0.25823 -0.143963,-0.38462 -0.145728,-0.42272 0.02399,-0.0296 0.110887,-0.12026 0.362771,-0.25115 4.269668,-2.21968 8.541384,-4.43512 12.81317,-6.65127 l 1.051613,-0.54519 c 1.31833,-0.68367 2.63767,-1.36686 3.95635,-2.04948 3.11362,-1.6122 6.3331,-3.27942 9.49399,-4.93148 0.35384,-0.18486 0.67857,-0.27492 0.99219,-0.27492 z m -20.342427,21.16305 v 5.1e-4 c -0.350308,0 -0.700296,0.004 -1.049549,0.0212 -0.618418,0.03 -1.036082,0.43956 -1.059365,0.9772 -0.02434,0.57397 0.315767,0.96916 0.939477,1.09193 0.913694,0.17956 1.231125,0.61987 1.171504,1.57096 -0.147812,2.35585 -0.288772,4.71123 -0.425297,7.06778 -0.212725,3.67171 -0.417398,7.34449 -0.629417,11.0169 -0.05186,0.89818 -0.1196,1.79481 -0.183451,2.7466 -0.340077,0 -0.65917,-0.008 -0.969968,-0.008 -0.185209,0 -0.367805,0.003 -0.549836,0.0114 -1.306338,0.0603 -2.155182,1.2161 -1.783355,2.40709 0.262114,0.8396 0.986004,1.29465 2.087729,1.29501 9.758895,0.002 19.518045,0.003 29.277285,0.004 1.96886,0 3.93708,5.2e-4 5.90558,5.2e-4 3.48157,0 6.96327,-4.2e-4 10.44484,-0.002 1.27529,-3.5e-4 2.13579,-0.75407 2.13579,-1.85932 0,-1.10208 -0.85595,-1.84192 -2.14148,-1.84898 -0.14993,-0.001 -0.29944,-0.001 -0.45113,-0.001 -0.25894,0 -0.52316,0.001 -0.8015,0.001 -0.0342,-0.55069 -0.0664,-1.02029 -0.0935,-1.48983 -0.17568,-3.06282 -0.34878,-6.12645 -0.52658,-9.18962 -0.20073,-3.45617 -0.41039,-6.91133 -0.60513,-10.36785 -0.0416,-0.73272 0.35654,-1.21701 1.04128,-1.34048 0.76235,-0.13794 1.13162,-0.53075 1.07694,-1.1467 -0.0501,-0.5641 -0.50872,-0.94388 -1.21957,-0.94672 -1.41005,-0.005 -2.81966,-0.007 -4.22971,-0.007 -1.30528,0 -2.61077,0.002 -3.91604,0.006 -0.74542,0.002 -1.22582,0.38719 -1.27486,0.96222 -0.0504,0.59372 0.33925,0.99498 1.10019,1.13326 0.62936,0.1143 0.9998,0.52731 1.02061,1.17254 0.0106,0.33337 -0.0106,0.66879 -0.03,1.00252 -0.30974,5.39962 -0.61983,10.80008 -0.9338,16.20005 -0.0762,1.31128 -0.16621,2.62118 -0.25476,4.01112 h -0.66559 c -1.24989,0 -2.50027,-0.006 -3.75016,-0.006 -1.09114,0 -2.18255,0.004 -3.2737,0.0196 -0.01,3.6e-4 -0.02,5.1e-4 -0.0295,5.1e-4 -0.51682,0 -0.62432,-0.20064 -0.64337,-0.67231 -0.0702,-1.74907 -0.16952,-3.49698 -0.27182,-5.24464 -0.29316,-5.00698 -0.59551,-10.01346 -0.88832,-15.02079 -0.0515,-0.87982 0.29525,-1.30589 1.15497,-1.47381 0.65546,-0.12841 1.0103,-0.54437 0.9648,-1.13068 -0.0406,-0.51929 -0.48065,-0.9437 -1.09554,-0.94723 -1.28023,-0.007 -2.56019,-0.0103 -3.84007,-0.0103 -1.53352,0 -3.06672,0.004 -4.60024,0.0134 -0.61348,0.004 -1.05306,0.42719 -1.09399,0.9493 -0.0459,0.58279 0.31008,0.99419 0.97048,1.1219 0.84137,0.16262 1.17859,0.56175 1.14825,1.42006 -0.0303,0.86466 -0.0904,1.72866 -0.14056,2.59261 -0.34466,5.92984 -0.69468,11.86009 -1.02629,17.79065 -0.024,0.43039 -0.11306,0.60874 -0.58084,0.60874 h -0.0207 c -1.19344,-0.0127 -2.3872,-0.0191 -3.58065,-0.0191 -1.20685,0 -2.4136,0.006 -3.62045,0.0181 h -0.0202 c -0.45332,0 -0.56968,-0.15286 -0.59014,-0.59841 -0.10795,-2.35797 -0.24776,-4.71381 -0.38499,-7.07037 -0.25718,-4.41818 -0.52444,-8.83543 -0.77773,-13.25397 -0.0533,-0.93098 0.26385,-1.30515 1.19165,-1.49707 0.62125,-0.12841 0.9614,-0.53464 0.92295,-1.10226 -0.0342,-0.50695 -0.45134,-0.90389 -1.0232,-0.95963 -0.12876,-0.0127 -0.25843,-0.0145 -0.38861,-0.0145 -0.0628,0 -0.12582,0 -0.18861,0 h -0.0124 c -1.82068,-0.002 -3.641508,-0.004 -5.462194,-0.004 -0.206023,0 -0.411863,-3.5e-4 -0.617535,0 h -0.01395 c -0.274815,0 -0.54959,-0.002 -0.824757,-0.002 z m 0,1.05833 h 5.19e-4 l 0.407726,0.001 0.430463,0.001 h 0.617535 c 1.820334,0 3.640508,0.002 5.474604,0.004 h 0.0982 0.0904 c 0.06,0 0.12076,4.2e-4 0.17932,0.002 -1.38535,0.3175 -2.019683,1.16026 -1.938898,2.57349 0.147463,2.57351 0.299768,5.14678 0.452168,7.71994 0.10901,1.84503 0.21832,3.68952 0.32556,5.53455 l 0.0284,0.48524 c 0.12559,2.15441 0.25586,4.38217 0.35605,6.57221 0.0222,0.48331 0.22716,1.60817 1.64744,1.60817 h 0.0305 c 1.22238,-0.012 2.43678,-0.0181 3.61012,-0.0181 1.20579,0 2.40669,0.006 3.5698,0.0186 l 0.0315,5.2e-4 c 0.57785,0 1.55895,-0.20871 1.63762,-1.60817 0.25753,-4.60728 0.53055,-9.2922 0.79479,-13.82293 l 0.23099,-3.96513 c 0.0123,-0.21343 0.0256,-0.42633 0.0382,-0.63976 0.0395,-0.64559 0.0801,-1.31304 0.10335,-1.97662 0.0469,-1.32962 -0.60405,-2.18205 -1.88464,-2.47168 1.47673,-0.008 2.95681,-0.0124 4.40284,-0.0124 1.22661,0 2.45291,0.002 3.67987,0.009 -1.33774,0.29281 -2.00108,1.17496 -1.92029,2.55643 0.14781,2.52801 0.29774,5.05602 0.44803,7.58403 0.14746,2.47862 0.29477,4.95779 0.43977,7.43676 0.10301,1.76 0.20145,3.48353 0.2713,5.22448 0.0589,1.46862 1.09072,1.68827 1.70067,1.68827 l 0.0439,-5.1e-4 c 0.95109,-0.0134 1.95678,-0.0191 3.25923,-0.0191 0.62548,0 1.25038,10e-4 1.87585,0.003 0.62477,0.001 1.24937,0.003 1.87379,0.003 h 0.66611 c 0.55845,0 1.02064,-0.43376 1.05627,-0.99115 0.0282,-0.44309 0.0563,-0.87824 0.0842,-1.30793 0.06,-0.91933 0.11867,-1.81388 0.17053,-2.70888 0.31397,-5.40032 0.62457,-10.80059 0.93431,-16.20056 l 0.004,-0.062 c 0.0194,-0.33196 0.0392,-0.67489 0.0279,-1.03508 -0.0363,-1.13242 -0.7514,-1.96409 -1.86759,-2.1761 1.29293,-0.004 2.58642,-0.006 3.87935,-0.006 1.3836,0 2.7669,0.002 4.15014,0.007 -1.21109,0.2339 -1.94606,1.18668 -1.87586,2.43551 0.12206,2.16217 0.24954,4.32374 0.37724,6.48591 0.0762,1.29433 0.15274,2.58879 0.22789,3.88348 0.10936,1.88454 0.21693,3.76938 0.32453,5.65392 l 0.20257,3.53518 c 0.0183,0.31927 0.0388,0.63824 0.061,0.98185 l 0.0326,0.51315 c 0.0353,0.55774 0.49695,0.99219 1.05575,0.99219 l 0.41703,-5.2e-4 0.38447,-5.2e-4 c 0.14993,0 0.29799,3.9e-4 0.44545,0.001 0.32773,0.002 1.08934,0.0823 1.08934,0.79065 0,0.72249 -0.7536,0.80098 -1.07745,0.80098 -3.48121,0.001 -6.96363,0.002 -10.44484,0.002 l -5.90559,-5.2e-4 c -9.75889,-7.1e-4 -19.51839,-6.2e-4 -29.277279,-0.004 -0.905579,-3.6e-4 -1.026113,-0.38783 -1.077971,-0.55293 -0.0956,-0.30621 -0.0026,-0.53152 0.09198,-0.66663 0.153458,-0.21908 0.419907,-0.35243 0.730705,-0.3669 0.146402,-0.007 0.305306,-0.0103 0.500743,-0.0103 0.147814,0 0.297513,0.002 0.45062,0.004 0.168626,0.002 0.341196,0.004 0.519347,0.004 0.557038,0 1.01871,-0.43191 1.055749,-0.98753 0.02046,-0.30269 0.04119,-0.60066 0.06201,-0.89452 0.04375,-0.63183 0.08632,-1.24666 0.121957,-1.8619 0.10301,-1.78259 0.20416,-3.56541 0.305406,-5.348 0.107598,-1.88947 0.215167,-3.7789 0.32453,-5.66838 0.14887,-2.57035 0.287901,-4.88069 0.42478,-7.06262 0.09172,-1.45874 -0.555818,-2.35191 -1.924949,-2.65565 0.30744,-0.012 0.607615,-0.0134 0.866097,-0.0134 z M 92.944,158.32721 c -1.520473,0 -3.041007,8.7e-4 -4.56148,0.005 -1.258006,0.004 -2.072775,0.79716 -2.027267,1.9451 0.04304,1.08479 0.868516,1.76114 2.154391,1.76114 l 42.034646,0.003 h 1.47381 c 3.07058,0 6.14178,-5e-4 9.21236,-0.004 1.06927,-0.001 1.82368,-0.51193 2.03605,-1.35754 0.32526,-1.29293 -0.59191,-2.35092 -2.04535,-2.35127 -5.34212,-7.1e-4 -10.68379,-5.2e-4 -16.0259,-5.2e-4 h -3.5941 -6.77013 c -3.81669,-3.6e-4 -7.63221,-0.001 -11.44891,-0.001 -2.24437,0 -4.490099,5.1e-4 -6.734472,5.1e-4 h -0.227375 c -1.158875,0 -2.317752,-5.1e-4 -3.476273,-5.1e-4 z m 0,1.05833 h 1.737879 l 1.738394,5.1e-4 h 0.227894 l 6.733953,-5.1e-4 11.44891,0.001 h 6.77013 3.5941 c 5.34211,0 10.68378,-1.8e-4 16.0259,5.2e-4 0.40533,0 0.73795,0.12907 0.91364,0.3545 0.17285,0.22154 0.15269,0.49203 0.10541,0.68006 -0.11535,0.45967 -0.61372,0.55724 -1.0113,0.55759 -3.07023,0.004 -6.14058,0.004 -9.21081,0.004 h -1.47381 c -14.01163,-3.5e-4 -28.02302,-0.001 -42.034646,-0.003 -0.708377,0 -1.077687,-0.25042 -1.097089,-0.74465 -0.0099,-0.2473 0.05254,-0.44275 0.184483,-0.58033 0.162984,-0.17004 0.44286,-0.26352 0.788583,-0.26458 1.519415,-0.005 3.038964,-0.005 4.558379,-0.005 z" />
  </g>
</svg>
