<?xml version="1.0" encoding="UTF-8" standalone="no"?>
<svg
   xmlns:dc="http://purl.org/dc/elements/1.1/"
   xmlns:cc="http://creativecommons.org/ns#"
   xmlns:rdf="http://www.w3.org/1999/02/22-rdf-syntax-ns#"
   xmlns:svg="http://www.w3.org/2000/svg"
   xmlns="http://www.w3.org/2000/svg"
   width="42.135899mm"
   height="56.498878mm"
   viewBox="0 0 42.135899 56.498878"
   version="1.1"
   id="svg351">
  <defs
     id="defs345" />
  <metadata
     id="metadata348">
    <rdf:RDF>
      <cc:Work
         rdf:about="">
        <dc:format>image/svg+xml</dc:format>
        <dc:type
           rdf:resource="http://purl.org/dc/dcmitype/StillImage" />
        <dc:title></dc:title>
      </cc:Work>
    </rdf:RDF>
  </metadata>
  <g
     id="layer1"
     transform="translate(-88.192772,-114.19441)">
    <path
       id="path389"
       style="color:#000000;font-style:normal;font-variant:normal;font-weight:normal;font-stretch:normal;font-size:medium;line-height:normal;font-family:sans-serif;font-variant-ligatures:normal;font-variant-position:normal;font-variant-caps:normal;font-variant-numeric:normal;font-variant-alternates:normal;font-variant-east-asian:normal;font-feature-settings:normal;font-variation-settings:normal;text-indent:0;text-align:start;text-decoration:none;text-decoration-line:none;text-decoration-style:solid;text-decoration-color:#000000;letter-spacing:normal;word-spacing:normal;text-transform:none;writing-mode:lr-tb;direction:ltr;text-orientation:mixed;dominant-baseline:auto;baseline-shift:baseline;text-anchor:start;white-space:normal;shape-padding:0;shape-margin:0;inline-size:0;clip-rule:nonzero;display:inline;overflow:visible;visibility:visible;isolation:auto;mix-blend-mode:normal;color-interpolation:sRGB;color-interpolation-filters:linearRGB;solid-color:#000000;solid-opacity:1;vector-effect:none;fill:#ffffff;fill-opacity:1;fill-rule:nonzero;stroke:none;stroke-width:1.05833;stroke-linecap:round;stroke-linejoin:round;stroke-miterlimit:10;stroke-dasharray:none;stroke-dashoffset:0;stroke-opacity:1;color-rendering:auto;image-rendering:auto;shape-rendering:auto;text-rendering:auto;enable-background:accumulate;stop-color:#000000"
       d="m 116.40504,114.19451 -11.50989,11.41171 v 9.33586 c -0.90085,0.15464 -2.61865,0.45753 -4.59455,0.81855 -1.218119,0.22257 -2.418412,0.44617 -3.328999,0.62477 -0.455294,0.0893 -0.838088,0.16723 -1.117761,0.22893 -0.139837,0.0309 -0.25281,0.057 -0.343649,0.0811 -0.04542,0.012 -0.08406,0.023 -0.12609,0.0372 -0.04203,0.0142 -0.04521,-0.037 -0.22686,0.12609 a 0.52921955,0.52921955 0 0 0 -0.0021,0.002 c -0.02576,0.0233 -0.138488,0.12096 -0.169498,0.14676 -0.511968,0.42729 -0.836118,0.99031 -0.973068,1.55391 -0.168434,0.69245 -0.143363,1.4655 0.118856,2.09238 a 0.52921955,0.52921955 0 0 0 0,5.1e-4 c 0.02811,0.0668 0.05417,0.13946 0.07958,0.21756 a 0.52921955,0.52921955 0 0 0 0.0093,0.0243 l 0.418579,1.10226 c 0.05748,0.15148 0.107451,0.30673 0.149861,0.46457 l 0.291972,1.08934 c 0.113265,0.60572 -0.02375,1.39908 -0.21239,2.0252 -0.08257,0.27407 -0.168138,0.50281 -0.241329,0.68523 -3.56369,0.0451 -6.434232,2.98578 -6.434232,6.55619 v 4.5036 c 5e-6,0.0634 0.01317,0.12352 0.03359,0.17983 v 5.83634 c 0,4.04253 3.311863,7.35459 7.354073,7.35459 H 95.8352 c 4.042212,0 7.35407,-3.31206 7.35407,-7.35459 v -5.88181 c 0.0114,-0.0432 0.0196,-0.0875 0.0196,-0.13436 v -4.5036 c 0,-3.46066 -2.79156,-6.30874 -6.194451,-6.54069 0.532133,-1.46084 0.357104,-2.63386 0.3545,-2.651 -0.12114,-1.08541 -0.825234,-2.7778 -1.131196,-3.51968 -0.130846,-0.31749 -0.175081,-0.6391 -0.129192,-0.9555 -0.01461,0.10079 -8.66e-4,-0.005 0.230477,-0.13384 0.231344,-0.12918 0.607207,-0.27483 1.064535,-0.40928 0.914655,-0.26888 2.157264,-0.50576 3.395137,-0.69557 1.62598,-0.24929 3.17631,-0.41239 4.0964,-0.50074 v 9.23355 1.57199 h 1.57251 22.28908 1.572 v -1.57199 -30.87977 -1.572 h -1.572 z m 0.40669,1.572 h 11.94501 v 30.87977 h -22.28908 v -20.51607 l 10.36784,0.005 z m -8.09873,14.99133 v 1.37511 h 17.23616 v -1.37511 z m 0,4.7718 v 1.37563 h 17.23616 v -1.37563 z m -3.81785,0.48834 v 0.3421 c -0.65119,0.0554 -2.24936,0.19971 -4.25659,0.50747 -1.262348,0.19354 -2.532653,0.43194 -3.533117,0.72605 -0.500233,0.14706 -0.93207,0.30451 -1.282609,0.50023 -0.350538,0.19574 -0.693304,0.43726 -0.761194,0.90537 -0.07476,0.51546 0.0014,1.03456 0.197921,1.51153 a 0.52921955,0.52921955 0 0 0 0,0.001 c 0.297635,0.72168 0.986477,2.55577 1.060917,3.24321 a 0.52921955,0.52921955 0 0 0 0.0031,0.0258 c 10e-7,0 0.149119,1.11883 -0.480074,2.50475 -0.04991,0.0156 -0.09796,0.0383 -0.141593,0.0682 0.07725,-0.19673 0.09796,-0.1985 0.179834,-0.47026 0.214861,-0.71316 0.409182,-1.63423 0.238745,-2.53318 a 0.52921955,0.52921955 0 0 0 -0.0088,-0.0382 l -0.30024,-1.12344 c -0.05143,-0.19141 -0.112704,-0.38027 -0.182935,-0.56534 l -0.410311,-1.07849 c -0.002,-0.006 -0.0051,-0.0131 -0.0072,-0.0191 l -0.0021,-0.005 c -0.02973,-0.0899 -0.06176,-0.18143 -0.101286,-0.27543 -0.13149,-0.31433 -0.177107,-0.97784 -0.06615,-1.43402 0.08312,-0.34207 0.29798,-0.72018 0.621668,-0.99064 l 5.16e-4,-0.001 c 0.03109,-0.0259 0.0749,-0.0645 0.117306,-0.10128 0.06452,-0.0171 0.169732,-0.0417 0.30179,-0.0708 0.264116,-0.0583 0.640914,-0.13526 1.091923,-0.22376 0.902018,-0.17691 2.100937,-0.40007 3.316589,-0.62218 1.98937,-0.36349 3.60159,-0.64597 4.40387,-0.78342 z m 3.81785,4.2845 v 1.37511 h 17.23616 v -1.37511 z m -12.182716,7.01714 h 0.03617 c 3.024181,0 5.584156,2.48475 5.584156,5.49992 v 3.97444 h -5.620329 v -1.03508 c 0.190096,-0.12132 0.397048,-0.20456 0.554488,-0.39688 0.26311,-0.3214 0.47284,-0.74962 0.47284,-1.24902 v -4.08398 c 0,-0.49941 -0.209759,-0.92858 -0.47284,-1.25006 -0.157424,-0.19237 -0.364379,-0.27549 -0.554488,-0.39687 z m -1.891874,0.002 a 0.52921955,0.52921955 0 0 0 5.17e-4,0 0.52921955,0.52921955 0 0 0 0.233577,0.0873 v 0.82941 c -0.733978,0.3045 -1.198893,1.01672 -1.198893,1.79059 v 0.27233 3.81165 0.38499 c 0,0.62281 0.578249,1.05205 1.198893,1.40509 v 0.8909 h -5.621362 v -3.97444 c 0,-3.00449 2.396764,-5.45917 5.387268,-5.49785 z m 1.00769,1.74769 c 0.09463,0.001 0.189284,0.0154 0.26045,0.0568 0.08352,0.0419 0.263965,0.1101 0.407727,0.28577 0.143761,0.17567 0.185001,0.4225 0.185001,0.61702 v 4.08398 c 0,0.19451 -0.08985,0.40321 -0.233577,0.57878 -0.14373,0.17558 -0.349873,0.30028 -0.422714,0.32298 -0.159662,0.0583 -0.23285,0.0732 -0.401525,0.0424 -0.523586,-0.2023 -0.709518,-0.43532 -0.709518,-0.94413 v -3.81165 -0.27233 c 0,-0.50882 0.143983,-0.76819 0.654224,-0.94052 0.07068,-0.009 0.165299,-0.0204 0.259932,-0.0191 z m 0.05529,8.68991 c 0.08821,0.0606 0.19271,0.093 0.299723,0.093 h 6.122627 l 0.007,5.48649 c 0,3.46528 -2.830842,6.29625 -6.295743,6.29625 h -0.254765 c -3.464903,0 -6.291339,-2.83097 -6.295739,-6.29625 l -0.0067,-5.48649 h 6.123657 c 0.107014,0 0.211514,-0.0324 0.299723,-0.093 z" />
  </g>
</svg>
