<?xml version="1.0" encoding="UTF-8" standalone="no"?>
<svg
   xmlns:dc="http://purl.org/dc/elements/1.1/"
   xmlns:cc="http://creativecommons.org/ns#"
   xmlns:rdf="http://www.w3.org/1999/02/22-rdf-syntax-ns#"
   xmlns:svg="http://www.w3.org/2000/svg"
   xmlns="http://www.w3.org/2000/svg"
   width="32.408875mm"
   height="55.385948mm"
   viewBox="0 0 32.408875 55.385948"
   version="1.1"
   id="svg569">
  <defs
     id="defs563" />
  <metadata
     id="metadata566">
    <rdf:RDF>
      <cc:Work
         rdf:about="">
        <dc:format>image/svg+xml</dc:format>
        <dc:type
           rdf:resource="http://purl.org/dc/dcmitype/StillImage" />
        <dc:title></dc:title>
      </cc:Work>
    </rdf:RDF>
  </metadata>
  <g
     id="layer1"
     transform="translate(-92.65274,-119.71757)">
    <path
       id="path108"
       style="fill:#ffffff;fill-opacity:1;fill-rule:nonzero;stroke:none;stroke-width:1.33333"
       d="m 411.93945,452.47852 c -3.78134,0 -7.56177,-0.011 -11.34179,0.0117 -0.67601,0.004 -1.37485,0.0584 -2.02149,0.23829 -2.96133,0.82401 -4.6388,3.13152 -4.64258,6.38086 -0.0121,7.56132 -0.0294,15.12227 0.0254,22.68359 0.007,1.04133 0.22029,2.16424 0.65625,3.10156 1.17336,2.52401 3.33732,3.53503 6.05469,3.53125 7.488,-0.009 14.97294,0.003 22.46094,-0.0117 0.65201,-0.002 1.32843,-0.032 1.95508,-0.19336 2.98669,-0.77068 4.77369,-3.10474 4.78125,-6.27539 0.0185,-7.66 0.0307,-15.32046 -0.0215,-22.98047 -0.007,-0.99201 -0.23305,-2.06101 -0.65039,-2.95703 -1.13733,-2.428 -3.20848,-3.50636 -5.84179,-3.52148 -3.80402,-0.0189 -7.60813,-0.004 -11.41211,-0.004 z m -11.45898,3.73242 c 7.608,-0.009 15.21622,-0.008 22.82422,0 1.88935,0.003 2.83262,0.95112 2.83398,2.84179 0.004,7.60933 0.008,15.21877 0,22.82813 -0.003,1.88266 -0.95947,2.81118 -2.85547,2.8125 -7.584,0.003 -15.16795,0.003 -22.75195,0 -1.93599,-10e-4 -2.86192,-0.92782 -2.86328,-2.86914 -0.004,-3.78002 -0.002,-7.56182 -0.002,-11.3418 0,-3.80534 -0.002,-7.61067 0.002,-11.41601 10e-4,-1.89468 0.92984,-2.85415 2.8125,-2.85547 z m 11.45508,3.13476 c -0.92667,-0.0147 -1.4577,0.52007 -1.84571,1.30274 -2.97464,6.00136 -5.96345,11.99609 -8.93945,17.99609 -0.16025,0.32134 -0.24736,0.6789 -0.30859,0.85352 0.0147,1.07867 0.50425,1.74815 1.32422,1.99609 0.79736,0.23868 1.63615,-0.0443 2.07617,-0.82031 0.552,-0.97198 0.99557,-2.00581 1.54492,-2.98047 0.13334,-0.23747 0.49022,-0.49278 0.74609,-0.49414 3.58534,-0.0329 7.17053,-0.0322 10.75586,-0.002 0.24133,10e-4 0.5818,0.22364 0.70313,0.43945 0.48669,0.86933 0.89688,1.78387 1.35156,2.67187 0.59467,1.16538 1.6465,1.57541 2.64648,1.05274 0.93997,-0.49331 1.2252,-1.61128 0.67188,-2.72461 -2.98001,-5.99868 -5.9719,-11.99219 -8.94922,-17.99219 -0.37466,-0.75466 -0.88537,-1.28371 -1.77734,-1.29883 z m -0.0312,6.00977 c 1.368,2.75732 2.6609,5.36172 3.99023,8.03906 h -7.98437 c 1.32132,-2.65867 2.61416,-5.26307 3.99414,-8.03906 z M 392.07227,490.875 c -3.8425,-10e-4 -7.68534,0.01 -11.52735,0.0371 -3.82668,0.0267 -6.41047,2.6602 -6.41992,6.4082 -0.02,7.71198 -0.0132,15.42216 0,23.13281 0.003,1.97734 0.72634,3.64326 2.26367,4.94727 0.96267,0.81732 2.11296,1.15316 3.29297,1.44531 h 24.73633 c 0.32666,-0.0801 0.65574,-0.14883 0.97851,-0.24218 2.97737,-0.86264 4.62904,-3.11799 4.63282,-6.38868 0.0113,-7.56396 0.007,-15.1274 -0.004,-22.6914 -0.002,-0.63069 -0.0334,-1.28076 -0.18945,-1.88477 -0.768,-2.94799 -3.03235,-4.7134 -6.23633,-4.72851 -3.84267,-0.02 -7.68485,-0.034 -11.52734,-0.0352 z m 39.01953,0.01 c -3.841,-0.003 -7.68276,0.001 -11.52344,0.0273 -3.67998,0.0253 -6.31207,2.4142 -6.35742,5.96484 -0.10281,7.99869 -0.046,15.99804 -0.0195,23.99805 0.005,1.91868 0.8909,3.4497 2.3789,4.65234 0.94001,0.75867 2.05666,1.05833 3.19531,1.31836 h 24.73829 c 1.032,-0.43067 2.15076,-0.72832 3.08007,-1.32031 1.50403,-0.96 2.15965,-2.5315 2.48243,-4.24219 v -24.88867 c -0.0306,-0.0665 -0.0803,-0.13201 -0.0879,-0.20117 -0.38132,-2.86398 -2.85459,-5.30456 -6.36524,-5.30078 -3.84068,0.004 -7.68048,-0.005 -11.52148,-0.008 z m -38.97657,3.73828 c 3.77999,0 7.55987,-0.002 11.33985,0.002 1.92933,0.001 2.86914,0.94239 2.86914,2.87305 0.003,7.58664 0.003,15.17113 0,22.75781 0,1.88133 -0.94484,2.84892 -2.82617,2.85156 -7.608,0.008 -15.21685,0.008 -22.82617,0 -1.87733,-10e-4 -2.84437,-0.96969 -2.84571,-2.8457 -0.008,-7.58532 -0.007,-15.17054 -0.002,-22.75586 0.001,-1.92934 0.95964,-2.8795 2.87695,-2.88086 3.80402,-0.004 7.61008,-0.002 11.41406,-0.002 z m 39.02344,0 c 3.77998,0 7.55986,-0.002 11.33985,0.002 1.92,0.001 2.88145,0.9503 2.88281,2.87695 0.008,7.58536 0.008,15.16918 0,22.75586 -0.003,1.87733 -0.96715,2.84829 -2.8418,2.84961 -7.60932,0.008 -15.21817,0.008 -22.82617,0 -1.88534,-10e-4 -2.83203,-0.96705 -2.83203,-2.8457 -0.003,-7.60932 -0.003,-15.22271 0,-22.83203 10e-4,-1.8347 0.96364,-2.80009 2.79297,-2.80274 3.82802,-0.006 7.65503,-0.004 11.48437,-0.004 z m -43.53515,2.66211 c -1.70933,-0.016 -3.06068,1.36459 -3.06446,3.08593 -0.0176,5.63331 -0.0207,11.26705 0.002,16.90039 0.008,1.84131 1.28692,3.13308 3.12695,3.17579 1.72932,0.0389 3.46668,0.0579 5.19336,-0.0312 5.05867,-0.25868 8.27917,-5.87837 6.00586,-10.40235 -0.69869,-1.39068 -1.74711,-2.439 -3.09375,-3.23633 0.0996,-0.1683 0.17107,-0.29165 0.24414,-0.41406 2.05466,-3.41201 0.44587,-7.78073 -3.41016,-8.77539 -1.58933,-0.41083 -3.33056,-0.28762 -5.0039,-0.30273 z m 44.90234,0.45703 c -1.48077,0.0244 -2.99475,0.37962 -4.53125,1.07812 -4.22933,1.92401 -6.29212,5.42441 -6.48828,9.40039 -0.001,6.52267 4.59557,11.39314 10.49023,11.70118 3.09332,0.16267 5.80035,-0.8504 8.09766,-2.92774 0.62264,-0.56266 0.79474,-1.27245 0.52148,-2.06445 -0.26131,-0.75069 -0.86147,-1.22246 -1.60547,-1.14649 -0.60532,0.0627 -1.2501,0.37394 -1.74609,0.75 -3.49334,2.64802 -7.8649,2.13487 -10.57422,-1.28515 -2.99335,-3.77866 -1.14239,-9.82265 3.4336,-11.30664 2.65999,-0.86132 5.02889,-0.37356 7.21289,1.31445 1.00667,0.77877 2.12487,0.69854 2.79687,-0.13477 0.68667,-0.85334 0.49479,-2.00467 -0.5332,-2.80468 -2.23084,-1.73667 -4.60628,-2.61484 -7.07422,-2.57422 z M 389.87305,501.01 c 0.51283,-0.009 1.0189,-0.003 1.51757,0.0586 1.17068,0.14268 1.88299,1.19304 1.79493,2.37305 -0.084,1.12535 -0.93632,1.98898 -2.09766,2.04492 -0.89601,0.0416 -1.79745,0.008 -2.77344,0.008 v -4.45117 c 0.526,0 1.04576,-0.0245 1.5586,-0.0332 z m 0.60937,8.6582 c 0.70634,-0.005 1.40042,-0.003 2.09375,0.0293 1.84131,0.0893 3.21153,1.52325 3.32227,3.36328 0.10265,1.68933 -1.15303,3.39173 -2.90235,3.58789 -1.53335,0.17234 -3.09833,0.0391 -4.67968,0.0391 v -7 -0.002 c 0.74133,0 1.45967,-0.0122 2.16601,-0.0176 z m -20.35156,29.65039 c -10.99867,0 -19.94727,8.94861 -19.94727,19.94726 v 82.59766 c 0,10.99998 8.9486,19.94531 19.94727,19.94531 h 82.5957 c 11.00002,0 19.94727,-8.94533 19.94727,-19.94531 v -82.59766 c 0,-10.99865 -8.94725,-19.94726 -19.94727,-19.94726 z m 0,3.62695 h 82.5957 c 8.01681,0 14.6859,5.81417 16.05078,13.44336 H 354.07812 c 1.36489,-7.62919 8.03593,-13.44336 16.05274,-13.44336 z m 0.82031,5.34961 c -1.00133,0 -1.8125,0.81314 -1.8125,1.81446 0,1.00267 0.81117,1.8125 1.8125,1.8125 h 5.07227 c 1.00133,0 1.8125,-0.80983 1.8125,-1.8125 0,-1.00132 -0.81117,-1.81446 -1.8125,-1.81446 z m 12.67578,0 c -1.00267,0 -1.81445,0.81314 -1.81445,1.81446 0,1.00267 0.81178,1.8125 1.81445,1.8125 h 0.40821 c 1.00134,0 1.81445,-0.80983 1.81445,-1.8125 0,-1.00132 -0.81311,-1.81446 -1.81445,-1.81446 z m 8.3418,0 c -1.00267,0 -1.81445,0.81314 -1.81445,1.81446 0,1.00267 0.81178,1.8125 1.81445,1.8125 h 0.4082 c 1.00135,0 1.81446,-0.80983 1.81446,-1.8125 0,-1.00132 -0.81311,-1.81446 -1.81446,-1.81446 z m 10.09961,0.20313 c -1.00131,0 -1.8125,0.8131 -1.8125,1.81445 0,1.00131 0.81119,1.8125 1.8125,1.8125 H 453.875 c 1.00135,0 1.8125,-0.81119 1.8125,-1.8125 0,-1.00135 -0.81115,-1.81445 -1.8125,-1.81445 z m -48.25977,11.51757 h 115.23829 v 81.84766 c -10e-6,9 -7.32032,16.32031 -16.32032,16.32031 h -82.5957 c -9,0 -16.32227,-7.32031 -16.32227,-16.32031 z m 56.25,6.80274 c -22.71197,0.0467 -41.02569,18.38945 -40.98828,41.05078 0.0373,22.69999 18.40544,41.04019 41.05078,40.99219 22.71069,-0.048 41.03099,-18.39737 40.98829,-41.05469 -0.044,-22.70933 -18.39611,-41.03363 -41.05079,-40.98828 z m 0.0332,4.02734 c 0.87766,-0.007 1.74842,0.33421 2.5664,1.04688 1.23202,1.07335 2.3429,2.3826 3.18555,3.78125 2.57734,4.27468 3.81026,9.05328 4.82227,13.89062 0.11603,0.56002 0.20585,1.12485 0.33398,1.82617 h -21.85938 c 0.31998,-1.52001 0.58689,-2.98309 0.94141,-4.42578 1.08132,-4.39464 2.38943,-8.71422 4.99609,-12.49023 0.66267,-0.95868 1.49108,-1.85333 2.4004,-2.58399 0.85001,-0.68133 1.73561,-1.03775 2.61328,-1.04492 z m 8.22851,0.93555 c 11.23469,2.8907 19.41671,9.35081 24.85938,19.57617 -0.41866,0.0363 -0.68667,0.0762 -0.95313,0.0762 -5.35336,0.004 -10.70722,-0.007 -16.06054,0.0156 -0.68134,0.003 -0.98504,-0.12971 -1.1211,-0.90039 -0.87999,-5.02666 -2.14972,-9.95308 -4.40039,-14.56641 -0.67064,-1.37465 -1.47757,-2.68116 -2.32422,-4.20117 z m -16.55469,0.0176 c -0.0197,0.19464 -5.1e-4,0.28976 -0.0391,0.3457 -3.37466,5.01199 -5.02785,10.67856 -6.25586,16.50391 -0.14528,0.68931 -0.29084,1.37944 -0.3789,2.07812 -0.064,0.49981 -0.24514,0.72011 -0.78516,0.71875 -5.64265,-0.0176 -11.28509,-0.0138 -16.92773,-0.0176 -0.0587,0 -0.11796,-0.0364 -0.36329,-0.11914 v -0.002 c 5.41733,-10.17063 13.60202,-16.62513 24.75,-19.50781 z m -25.84179,23.71094 c 5.95865,0.0302 11.91631,0.0168 17.875,0.0195 0.1533,0 0.3087,0.0302 0.55664,0.0566 -0.88755,8.17731 -0.90571,16.31779 0.0156,24.56445 h -1.0332 c -5.70266,0 -11.40412,-0.0127 -17.10547,0.0176 -0.71467,0.004 -1.0624,-0.16139 -1.28906,-0.88672 -2.39465,-7.66001 -2.41098,-15.30451 0.041,-22.95117 0.15466,-0.4825 0.27412,-0.82409 0.93945,-0.82031 z m 68.14648,0 c 0.668,-0.004 0.93596,0.19879 1.13477,0.82812 2.43379,7.68669 2.44075,15.36039 -0.0312,23.03906 -0.14264,0.44671 -0.23733,0.79285 -0.86133,0.78907 -6.05333,-0.0278 -12.10683,-0.0236 -18.16016,-0.0273 -0.0612,0 -0.12012,-0.03 -0.32422,-0.0859 0.86669,-8.10001 0.89923,-16.23575 -0.0234,-24.48242 l 0.002,0.002 c 0.40267,-0.02 0.68409,-0.043 0.9668,-0.043 5.76533,-0.004 11.53154,0.0107 17.29687,-0.0195 z m -45.53515,0.0605 h 23.10156 c 1.02221,8.17331 1.0118,16.30832 0.008,24.51367 h -23.10156 c -1.0249,-8.14665 -1.00784,-16.28034 -0.008,-24.51367 z m -4.50977,28.6543 c 0.70798,-0.004 0.97274,0.17787 1.10352,0.92187 0.88667,5.02799 2.15352,9.94918 4.4082,14.5625 0.67068,1.37333 1.47876,2.68116 2.21875,4.00782 v 0.002 c -8.00001,-0.39065 -21.77113,-11.20543 -24.61914,-19.41211 0.256,-0.0238 0.4951,-0.0644 0.73242,-0.0644 5.38535,-0.004 10.77092,0.009 16.15625,-0.0176 z m 49.13281,0.0156 c -1.90133,3.86537 -4.33127,7.15754 -7.30859,10.04688 -4.91291,4.76624 -10.70094,7.94931 -17.60547,9.58008 3.91895,-5.89939 5.65433,-12.3613 6.88086,-19.00977 0.0453,-0.23747 0.42236,-0.59047 0.64648,-0.5918 5.73336,-0.034 11.46405,-0.0254 17.38672,-0.0254 z m -43.9082,0.0625 h 21.73828 c -0.60933,3.64268 -1.40262,7.16818 -2.75195,10.52149 -0.89201,2.21201 -1.99184,4.36066 -3.20117,6.41797 -0.61335,1.04133 -1.58003,1.9435 -2.55469,2.6875 -1.64534,1.25745 -3.41498,1.12293 -5.12695,-0.20508 -2.03868,-1.57999 -3.2385,-3.78065 -4.28516,-6.05664 -1.91067,-4.15336 -3.03596,-8.54653 -3.83594,-13.0332 -0.0113,-0.0881 0.01,-0.18123 0.0176,-0.33204 z"
       transform="scale(0.26458333)" />
  </g>
</svg>
