<?xml version="1.0" encoding="UTF-8" standalone="no"?>
<svg
   xmlns:dc="http://purl.org/dc/elements/1.1/"
   xmlns:cc="http://creativecommons.org/ns#"
   xmlns:rdf="http://www.w3.org/1999/02/22-rdf-syntax-ns#"
   xmlns:svg="http://www.w3.org/2000/svg"
   xmlns="http://www.w3.org/2000/svg"
   width="55.181122mm"
   height="55.172371mm"
   viewBox="0 0 55.181122 55.172371"
   version="1.1"
   id="svg286">
  <defs
     id="defs280" />
  <metadata
     id="metadata283">
    <rdf:RDF>
      <cc:Work
         rdf:about="">
        <dc:format>image/svg+xml</dc:format>
        <dc:type
           rdf:resource="http://purl.org/dc/dcmitype/StillImage" />
        <dc:title></dc:title>
      </cc:Work>
    </rdf:RDF>
  </metadata>
  <g
     id="layer1"
     transform="translate(-73.902879,-111.14928)">
    <path
       id="path96"
       style="fill:#ffffff;fill-opacity:1;fill-rule:nonzero;stroke:none;stroke-width:0.352777"
       d="m 111.09648,111.14931 c -1.16241,0 -2.3445,0.11169 -3.53054,0.34417 -10.816163,2.11843 -17.195275,13.54361 -13.346469,23.90293 0.660046,1.77588 1.587701,3.40441 2.710945,4.86844 -1.153584,1.18145 -2.277208,2.34067 -3.416329,3.48402 -0.06209,0.0624 -0.189204,0.093 -0.303858,0.093 -0.04304,0 -0.08425,-0.004 -0.119888,-0.0129 -0.436034,-0.10266 -0.855425,-0.15296 -1.259356,-0.15296 -1.33985,0 -2.507131,0.55585 -3.545003,1.60042 -3.379611,3.40149 -6.777332,6.78416 -10.166821,10.17612 -0.977194,0.9779 -1.979049,1.93325 -2.919201,2.94607 -1.236486,1.33244 -1.60241,2.91835 -1.03973,4.6452 0.560916,1.7212 1.777503,2.7794 3.555855,3.17345 0.102306,0.0226 0.198525,0.0694 0.297656,0.10438 h 1.292944 c 0.95885,-0.25295 1.868633,-0.58529 2.595708,-1.31413 4.410779,-4.42172 8.836056,-8.82924 13.242601,-13.25449 1.245307,-1.25095 1.678964,-2.7706 1.267624,-4.49533 -0.0769,-0.32174 0.01377,-0.49114 0.220141,-0.69505 0.983899,-0.96978 1.956451,-1.95204 2.934706,-2.92747 0.110418,-0.11006 0.233735,-0.20737 0.351914,-0.31109 0.108301,0.0734 0.184021,0.12071 0.255281,0.17364 3.30235,2.46273 6.91365,3.66385 10.82208,3.66385 1.01,0 2.04057,-0.0803 3.08973,-0.23978 6.92644,-1.05234 12.94471,-6.66195 14.43943,-13.5263 0.28786,-1.32362 0.37713,-2.69093 0.5581,-4.03748 v -0.43098 c -0.12276,-1.10349 -0.16512,-2.22302 -0.38137,-3.30781 -1.71298,-8.58714 -9.1788,-14.4699 -17.60461,-14.46992 v 1.05834 c 3.86821,0 7.65099,1.34143 10.65206,3.77806 3.04024,2.46839 5.14108,5.963 5.91437,9.84074 0.13653,0.68439 0.19897,1.39166 0.26459,2.14096 0.0293,0.33231 0.0592,0.67567 0.0966,1.0175 v 0.30283 c -0.0547,0.41346 -0.10125,0.82945 -0.14676,1.23197 -0.10372,0.92497 -0.2015,1.79833 -0.38706,2.651 -1.38888,6.37821 -7.09338,11.72146 -13.56402,12.70465 -0.99484,0.15134 -1.98106,0.22789 -2.93109,0.22789 -3.68864,0 -7.11635,-1.1624 -10.18904,-3.45405 -0.0617,-0.0459 -0.12567,-0.0889 -0.20257,-0.14005 l -0.0925,-0.0615 c -0.17992,-0.12171 -0.38671,-0.1819 -0.592731,-0.1819 -0.250825,0 -0.500568,0.0889 -0.699183,0.26355 -0.03281,0.0289 -0.06657,0.0576 -0.09973,0.0858 -0.09172,0.078 -0.19563,0.16565 -0.300757,0.27079 -0.339373,0.33832 -0.677809,0.67746 -1.016476,1.01647 -0.63641,0.63747 -1.272744,1.27468 -1.914094,1.90686 -0.182388,0.17957 -0.737147,0.72664 -0.506431,1.69396 0.324909,1.36313 0.0017,2.50902 -0.988568,3.50314 -2.473325,2.48391 -4.994412,5.00407 -7.432105,7.44141 -1.937103,1.9364 -3.874832,3.87282 -5.809465,5.81204 -0.512233,0.51365 -1.166775,0.7792 -1.985925,1.00356 h -0.956531 c -0.07444,-0.0275 -0.163663,-0.057 -0.265616,-0.0796 -1.431572,-0.31715 -2.340844,-1.12434 -2.778642,-2.46807 -0.44203,-1.35713 -0.177467,-2.53341 0.809253,-3.59668 0.659341,-0.70979 1.369182,-1.41123 2.055688,-2.08927 0.279399,-0.27588 0.558841,-0.55177 0.836125,-0.82941 1.075619,-1.07597 2.152255,-2.15141 3.228227,-3.22668 2.277533,-2.27541 4.632083,-4.62812 6.940661,-6.95151 0.861131,-0.86643 1.775134,-1.28778 2.794661,-1.28778 0.32244,0 0.664403,0.0422 1.016476,0.12506 0.115006,0.0268 0.23718,0.0408 0.362768,0.0408 0.243064,0 0.702857,-0.0524 1.053166,-0.40411 0.915106,-0.91828 1.799314,-1.82545 2.735233,-2.78536 l 0.689364,-0.70641 c 0.367596,-0.37677 0.402487,-0.96604 0.08217,-1.38338 -1.096081,-1.42875 -1.957014,-2.97427 -2.558499,-4.59352 -1.730024,-4.65632 -1.321912,-9.82478 1.119309,-14.18053 2.430288,-4.3367 6.599172,-7.36683 11.438582,-8.31474 1.09961,-0.21555 2.2192,-0.32452 3.32693,-0.32452 l 0.001,-1.05834 c -3.5e-4,0 -6.9e-4,0 -0.001,0 z m 0.006,3.12178 c -3.99556,0 -7.73723,1.54005 -10.53476,4.33616 -2.79788,2.79647 -4.341073,6.53743 -4.344954,10.53476 -0.0078,8.18444 6.625374,14.85492 14.786174,14.86938 h 0.0269 c 4.00297,0 7.75304,-1.54037 10.55904,-4.33721 2.80705,-2.79751 4.35601,-6.53999 4.36201,-10.53837 0.006,-3.97122 -1.53387,-7.70396 -4.33669,-10.50995 -2.80211,-2.80564 -6.53413,-4.35231 -10.5177,-4.35477 z m 0,1.05833 h 0.008 c 7.63305,0.005 13.79942,6.17901 13.78778,13.80536 -0.0116,7.68245 -6.16969,13.81827 -13.86271,13.81827 h -0.0253 c -7.5879,-0.0134 -13.736452,-6.19777 -13.729396,-13.81 0.0074,-7.68068 6.144226,-13.81363 13.821376,-13.81363 z m -0.18914,6.2885 c -1.07915,0 -2.17567,0.17268 -3.28869,0.54415 -3.73062,1.24602 -6.60723,3.67832 -9.008233,6.72879 -0.175329,0.22262 -0.165952,0.39082 0.04289,0.5979 0.278697,0.27623 0.519007,0.59142 0.776182,0.88987 1.891941,2.19533 4.099871,3.98851 6.744291,5.20278 1.55293,0.71261 3.14628,1.11983 4.78317,1.11983 0.8188,0 1.6479,-0.10208 2.48822,-0.31833 4.26967,-1.09961 7.36314,-3.85485 10.08517,-7.1639 -0.0885,-0.13088 -0.14944,-0.23791 -0.22634,-0.3328 -1.87713,-2.31387 -4.02754,-4.30957 -6.67866,-5.71644 -1.84997,-0.98179 -3.7562,-1.55185 -5.718,-1.55185 z m 0,1.05834 c 1.70215,0 3.41039,0.46701 5.2219,1.42833 2.16747,1.15005 4.14956,2.81409 6.04821,5.07928 -2.94569,3.42124 -5.74498,5.33716 -8.99583,6.1743 -0.73413,0.18909 -1.48243,0.28474 -2.22467,0.28474 -1.42134,0 -2.84149,-0.33458 -4.34185,-1.0232 -2.24155,-1.02905 -4.22798,-2.52451 -6.05855,-4.56251 2.12302,2.22638 4.04186,3.64466 6.19239,4.58163 1.49049,0.64947 2.86101,0.96532 4.18992,0.96532 0.5327,0 1.06566,-0.0521 1.58389,-0.15503 3.9758,-0.78951 6.75924,-3.26218 8.95811,-5.5764 0.38417,-0.40464 0.38851,-1.03753 0.0103,-1.44746 -1.94839,-2.10785 -3.82277,-3.55829 -5.89886,-4.56406 -1.56845,-0.76024 -3.14195,-1.14567 -4.67724,-1.14567 -1.1811,0 -2.37148,0.22652 -3.53777,0.67489 -2.83986,1.09079 -5.01379,2.98772 -6.63163,4.62143 2.18616,-2.36855 4.55844,-3.96075 7.20886,-4.84622 0.97296,-0.32491 1.96642,-0.48937 2.95279,-0.48937 z m 0.008,1.0976 c 1.42558,0 2.82618,0.36627 4.21577,1.03973 2.15547,1.04457 3.94148,2.55409 5.5826,4.32997 -2.36679,2.49167 -4.94551,4.58228 -8.39639,5.26738 -0.46496,0.0924 -0.92383,0.13488 -1.3782,0.13488 -1.29611,0 -2.55049,-0.34672 -3.76722,-0.87695 -2.35514,-1.02658 -4.26342,-2.65066 -6.03684,-4.53978 1.95439,-2.02565 4.01761,-3.75048 6.62182,-4.75061 1.06962,-0.41098 2.12059,-0.60462 3.15846,-0.60462 z m -0.0568,1.51412 c -1.99355,0 -3.93663,1.73188 -3.77083,4.17804 0.11783,1.73919 1.65768,3.55121 3.74189,3.55121 0.0261,0 0.0526,-3.9e-4 0.0791,-0.001 0.0176,3.6e-4 0.0346,5.2e-4 0.0522,5.2e-4 2.18758,0 3.88955,-1.70853 3.85145,-3.87211 -0.0399,-2.26167 -1.54393,-3.79596 -3.86592,-3.85558 -0.0293,-7.1e-4 -0.0586,-0.001 -0.0879,-0.001 z m 0,1.05834 0.061,5.1e-4 c 1.74484,0.0448 2.80463,1.09712 2.83497,2.81585 0.0131,0.75106 -0.26071,1.4513 -0.77153,1.97094 -0.52246,0.53199 -1.24105,0.82476 -2.0221,0.82476 l -0.0393,-5.2e-4 h -0.0129 c -0.008,0 -0.0155,1.7e-4 -0.0232,5.2e-4 l -0.0558,5.1e-4 c -1.4806,0 -2.60342,-1.35133 -2.68562,-2.56418 -0.0557,-0.82057 0.20961,-1.58883 0.74724,-2.16421 0.51753,-0.5535 1.25295,-0.88418 1.96732,-0.88418 z m -10.64689,2.26549 c -0.19156,0.34113 -0.17907,0.76603 0.0382,1.09658 -0.006,-0.007 -0.0126,-0.0142 -0.0186,-0.0212 -0.0737,-0.0857 -0.14628,-0.1728 -0.2186,-0.25993 -0.07936,-0.0956 -0.159428,-0.19238 -0.243391,-0.28939 0.146402,-0.17921 0.293831,-0.35462 0.442351,-0.52607 z" />
  </g>
</svg>
