<?xml version="1.0" encoding="UTF-8" standalone="no"?>
<svg
   xmlns:dc="http://purl.org/dc/elements/1.1/"
   xmlns:cc="http://creativecommons.org/ns#"
   xmlns:rdf="http://www.w3.org/1999/02/22-rdf-syntax-ns#"
   xmlns:svg="http://www.w3.org/2000/svg"
   xmlns="http://www.w3.org/2000/svg"
   width="39.272102mm"
   height="37.049751mm"
   viewBox="0 0 39.272102 37.049751"
   version="1.1"
   id="svg3515">
  <defs
     id="defs3509" />
  <metadata
     id="metadata3512">
    <rdf:RDF>
      <cc:Work
         rdf:about="">
        <dc:format>image/svg+xml</dc:format>
        <dc:type
           rdf:resource="http://purl.org/dc/dcmitype/StillImage" />
        <dc:title></dc:title>
      </cc:Work>
    </rdf:RDF>
  </metadata>
  <g
     id="layer1"
     transform="translate(-75.685302,-118.49896)">
    <path
       id="path76"
       style="fill:#ffffff;fill-opacity:1;fill-rule:nonzero;stroke:none;stroke-width:1.33333"
       d="m 393.68945,447.88086 c -1.96876,-0.10417 -3.88287,0.54831 -5.64453,1.93164 -5.05602,3.97202 -4.2263,11.63384 1.48438,14.58984 0.32798,0.17065 0.76978,0.5516 0.77734,0.84375 0.0642,2.58403 0.0371,5.17138 0.0371,7.99805 -1.728,0 -3.31083,-0.0772 -4.88281,0.0215 -1.44,0.0907 -2.42073,1.25876 -2.36328,2.58008 0.056,1.32533 1.14054,2.39517 2.56054,2.41407 2.304,0.0317 4.60811,0.0339 6.91211,-0.0156 1.94,-0.0413 2.83462,-1.03038 2.83594,-3.01172 0.004,-2.98802 0.0397,-5.97815 -0.0215,-8.96484 -0.0187,-0.90932 0.28089,-1.26663 1.1289,-1.58789 3.34534,-1.268 5.21572,-3.82429 5.53321,-7.32031 0.34669,-3.82666 -1.38074,-6.73807 -4.7754,-8.46876 -1.2005,-0.61299 -2.40077,-0.94726 -3.58203,-1.00976 z m -0.29687,5.17383 c 1.94135,-0.005 3.62746,1.6368 3.64258,3.54883 0.0173,1.97597 -1.66654,3.63022 -3.67188,3.61132 -1.98535,-0.02 -3.55324,-1.59804 -3.56836,-3.58203 -0.012,-1.90666 1.66299,-3.57434 3.59766,-3.57812 z m -54.5293,8.66015 c -5.2529,-0.0719 -10.25586,1.6254 -15.06836,4.56055 -0.76267,0.46534 -1.57558,0.87141 -2.40625,1.19531 -3.63733,1.41468 -7.4133,1.46583 -11.16797,0.75782 -2.45866,-0.46402 -4.86705,-1.24799 -7.26172,-2 -2.17599,-0.68399 -3.76354,0.36416 -3.77148,2.63086 -0.003,0.63197 0,1.26099 0,1.98632 h -1.34766 c -2.80933,0 -5.6184,-0.006 -8.42773,0.002 -2.52,0.005 -3.35742,0.85231 -3.35742,3.375 v 84.48828 c 0,2.68399 0.78475,3.4707 3.46875,3.4707 16.27866,0.004 32.55727,0.007 48.83594,-0.0156 0.756,0 1.22793,0.20614 1.69726,0.82617 6.16534,8.12798 18.30915,8.11984 24.50781,-0.0215 0.44534,-0.58401 0.87375,-0.80846 1.59375,-0.80468 4.06933,0.0302 8.13964,0.0305 12.20899,0.008 1.588,-0.009 2.69632,-1.05265 2.72656,-2.47266 0.0307,-1.41736 -1.06891,-2.55103 -2.62891,-2.55859 -4.97066,-0.0302 -9.93949,-0.0228 -14.91015,-0.004 -1.28267,0.005 -2.00059,0.67417 -2.53125,1.82617 -0.38,0.82802 -0.86344,1.6897 -1.52344,2.29102 -2.64133,2.40265 -5.78425,3.34507 -9.29492,2.5957 -2.68,-0.57199 -5.19804,-1.74553 -6.35938,-4.35351 -0.82399,-1.85201 -1.9182,-2.40222 -3.79687,-2.39844 -15.80933,0.0416 -31.61902,0.0234 -47.42969,0.0234 h -1.35352 V 476.0548 h 8.00782 v 1.49609 64.60938 c 0,2.44399 0.32825,2.94823 2.65625,3.82422 3.936,1.48134 7.99627,2.31082 12.21093,2.4707 4.73067,0.17998 9.14512,-0.76708 13.17579,-3.31641 7.28133,-4.60668 16.10804,-3.56322 22.10937,2.60742 1.368,1.4069 4.17878,1.37244 5.55078,-0.0742 1.71067,-1.80533 3.74496,-3.14584 6.01563,-4.11915 5.17866,-2.21869 10.1846,-1.52718 15.08593,0.93946 0.52134,0.26264 1.14747,0.46811 1.7168,0.44922 1.14003,-0.0374 2.03923,-0.91884 2.25391,-1.99219 0.25198,-1.26535 -0.20784,-2.2894 -1.47852,-2.94141 -5.98535,-3.06799 -12.19613,-3.68191 -18.60547,-1.53125 -1.51599,0.50937 -2.96654,1.22035 -4.5332,1.875 v -1.20703 -67.95898 c 0,-0.216 -0.0637,-0.45852 0.0137,-0.64258 0.15334,-0.35732 0.30165,-0.83956 0.59766,-0.99414 2.50266,-1.316 5.15185,-2.1846 7.97851,-2.50586 3.60801,-0.41065 7.09972,0.006 10.51172,1.24609 1.136,0.41201 2.24774,0.0724 2.92774,-0.79297 0.66668,-0.84801 0.86382,-1.90106 0.23047,-2.70507 -0.55601,-0.70666 -1.45241,-1.30657 -2.31641,-1.58399 -7.73067,-2.472 -15.18907,-1.79865 -22.28906,2.19336 -0.66667,0.37459 -1.08381,0.30179 -1.73047,-0.041 -1.67867,-0.88668 -3.3733,-1.81642 -5.16797,-2.4004 -2.49625,-0.81334 -4.93654,-1.21146 -7.32422,-1.24414 z m 79.72266,4.32618 c -1.95106,-0.0141 -3.81164,0.69894 -5.49414,2.14062 -4.96131,4.24932 -3.69346,11.96819 2.31054,14.57617 0.31998,0.14003 0.80299,0.44013 0.81055,0.68164 0.0718,1.75064 0.0391,3.50539 0.0391,5.38672 l -1.50195,0.002 c -15.624,10e-6 -31.24904,-0.004 -46.87305,0.004 -1.88533,0 -2.97851,0.9502 -2.97851,2.51953 -0.001,1.54265 1.08266,2.52993 2.86133,2.53125 16.88399,0.008 33.77031,0.008 50.65429,0 1.86936,-10e-4 2.85572,-1.00949 2.86328,-2.88281 0.0113,-2.232 0.0514,-4.46795 -0.0234,-6.69727 -0.0307,-0.92802 0.25914,-1.33819 1.11914,-1.74218 3.26536,-1.53733 4.97851,-4.22922 4.97851,-7.81055 10e-4,-3.68398 -1.77917,-6.42309 -5.17383,-7.90039 -1.218,-0.5305 -2.42116,-0.80011 -3.59179,-0.80859 z m -80.19727,0.75781 c 0.59677,-0.0126 1.20084,7.8e-4 1.8125,0.043 2.85067,0.19597 5.48618,1.06331 7.96485,2.47265 0.61067,0.34798 0.68492,0.81893 0.68359,1.4336 -0.0121,7.95734 -0.008,15.9157 -0.008,23.87304 v 44.18555 1.10352 c -2.67067,-0.83868 -5.18159,-1.87044 -7.79492,-2.39844 -5.816,-1.17732 -11.36505,-0.0774 -16.37305,3.0293 -3.76267,2.33465 -7.73364,3.27098 -12.04297,2.73632 -2.488,-0.30803 -4.93372,-0.94529 -7.40039,-1.41992 -0.74533,-0.14268 -1.02735,-0.49113 -1.02735,-1.3125 0.0268,-22.43331 0.0202,-44.86552 0.0215,-67.29883 0,-0.316 0.0303,-0.63195 0.0488,-1.02929 1.612,0.34802 3.13878,0.74526 4.68945,1 5.23333,0.86264 10.40037,0.81952 15.3457,-1.42578 0.84934,-0.38537 1.66094,-0.85985 2.46094,-1.33985 3.619,-2.17232 7.44175,-3.56426 11.61914,-3.65234 z m 80.35938,4.39062 c 1.94003,0.005 3.58763,1.65148 3.58007,3.57813 -0.008,1.93599 -1.65345,3.55431 -3.60546,3.54297 -1.96668,-0.009 -3.57214,-1.61771 -3.56836,-3.56836 0.007,-1.94669 1.63777,-3.5603 3.59375,-3.55274 z m -12.85938,28.28321 c -3.47453,-0.12801 -6.75835,1.88586 -8.19336,5.19336 -0.336,0.77472 -0.74087,0.9569 -1.51953,0.95312 -4.67868,-0.0378 -9.35784,-0.0195 -14.03516,-0.0195 v 0.002 c -4.60667,0 -9.21364,-0.004 -13.82031,0.008 -0.536,10e-4 -1.0868,0.031 -1.60547,0.15234 -1.02799,0.24132 -1.80172,1.33132 -1.79492,2.41797 0.007,1.06401 0.71838,2.07786 1.73438,2.33789 0.54933,0.13984 1.13512,0.1914 1.70312,0.1914 9.28533,0.0113 18.56952,0.0184 27.85352,-0.0156 0.80666,-0.001 1.16022,0.23388 1.48828,0.97656 2.00802,4.54919 7.46701,6.50898 11.79101,4.29297 3.46398,-1.77468 5.34057,-5.51321 4.69922,-9.36523 -0.60929,-3.67068 -3.77421,-6.61299 -7.60351,-7.07032 -0.23284,-0.0278 -0.46563,-0.0461 -0.69727,-0.0547 z m -0.11133,5.17773 c 1.796,0 3.38982,1.61913 3.42383,3.48047 0.036,1.98134 -1.60824,3.65247 -3.60156,3.65625 -1.96668,0.004 -3.57851,-1.58636 -3.58984,-3.54102 -0.012,-2.03198 1.62624,-3.59438 3.76757,-3.5957 z m 19.72657,12.30078 c -3.19553,0.079 -6.25757,2.02652 -7.60157,5.08203 -0.40134,0.91064 -0.88543,1.07754 -1.77343,1.07618 -15.84533,-0.0265 -31.68983,-0.0175 -47.53516,-0.0137 -0.50267,0 -1.01057,0.0117 -1.50391,0.0918 -1.284,0.20799 -2.15253,1.203 -2.16992,2.42969 -0.0173,1.22532 0.80823,2.2331 2.10156,2.48633 0.48934,0.0964 1.00062,0.10351 1.50196,0.10351 15.95333,0.008 31.90665,0.0111 47.86133,-0.008 0.72797,0 1.10748,0.16963 1.43554,0.9043 1.51333,3.38131 4.22175,5.05378 8.45508,5.2832 v -0.002 c 0.76532,-0.20931 2.11429,-0.38756 3.29297,-0.93555 3.36801,-1.56533 5.38625,-5.46297 4.82226,-8.98828 -0.62932,-3.932 -3.58164,-6.84978 -7.51367,-7.42578 -0.45733,-0.0672 -0.91654,-0.0953 -1.37304,-0.084 z m 0.29687,5.0918 c 2.02133,0.008 3.60446,1.62247 3.57422,3.64648 -0.028,1.964 -1.62727,3.53976 -3.58594,3.53711 -1.98535,-0.004 -3.62606,-1.66772 -3.59961,-3.65039 0.028,-1.924 1.68067,-3.54076 3.61133,-3.5332 z m -35.36133,17.81836 c -1.61733,0.003 -2.67446,1.02057 -2.69336,2.47656 -0.0213,1.50403 1.04941,2.51727 2.71875,2.56641 0.32398,0.0113 0.6468,0.004 0.97071,0.004 h 29.80664 1.37304 l 0.002,1.17188 c 0,2.77066 -0.0675,5.54707 0.0273,8.3164 0.0454,1.34537 -0.0927,2.38073 -1.63672,2.69141 -0.26664,0.0534 -0.51025,0.25784 -0.74609,0.42188 -3.25444,2.25067 -4.60946,6.44439 -3.27344,10.12304 1.35734,3.74136 5.06966,6.10507 8.95899,5.70508 4.14398,-0.42535 7.23421,-3.38985 7.85156,-7.53516 0.54931,-3.68001 -1.65073,-7.54768 -5.21875,-9.04101 -0.69207,-0.29065 -0.87683,-0.65404 -0.87305,-1.35938 0.0302,-4.248 0.0267,-8.49614 0.008,-12.74414 -0.007,-1.76398 -0.98479,-2.7936 -2.71679,-2.79492 -11.52,-0.0165 -23.0386,-0.0171 -34.5586,-0.002 z m 10.76367,17.82226 c -2.80663,-0.0138 -5.61519,-0.0132 -8.42187,0.002 -1.00399,0.006 -2.02507,-0.0304 -3.01172,0.12304 -1.78651,0.28003 -2.595,2.32921 -1.59765,3.83985 0.63734,0.96412 1.60197,1.13989 2.64062,1.14258 2.76801,0.006 5.53548,0.004 8.46484,0.004 h 0.004 c 0,2.53334 -0.0439,4.93848 0.0215,7.33985 0.0213,0.80931 -0.25434,1.18303 -0.95703,1.53906 -3.46397,1.75869 -5.2821,5.78801 -4.38476,9.55469 0.98264,4.12131 4.61051,6.84018 8.89453,6.66406 3.92398,-0.15999 7.50951,-3.28831 8.07617,-7.04297 0.65465,-4.34268 -1.60051,-8.24723 -5.64453,-9.66992 -0.69884,-0.24665 -0.9254,-0.57076 -0.91406,-1.30274 0.0416,-2.98666 0.0164,-5.97428 0.0137,-8.96093 -0.001,-2.29335 -0.90223,-3.22109 -3.1836,-3.23243 z m 24.0879,3.46289 c 1.96535,0.0547 3.54428,1.68143 3.52539,3.63477 -0.0174,1.94132 -1.65555,3.49937 -3.65821,3.48047 -1.90798,-0.0187 -3.52211,-1.61403 -3.54101,-3.49805 -0.0187,-1.94933 1.7285,-3.67048 3.67383,-3.61719 z m -22.9375,14.55274 c 2.01067,0.02 3.60653,1.65074 3.58007,3.66406 -0.0227,1.872 -1.65388,3.4927 -3.53125,3.50781 -1.98398,0.0173 -3.71119,-1.64419 -3.71875,-3.57617 -0.007,-1.96932 1.67127,-3.6146 3.66993,-3.5957 z"
       transform="scale(0.26458333)" />
  </g>
</svg>
