<?xml version="1.0" encoding="UTF-8" standalone="no"?>
<svg
   xmlns:dc="http://purl.org/dc/elements/1.1/"
   xmlns:cc="http://creativecommons.org/ns#"
   xmlns:rdf="http://www.w3.org/1999/02/22-rdf-syntax-ns#"
   xmlns:svg="http://www.w3.org/2000/svg"
   xmlns="http://www.w3.org/2000/svg"
   width="39.345917mm"
   height="36.232346mm"
   viewBox="0 0 39.345917 36.232346"
   version="1.1"
   id="svg4785">
  <defs
     id="defs4779" />
  <metadata
     id="metadata4782">
    <rdf:RDF>
      <cc:Work
         rdf:about="">
        <dc:format>image/svg+xml</dc:format>
        <dc:type
           rdf:resource="http://purl.org/dc/dcmitype/StillImage" />
        <dc:title></dc:title>
      </cc:Work>
    </rdf:RDF>
  </metadata>
  <g
     id="layer1"
     transform="translate(-111.10691,-136.09815)">
    <path
       id="path116"
       style="fill:#ffffff;fill-opacity:1;fill-rule:nonzero;stroke:none;stroke-width:1.33333"
       d="M 419.93164,514.38672 V 629.4043 h 54.18555 c -0.79465,-2.03067 -1.56473,-4.00059 -2.41407,-6.16992 H 426.19336 V 520.57617 h 136.29297 v 102.73438 h -15.46485 c -0.25734,2.11869 -0.49758,4.12419 -0.74023,6.13086 h 22.35937 V 514.38672 Z m 80.31641,15.47851 c -1.76935,0.032 -3.04361,1.38052 -3.0625,3.28321 -0.0189,2.00931 -0.004,4.0174 -0.004,6.02539 0,2.00799 -0.015,4.0174 0.004,6.02539 0.0173,1.90802 1.28401,3.25505 3.05468,3.28906 1.82533,0.0347 3.18007,-1.32854 3.19141,-3.2832 0.0189,-4.01601 0.0189,-8.03282 0,-12.04883 -0.009,-1.9573 -1.36095,-3.32503 -3.18359,-3.29102 z m -21.65821,9.3418 c -0.77716,-0.0323 -1.54925,0.22061 -2.14257,0.75195 -1.33599,1.19732 -1.54551,3.00859 -0.24415,4.36329 3.15731,3.288 6.39405,6.50304 9.66602,9.67773 0.94802,0.91854 2.21701,0.96298 3.40234,0.375 1.10004,-0.54535 1.62975,-1.51498 1.73633,-3.18164 -0.24132,-0.41866 -0.53797,-1.28106 -1.11133,-1.87305 -3.00132,-3.09067 -6.06091,-6.12702 -9.1289,-9.15234 -0.61801,-0.60994 -1.40057,-0.92862 -2.17774,-0.96094 z m 43.4961,0 c -0.79883,0.019 -1.61139,0.33752 -2.24805,0.96485 -3.06667,3.02668 -6.12305,6.0623 -9.12305,9.15429 -0.57467,0.59199 -0.86647,1.45604 -1.11328,1.88672 0.11732,1.65067 0.64014,2.6254 1.74414,3.16406 1.23731,0.60269 2.5159,0.5083 3.50391,-0.45703 3.20266,-3.12669 6.37699,-6.28327 9.48633,-9.50195 1.33077,-1.37734 1.20864,-3.11224 -0.082,-4.37891 -0.58266,-0.57137 -1.36914,-0.85102 -2.16797,-0.83203 z m -21.29688,15.55859 c -1.10299,-0.0526 -2.24446,0.0905 -3.38672,0.45704 -3.8773,1.24267 -6.44947,4.81053 -6.45703,9.0625 -0.0189,8.82803 -0.0184,17.65439 0.0156,26.48242 0.003,0.89333 -0.2371,1.3375 -1.1211,1.60547 -1.032,0.31336 -2.03341,0.77354 -2.99609,1.26953 -5.08664,2.61335 -8.54056,6.25444 -8.48047,12.48242 0.0427,4.59069 -0.3919,9.18527 -0.5,13.78125 -0.0533,2.29603 0.5023,4.51972 1.93164,6.37305 2.95865,3.83599 5.85941,7.72862 9.05274,11.36328 1.51464,1.72403 2.29993,3.35172 2.13476,5.65039 -0.18671,2.60802 -0.043,5.24076 -0.043,7.93945 h 6.24805 v -1.39258 c 0,-3.22133 -0.0835,-6.44674 0.0352,-9.66406 0.0667,-1.81731 -0.56272,-3.12988 -1.74805,-4.47656 -3.312,-3.76399 -6.48779,-7.6508 -9.67578,-11.52149 -1.23201,-1.49601 -1.88015,-3.23608 -1.77735,-5.21875 0.25599,-4.92665 0.47543,-9.85529 0.76758,-14.77929 0.036,-0.58666 0.3316,-1.22958 0.69141,-1.71094 1.36267,-1.82264 3.32063,-2.81702 5.41797,-3.84766 0.0213,3.83331 0.68296,7.54374 -2.45703,10.51172 -1.16002,1.09599 -0.72732,2.96317 0.49804,4.03516 1.17865,1.02916 3.08284,1.01478 4.21485,-0.17188 2.46667,-2.58402 4.07749,-5.51361 4.05859,-9.26562 -0.0643,-12.96934 -0.0271,-25.93824 -0.0195,-38.90625 10e-4,-0.53866 0.002,-1.10141 0.15234,-1.60938 0.44398,-1.50134 1.8868,-2.39783 3.38282,-2.18164 1.60663,0.23203 2.69543,1.50386 2.69921,3.25586 0.0113,7.28002 0.002,14.55788 0.002,21.83789 0,6.06535 -0.004,12.13255 0.004,18.19922 10e-4,1.55467 0.76968,2.72803 2.01368,3.13867 2.24133,0.74136 4.20363,-0.70652 4.21875,-3.17187 0.0265,-4.01598 -0.009,-8.03477 0.0137,-12.05078 0.012,-1.96267 1.36965,-3.26612 3.23633,-3.1875 1.76666,0.0733 2.93775,1.37909 2.94531,3.37109 0.0189,3.93199 -0.007,7.86488 0.0117,11.79688 0.009,2.09465 1.31152,3.49092 3.1582,3.45312 1.81999,-0.036 3.03762,-1.3874 3.05273,-3.41406 0.0103,-1.464 0.002,-2.92858 0.002,-4.39258 v -4.45898 c 1.9773,0.012 3.1199,1.17583 3.14258,3.11718 0.034,3.05466 -0.0127,6.10941 0.0176,9.16407 0.02,1.76934 1.28253,3.02691 2.97852,3.07226 1.7627,0.048 3.12508,-1.17371 3.20898,-2.98437 0.068,-1.41869 0.0188,-2.8443 0.0215,-4.26563 10e-4,-0.60264 0,-1.20187 0,-1.83789 1.78,0.34001 2.65726,1.2681 2.6875,2.9961 0.11074,6.39329 0.12004,12.79088 0.24023,19.18554 0.0414,2.25869 -0.90895,4.00071 -2.32226,5.63672 -2.33734,2.70267 -5.19035,4.71324 -8.31836,6.36524 -1.40667,0.74267 -2.04612,1.83145 -2.02344,3.43945 0.0529,3.59735 0.0158,7.19565 0.0195,10.79297 0,0.364 0.0479,0.7262 0.0781,1.21289 1.70135,0 3.32665,-0.0485 4.94531,0.0195 0.92954,0.04 1.23765,-0.242 1.21875,-1.19531 -0.0605,-2.80135 0.006,-5.60358 -0.0371,-8.40625 -0.012,-0.76668 0.24908,-1.20495 0.89844,-1.59961 3.12665,-1.90133 5.96424,-4.15248 8.32422,-6.98047 2.13467,-2.55734 3.46994,-5.42549 3.44726,-8.79883 -0.0427,-6.48 -0.2469,-12.96015 -0.17773,-19.4375 0.052,-4.93999 -3.7925,-9.38916 -8.67383,-9.625 -0.34934,-0.0173 -0.86129,-0.24407 -1,-0.52148 -1.896,-3.792 -4.88667,-5.80354 -9.13867,-5.73438 -2.396,-5.10402 -5.82595,-6.78716 -11.94727,-5.8125 v -1.49023 c 0,-5.856 0.043,-11.71432 -0.0156,-17.57032 -0.0542,-5.26174 -4.09147,-9.15859 -8.8711,-9.38672 z m 22.88086,6.19532 c -1.52433,-6.2e-4 -3.04898,0.0187 -4.57031,0.0801 -0.8293,0.0333 -1.76802,0.49815 -2.41602,1.04882 -0.88388,0.75202 -1.0369,1.90719 -0.6289,3.00586 0.41601,1.12267 1.20867,1.95843 2.47265,2.01172 1.70669,0.0737 3.41763,0.0195 5.12696,0.0195 v 0.0508 c 1.62799,0 3.2622,0.0981 4.88086,-0.0273 1.78798,-0.13735 2.96055,-1.50985 2.91406,-3.14453 -0.048,-1.70801 -1.34305,-2.9755 -3.20703,-3.00195 -1.524,-0.0212 -3.04793,-0.0424 -4.57227,-0.043 z m -50.91015,0.0293 c -0.0828,0 -0.16723,-6.9e-4 -0.25,0.002 -1.95334,0.0587 -3.29355,1.25601 -3.35743,3 -0.06,1.64666 1.19464,3.11499 3.0293,3.17773 3.16936,0.10791 6.3463,0.1127 9.51563,0.002 1.92933,-0.068 3.1268,-1.52446 3.01757,-3.28711 -0.10533,-1.72135 -1.37515,-2.84893 -3.3125,-2.88672 -1.50266,-0.0302 -3.00514,-0.008 -4.50781,-0.008 z"
       transform="scale(0.26458333)" />
  </g>
</svg>
