<?xml version="1.0" encoding="UTF-8" standalone="no"?>
<svg
   xmlns:dc="http://purl.org/dc/elements/1.1/"
   xmlns:cc="http://creativecommons.org/ns#"
   xmlns:rdf="http://www.w3.org/1999/02/22-rdf-syntax-ns#"
   xmlns:svg="http://www.w3.org/2000/svg"
   xmlns="http://www.w3.org/2000/svg"
   width="38.796112mm"
   height="32.337093mm"
   viewBox="0 0 38.796112 32.337093"
   version="1.1"
   id="svg4156">
  <defs
     id="defs4150" />
  <metadata
     id="metadata4153">
    <rdf:RDF>
      <cc:Work
         rdf:about="">
        <dc:format>image/svg+xml</dc:format>
        <dc:type
           rdf:resource="http://purl.org/dc/dcmitype/StillImage" />
        <dc:title></dc:title>
      </cc:Work>
    </rdf:RDF>
  </metadata>
  <g
     id="layer1"
     transform="translate(-50.905419,-121.41476)">
    <path
       id="path104"
       style="fill:#ffffff;fill-opacity:1;fill-rule:nonzero;stroke:none;stroke-width:1.33333"
       d="m 281.50586,458.89258 c -1.22267,-0.001 -2.20117,0.44012 -3.0625,1.32812 -2.24,2.304 -4.56035,4.52846 -6.79102,6.8418 -0.71066,0.73746 -1.43132,1.04366 -2.47265,1.04102 -15.036,-0.034 -30.07205,-0.0242 -45.10938,-0.0215 -3.22266,0 -4.16797,0.95955 -4.16797,4.21289 v 7.82031 c -0.192,0.0945 -0.26135,0.16016 -0.33203,0.16016 -1.72933,0.0113 -3.46012,0.0104 -5.18945,0.0293 -2.48933,0.024 -3.63382,1.16952 -3.64063,3.63086 -0.003,1.07066 0,2.14027 0,3.21093 v 5.3711 c -2.05866,0 -3.94989,-0.053 -5.83789,0.01 -2.18666,0.072 -3.31017,1.28009 -3.32226,3.44141 -0.008,1.35866 -0.045,2.71883 0.0137,4.07617 0.036,0.80935 -0.21541,1.36554 -0.83008,1.9082 -2.5,2.20933 -4.93021,4.49851 -7.43555,6.70118 -0.684,0.60132 -0.93101,1.21316 -0.92968,2.11718 0.0253,22.98668 0.0215,45.97232 0.0215,68.95899 v 1.37891 h 146.5625 c 0.0185,-0.31636 0.0449,-0.55415 0.0449,-0.79297 0.003,-23.31598 0.007,-46.63324 -0.0234,-69.94922 0,-0.49867 -0.28337,-1.11373 -0.63672,-1.47657 -2.52667,-2.59997 -5.1312,-5.12238 -7.64453,-7.73437 -0.42667,-0.44266 -0.74333,-1.18939 -0.75391,-1.80273 -0.0654,-4.11867 -0.031,-8.23876 -0.0352,-12.35743 -0.003,-2.44134 -1.08189,-3.58317 -3.47656,-3.65234 -1.07067,-0.0302 -2.14089,-0.006 -3.21289,-0.008 h -2.47656 c 0,-2.976 0.003,-5.72971 0,-8.48438 -0.003,-2.60266 -1.07368,-3.69374 -3.65235,-3.70508 -1.79867,-0.0102 -3.59776,-0.002 -5.50976,-0.002 0,-2.98001 0.002,-5.81121 -0.002,-8.64453 -0.003,-2.40268 -1.10601,-3.58424 -3.52735,-3.5918 -8.856,-0.0302 -17.71298,-0.0118 -26.57031,-0.0156 z m 12.35547,6.11328 c 3.58433,-10e-4 7.16728,0.002 10.75195,0.004 0.23734,0 0.47706,0.0399 0.78906,0.0664 v 6.06055 h -1.36914 c -4.40933,0 -8.8166,0.0186 -13.22461,-0.008 -1.27333,-0.008 -2.2914,0.38911 -3.1914,1.31445 -2.35467,2.42132 -4.74921,4.80683 -7.17188,7.16016 -0.36666,0.35599 -0.96698,0.66469 -1.45898,0.66601 -17.428,0.034 -34.85459,0.03 -52.28125,0.0274 -0.16133,-10e-6 -0.32366,-0.0242 -0.57031,-0.0469 v -6.08008 h 1.39843 c 14.46133,0 28.92148,-0.0144 43.38282,0.0234 1.55199,0.004 2.74803,-0.42374 3.83203,-1.56641 2.23866,-2.35997 4.56634,-4.63568 6.90234,-6.90234 0.36933,-0.3586 0.96503,-0.68482 1.45703,-0.6875 3.58467,-0.0227 7.16958,-0.0298 10.75391,-0.0312 z m 9.21289,12.26172 c 3.605,-0.001 7.21107,0.004 10.8164,0.006 0.19867,0 0.39765,0.038 0.68165,0.0645 v 5.99609 l -3.52149,0.002 c -3.62533,0 -7.25028,0.0224 -10.87695,-0.008 -1.4,-0.0107 -2.52167,0.42699 -3.51367,1.45899 -2.28534,2.37464 -4.62267,4.69778 -7,6.98047 -0.41867,0.40286 -1.12394,0.71484 -1.69727,0.71484 -23.32133,0.034 -46.64289,0.028 -69.96289,0.0254 -0.32267,0 -0.64378,-0.036 -1.03711,-0.0625 v -6.0039 h 1.5293 c 20.43733,0 40.87321,-0.0127 61.31054,0.0176 1.72,0.003 3.06687,-0.45879 4.26954,-1.74414 2.16533,-2.31598 4.44727,-4.52379 6.72461,-6.73046 0.37066,-0.35861 0.96822,-0.68287 1.46289,-0.68555 3.60533,-0.0227 7.20945,-0.0298 10.81445,-0.0312 z m 9.25586,12.19922 c 3.64483,-9.5e-4 7.29021,0.004 10.93554,0.006 0.12135,0 0.242,0.0323 0.47266,0.0625 v 15.16992 h -115.9375 v -6.07813 h 1.58203 c 26.56533,0 53.13193,-0.0105 79.69727,0.0273 1.69333,0.003 2.97715,-0.47085 4.14648,-1.71485 2.19867,-2.33998 4.50726,-4.57834 6.8086,-6.81836 0.34133,-0.33335 0.89937,-0.62563 1.35937,-0.62695 3.64467,-0.0208 7.29071,-0.0264 10.93555,-0.0273 z M 198.6543,514.00977 h 134.26953 v 60.9707 H 198.6543 Z m 60.95703,2.94726 v 3.82617 c -12.22533,3.44266 -19.19156,14.53042 -18.21289,25.92774 0.76533,8.92135 8.12861,18.77362 15.22461,20.21094 0,-1.82132 -0.0471,-3.62579 0.0195,-5.42579 0.032,-0.85202 -0.28456,-1.31859 -0.97656,-1.78125 -8.90667,-5.95468 -10.91437,-17.79203 -4.45704,-26.33203 2.15467,-2.85067 4.92024,-4.91659 8.37891,-6.08593 0.056,0.60933 0.10594,1.14721 0.16992,1.83789 3.05334,-2.03468 5.95556,-3.96821 9.07422,-6.04688 -3.12933,-2.07999 -6.06737,-4.03488 -9.2207,-6.13086 z m 12.2539,4.06445 c 0,1.64799 0.0552,3.29299 -0.0234,4.93164 -0.044,0.92002 0.25799,1.35892 1.11132,1.74024 6.72667,3.00268 10.57413,8.28153 11.07813,15.54687 0.51867,7.49999 -2.78749,13.29639 -9.27148,17.17774 -1.79201,1.07331 -3.73015,1.81702 -5.99415,2.04492 v -2.66016 c -3.10533,2.07069 -6.0307,4.02283 -9.10937,6.07618 3.11467,2.07333 6.0515,4.0266 9.1875,6.11328 v -3.23047 c 6.65867,-1.056 12.16187,-4.05108 16.2832,-9.40039 4.128,-5.35869 5.74691,-11.4388 4.87891,-18.10547 -1.27867,-9.83732 -10.13796,-19.67705 -18.14063,-20.23438 z"
       transform="scale(0.26458333)" />
  </g>
</svg>
