<?xml version="1.0" encoding="UTF-8" standalone="no"?>
<svg
   xmlns:dc="http://purl.org/dc/elements/1.1/"
   xmlns:cc="http://creativecommons.org/ns#"
   xmlns:rdf="http://www.w3.org/1999/02/22-rdf-syntax-ns#"
   xmlns:svg="http://www.w3.org/2000/svg"
   xmlns="http://www.w3.org/2000/svg"
   width="26.557594mm"
   height="38.604698mm"
   viewBox="0 0 26.557594 38.604698"
   version="1.1"
   id="svg2851">
  <defs
     id="defs2845" />
  <metadata
     id="metadata2848">
    <rdf:RDF>
      <cc:Work
         rdf:about="">
        <dc:format>image/svg+xml</dc:format>
        <dc:type
           rdf:resource="http://purl.org/dc/dcmitype/StillImage" />
        <dc:title></dc:title>
      </cc:Work>
    </rdf:RDF>
  </metadata>
  <g
     id="layer1"
     transform="translate(-65.340155,-113.74534)">
    <path
       id="path770"
       style="fill:#ffffff;fill-opacity:1;fill-rule:nonzero;stroke:none;stroke-width:1.33333"
       d="m 343.42578,429.9043 c -27.884,0 -55.76834,-0.005 -83.65234,0.0137 -1.22,10e-4 -2.47234,0.10653 -3.65235,0.39453 -5.54133,1.35334 -9.16211,6.1256 -9.16211,12.01758 -0.007,40.39068 -0.003,80.78123 -0.002,121.17187 0,0.40936 0.007,0.82115 0.0312,1.23047 0.336,6.00401 5.6977,11.07813 11.70703,11.07813 26.32533,0.001 52.65318,0 78.97852,0 2.51866,0 3.55921,-1.04336 3.56055,-3.58203 10e-4,-4.796 0,-9.59179 0,-14.5918 v -0.002 c 0.78933,0 1.43536,10e-4 2.08203,0 2.98533,-0.004 4.01367,-1.01311 4.01367,-3.95313 V 433.86133 c 0,-2.87467 -1.06163,-3.95703 -3.9043,-3.95703 z m -78.17773,6.19531 h 75.91015 v 115.39453 h -75.95508 v -1.34375 c 10e-6,-4.14134 0.0286,-8.28057 -0.0234,-12.42187 -0.012,-0.91068 0.28478,-1.49955 0.93945,-2.10352 18.048,-16.65335 36.06367,-33.34314 54.125,-49.98047 3.42667,-3.15598 6.38863,-6.53186 7.7793,-11.11719 2.79867,-9.22133 -0.84063,-19.18898 -9.00196,-24.34765 -8.08533,-5.11064 -18.78226,-4.14181 -25.82226,2.46484 -8.908,8.36001 -17.74271,16.79912 -26.60938,25.20313 -0.38133,0.36132 -0.76312,0.72153 -1.34179,1.26953 z m 43.04883,16.95508 c 1.80565,0.0503 3.58406,0.4123 5.19531,1.10937 5.84,2.52802 9.43703,7.96485 9.37304,14.1875 -0.0413,4.17468 -1.46762,7.81925 -4.51562,10.66992 -8.65067,8.08536 -17.37174,16.09609 -26.06641,24.13477 -0.088,0.0813 -0.20253,0.13429 -0.39453,0.25977 -6.528,-7.55864 -13.00307,-15.05716 -19.67773,-22.78516 0.35466,-0.23732 0.69445,-0.39968 0.95312,-0.64648 8.09334,-7.66269 16.1803,-15.33129 24.26563,-23.00196 2.78575,-2.64275 6.89475,-4.03843 10.86719,-3.92773 z m -8.5625,7.29101 c -1.69067,0.007 -3.03598,1.35711 -3.0254,3.03711 0.009,1.68 1.36455,3.00756 3.06055,3 1.69334,-0.008 3.05116,-1.36512 3.03906,-3.03711 -0.0107,-1.67334 -1.37822,-3.00756 -3.07421,-3 z m -6.01954,6.04688 c -1.64,-0.0293 -3.07139,1.35714 -3.10351,3.00781 -0.032,1.64398 1.34772,3.05545 3.01172,3.07813 1.68933,0.024 3.06017,-1.30501 3.08398,-2.98633 0.024,-1.66265 -1.33352,-3.06938 -2.99219,-3.09961 z m 12.24024,0.004 c -1.656,-0.08 -3.08144,1.24906 -3.13477,2.92774 -0.0533,1.71065 1.21453,3.09307 2.89453,3.1543 1.68934,0.0613 3.08061,-1.23006 3.14063,-2.91407 0.0627,-1.69198 -1.21506,-3.08671 -2.90039,-3.16797 z m -6.1836,6.08399 c -1.66133,-0.012 -3.0504,1.36396 -3.0625,3.0293 -0.0107,1.65732 1.36816,3.06105 3.02149,3.07617 1.63467,0.0147 3.06534,-1.39518 3.08008,-3.03516 0.0133,-1.63601 -1.39374,-3.05897 -3.03907,-3.07031 z m -12.17187,0.002 c -1.672,-0.007 -3.02917,1.34983 -3.03711,3.03516 -0.007,1.68669 1.34238,3.0608 3.01172,3.06836 1.67067,0.009 3.02249,-1.34963 3.0293,-3.04297 0.005,-1.69599 -1.32658,-3.05299 -3.00391,-3.06055 z m 24.33008,0 c -1.66134,-0.004 -3.0494,1.37505 -3.05469,3.03906 -0.005,1.66001 1.38182,3.0569 3.03516,3.06446 1.67066,0.007 3.02791,-1.35754 3.0332,-3.04688 0.004,-1.69466 -1.33367,-3.05286 -3.01367,-3.05664 z m -18.27539,6.10938 c -1.68667,0.008 -3.05311,1.3725 -3.04102,3.03515 0.012,1.65869 1.40498,3.031 3.07031,3.02344 1.67067,-0.007 3.03333,-1.38207 3.02539,-3.05273 -0.009,-1.68666 -1.35735,-3.01342 -3.05468,-3.00586 z m 12.14062,0.002 c -1.69867,0.0174 -2.99395,1.34857 -2.97656,3.06055 0.016,1.69069 1.37131,3.01877 3.05664,2.99609 1.69067,-0.0227 3.00094,-1.37419 2.98242,-3.07422 -0.0187,-1.6933 -1.35983,-3.00132 -3.0625,-2.98242 z m -6.0293,6.07227 c -1.68266,-0.005 -3.04983,1.34618 -3.05664,3.01953 -0.007,1.68264 1.33659,3.02551 3.03125,3.02929 1.69867,0.005 3.06043,-1.32854 3.06836,-3.00586 0.008,-1.66 -1.3683,-3.03541 -3.04297,-3.04296 z m -31.8496,0.3125 c 6.50133,7.52401 12.97059,15.01074 19.55859,22.63476 -7.352,6.79733 -14.62013,13.51523 -21.9668,20.3086 -2.272,-2.75736 -4.48216,-5.43843 -6.6875,-8.1211 -1.40533,-1.70801 -2.82954,-3.39981 -4.18554,-5.14648 -0.32001,-0.41333 -0.55639,-1.01328 -0.56055,-1.5293 -0.0427,-4.71065 -0.038,-9.42216 -0.006,-14.13281 0.004,-0.44134 0.1635,-1.01278 0.46484,-1.30078 4.40133,-4.22533 8.84015,-8.41157 13.38282,-12.71289 z m -13.78516,38.70117 c 2.41733,2.94266 4.63462,5.64006 6.89062,8.38672 -2.292,2.11733 -4.50262,4.15991 -6.89062,6.36523 z m 79.64844,33.95898 c 0.4,0 0.80091,0.0338 1.26758,0.0527 v 12.14257 l -1.31055,0.002 c -24.56133,0 -49.1236,-0.009 -73.6836,0.006 -2.63733,10e-4 -4.82709,-0.73583 -6.23242,-3.14649 -2.05333,-3.52002 0.0529,-8.15685 4.07422,-8.88086 0.68133,-0.12245 1.38479,-0.17051 2.07813,-0.17187 24.60133,-0.008 49.20397,-0.007 73.80664,-0.004 z"
       transform="scale(0.26458333)" />
  </g>
</svg>
