<?xml version="1.0" encoding="UTF-8" standalone="no"?>
<svg
   xmlns:dc="http://purl.org/dc/elements/1.1/"
   xmlns:cc="http://creativecommons.org/ns#"
   xmlns:rdf="http://www.w3.org/1999/02/22-rdf-syntax-ns#"
   xmlns:svg="http://www.w3.org/2000/svg"
   xmlns="http://www.w3.org/2000/svg"
   width="39.020779mm"
   height="37.187653mm"
   viewBox="0 0 39.020779 37.187653"
   version="1.1"
   id="svg5422">
  <defs
     id="defs5416" />
  <metadata
     id="metadata5419">
    <rdf:RDF>
      <cc:Work
         rdf:about="">
        <dc:format>image/svg+xml</dc:format>
        <dc:type
           rdf:resource="http://purl.org/dc/dcmitype/StillImage" />
        <dc:title></dc:title>
      </cc:Work>
    </rdf:RDF>
  </metadata>
  <g
     id="layer1"
     transform="translate(-122.67096,-87.605888)"
     style="fill:#ffff00;fill-opacity:1;fill-rule:nonzero;stroke:none">
    <g
       id="g8267"
       transform="matrix(0.26458333,0,0,0.26458333,24.509097,1.8799889)"
       style="opacity:1" />
    <path
       style="color:#000000;font-style:normal;font-variant:normal;font-weight:normal;font-stretch:normal;font-size:medium;line-height:normal;font-family:sans-serif;font-variant-ligatures:normal;font-variant-position:normal;font-variant-caps:normal;font-variant-numeric:normal;font-variant-alternates:normal;font-variant-east-asian:normal;font-feature-settings:normal;font-variation-settings:normal;text-indent:0;text-align:start;text-decoration:none;text-decoration-line:none;text-decoration-style:solid;text-decoration-color:#000000;letter-spacing:normal;word-spacing:normal;text-transform:none;writing-mode:lr-tb;direction:ltr;text-orientation:mixed;dominant-baseline:auto;baseline-shift:baseline;text-anchor:start;white-space:normal;shape-padding:0;shape-margin:0;inline-size:0;clip-rule:nonzero;display:inline;overflow:visible;visibility:visible;isolation:auto;mix-blend-mode:normal;color-interpolation:sRGB;color-interpolation-filters:linearRGB;solid-color:#000000;solid-opacity:1;vector-effect:none;fill:#ffffff;fill-opacity:1;fill-rule:nonzero;stroke:none;stroke-width:1.5748;stroke-linecap:round;stroke-linejoin:round;stroke-miterlimit:10;stroke-dasharray:none;stroke-dashoffset:0;stroke-opacity:1;color-rendering:auto;image-rendering:auto;shape-rendering:auto;text-rendering:auto;enable-background:accumulate;stop-color:#000000"
       d="m 130.60738,87.605926 a 0.78747876,0.78747876 0 0 0 -0.77359,0.920874 l 2.13992,12.47676 -9.06508,8.83667 a 0.78747876,0.78747876 0 0 0 0.43666,1.34307 l 12.5274,1.82056 5.60276,11.35124 a 0.78747876,0.78747876 0 0 0 1.4118,0 l 5.60328,-11.35124 12.52688,-1.82056 a 0.78747876,0.78747876 0 0 0 0.43667,-1.34307 l -9.06508,-8.83667 2.13992,-12.47676 a 0.78747876,0.78747876 0 0 0 -1.14257,-0.830439 l -11.205,5.891112 -11.205,-5.891112 a 0.78747876,0.78747876 0 0 0 -0.36897,-0.09043 z m 1.04852,2.227255 10.15907,5.34076 a 0.78747876,0.78747876 0 0 0 0.73277,0 l 10.15907,-5.34076 -1.93993,11.311969 a 0.78747876,0.78747876 0 0 0 0.22634,0.69712 l 8.21862,8.01191 -11.35745,1.65054 a 0.78747876,0.78747876 0 0 0 -0.59273,0.43099 l -5.08031,10.29239 -5.07979,-10.29239 a 0.78747876,0.78747876 0 0 0 -0.59273,-0.43099 l -11.35796,-1.65054 8.21862,-8.01191 a 0.78747876,0.78747876 0 0 0 0.22634,-0.69712 z"
       id="path8271" />
  </g>
</svg>
