<?xml version="1.0" encoding="UTF-8" standalone="no"?>
<svg
   xmlns:dc="http://purl.org/dc/elements/1.1/"
   xmlns:cc="http://creativecommons.org/ns#"
   xmlns:rdf="http://www.w3.org/1999/02/22-rdf-syntax-ns#"
   xmlns:svg="http://www.w3.org/2000/svg"
   xmlns="http://www.w3.org/2000/svg"
   width="94.82341mm"
   height="74.717804mm"
   viewBox="0 0 94.82341 74.717804"
   version="1.1"
   id="svg3940">
  <defs
     id="defs3934">
    <clipPath
       clipPathUnits="userSpaceOnUse"
       id="clipPath2636">
      <path
         d="M 0,8332.427 H 14187.635 V 0 H 0 Z"
         id="path2634" />
    </clipPath>
  </defs>
  <metadata
     id="metadata3937">
    <rdf:RDF>
      <cc:Work
         rdf:about="">
        <dc:format>image/svg+xml</dc:format>
        <dc:type
           rdf:resource="http://purl.org/dc/dcmitype/StillImage" />
        <dc:title></dc:title>
      </cc:Work>
    </rdf:RDF>
  </metadata>
  <g
     id="layer1"
     transform="translate(-52.373917,-105.51609)">
    <g
       id="g3976">
      <path
         d="m 123.65121,158.32754 h -5.1876 c -0.079,2.46168 -1.04916,4.45488 -2.62008,6.01698 1.81469,1.23049 3.56835,2.4197 5.20489,3.52954 1.69933,-1.17581 3.41488,-2.36255 5.14773,-3.56129 -1.58715,-1.58786 -2.46733,-3.59551 -2.54494,-5.98523 m 8.376,5.06307 c 2.82928,-0.005 5.13574,-2.30153 5.14421,-5.12304 0.009,-2.80882 -2.30505,-5.14738 -5.11246,-5.16608 -2.86738,-0.0194 -5.19783,2.31352 -5.18124,5.18619 0.0162,2.8395 2.3054,5.10751 5.14949,5.10293 m -22.1114,-0.002 c 2.92488,-3.5e-4 5.21053,-2.37807 5.19994,-5.40914 -0.01,-2.58762 -2.44298,-4.88033 -5.18089,-4.88033 -2.85574,-3.5e-4 -5.21617,2.36397 -5.18513,5.1936 0.0307,2.82539 2.33257,5.09623 5.16608,5.09587 M 63.998253,134.3764 c -0.0889,3.80118 2.904772,6.91727 6.730647,7.00652 3.703461,0.0864 6.824486,-2.92488 6.949722,-6.7056 0.12312,-3.72251 -2.875139,-6.87141 -6.645275,-6.97865 -3.82023,-0.1083 -6.945488,2.85785 -7.035094,6.67773 m 52.570587,42.58698 c 0.64347,-1.83127 1.09855,-3.54965 1.85597,-5.12233 0.44803,-0.93028 0.22366,-1.3776 -0.40922,-1.96604 -6.59025,-6.13021 -17.38278,-2.9591 -19.584463,5.76686 -0.102658,0.40711 -0.156633,0.82621 -0.248003,1.32151 h 1.053042 z m 27.1145,-0.0557 c -0.0723,-5.2772 -5.74287,-10.23373 -11.63955,-10.25843 -5.89844,-0.0243 -11.56582,4.90044 -11.74256,10.25843 z M 86.242302,112.2343 h 57.614258 v -3.38031 H 86.242302 Z m -21.582238,47.09195 c 0.348897,0.23425 0.650875,0.44768 0.963083,0.64523 1.637948,1.03682 3.304823,2.03095 4.91102,3.11468 1.5621,1.0548 2.198864,2.60315 1.829152,4.43653 -0.3683,1.8281 -1.527175,3.08928 -3.392311,3.36515 -0.918986,0.13617 -1.972733,-0.036 -2.852913,-0.36759 -1.829153,-0.68898 -3.583517,-1.57692 -5.464175,-2.42606 V 176.89 h 19.552355 v -1.28658 c 0,-5.85541 0.006,-11.71116 -0.0074,-17.56692 -0.0018,-0.84032 0.1397,-1.56775 0.987072,-1.94804 0.854075,-0.38347 1.491191,0.0219 2.108905,0.57503 1.239309,1.10878 2.500842,2.19322 3.777545,3.3087 0.195086,-0.14781 0.366183,-0.25612 0.512233,-0.39088 3.777544,-3.48579 7.552619,-6.97371 11.326283,-10.46339 0.148872,-0.13793 0.382411,-0.28822 0.395111,-0.44732 0.02752,-0.33972 0.05327,-0.80186 -0.140053,-1.00259 -0.191911,-0.20003 -0.680508,-0.24624 -0.987777,-0.16546 -0.298098,0.0787 -0.539045,0.39547 -0.790223,0.62372 -2.444044,2.22003 -4.882091,4.44641 -7.327194,6.66538 -1.095728,0.99448 -1.855258,0.97049 -2.876197,-0.12524 -1.856317,-1.99213 -3.678061,-4.01708 -5.555192,-5.98875 -0.288572,-0.30269 -0.795866,-0.55845 -1.203325,-0.56092 -6.500988,-0.0346 -13.00233,-0.019 -19.503319,-0.0342 -0.572205,-0.001 -0.829733,0.17956 -0.986366,0.75424 -0.670984,2.45851 -1.402292,4.90044 -2.105731,7.35012 -0.597605,2.08104 -1.187803,4.16419 -1.797403,6.30273 3.785306,1.67287 7.48277,3.29883 11.171414,4.94489 0.715081,0.31926 1.406172,0.52352 1.842206,-0.32632 0.4191,-0.81739 -0.176036,-1.23155 -0.788106,-1.61502 -2.132189,-1.33703 -4.261555,-2.67899 -6.380339,-4.03683 -1.011766,-0.64806 -1.218141,-1.35538 -0.700616,-2.43417 0.734836,-1.53247 1.495425,-3.05294 2.266244,-4.56777 0.525286,-1.03293 1.365603,-1.37759 2.243667,-0.96343 0.910519,0.42933 1.171575,1.35607 0.656872,2.42605 -0.542925,1.12854 -1.108781,2.24614 -1.684514,3.40924 m 33.124069,-4.58187 c 0.03351,0.0734 0.06738,0.14675 0.100894,0.21978 1.321859,0 2.645125,0.0339 3.963815,-0.0272 0.28046,-0.0127 0.64735,-0.31362 0.8008,-0.58137 1.64324,-2.87232 4.11974,-4.44077 7.40375,-4.44853 3.28789,-0.007 5.75557,1.57162 7.42033,4.42771 0.17603,0.30163 0.65193,0.58985 0.99836,0.60255 1.69933,0.0621 3.40289,0.0614 5.10187,0.002 0.3489,-0.012 0.83326,-0.28257 1.00612,-0.57926 3.50238,-6.00675 11.31076,-5.97782 14.87488,0.06 0.16404,0.27729 0.5648,0.41487 1.00189,0.71896 v -39.5096 H 89.685766 v 35.18746 c 1.999897,-1.83374 3.875617,-3.56129 5.75945,-5.28002 1.96215,-1.7907 4.511322,-1.76954 6.179254,0.0416 1.62066,1.76001 1.42064,4.29049 -0.48895,6.07272 -1.1116,1.03717 -2.233787,2.06269 -3.351387,3.09316 m 42.665997,3.48509 c -0.13229,2.45321 -1.01846,4.49721 -2.80705,6.19266 2.47544,1.07068 4.53284,2.53647 6.16127,4.56847 2.13395,2.66241 3.26601,5.70336 3.38313,9.11155 0.0494,1.44744 -0.55315,2.07256 -2.0073,2.07327 -16.09796,0.007 -32.19662,0.007 -48.295278,0.001 -1.564922,-7e-4 -2.147711,-0.63288 -2.0447,-2.22638 0.38982,-6.01521 3.307292,-10.37308 8.653288,-13.12298 0.2413,-0.12382 0.48965,-0.23354 0.84878,-0.40393 -1.71485,-1.68769 -2.70263,-3.67594 -2.76648,-6.22124 -1.10137,0 -2.194632,0.13265 -3.243793,-0.025 -3.117145,-0.46779 -5.610225,0.46672 -7.582958,2.9404 -0.587023,0.73625 -1.382184,1.30775 -2.086328,1.9498 -1.158875,1.05657 -1.785409,1.0608 -2.996495,0.0166 -0.667808,-0.57608 -1.328208,-1.16134 -2.192513,-1.9177 v 1.24707 c 0,5.20841 0.0018,10.41682 -0.0014,15.62524 -7.05e-4,1.65911 -0.534811,2.19216 -2.205213,2.19286 -7.248878,0.003 -14.498461,0.004 -21.748044,7.1e-4 -1.653117,-7.1e-4 -2.185459,-0.54399 -2.18687,-2.21192 -0.0025,-3.54012 -0.01446,-7.08095 0.01164,-10.62108 0.0046,-0.5909 -0.153811,-0.92075 -0.724958,-1.14229 -1.044575,-0.40499 -2.064103,-0.8763 -3.08222,-1.3462 -1.024114,-0.47308 -1.363133,-1.149 -1.050925,-2.23556 1.5875,-5.51885 3.20675,-11.02854 4.789311,-16.54845 0.31362,-1.09467 1.058686,-1.39524 2.07645,-1.39171 3.06317,0.01 6.126339,0.004 9.189156,0.004 h 1.405819 c -6.617758,-0.97825 -9.672461,-6.52674 -9.181394,-11.31993 0.505883,-4.93783 4.828116,-8.9348 9.959975,-9.02123 5.047897,-0.0854 9.456913,3.79871 10.132835,8.71255 0.633589,4.60304 -2.131483,10.4528 -9.034638,11.62861 2.919236,0 5.841294,0.0688 8.757355,-0.0293 1.428397,-0.048 2.475794,0.35031 3.337631,1.49437 0.650875,0.8636 1.45415,1.61219 2.312811,2.546 v -33.18193 c -0.496006,0 -1.0287,0.0198 -1.559631,-0.004 -1.111955,-0.0497 -1.71838,-0.60149 -1.738842,-1.71556 -0.03951,-2.17805 -0.04022,-4.35786 -0.0011,-6.53556 0.02258,-1.25166 0.693561,-1.79211 2.098675,-1.79317 7.147278,-0.005 14.294908,-0.003 21.442184,-0.003 12.7628,0 25.5263,3.5e-4 38.28944,10e-4 1.99179,3.6e-4 2.43241,0.4498 2.43347,2.47615 0.001,1.80446 0.004,3.60856 3.5e-4,5.41302 -0.004,1.63372 -0.50588,2.14666 -2.11208,2.16606 -0.37007,0.005 -0.73978,7e-4 -1.27812,7e-4 v 1.25977 c -7e-4,12.86793 -0.001,25.73585 -0.002,38.60377 -3.6e-4,2.48179 -0.23989,2.72344 -2.73685,2.76542 -0.16651,0.002 -0.33338,0.0145 -0.61631,0.0272"
         style="fill:#8e2781;fill-opacity:1;fill-rule:nonzero;stroke:none;stroke-width:0.352778"
         id="path2640" />
      <path
         d="m 129.1241,132.82005 c -0.12488,7.84895 -6.50804,14.04056 -14.36052,13.92943 -7.69232,-0.10866 -13.88498,-6.60471 -13.75375,-14.42685 0.12806,-7.62247 6.57331,-13.83488 14.24375,-13.72975 7.69585,0.10618 13.99293,6.56484 13.87052,14.22717 z"
         style="fill:none;stroke:#8e2781;stroke-width:1.05833;stroke-linecap:butt;stroke-linejoin:miter;stroke-miterlimit:10;stroke-dasharray:none;stroke-opacity:1"
         id="path2644" />
    </g>
  </g>
</svg>
