<?xml version="1.0" encoding="UTF-8" standalone="no"?>
<svg
   xmlns:dc="http://purl.org/dc/elements/1.1/"
   xmlns:cc="http://creativecommons.org/ns#"
   xmlns:rdf="http://www.w3.org/1999/02/22-rdf-syntax-ns#"
   xmlns:svg="http://www.w3.org/2000/svg"
   xmlns="http://www.w3.org/2000/svg"
   width="94.251732mm"
   height="102.10672mm"
   viewBox="0 0 94.251732 102.10672"
   version="1.1"
   id="svg3461">
  <defs
     id="defs3455" />
  <metadata
     id="metadata3458">
    <rdf:RDF>
      <cc:Work
         rdf:about="">
        <dc:format>image/svg+xml</dc:format>
        <dc:type
           rdf:resource="http://purl.org/dc/dcmitype/StillImage" />
        <dc:title></dc:title>
      </cc:Work>
    </rdf:RDF>
  </metadata>
  <g
     id="layer1"
     transform="translate(-32.249136,-26.809736)">
    <g
       id="g3485">
      <path
         d="m 81.187244,69.031402 c 0.327729,5.295545 5.794727,10.451042 10.593562,10.584743 -0.03351,-4.750506 -5.457119,-10.206566 -10.593562,-10.584743 m 24.989016,7.985125 C 100.91705,77.307569 95.040473,83.279744 95.589044,87.69511 100.77664,87.216037 105.5917,82.389331 106.17626,77.016527 M 93.611019,31.168822 c -1.406173,2.35585 -2.753783,4.461581 -3.950055,6.650213 -2.371018,4.337403 -4.439708,8.800747 -5.13856,13.770328 -0.763765,5.430307 1.865135,10.161764 7.525102,12.437532 0,-1.394883 0.04127,-2.753783 -0.02434,-4.107743 -0.02045,-0.422627 -0.234243,-0.920398 -0.523875,-1.230842 -1.120775,-1.202266 -2.319512,-2.331156 -3.466745,-3.509785 -0.759883,-0.780698 -0.779992,-1.700742 -0.102307,-2.362201 0.6858,-0.66922 1.548342,-0.624417 2.350911,0.158397 0.528814,0.516114 1.019881,1.071033 1.527881,1.608314 0.07937,-0.04163 0.159102,-0.0829 0.238832,-0.124531 v -0.976842 c 0,-3.461455 -0.0088,-6.922557 0.0049,-10.38366 0.0046,-1.123597 0.590198,-1.753306 1.565982,-1.77165 0.964493,-0.01764 1.599848,0.612069 1.627716,1.716969 0.03598,1.438628 0.0063,2.878667 0.01693,4.318 0.0035,0.238831 0.06456,0.477309 0.138641,0.985309 0.663223,-0.722842 1.125715,-1.276703 1.640769,-1.776589 0.791633,-0.76835 1.685925,-0.792692 2.353733,-0.113595 0.667456,0.679098 0.625826,1.551517 -0.156279,2.352675 -1.100666,1.127831 -2.262012,2.199217 -3.318229,3.366558 -0.347837,0.384175 -0.626533,0.987778 -0.635704,1.496483 -0.0568,3.151717 -0.02999,6.304846 -0.024,9.457619 0,0.28575 0.04904,0.571148 0.07761,0.883708 5.482878,-2.309283 8.562628,-7.046381 7.283098,-13.424604 -1.42376,-7.096477 -5.080303,-13.150497 -9.012011,-19.420063 M 42.273386,94.987379 C 40.102392,105.21582 37.933867,115.4305 35.757228,125.68363 H 50.494519 V 94.987379 Z m 11.505847,23.653041 c 0.587728,-0.41381 1.013883,-0.73871 1.463675,-1.02693 3.649486,-2.34033 7.709253,-2.56505 11.800417,-1.97379 4.533546,0.65475 9.019821,1.63336 13.531848,2.44404 3.821289,0.68686 7.651398,1.19733 11.523488,0.33584 4.232275,-0.94191 7.962549,-2.99543 11.359439,-5.55237 6.31896,-4.75685 12.4901,-9.71056 18.71733,-14.589121 1.1811,-0.92569 1.29223,-2.215092 1.03258,-3.546475 -0.24235,-1.243187 -1.15675,-1.630892 -2.28952,-1.043868 -3.15983,1.637948 -6.32848,3.259312 -9.4675,4.936066 -3.5567,1.900058 -7.0799,3.862558 -10.63131,5.772148 -0.50412,0.27129 -1.074561,0.51753 -1.634068,0.57185 -4.540601,0.43851 -9.097081,0.7426 -13.6398,0.17816 -1.743426,-0.21696 -3.461101,-0.76482 -5.142089,-1.31092 -0.880179,-0.28611 -1.063271,-1.1229 -0.673452,-1.95792 0.388056,-0.83115 1.064683,-1.09361 1.946275,-0.78811 0.676627,0.23425 1.351843,0.50553 2.05105,0.63571 4.52261,0.84173 9.07556,0.61736 13.621808,0.26776 0.714023,-0.055 1.448152,-0.36125 2.090208,-0.70556 0.804338,-0.43145 1.074918,-1.887714 0.701328,-3.089626 -0.365129,-1.174046 -0.918286,-1.63054 -2.044353,-1.636538 -1.91911,-0.01058 -3.843866,-0.09948 -5.755216,0.02082 -2.357967,0.148166 -4.547659,-0.157692 -6.524625,-1.549752 -0.469548,-0.330552 -1.036109,-0.52564 -1.564217,-0.769409 -5.277202,-2.4384 -10.725502,-4.189235 -16.63347,-3.829401 -5.310013,0.323495 -9.803343,2.391126 -13.167784,6.606468 -0.38735,0.485069 -0.639939,1.223079 -0.644525,1.846437 -0.04657,6.237461 -0.02787,12.475281 -0.02752,18.712751 z m 0.09031,-25.556983 c 3.292122,-3.025068 7.066492,-4.895498 11.427883,-5.56119 4.492977,-0.6858 8.922457,-0.236008 13.190009,1.154642 3.33516,1.087263 6.569778,2.521305 9.763828,3.987096 1.291522,0.592667 2.511073,0.731309 3.910542,0.6096 V 83.022921 C 91.455194,82.882162 90.721769,82.758337 89.999279,82.588297 83.068254,80.957406 78.063044,74.811664 77.868311,67.70531 c -0.04551,-1.658408 0.530225,-2.218621 2.227085,-2.121254 4.6101,0.264938 8.437033,2.140304 11.479741,5.615516 0.151694,0.173567 0.310799,0.340784 0.649817,0.711555 0,-1.443567 0.04903,-2.657475 -0.0381,-3.861507 -0.01939,-0.264583 -0.482952,-0.585258 -0.808918,-0.725664 -2.854325,-1.230136 -5.31989,-2.970036 -7.206899,-5.460294 -2.905831,-3.8354 -3.327048,-8.138229 -2.307518,-12.694002 1.31727,-5.888214 4.000145,-11.191875 7.044267,-16.332199 1.0287,-1.737078 2.151591,-3.420181 3.283301,-5.093053 0.815975,-1.2065 2.084211,-1.256594 2.858559,-0.08255 3.947231,5.985934 7.610474,12.124972 9.731374,19.042944 1.02517,3.343628 1.62207,6.739819 0.7179,10.216798 -1.26753,4.875387 -4.52896,8.036629 -8.964081,10.068629 -1.084085,0.497065 -1.504595,1.007885 -1.469318,2.232377 0.09948,3.449108 0.03457,6.903156 0.03457,10.34274 0.728485,-0.660049 1.416402,-1.293636 2.115254,-1.914174 2.872675,-2.551993 6.229705,-3.923945 10.068635,-4.081991 1.68063,-0.06914 2.25037,0.539398 2.15335,2.196396 -0.45579,7.785804 -6.08259,13.940012 -13.801019,15.097829 -0.131937,0.01976 -0.259995,0.06773 -0.45861,0.121004 v 2.346325 c 0.629708,0 1.271765,0.04304 1.90641,-0.0071 4.182889,-0.3302 6.105169,2.471208 6.338359,5.712177 0.36407,-0.174273 0.69074,-0.321382 1.00859,-0.485069 4.74733,-2.442281 9.51265,-4.84999 14.23035,-7.347656 1.96921,-1.042459 3.85939,-1.288696 5.65221,0.168275 1.9371,1.574448 2.60491,3.71334 1.93393,6.086827 -0.30163,1.067154 -0.90982,2.240491 -1.7392,2.935821 -7.11235,5.96265 -14.20283,11.94999 -22.01862,17.01941 -6.504169,4.21852 -13.459181,5.47652 -21.010037,3.97192 -4.429477,-0.88265 -8.87236,-1.70391 -13.325121,-2.4585 -2.744964,-0.46532 -5.544963,-0.70133 -8.253589,0.12594 -1.313392,0.40146 -2.585156,1.08726 -3.728156,1.86196 -1.685572,1.14265 -2.610908,2.65959 -2.448277,4.91772 0.216958,3.00672 -0.01129,3.08187 -3.071637,3.08222 -5.4483,0 -10.896599,0.004 -16.345252,0 -1.777294,0 -2.318455,-0.69392 -1.948391,-2.45039 2.291997,-10.88354 4.582583,-21.76744 6.874227,-32.650991 0.386292,-1.834446 0.66675,-2.062691 2.558345,-2.064456 3.186641,-0.0035 6.373988,0.01976 9.560277,-0.01199 1.097844,-0.01093 2.049992,0.140759 2.517422,1.347962"
         style="fill:#8e2781;fill-opacity:1;fill-rule:nonzero;stroke:none;stroke-width:0.352777"
         id="path770" />
      <path
         d="m 43.903219,119.85931 c 0,-0.75248 -0.02822,-1.50672 0.0074,-2.25778 0.04269,-0.89994 0.604308,-1.34902 1.452386,-1.43369 0.81668,-0.0811 1.61043,0.51752 1.643239,1.35114 0.06279,1.57057 0.06632,3.14819 -0.0056,4.7184 -0.03881,0.84349 -0.687564,1.24531 -1.488017,1.26012 -0.846666,0.0159 -1.487663,-0.38594 -1.579738,-1.27952 -0.07973,-0.77858 -0.01623,-1.57198 -0.01623,-2.35867 -0.0046,0 -0.0088,0 -0.01341,0"
         style="fill:#8e2781;fill-opacity:1;fill-rule:nonzero;stroke:none;stroke-width:0.352777"
         id="path774" />
      <path
         d="M 95.589107,87.695277 106.99759,75.652149"
         style="fill:none;stroke:#8e2781;stroke-width:1.05833;stroke-linecap:round;stroke-linejoin:round;stroke-miterlimit:10;stroke-dasharray:none;stroke-opacity:1"
         id="path3332" />
      <path
         d="M 93.488818,80.2213 81.187104,69.031542"
         style="fill:none;stroke:#8e2781;stroke-width:1.05833;stroke-linecap:round;stroke-linejoin:round;stroke-miterlimit:10;stroke-dasharray:none;stroke-opacity:1"
         id="path3336" />
    </g>
  </g>
</svg>
