<?xml version="1.0" encoding="UTF-8" standalone="no"?>
<svg
   xmlns:dc="http://purl.org/dc/elements/1.1/"
   xmlns:cc="http://creativecommons.org/ns#"
   xmlns:rdf="http://www.w3.org/1999/02/22-rdf-syntax-ns#"
   xmlns:svg="http://www.w3.org/2000/svg"
   xmlns="http://www.w3.org/2000/svg"
   width="92.570755mm"
   height="90.701469mm"
   viewBox="0 0 92.570755 90.701469"
   version="1.1"
   id="svg4204">
  <defs
     id="defs4198" />
  <metadata
     id="metadata4201">
    <rdf:RDF>
      <cc:Work
         rdf:about="">
        <dc:format>image/svg+xml</dc:format>
        <dc:type
           rdf:resource="http://purl.org/dc/dcmitype/StillImage" />
        <dc:title></dc:title>
      </cc:Work>
    </rdf:RDF>
  </metadata>
  <g
     id="layer1"
     transform="translate(-39.172106,-101.14591)">
    <path
       id="path376"
       style="fill:#8e2781;fill-opacity:1;fill-rule:nonzero;stroke:none;stroke-width:1.33333"
       d="m 322.61133,382.28516 c -6.40376,0.0875 -12.39446,4.22288 -14.84571,10.40039 -2.61067,6.576 -1.15108,14.83534 4.90626,18.30468 5.12134,2.93602 5.23155,6.61929 4.93554,11.19532 -0.04,0.67997 0,1.36484 0,2.04883 h -0.0156 c 0,2.61868 -0.04,5.24069 0,7.85937 0.0653,3.87999 2.04309,6.23288 5.23242,6.30469 3.29867,0.0733 5.43215,-2.38978 5.45898,-6.42578 0.0399,-4.44133 0.19495,-8.89561 -0.0664,-13.32227 -0.18133,-3.05866 0.65395,-4.80265 3.50195,-6.41601 6.17066,-3.49864 8.80685,-10.89574 6.99219,-17.73438 -1.81734,-6.85066 -7.67579,-11.66576 -14.81446,-12.17773 -0.42966,-0.0308 -0.85823,-0.043 -1.28515,-0.0371 z m 0.58789,10.64453 c 3.136,0.12264 5.49407,2.6673 5.41406,5.83398 -0.0827,3.144 -2.58938,5.54384 -5.74805,5.5 -3.17066,-0.044 -5.58398,-2.49268 -5.58398,-5.66601 -10e-4,-3.30399 2.60597,-5.79874 5.91797,-5.66797 z m -90.66602,13.83203 c -10.188,0.0653 -17.45286,7.29211 -17.51953,16.27344 -0.076,9.052 7.3169,16.56297 16.49024,16.3789 2.45199,-0.0493 3.65294,0.70868 4.73828,2.75 2.23866,4.21066 4.70314,8.30268 7.11914,12.41602 2.08267,3.54266 4.99476,4.65533 7.85742,3.08203 2.89067,-1.59069 3.41475,-4.66221 1.35742,-8.26758 -2.42134,-4.24263 -4.79999,-8.51259 -7.36133,-12.66992 -1.10933,-1.82135 -1.27733,-3.11811 0,-5.10742 3.40001,-5.29334 3.54622,-10.96898 0.43555,-16.48633 -3.10133,-5.49865 -8.01214,-8.16127 -13.10547,-8.36914 z m 181.1543,0.01 c -6.98906,0.33352 -13.20301,5.30196 -15.01953,12.39649 -1.40931,5.50666 0.16297,10.31219 3.45898,14.85351 -2.96001,5.132 -5.93088,10.23652 -8.85351,15.36719 -2.00803,3.52267 -1.4142,6.67785 1.48047,8.28321 2.74401,1.52129 5.66471,0.43997 7.63671,-2.91602 2.304,-3.92266 4.65949,-7.82426 6.77149,-11.84961 1.26799,-2.41867 2.62663,-3.57188 5.69727,-3.52539 8.5,0.13066 15.42045,-6.69054 15.98046,-15.11719 0.56799,-8.53466 -5.59112,-16.09843 -14.11914,-17.34375 -1.0195,-0.14883 -2.03476,-0.19608 -3.0332,-0.14844 z m -182.2168,10.70899 c 3.12,0.0253 5.54986,2.45518 5.58985,5.58984 0.0387,3.24533 -2.52783,5.80563 -5.78516,5.77539 -3.13734,-0.0307 -5.55129,-2.44637 -5.57812,-5.5957 -0.036,-3.26536 2.49743,-5.79599 5.77343,-5.76953 z m 182.95508,0.002 c 3.23203,-0.06 5.85156,2.52261 5.85156,5.75196 -0.008,3.13065 -2.43359,5.58859 -5.57226,5.64453 -3.27334,0.0587 -5.85887,-2.48299 -5.84375,-5.73633 0.02,-3.14 2.44044,-5.60158 5.56445,-5.66016 z m -85.00976,49.64453 c -11.38134,-0.0347 -18.92003,5.95123 -23.19336,16.28321 -12.72533,-8.14931 -31.60541,-5.26585 -38.08008,13.41015 -0.20667,-0.028 -0.4532,0.008 -0.61719,-0.0937 -15.716,-9.61202 -35.97418,2.04023 -35.10351,21.29492 0.44265,9.77333 -0.0443,19.58307 0.15039,29.3711 0.39333,19.91731 0.75558,39.8395 1.54492,59.74219 0.424,10.70532 4.25574,20.46411 10.70508,29.05078 3.27732,4.36267 6.86987,8.49458 10.42187,12.64257 3.69466,4.31732 6.30791,9.1349 7.50391,15.01758 h 0.008 c -5.892,1.03733 -7.16797,2.21854 -7.16797,6.94922 -0.04,15.94133 -0.04,31.88289 0,47.82422 0.0133,5.00134 2.33253,6.8938 7.36719,6.39648 10.87467,-1.07735 21.75414,-2.11163 32.63281,-3.15429 29.46399,-2.82134 58.93002,-5.61993 88.38867,-8.47461 5.60667,-0.54267 6.84766,-2.0043 6.84766,-7.59766 v -31.08594 c -10e-4,-9.40267 -0.003,-9.40292 -9.35352,-10.93359 0.90667,-6.58133 1.46264,-13.26073 2.80664,-19.77539 2.34535,-11.36799 8.43311,-21.06091 14.89844,-30.46094 4.69731,-6.83066 8.30836,-14.11956 10.375,-22.1289 5.37736,-20.84134 4.88822,-42.03745 2.68555,-63.13477 -1.04266,-9.99197 -7.65017,-16.96931 -17.32617,-20.08398 -3.40933,-1.09735 -4.16105,-2.52384 -4.1875,-5.83985 -0.0907,-11.72398 -8.45833,-21.24419 -19.90235,-22.9375 -6.50933,-0.96268 -12.6618,0.2133 -18.34179,4.16797 -4.332,-10.48267 -11.80517,-16.4152 -23.0625,-16.44922 z m 152.62695,6.61914 c -0.96722,-0.0159 -1.95475,0.0586 -2.95508,0.22657 -8.55734,1.43735 -13.81189,8.16307 -13.94531,17.53906 -0.016,1.06133 -0.90679,2.51447 -1.82813,3.0918 -4.33198,2.71736 -8.83078,5.17431 -13.24414,7.76367 -3.41333,2.00266 -4.53484,4.83378 -3.07617,7.56445 1.57735,2.952 4.72054,3.60797 8.25391,1.61328 4.35598,-2.45998 8.71658,-4.92296 12.97656,-7.54297 1.75468,-1.08011 3.04799,-1.14627 4.86133,0.0391 4.23866,2.77334 8.9303,3.23214 13.73828,1.60546 5.88,-1.98931 8.9989,-6.57563 11.10156,-12.07031 v -6.83398 c -0.18671,-0.27466 -0.44615,-0.52539 -0.55273,-0.82813 -2.74985,-7.54131 -8.55958,-12.05702 -15.33008,-12.16797 z m -317.89063,0.082 c -2.20448,0.029 -4.44384,0.50333 -6.58984,1.47266 -8.46934,3.82401 -11.98239,14.15085 -7.65039,22.49219 4.29067,8.25868 14.78865,11.29092 22.83398,6.34961 1.96,-1.20408 3.26205,-1.22453 5.13672,-0.0606 4.148,2.57734 8.43169,4.93432 12.67969,7.34766 3.59467,2.04132 6.63524,1.49616 8.25391,-1.42383 1.512,-2.72134 0.44333,-5.67769 -2.88868,-7.65234 -4.20266,-2.492 -8.52462,-4.79009 -12.64062,-7.41407 -1.34267,-0.8547 -2.19868,-2.4722 -3.27734,-3.74023 0.34133,-0.24132 0.68406,-0.4831 1.02539,-0.72461 -0.488,-2.08532 -0.74872,-4.25552 -1.49805,-6.24219 -2.477,-6.57201 -8.77133,-10.49117 -15.38477,-10.4043 z m 164.79102,3.9375 c 0.43088,-0.0148 0.8666,-0.0121 1.30469,0.006 6.472,0.26533 11.92375,5.04404 12.34375,11.47071 0.37202,5.644 0.0801,11.33169 0.0801,17.0957 h -0.004 c -9.09733,0.39867 -17.76513,0.77821 -26.45313,1.1582 0,-5.96398 -0.52837,-12.91801 0.1543,-19.75 0.59,-5.90499 6.111,-9.75825 12.57422,-9.98047 z m -164.70898,6.75782 c 3.12266,-0.0494 5.64953,2.34256 5.76953,5.44922 0.11866,3.25466 -2.4108,5.95634 -5.60547,5.99414 -3.228,0.036 -5.84239,-2.58707 -5.78906,-5.81641 0.0493,-3.11335 2.51166,-5.57631 5.625,-5.62695 z m 317.60156,0.004 c 3.124,0.12401 5.52544,2.69853 5.44531,5.83985 -0.0786,3.11066 -2.63603,5.55342 -5.77734,5.51562 -3.14937,-0.0387 -5.5918,-2.52234 -5.5918,-5.67969 0.004,-3.30935 2.61183,-5.80655 5.92383,-5.67578 z m -115.41602,5.20313 c 8.96133,-0.17333 14.34775,6.23697 13.70508,16.6543 h -26.52148 c -0.948,-9.90668 4.20573,-16.48762 12.8164,-16.6543 z m -74.49609,0.008 c 7.82267,0.0293 13.18403,5.5752 13.27734,13.7832 0.04,4.32533 0,8.65124 0,12.97657 h 0.0215 c 0,4.66798 0.0816,9.33724 -0.0117,14.0039 -0.144,7.76667 -5.7573,13.06684 -13.66797,13.02149 -7.432,-0.044 -12.92426,-5.39461 -13.01758,-12.89063 -0.12,-9.10666 -0.14837,-18.21693 -0.0684,-27.32226 0.0707,-8.16533 5.5628,-13.6025 13.4668,-13.57227 z m -36.05078,14.18555 c 6.452,0.26668 11.5191,5.31869 11.73242,11.88672 0.13349,4.09066 0.0273,8.18917 0.0273,12.28515 h 0.0742 c 0,3.86801 0.0927,7.73757 -0.0273,11.60157 -0.19467,6.64267 -5.15174,11.73771 -11.56641,12.04687 -6.69867,0.32266 -12.47292,-4.21833 -12.82226,-10.98633 -0.44266,-8.62133 -0.47974,-17.29664 -0.0664,-25.91797 0.31067,-6.484 6.26444,-11.18133 12.64844,-10.91601 z m 100.24609,13.51172 c 10.47667,-2.9e-4 20.95302,0.015 31.42969,0.0664 7.31599,0.036 14.02414,5.90955 14.55078,13.35352 1.28001,18.072 2.07262,36.17102 -1.77539,54.09765 -1.76667,8.23201 -5.07599,15.72624 -9.86133,22.6836 -7.248,10.53864 -13.82899,21.50735 -16.48633,34.2207 -1.3,6.21732 -1.86216,12.60097 -2.54883,18.93164 -0.26266,2.43198 -0.84815,3.53653 -3.66015,3.48438 -10.36,-0.19503 -20.72522,-0.0786 -31.08789,-0.0937 -0.548,-10e-4 -1.09563,-0.13006 -2.01563,-0.2461 l -0.008,-0.002 c -0.41733,-21.54402 6.11691,-39.71583 22.76758,-53.5918 0.52534,-0.43733 1.08689,-0.83131 1.60156,-1.27929 2.66933,-2.32532 3.19799,-5.44753 1.33399,-7.82617 -1.872,-2.38802 -5.04611,-2.6754 -7.88477,-0.49805 -7.872,6.03999 -14.24735,13.40413 -19.02734,22.10547 -6.38533,11.62533 -9.30181,24.1361 -9.3418,37.35742 v 3.82422 c -1.34666,0.0695 -2.54548,0.18359 -3.74414,0.18359 -14.46133,0.011 -28.92405,-0.0476 -43.38672,0.0605 -2.336,0.016 -3.40767,-0.55389 -3.90234,-2.97656 -1.56,-7.63601 -5.13971,-14.29012 -10.37305,-20.07813 -2.44133,-2.70266 -4.759,-5.51721 -7.09766,-8.31055 -7.28934,-8.71332 -10.89294,-18.79852 -11.23828,-30.11718 -0.40133,-13.20269 -0.86116,-26.4022 -1.28516,-39.60352 -0.04,-1.224 0,-2.45341 0,-4.16406 6.28,3.22798 12.46859,4.44284 19.03126,2.38281 6.44399,-2.02397 11.00967,-6.20332 14.29101,-12.38867 6.80266,4.896 14.24563,6.44605 22.26563,4.2207 8.20933,-2.27731 13.36184,-7.87767 16.45117,-16.15234 5.62134,7.83069 13.01764,12.66449 21.68164,15.75781 8.61866,3.07559 17.53773,3.49956 26.45508,3.04492 -0.24934,4.24267 -0.63521,8.19635 -0.64844,12.15235 -0.008,1.88802 0.41765,3.87713 1.09765,5.64648 0.96801,2.51199 3.1082,3.70656 5.76954,3.14258 2.76,-0.58534 4.74315,-2.56647 4.17382,-5.36914 -1.436,-7.06401 0.3723,-13.49455 2.76563,-19.97852 1.59867,-4.33069 -1.68344,-7.76946 -6.52344,-7.05078 -8.27733,1.22808 -16.66895,2.06694 -24.73828,-0.37305 -5.56267,-1.68268 -11.03154,-4.25357 -15.93555,-7.3789 -5.07866,-3.236 -7.57456,-8.67194 -8.36523,-14.69727 -0.43066,-3.28135 0.58518,-4.51367 3.83984,-4.51367 10.47667,-0.0125 20.95302,-0.0271 31.42969,-0.0273 z m -89.61133,157.52539 h 113.54297 v 28.11718 c -37.65599,3.62933 -75.44031,7.26941 -113.54297,10.94141 z"
       transform="scale(0.26458333)" />
  </g>
</svg>
