<?xml version="1.0" encoding="UTF-8" standalone="no"?>
<svg
   xmlns:dc="http://purl.org/dc/elements/1.1/"
   xmlns:cc="http://creativecommons.org/ns#"
   xmlns:rdf="http://www.w3.org/1999/02/22-rdf-syntax-ns#"
   xmlns:svg="http://www.w3.org/2000/svg"
   xmlns="http://www.w3.org/2000/svg"
   width="89.745941mm"
   height="89.857254mm"
   viewBox="0 0 89.745941 89.857254"
   version="1.1"
   id="svg4112">
  <defs
     id="defs4106" />
  <metadata
     id="metadata4109">
    <rdf:RDF>
      <cc:Work
         rdf:about="">
        <dc:format>image/svg+xml</dc:format>
        <dc:type
           rdf:resource="http://purl.org/dc/dcmitype/StillImage" />
        <dc:title></dc:title>
      </cc:Work>
    </rdf:RDF>
  </metadata>
  <g
     id="layer1"
     transform="translate(-53.712828,-91.695636)">
    <g
       id="g4164">
      <path
         d="m 109.24386,160.55302 h -9.379297 c 0.06421,0.92746 0.125589,1.81399 0.191207,2.76367 2.04117,0 4.04459,0.008 6.04767,-0.0124 0.20073,-0.004 0.4385,-0.13794 0.59231,-0.28223 0.8061,-0.7567 1.58997,-1.53564 2.54811,-2.46909 m -6.48687,15.44779 h -8.301921 v 2.6984 h 8.301921 z m 8.41304,-44.87756 h -5.50016 v 6.90597 h 5.50016 z m -25.137532,6.88132 h 5.502629 v -12.51091 h -5.502629 z m 16.696262,35.0901 c 0.24095,-2.30964 0.19156,-2.42746 2.37738,-3.34645 2.73967,-1.15252 4.96993,-2.84692 6.66785,-5.27579 0.34925,-0.49989 0.77999,-0.94439 1.18921,-1.40053 0.37254,-0.41522 0.72496,-0.8569 0.21625,-1.36031 -0.53622,-0.53128 -0.99871,-0.18803 -1.42275,0.23918 -1.17157,1.18075 -2.32833,2.37808 -3.54083,3.51508 -0.33514,0.31432 -0.84173,0.61701 -1.27564,0.62583 -2.77107,0.0561 -5.54355,0.0434 -8.315682,0.0205 -0.871712,-0.007 -1.397,-0.56303 -1.428044,-1.44322 -0.02822,-0.81597 0,-1.63406 -0.01058,-2.45145 -0.01058,-1.04316 -0.5207,-1.67252 -1.361017,-1.69756 -0.873831,-0.0257 -1.436158,0.62724 -1.438981,1.70568 -0.0071,2.62643 0,5.25321 0,7.87999 v 2.98909 z m 19.70511,-39.59613 c -0.0437,4.58858 4.58082,7.34977 8.29169,5.27226 1.92194,-1.07597 2.91465,-2.77106 2.89631,-4.95617 -0.0212,-2.22638 -1.0922,-3.8922 -3.06635,-4.9403 -0.63112,-0.33514 -1.38324,-0.63183 -1.26612,-1.46932 0.0723,-0.51647 0.44591,-1.03893 0.80293,-1.45838 0.99553,-1.17052 0.9853,-2.81623 -0.0942,-3.88268 -1.09573,-1.08302 -2.85397,-1.07632 -3.94194,0.0155 -1.07139,1.07562 -1.09256,2.7358 -0.0497,3.87209 1.24213,1.35396 1.11019,2.06904 -0.51153,2.93158 -1.97944,1.05269 -2.95063,2.74074 -3.06105,4.6154 m -19.67337,-19.21825 h -8.324491 v 23.73207 h 8.324491 z m 37.85694,40.68728 H 56.571322 v 2.69275 h 84.046128 z m -26.60332,-19.67089 c 0,1.29152 0,2.51213 0,3.73239 -0.003,1.38147 -0.46179,1.84926 -1.8281,1.84961 -9.05263,0.004 -18.105611,0.004 -27.158594,0 -1.410759,0 -1.857023,-0.46355 -1.85914,-1.90782 0,-1.21532 0,-2.43099 0,-3.70135 -4.371269,0 -8.630355,-0.008 -12.888736,0.0205 -0.253294,0.004 -0.577497,0.24201 -0.744008,0.46461 -0.90805,1.21603 -1.778,2.46063 -2.658886,3.69676 -0.309386,0.43462 -0.612069,0.87383 -0.999067,1.42663 3.378553,0 6.558845,0 9.738783,0 1.50495,0 1.939925,0.4311 1.9431,1.911 0,1.21497 0,2.43029 0,3.69817 h 1.065036 c 3.679826,0 7.358945,0 11.03877,0 1.480608,0 1.915583,0.44133 1.918051,1.93745 0,1.21285 0,2.4257 0,3.6248 h 47.558321 c 0.0212,-0.0734 0.0416,-0.11042 0.0318,-0.12453 -2.39818,-3.38067 -4.79389,-6.76275 -7.21324,-10.1279 -0.10337,-0.14358 -0.44909,-0.22154 -0.64135,-0.1718 -0.61348,0.15769 -1.20756,0.38982 -1.84856,0.60642 -0.16298,1.09396 0.42792,2.80282 -1.44745,2.79224 -1.87571,-0.0102 -1.22096,-1.74519 -1.44286,-2.83457 -3.72921,-0.87912 -6.00498,-3.19334 -6.8774,-6.89504 z m -21.557549,46.25234 c -0.71402,-0.49495 -0.89817,-1.17511 -0.892527,-2.0313 0.03175,-5.2578 0.01765,-10.5163 0.01765,-15.77445 v -3.23004 h -0.966615 c -11.624026,0 -23.247701,0 -34.871729,0 -1.611842,0 -2.017889,-0.40534 -2.018947,-2.01154 0,-1.54834 -0.03704,-3.09809 0.02117,-4.64396 0.01764,-0.49142 0.180975,-1.05022 0.462491,-1.44745 4.507089,-6.35988 9.049456,-12.69471 13.565717,-19.04824 0.475192,-0.66816 1.05163,-0.91228 1.853847,-0.9084 4.466872,0.0229 8.93445,0.0109 13.541021,0.0109 v -0.94827 c 0,-2.33715 0,-4.67395 0,-7.01075 0,-1.38465 0.460729,-1.85243 1.82245,-1.85526 2.157238,-0.005 4.314473,0 6.589183,0 v -0.97825 c 0,-2.83351 -0.0035,-5.66702 0,-8.50053 0,-1.25201 0.494948,-1.73637 1.76248,-1.73849 3.504493,-0.006 7.009338,-0.006 10.514188,0 1.24883,0.004 1.74025,0.49777 1.74131,1.76107 0.004,4.6736 0,9.34755 0,14.0215 v 1.04458 h 5.82119 c 0.35031,0 0.70132,-0.0109 1.05127,0.004 0.98284,0.0363 1.50954,0.54857 1.53424,1.52541 0.0212,0.84596 0.004,1.69263 0.004,2.60914 h 5.72699 c 0.4378,-2.20944 1.56739,-4.02554 3.45899,-5.42395 -0.81845,-1.61855 -1.05657,-3.27872 -0.37642,-4.98229 0.44591,-1.11548 1.18004,-2.00871 2.19428,-2.65888 2.038,-1.30669 4.65631,-1.15711 6.54297,0.36724 2.10573,1.70109 2.54882,4.03789 1.36948,7.2143 4.41466,4.78755 4.68842,7.85566 1.11196,12.94519 1.05269,1.47743 2.11349,2.97532 3.18452,4.46616 2.07434,2.88643 4.15467,5.76862 6.23218,8.65294 v 6.66115 c -0.49495,0.71084 -1.17264,0.89535 -2.02812,0.89252 -8.19609,-0.0268 -16.39253,-0.0159 -24.58862,-0.0159 h -1.01987 c 0.83678,1.90677 0.31009,3.4029 -1.00542,4.71629 -0.26741,0.26705 -0.52,0.55633 -0.73837,0.8643 -2.0013,2.82152 -4.51802,4.98934 -7.81191,6.1648 -0.57044,0.20355 -0.68685,0.57044 -0.67733,1.13524 0.0318,2.04187 -0.0212,4.08516 0.0282,6.12598 0.0212,0.85725 -0.18309,1.53388 -0.89394,2.02918 z"
         style="fill:#8e2781;fill-opacity:1;fill-rule:nonzero;stroke:none;stroke-width:0.352777"
         id="path332" />
      <path
         d="m 143.45872,102.13832 c -0.49565,0.71296 -1.17298,0.96837 -2.032,0.88406 -1.01917,-0.10054 -1.84608,0.30445 -2.61514,0.98037 -2.34138,2.05846 -5.49733,1.96074 -7.75758,-0.19262 -0.35984,-0.34219 -0.69392,-0.7119 -1.06116,-1.04528 -1.15464,-1.04881 -2.64336,-1.11972 -3.80224,-0.0818 -1.252,1.12148 -2.65535,1.77236 -4.445,1.74555 0.17498,0.24729 0.31186,0.42086 0.42686,0.60748 0.41099,0.66569 0.34255,1.30281 -0.23177,1.8168 -0.57926,0.51824 -1.26012,0.53199 -1.82492,0.006 -1.00436,-0.93415 -1.97838,-1.90429 -2.91324,-2.90759 -0.59443,-0.63782 -0.52528,-1.34585 0.12877,-2.02636 0.83008,-0.86289 1.68098,-1.70603 2.53823,-2.54247 0.7112,-0.69356 1.48908,-0.75529 2.09656,-0.19861 0.59055,0.54151 0.60184,1.26189 0.0318,2.03588 -0.066,0.0896 -0.13688,0.17533 -0.2734,0.34996 0.91299,0.10971 1.59702,-0.16475 2.21756,-0.67522 3.03777,-2.49978 5.80355,-2.36291 8.58978,0.42263 1.76601,1.76565 2.92206,1.83056 4.83412,0.22366 1.42134,-1.19415 3.08645,-1.4926 4.84575,-1.28305 0.44239,0.0529 0.83291,0.5408 1.24707,0.82867 z"
         style="fill:#8e2781;fill-opacity:1;fill-rule:nonzero;stroke:none;stroke-width:0.352777"
         id="path336" />
      <path
         d="m 108.88826,96.95982 c -3.10973,-1.2707 -6.16408,-2.00413 -9.329556,-2.18369 -10.032648,-0.56974 -18.476383,2.83563 -25.29593,10.23091 -0.527403,0.57185 -1.079853,1.01282 -1.903941,0.63323 -0.602545,-0.27728 -0.884414,-0.78034 -0.773642,-1.42134 0.05574,-0.32279 0.231422,-0.66675 0.451203,-0.91369 5.33788,-6.00005 11.967279,-9.69293 19.893492,-10.98444 5.69595,-0.92852 11.283954,-0.43427 16.723424,1.54481 0.18028,0.0656 0.36936,0.10689 0.6597,0.18944 -0.078,-0.2346 -0.11677,-0.36301 -0.16263,-0.4886 -0.24236,-0.66534 -0.22296,-1.31939 0.41804,-1.71026 0.67698,-0.41311 1.87784,0.0222 2.21333,0.72284 0.56691,1.18357 1.13594,2.36678 1.67287,3.56376 0.46849,1.04387 0.19085,1.71767 -0.83185,2.19181 -1.19062,0.55174 -2.37102,1.12536 -3.56552,1.66793 -0.91511,0.41557 -1.71839,0.1517 -2.06375,-0.6417 -0.33056,-0.75812 -0.0106,-1.45168 0.88935,-1.90888 0.28257,-0.14358 0.56938,-0.27905 1.00541,-0.49213"
         style="fill:#8e2781;fill-opacity:1;fill-rule:nonzero;stroke:none;stroke-width:0.352777"
         id="path340" />
      <path
         d="m 66.328097,115.64311 c -1.521531,0.007 -2.779184,1.26718 -2.784123,2.78941 -0.0035,1.52295 1.243542,2.78906 2.766836,2.80529 1.558925,0.0169 2.846564,-1.27282 2.827162,-2.83174 -0.01764,-1.52295 -1.287992,-2.77037 -2.809875,-2.76296 m 0.02822,-2.80882 c 3.08998,0.006 5.60458,2.54424 5.59188,5.64374 -0.01058,3.0473 -2.530475,5.5619 -5.578122,5.57071 -3.099153,0.009 -5.631392,-2.5086 -5.634214,-5.60105 0,-3.09668 2.523419,-5.61939 5.620456,-5.6134"
         style="fill:#8e2781;fill-opacity:1;fill-rule:nonzero;stroke:none;stroke-width:0.352777"
         id="path344" />
      <path
         d="m 67.743794,107.908 c 0,1.43157 -0.422981,2.08738 -1.364545,2.11243 -0.973666,0.0261 -1.440391,-0.66357 -1.439333,-2.12513 0,-0.0579 0,-0.11607 0,-0.17392 0.0035,-1.24107 0.493889,-1.89971 1.408289,-1.89512 0.9144,0.005 1.391355,0.65652 1.395589,1.90782 0,0.0579 0,0.11571 0,0.17392"
         style="fill:#8e2781;fill-opacity:1;fill-rule:nonzero;stroke:none;stroke-width:0.352777"
         id="path348" />
      <path
         d="m 77.107927,121.76606 c -0.382059,-0.0692 -0.876653,-0.12876 -1.35502,-0.25188 -0.77223,-0.19862 -1.235427,-0.85055 -1.139825,-1.53776 0.105481,-0.76059 0.724606,-1.25942 1.563159,-1.19486 0.5207,0.0399 1.04528,0.12524 1.549047,0.2607 0.7493,0.20144 1.174044,0.89959 1.037872,1.60056 -0.135819,0.69955 -0.771878,1.1631 -1.655233,1.12324"
         style="fill:#8e2781;fill-opacity:1;fill-rule:nonzero;stroke:none;stroke-width:0.352777"
         id="path352" />
      <path
         d="m 76.06441,110.89663 c 0.02822,0.99271 -1.672166,2.49025 -2.650419,2.33574 -1.010356,-0.15981 -1.54305,-1.32715 -0.9017,-2.13854 0.425097,-0.53834 0.96908,-1.028 1.553986,-1.3843 0.868539,-0.52917 1.970617,0.17004 1.998133,1.1871"
         style="fill:#8e2781;fill-opacity:1;fill-rule:nonzero;stroke:none;stroke-width:0.352777"
         id="path356" />
      <path
         d="m 61.922255,130.06858 c -1.056922,-0.0205 -1.736372,-0.8382 -1.491192,-1.68169 0.177095,-0.60819 0.390525,-1.28023 0.803275,-1.72261 0.329847,-0.35419 1.033286,-0.62548 1.480608,-0.52635 0.401109,0.0892 1.011415,0.80186 0.946503,1.12042 -0.178153,0.87454 -0.623358,1.7078 -1.053394,2.50861 -0.113947,0.21202 -0.554567,0.24871 -0.6858,0.30162"
         style="fill:#8e2781;fill-opacity:1;fill-rule:nonzero;stroke:none;stroke-width:0.352777"
         id="path360" />
      <path
         d="m 70.930788,125.71915 c 0.05786,0.004 0.116064,0.008 0.17392,0.0145 1.043163,0.11783 2.212269,2.22144 1.768122,3.181 -0.431095,0.93133 -1.679575,1.13418 -2.306814,0.31291 -0.399697,-0.52387 -0.71367,-1.14194 -0.936272,-1.76424 -0.306564,-0.8569 0.391936,-1.7332 1.301044,-1.74413"
         style="fill:#8e2781;fill-opacity:1;fill-rule:nonzero;stroke:none;stroke-width:0.352777"
         id="path364" />
      <path
         d="m 55.663977,122.5457 c -0.915105,-0.0427 -1.376186,-0.4131 -1.549753,-1.0675 -0.177447,-0.67099 0.07585,-1.27248 0.699206,-1.53212 0.633942,-0.26388 1.336322,-0.41981 2.021769,-0.48577 0.687564,-0.0663 1.152878,0.35066 1.321153,1.02975 0.168981,0.68157 -0.06809,1.26154 -0.689328,1.53282 -0.630766,0.27517 -1.33103,0.39159 -1.803047,0.52282"
         style="fill:#8e2781;fill-opacity:1;fill-rule:nonzero;stroke:none;stroke-width:0.352777"
         id="path368" />
      <path
         d="m 57.231722,110.15057 c 1.042105,0.0254 2.644774,1.21885 2.703336,1.93499 0.03563,0.43356 -0.126295,1.05621 -0.432859,1.29893 -0.340783,0.26987 -1.027641,0.4011 -1.419225,0.24059 -0.621241,-0.25471 -1.22943,-0.72072 -1.636183,-1.25518 -0.256822,-0.33796 -0.306211,-1.03364 -0.137583,-1.43969 0.164041,-0.3944 0.724252,-0.62442 0.922514,-0.77964"
         style="fill:#8e2781;fill-opacity:1;fill-rule:nonzero;stroke:none;stroke-width:0.352777"
         id="path372" />
      <path
         d="M 94.294657,120.72979 H 104.42608"
         style="fill:none;stroke:#8e2781;stroke-width:1.76389;stroke-linecap:butt;stroke-linejoin:miter;stroke-miterlimit:10;stroke-dasharray:none;stroke-opacity:1"
         id="path3340" />
      <path
         d="M 94.294657,129.47069 H 104.42608"
         style="fill:none;stroke:#8e2781;stroke-width:1.76389;stroke-linecap:butt;stroke-linejoin:miter;stroke-miterlimit:10;stroke-dasharray:none;stroke-opacity:1"
         id="path3344" />
    </g>
  </g>
</svg>
