<?xml version="1.0" encoding="UTF-8" standalone="no"?>
<svg
   xmlns:dc="http://purl.org/dc/elements/1.1/"
   xmlns:cc="http://creativecommons.org/ns#"
   xmlns:rdf="http://www.w3.org/1999/02/22-rdf-syntax-ns#"
   xmlns:svg="http://www.w3.org/2000/svg"
   xmlns="http://www.w3.org/2000/svg"
   width="80.780258mm"
   height="83.699707mm"
   viewBox="0 0 80.780258 83.699707"
   version="1.1"
   id="svg3405">
  <defs
     id="defs3399" />
  <metadata
     id="metadata3402">
    <rdf:RDF>
      <cc:Work
         rdf:about="">
        <dc:format>image/svg+xml</dc:format>
        <dc:type
           rdf:resource="http://purl.org/dc/dcmitype/StillImage" />
        <dc:title></dc:title>
      </cc:Work>
    </rdf:RDF>
  </metadata>
  <g
     id="layer1"
     transform="translate(-58.646803,-94.102792)">
    <g
       id="g3426"
       transform="translate(94.501245,16.51205)">
      <path
         d="m 30.565062,135.28965 h 2.802467 v -20.16442 h -2.802467 z m -2.952398,-20.1489 h -2.807758 v 20.16972 h 2.807758 z m -54.789562,20.14679 h 2.798586 v -20.1602 h -2.798586 z m -2.955219,-20.14573 h -2.805289 v 20.16724 h 2.805289 z M 24.79256,89.089876 h 8.573559 V 80.467635 H 24.79256 Z m -49.128538,-8.600369 h -8.625417 v 8.578497 h 8.625417 z m 57.790642,77.901443 h 5.685015 V 138.2297 h -5.685015 z m -60.640029,0.0113 h 5.704417 v -20.18101 h -5.704417 z M 21.861329,80.493387 H -21.39734 v 8.583436 h 43.258669 z m -7.660217,31.752823 c 8.6614,0 17.322448,0 25.983494,0 0.240241,0 0.484364,0.0169 0.720725,-0.0162 0.695325,-0.0974 1.236839,-0.75071 1.196975,-1.46121 -0.04339,-0.77117 -0.380646,-1.33067 -1.211086,-1.43757 -0.325966,-0.0423 -0.6604,-0.0212 -0.990951,-0.0212 -16.389705,0 -32.7790525,0.004 -49.1687575,0 -1.0219955,0 -2.0612785,0.0928 -3.0624625,-0.0582 -3.725333,-0.56127 -6.561666,-4.14231 -6.168319,-7.87294 0.417336,-3.956754 4.25203,-6.509454 7.367058,-6.494637 15.8778215,0.07514 31.756349,0.03492 47.634524,0.03492 1.293283,0 2.586567,0.0049 3.879498,-0.0035 1.140177,-0.006 1.712735,-0.506942 1.726142,-1.490839 0.01164,-0.879122 -0.62724,-1.425927 -1.685925,-1.441097 -0.210608,-0.0035 -0.421217,-0.0035 -0.631473,-0.0035 -17.021175,0 -34.0423505,-0.0056 -51.063171,0.0035 -6.832248,0.0035 -11.511492,5.962297 -9.922581,12.604743 1.102078,4.60728 4.927953,7.63518 9.774767,7.64893 8.5403975,0.0251 17.0811475,0.007 25.621543,0.008 M 39.168606,97.760115 h -1.012471 c -8.627533,0 -17.254715,-0.0035 -25.881896,-0.0035 -7.7858045,0 -15.5712565,-0.0039 -23.357062,0.0035 -2.329744,0 -3.964164,1.152525 -4.420658,3.076575 -0.766586,3.23109 1.114777,5.63033 4.445,5.63174 16.4729575,0.005 32.946268,0.004 49.419226,0 0.260702,0 0.521407,-0.0321 0.802217,-0.0508 v -2.88433 h -1.024115 c -2.91606,0 -5.831768,0.005 -8.747477,0 -1.0541,-0.004 -1.72226,-0.56832 -1.718381,-1.42945 0.0035,-0.86113 0.65899,-1.40406 1.734963,-1.40653 2.675467,-0.006 5.350579,-0.004 8.026045,-0.004 h 1.734609 v -2.934078 z m -8.679744,40.490755 h -48.997657 v 20.16654 h 48.997657 z m -8.673748,-23.10306 h -43.219156 v 20.16336 h 43.219156 z m 14.513631,-0.0642 v 20.26249 c 1.355374,0 2.669469,0 3.983567,0 1.266473,0 1.743427,0.46179 1.744133,1.72332 0.0035,7.48947 0.0035,14.9793 -0.0035,22.46877 0,1.3141 -0.451556,1.75013 -1.804812,1.75048 -15.9385,0.004 -31.8769985,0 -47.8151465,0 -6.8565885,0 -13.7131765,-0.004 -20.5697655,0 -1.550106,0 -1.942748,-0.3937 -1.942748,-1.97661 3.44e-4,-6.67738 0.0035,-13.35511 0.0035,-20.03249 0,-0.32526 0,-0.65016 0,-1.09361 -1.351139,0 -2.633133,0 -3.914775,0 -1.355019,0 -1.860197,-0.4893 -1.860902,-1.83515 -0.0039,-7.39951 -0.0035,-14.79902 3.52e-4,-22.19819 0,-1.42804 0.471664,-1.90641 1.879953,-1.90782 4.480631,-0.005 8.961614,0 13.442597,0 0.316795,0 0.633589,0 1.220611,0 -3.184172,-2.81904 -4.977341,-6.09318 -4.973461,-10.13742 0.0039,-4.028368 1.773767,-7.28874 4.983692,-10.12472 h -1.134203 c -4.540955,0 -9.081911,0 -13.622866,-0.0035 -1.344436,0 -1.793523,-0.438856 -1.794581,-1.758244 -0.0035,-3.639609 -0.0035,-7.279217 0,-10.918825 -7e-6,-1.259441 0.46319,-1.711349 1.747654,-1.711349 22.855061,0 45.710121,0 68.565182,0 1.392063,0 1.815396,0.428272 1.815748,1.827389 0.0035,3.187347 0,6.375047 0,9.722202 1.101018,0 2.168877,-0.02258 3.234973,0.0078 0.74436,0.02081 1.515179,0.0063 2.22391,0.195439 1.88736,0.503061 2.931935,1.81998 3.157715,3.73768 0.206727,1.753306 -0.66393,3.031067 -2.075392,3.910189 -0.601133,0.374297 -0.790575,0.750711 -0.781404,1.422753 0.03563,2.556226 0.024,5.113156 0.006,7.669736 -0.0035,0.46638 0.111125,0.73943 0.549275,0.99872 1.959327,1.15958 2.689225,2.87373 2.147006,4.85704 -0.530225,1.93746 -2.208038,3.13197 -4.423129,3.14114 -1.31445,0.005 -2.629252,0 -3.990975,0"
         style="fill:#8e2781;fill-opacity:1;fill-rule:nonzero;stroke:none;stroke-width:0.352777"
         id="path970" />
      <path
         d="m 7.4113795,125.24377 c -0.020814,3.77613 -3.4995555,7.2076 -7.26863317,7.17021 -3.73062493,-0.037 -7.14339703,-3.4985 -7.12293593,-7.22454 0.020814,-3.77613 3.4995555,-7.2076 7.26898592,-7.17021 3.73027218,0.0367 7.14304428,3.49815 7.12258318,7.22454"
         style="fill:#8e2781;fill-opacity:1;fill-rule:nonzero;stroke:none;stroke-width:0.352778"
         id="path974" />
      <path
         d="m 5.9928425,151.23101 c 4.3261135,0 8.6522275,0.009 12.9783415,-0.004 1.85808,-0.005 2.922764,-1.08762 2.922058,-2.90936 -7.05e-4,-1.81857 -1.06045,-2.89595 -2.927703,-2.90513 -3.545063,-0.0169 -7.090127,-0.004 -10.635191,-0.004 -5.1071638,0 -10.2143275,-0.008 -15.3214913,0.003 -1.8580805,0.004 -2.9227638,1.08761 -2.9220583,2.90935 7.056e-4,1.81857 1.06045,2.89772 2.9277027,2.90478 4.3261138,0.0166 8.6522276,0.005 12.9783414,0.006 m 0.017992,-8.66352 c 4.2086385,-0.001 8.4169245,7.1e-4 12.6255635,-0.001 3.277305,-0.002 6.101997,2.66065 6.094236,5.75028 -0.0078,3.0734 -2.770717,5.74463 -6.00075,5.74957 -8.537222,0.0134 -17.0744439,0.013 -25.6116659,0.003 -3.0790444,-0.004 -5.8511721,-2.71815 -5.8688111,-5.70194 -0.01799,-3.03777 2.726266,-5.77533 5.8656361,-5.79226 4.2985971,-0.0236 8.5971942,-0.006 12.8957914,-0.007"
         style="fill:#8e2781;fill-opacity:1;fill-rule:nonzero;stroke:none;stroke-width:0.352778"
         id="path978" />
    </g>
  </g>
</svg>
