<?xml version="1.0" encoding="UTF-8" standalone="no"?>
<svg
   xmlns:dc="http://purl.org/dc/elements/1.1/"
   xmlns:cc="http://creativecommons.org/ns#"
   xmlns:rdf="http://www.w3.org/1999/02/22-rdf-syntax-ns#"
   xmlns:svg="http://www.w3.org/2000/svg"
   xmlns="http://www.w3.org/2000/svg"
   width="62.077106mm"
   height="62.07711mm"
   viewBox="0 0 62.077106 62.07711"
   version="1.1"
   id="svg3775">
  <defs
     id="defs3769" />
  <metadata
     id="metadata3772">
    <rdf:RDF>
      <cc:Work
         rdf:about="">
        <dc:format>image/svg+xml</dc:format>
        <dc:type
           rdf:resource="http://purl.org/dc/dcmitype/StillImage" />
        <dc:title></dc:title>
      </cc:Work>
    </rdf:RDF>
  </metadata>
  <g
     id="layer1"
     transform="translate(-62.889685,-105.99927)">
    <path
       id="path260"
       style="fill:#8e2781;fill-opacity:1;fill-rule:nonzero;stroke:none;stroke-width:1.33333"
       d="M 114.5332 0 C 114.27846 0.14127874 114.0397 0.3351971 113.76758 0.41796875 C 107.27019 2.3872916 102.97688 7.5062261 102.63672 13.712891 C 102.28069 20.184916 105.88942 25.83087 112.21484 28.353516 C 113.53767 28.880193 113.63281 29.61584 113.63281 30.755859 L 113.63281 67.386719 C 113.63281 68.837377 113.56032 70.293682 113.66992 71.736328 C 113.82186 73.736341 115.3986 75.144531 117.30273 75.144531 C 119.20384 75.144531 120.73353 73.734388 120.94141 71.734375 C 121.02081 71.054362 120.98047 70.360493 120.98047 69.673828 C 120.98047 56.776493 121.00192 43.880388 120.94141 30.984375 C 120.93498 29.479065 121.31726 28.792729 122.81055 28.191406 C 131.61307 24.643413 134.64951 14.125444 129.29883 6.2734375 C 127.03073 2.9441273 123.68966 1.2800126 120.06055 0 L 114.5332 0 z M 117.10938 7.3359375 C 121.17463 7.2319249 124.63867 10.574129 124.63867 14.632812 C 124.65341 18.606116 121.37299 21.939589 117.39844 21.990234 C 113.43182 22.040918 110.05237 18.765948 109.98438 14.808594 C 109.91899 10.8286 113.15222 7.436095 117.10938 7.3359375 z M 201.81836 29.328125 C 196.08945 29.281261 190.59369 32.630152 188.26758 38.285156 C 187.60654 39.894479 186.85206 40.428543 185.13086 40.371094 C 180.85886 40.231251 176.57738 40.393126 172.30273 40.292969 C 170.3748 40.247652 168.97191 40.911232 167.71484 42.337891 C 163.62275 46.97658 159.40366 51.502901 155.36523 56.185547 C 154.59572 57.077553 154.08807 58.465685 154.03516 59.652344 C 153.8613 63.309679 153.9707 66.981136 153.9707 70.646484 L 153.97266 70.646484 L 153.97266 81.414062 C 153.97946 84.464708 155.33871 86.183775 157.69336 86.142578 C 160.03591 86.102553 161.30273 84.414129 161.30273 81.300781 C 161.30651 74.962098 161.26451 68.62384 161.34766 62.285156 C 161.36088 61.318504 161.70645 60.147634 162.31836 59.431641 C 165.39452 55.834324 168.56267 52.311637 171.81836 48.876953 C 172.44803 48.211643 173.59878 47.750686 174.5293 47.712891 C 177.96111 47.576828 181.40375 47.743928 184.83594 47.621094 C 186.63461 47.557069 187.54842 47.987345 188.36328 49.833984 C 190.82338 55.409997 195.32065 58.498194 201.44727 58.607422 C 207.6884 58.718086 212.27962 55.676945 214.96875 50.099609 C 218.53436 42.704926 215.07052 33.852223 207.51562 30.546875 C 205.66262 29.735883 203.728 29.343746 201.81836 29.328125 z M 32.3125 29.357422 C 25.404117 29.61481 19.593525 34.809972 18.447266 41.75 C 17.286195 48.779317 21.912594 56.063648 28.8125 58.070312 C 36.07524 60.182313 43.751984 56.467251 46.583984 49.337891 C 47.090819 48.061922 47.642145 47.587205 49.015625 47.625 C 52.677987 47.715709 56.34923 47.570151 60.007812 47.716797 C 61.002206 47.756784 62.228569 48.258085 62.90625 48.96875 C 66.116581 52.339408 69.22096 55.812904 72.246094 59.351562 C 72.864802 60.072885 73.275391 61.224917 73.275391 62.183594 C 73.36232 69.283587 73.324219 76.385012 73.324219 83.486328 C 73.32951 86.332993 74.751631 88.020405 77.048828 87.976562 C 79.27308 87.932569 80.648438 86.297937 80.648438 83.585938 C 80.659776 75.644583 80.712615 67.703666 80.587891 59.763672 C 80.567859 58.522324 79.996256 57.044945 79.185547 56.099609 C 75.206838 51.468932 71.025258 47.012427 66.990234 42.425781 C 65.679872 40.932414 64.233501 40.24522 62.214844 40.289062 C 57.262691 40.395239 52.305129 40.324256 47.314453 40.324219 C 46.982233 39.536225 46.713711 38.823914 46.388672 38.142578 C 43.826152 32.817262 39.618276 29.721141 33.708984 29.373047 C 33.239732 29.345381 32.773059 29.340263 32.3125 29.357422 z M 201.48438 36.662109 C 205.55001 36.587426 208.95703 39.954296 208.95703 44.015625 C 208.9438 47.98496 205.63427 51.295682 201.6582 51.318359 C 197.6931 51.339676 194.33858 48.039448 194.30078 44.078125 C 194.26336 40.098131 197.52041 36.73392 201.48438 36.662109 z M 32.806641 36.666016 C 36.880212 36.572661 40.318359 39.906628 40.318359 43.974609 C 40.330454 47.941261 37.034974 51.280564 33.068359 51.318359 C 29.101745 51.355701 25.728314 48.077087 25.664062 44.121094 C 25.598677 40.149075 28.850609 36.755212 32.806641 36.666016 z M 137.44141 38.498047 C 132.99858 38.516614 128.99109 41.213697 127.29102 45.419922 C 125.49346 49.865251 126.54148 55.416012 130.65625 57.861328 C 133.80686 59.740018 134.03719 62.007647 133.80664 64.931641 C 133.76885 65.386318 133.80664 65.847365 133.80664 66.304688 L 133.83008 66.304688 C 133.83008 67.904713 133.79228 69.506804 133.83008 71.105469 C 133.88753 73.576146 135.37585 75.174767 137.5332 75.144531 C 139.68791 75.113841 141.10869 73.5197 141.14648 71.011719 C 141.1616 68.039725 141.20386 65.065013 141.10938 62.095703 C 141.06289 60.589032 141.39223 59.720265 142.9082 58.933594 C 147.08685 56.761575 149.211 51.774217 148.21094 47.296875 C 147.11903 42.412894 143.16241 38.90051 138.33594 38.53125 C 138.03643 38.508334 137.73759 38.496809 137.44141 38.498047 z M 96.982422 38.5 C 92.468287 38.585983 88.369991 41.465234 86.826172 45.740234 C 85.188881 50.269582 86.460334 55.645912 90.601562 58.085938 C 93.31224 59.683241 93.76614 61.521942 93.490234 64.140625 C 93.429762 64.819277 93.490234 65.509971 93.490234 66.195312 C 93.490234 67.796661 93.452439 69.396106 93.490234 70.996094 C 93.541258 73.512125 94.943891 75.104783 97.091797 75.142578 C 99.322474 75.182566 100.77275 73.542014 100.81055 70.888672 C 100.83704 67.994007 100.91133 65.09246 100.77148 62.203125 C 100.69022 60.553815 101.17922 59.695699 102.69141 58.873047 C 106.93015 56.567686 108.93464 51.584332 107.78906 46.958984 C 106.61174 42.208345 102.64413 38.82687 97.890625 38.521484 C 97.586633 38.501984 97.283364 38.494268 96.982422 38.5 z M 137.60352 45.833984 C 139.57946 45.905984 141.17243 47.589171 141.13086 49.5625 C 141.0908 51.533183 139.42768 53.161602 137.45703 53.146484 C 135.48072 53.137149 133.85615 51.508585 133.81836 49.53125 C 133.79303 47.475225 135.5501 45.758016 137.60352 45.833984 z M 97.162109 45.837891 C 99.235558 45.849872 100.90661 47.613734 100.80078 49.677734 C 100.69949 51.651064 98.987531 53.221319 97.019531 53.146484 C 95.048886 53.073162 93.452439 51.385969 93.490234 49.417969 C 93.529919 47.440633 95.184661 45.822773 97.162109 45.837891 z M 117.39062 82.486328 C 98.208015 82.454316 82.524123 98.075193 82.486328 117.22852 C 82.457226 136.41786 98.075441 152.10831 117.23047 152.13477 C 136.41308 152.16277 152.09697 136.5366 152.13477 117.39258 C 152.15744 98.19923 136.54792 82.516564 117.39062 82.486328 z M 182.67578 86.136719 C 179.45394 86.257221 176.38626 87.749574 174.70508 90.597656 C 173.10634 93.302891 171.26815 93.773068 168.65234 93.482422 C 168.27477 93.444627 167.88999 93.482422 167.50977 93.482422 L 167.50977 93.480469 C 166.21377 93.480469 164.91754 93.454012 163.62305 93.480469 C 161.11382 93.531152 159.52009 94.932727 159.47852 97.082031 C 159.43581 99.316715 161.07598 100.7725 163.72656 100.80273 C 166.09066 100.82919 168.45414 100.88116 170.81445 100.78516 C 172.245 100.72778 173.06384 101.07023 173.80273 102.49023 C 176.03606 106.77822 181.00931 108.91035 185.60938 107.84766 C 190.47967 106.72234 193.9501 102.73065 194.26758 97.890625 C 194.58506 93.033327 191.61872 88.485548 187.05078 86.824219 C 185.6383 86.310888 184.14026 86.081945 182.67578 86.136719 z M 47.960938 86.169922 C 47.103921 86.149571 46.241027 86.232582 45.394531 86.423828 C 40.545397 87.518493 37.088882 91.478538 36.6875 96.394531 C 36.309169 101.05053 39.259541 105.64502 43.738281 107.37695 C 48.243856 109.11697 53.69836 107.97724 56.154297 103.83594 C 57.926517 100.8466 60.054574 100.57666 62.847656 100.80078 C 63.607719 100.86655 64.37401 100.81641 65.136719 100.81641 L 65.136719 100.80664 C 67.046136 100.80664 68.955817 100.8331 70.865234 100.80664 C 73.53736 100.77062 75.182327 99.331079 75.144531 97.09375 C 75.113917 94.871085 73.476429 93.495587 70.769531 93.480469 C 67.257594 93.460059 63.741725 93.401671 60.232422 93.509766 C 58.675257 93.557766 57.864647 93.099826 57.089844 91.646484 C 55.289395 88.269729 51.674675 86.258107 47.960938 86.169922 z M 117.25195 89.824219 C 132.41315 89.790883 144.79883 102.14665 144.79883 117.30664 C 144.79996 132.46398 132.41593 144.82333 117.25586 144.79688 C 102.1026 144.76887 89.765699 132.35924 89.826172 117.19922 C 89.882109 102.13655 102.18789 89.854455 117.25195 89.824219 z M 47.662109 93.492188 C 49.639558 93.49351 51.276658 95.115092 51.314453 97.09375 C 51.345067 99.06175 49.736712 100.74195 47.767578 100.80469 C 45.707358 100.86871 43.964158 99.149245 44.001953 97.087891 C 44.033701 95.114561 45.69033 93.492188 47.662109 93.492188 z M 183.41602 93.492188 C 185.38931 93.553529 186.99092 95.233702 186.95312 97.207031 C 186.91722 99.18705 185.27086 100.80469 183.29492 100.80469 C 181.31861 100.80333 179.68037 99.179138 179.64258 97.203125 C 179.60932 95.140486 181.35353 93.426802 183.41602 93.492188 z M 219.70312 102.64258 C 213.73302 102.76931 208.63327 106.307 206.26953 112.23828 C 205.74304 113.5596 205.00823 113.6582 203.86719 113.6582 C 191.50284 113.63175 179.14169 113.64258 166.77734 113.64258 C 165.48021 113.64258 164.17629 113.57229 162.88672 113.67773 C 160.88395 113.84177 159.47852 115.40395 159.47852 117.30664 C 159.477 119.21065 160.88766 120.74399 162.88477 120.94922 C 163.5647 121.02103 164.25857 120.97656 164.94531 120.97656 C 177.84257 120.98034 190.73864 121.00345 203.63477 120.94336 C 205.13864 120.93803 205.82723 121.31331 206.42969 122.80664 C 209.9832 131.61332 220.50892 134.65083 228.34766 129.29883 C 231.67137 127.02684 233.34179 123.68988 234.62305 120.06055 L 234.62305 114.55859 C 234.46771 114.22792 234.26208 113.91186 234.15625 113.56641 C 232.24948 107.29439 227.03595 102.99855 220.9082 102.66406 C 220.50301 102.6419 220.10113 102.63413 219.70312 102.64258 z M 14.117188 102.68164 C 11.437739 102.79595 8.726178 103.65089 6.2753906 105.32422 C 2.9512961 107.59356 1.2771024 110.92857 0 114.56055 L 0 120.05859 C 0.15798425 120.38926 0.35901698 120.70533 0.46484375 121.05078 C 2.3685918 127.32015 7.5852022 131.61908 13.714844 131.95508 C 20.198619 132.30975 25.846933 128.6976 28.353516 122.37891 C 28.880382 121.05361 29.61595 120.96094 30.755859 120.96094 C 43.042722 120.99117 55.330688 120.97656 67.617188 120.97656 C 68.990668 120.97656 70.371604 121.0495 71.738281 120.94141 C 73.736895 120.78539 75.144531 119.21393 75.144531 117.30859 C 75.147177 115.40326 73.736895 113.87471 71.738281 113.66797 C 71.132801 113.60409 70.517022 113.64453 69.90625 113.64453 C 56.93301 113.64453 43.959115 113.61915 30.984375 113.67773 C 29.480123 113.68442 28.794245 113.30715 28.191406 111.8125 C 25.74759 105.75788 20.011975 102.43016 14.117188 102.68164 z M 219.97852 109.98242 C 223.94626 109.99312 227.24931 113.30347 227.28711 117.27148 C 227.30676 121.24483 224.0288 124.58343 220.05273 124.63672 C 216.08763 124.69137 212.70267 121.41951 212.63086 117.46484 C 212.55867 113.38885 215.91439 109.9673 219.97852 109.98242 z M 14.791016 109.98438 C 18.761791 110.05105 22.02803 113.39759 21.990234 117.37891 C 21.959616 121.34159 18.61965 124.65001 14.650391 124.63867 C 10.689064 124.63334 7.3737328 121.31679 7.3359375 117.35547 C 7.3117485 113.29546 10.728401 109.91634 14.791016 109.98438 z M 117.14648 110.06055 C 113.23052 110.14857 110.03056 113.43546 110.06836 117.35547 C 110.09633 121.2728 113.32906 124.51481 117.24805 124.54883 C 121.16667 124.58216 124.4602 121.39515 124.55469 117.48047 C 124.6522 113.38849 121.23858 109.96984 117.14648 110.06055 z M 47.304688 126.40625 C 46.735887 126.42518 46.166665 126.49147 45.603516 126.60547 C 40.779327 127.58282 37.137516 131.58414 36.707031 136.38281 C 36.277677 141.16951 38.988806 145.66842 43.431641 147.53906 C 47.823452 149.38975 53.433688 148.40455 55.929688 144.33789 C 57.876522 141.16766 60.209855 140.90144 63.207031 141.13086 C 63.889992 141.19284 64.579577 141.14648 65.263672 141.14648 L 65.263672 141.14453 C 67.170444 141.14453 69.076343 141.16292 70.980469 141.12891 C 73.501792 141.08892 75.097224 139.69489 75.142578 137.54688 C 75.19209 135.31487 73.546943 133.8314 70.904297 133.8125 C 67.321683 133.78453 63.737742 133.74523 60.15625 133.83594 C 58.708313 133.87328 57.904411 133.51541 57.173828 132.10742 C 55.260679 128.4184 51.286291 126.27376 47.304688 126.40625 z M 182.73047 126.47656 C 179.46843 126.59229 176.34864 128.12524 174.61523 131.01367 C 173.07394 133.58148 171.32033 134.12765 168.76953 133.82227 C 168.39233 133.7686 168.00635 133.80664 167.625 133.80664 L 167.625 133.82031 C 166.33013 133.82031 165.03428 133.79764 163.73828 133.82031 C 161.0809 133.86563 159.44072 135.30448 159.47852 137.53516 C 159.5148 139.7565 161.14076 141.11807 163.84766 141.14453 C 166.21024 141.1657 168.57523 141.21596 170.93555 141.12109 C 172.29013 141.06776 173.05992 141.40176 173.75195 142.73242 C 175.99472 147.05374 180.89169 149.23413 185.50195 148.2168 C 190.44482 147.12746 193.9867 143.05411 194.28906 138.10742 C 194.57857 133.39545 191.63556 128.89911 187.15039 127.20312 C 185.72574 126.66437 184.21321 126.42396 182.73047 126.47656 z M 183.46094 133.81641 C 185.43309 133.9084 187.01555 135.61208 186.95508 137.58008 C 186.8965 139.55473 185.2248 141.15719 183.25 141.12695 C 181.26726 141.09759 179.64453 139.46114 179.64453 137.47852 C 179.63924 135.41315 181.40374 133.71927 183.46094 133.81641 z M 47.818359 133.82031 C 49.798454 133.91095 51.365287 135.60274 51.308594 137.58008 C 51.252657 139.55741 49.581155 141.1611 47.609375 141.13086 C 45.635706 141.10153 44 139.45248 44 137.48047 C 43.994709 135.41647 45.758517 133.72431 47.818359 133.82031 z M 157.67188 146.64648 C 155.43288 146.62381 153.97852 148.26152 153.97852 150.9375 C 153.95584 158.9535 153.91396 166.96774 154.02734 174.98242 C 154.04473 176.15442 154.59849 177.55268 155.36914 178.44336 C 159.46124 183.17801 163.62254 187.86035 167.95312 192.375 C 168.93202 193.39502 170.65469 194.13497 172.07617 194.21094 C 176.41469 194.44716 180.7759 194.35218 185.125 194.26562 C 186.65987 194.23361 187.5667 194.49399 188.14648 196.16602 C 188.67713 197.69933 189.72406 199.13018 190.80273 200.38086 C 195.76525 206.13285 204.22824 206.92699 210.44141 202.32031 C 216.50944 197.82033 218.13526 189.09554 214.06055 182.88086 C 209.70048 176.23154 201.57981 174.06827 194.81445 177.71094 C 191.05193 179.73627 188.67912 182.87356 187.3457 186.96289 C 183.01428 186.96292 178.74433 187.04437 174.48242 186.90039 C 173.50239 186.86706 172.30714 186.28386 171.62305 185.5625 C 168.47092 182.24249 165.40934 178.83182 162.44922 175.33984 C 161.78931 174.56383 161.35352 173.334 161.35352 172.30469 C 161.25903 165.20734 161.29688 158.10648 161.29688 151.00781 C 161.28894 148.30515 159.89575 146.66916 157.67188 146.64648 z M 76.876953 146.88867 C 76.371731 146.86567 75.905495 146.93636 75.580078 147.13086 C 74.504047 147.77754 73.455764 149.43808 73.417969 150.69141 C 73.217654 157.78875 73.382537 164.8961 73.257812 171.99609 C 73.237781 173.22145 72.686786 174.65543 71.908203 175.60742 C 69.444329 178.6194 66.631345 181.34756 64.199219 184.38086 C 62.620877 186.35022 60.909802 187.19553 58.371094 187.01562 C 55.255251 186.79679 52.110359 186.8948 48.982422 186.99609 C 47.610453 187.04149 47.072605 186.5511 46.535156 185.28711 C 44.152542 179.67908 39.852676 176.41694 33.746094 176.01562 C 26.255448 175.52361 19.602977 180.99508 18.421875 188.31641 C 17.260426 195.51641 21.93227 202.82388 28.929688 204.75586 C 36.15879 206.74922 43.725892 203.06603 46.513672 196.02734 C 47.071152 194.62072 47.732375 194.23344 49.152344 194.26367 C 53.50447 194.35438 57.860323 194.22016 62.210938 194.33203 C 64.229595 194.38404 65.67836 193.68732 66.990234 192.19531 C 71.023746 187.60731 75.205326 183.14895 79.185547 178.51562 C 79.996256 177.57161 80.529245 176.10489 80.585938 174.85156 C 80.763575 170.88756 80.650391 166.91147 80.650391 162.93945 L 80.654297 162.9375 C 80.654297 158.89084 80.744931 154.83953 80.59375 150.79688 C 80.552553 149.69023 80.07539 148.17753 79.271484 147.63086 C 78.670539 147.22411 77.718991 146.92702 76.876953 146.88867 z M 137.56641 159.47656 C 135.40943 159.43253 133.87764 161.03284 133.83984 163.49414 C 133.77933 166.54214 133.75666 169.59199 133.83984 172.63867 C 133.87953 174.06401 133.56506 174.89404 132.13867 175.63672 C 127.84664 177.8714 125.71926 182.82755 126.77148 187.43555 C 127.87813 192.27822 131.85312 195.74182 136.73438 196.11523 C 141.49205 196.4792 146.13483 193.44414 147.80273 188.88281 C 149.45061 184.37746 148.19547 178.95641 144.04102 176.53906 C 141.1939 174.88306 140.93653 172.89698 141.14062 170.26367 C 141.17842 169.65698 141.14062 169.04621 141.14062 168.43555 L 141.15234 168.43555 C 141.15234 166.75955 141.20148 165.08092 141.15234 163.40625 C 141.08318 161.06491 139.63984 159.51776 137.56641 159.47656 z M 97.203125 159.47852 C 94.852259 159.44117 93.484375 161.15469 93.484375 164.19336 C 93.484375 167.01202 93.426996 169.83438 93.521484 172.65039 C 93.569484 174.08907 93.219806 174.89937 91.806641 175.63672 C 87.522546 177.86872 85.387425 182.85661 86.457031 187.44727 C 87.594291 192.33261 91.569969 195.78351 96.417969 196.0957 C 101.28336 196.40906 105.82119 193.44761 107.47852 188.87695 C 109.11845 184.35029 107.84416 178.97455 103.69727 176.5332 C 100.98092 174.9359 100.53855 173.09584 100.81445 170.47852 C 100.87496 169.79986 100.81445 169.10659 100.81445 168.41992 L 100.8125 168.41992 L 100.8125 164.30469 C 100.80192 161.19935 99.540385 159.51631 97.203125 159.47852 z M 117.07812 159.48047 C 114.88335 159.62579 113.64258 161.23924 113.64258 164.03125 C 113.64258 177.23526 113.61918 190.44116 113.67969 203.64648 C 113.68649 205.15981 113.28627 205.82436 111.80469 206.42969 C 101.65931 210.57103 99.398988 223.66278 107.66406 230.82812 C 109.60296 232.50812 112.24446 233.38038 114.56055 234.62305 L 120.05273 234.62109 C 120.23264 234.49335 120.39539 234.31079 120.5957 234.24805 C 127.41321 232.13605 131.57718 227.2161 131.95703 220.91211 C 132.3278 214.74543 128.45862 208.28152 122.16797 206.13086 C 121.62674 205.94551 121.06123 204.96146 121.02344 204.32812 C 120.90245 201.28013 120.9668 198.22325 120.9668 195.16992 L 120.9668 163.79883 C 120.9615 161.05085 119.37418 159.32967 117.07812 159.48047 z M 137.36523 181.47461 C 139.4281 181.41058 141.1667 183.12741 141.12891 185.19141 C 141.09565 187.16738 139.44928 188.78711 137.4707 188.78711 C 135.4974 188.78711 133.85615 187.15828 133.81836 185.18359 C 133.79152 183.20762 135.39081 181.5347 137.36523 181.47461 z M 97.107422 181.47656 C 99.079579 181.44992 100.75177 183.05851 100.80469 185.0332 C 100.85798 187.0972 99.134439 188.83095 97.074219 188.78711 C 95.09677 188.74712 93.492188 187.08992 93.492188 185.11523 C 93.501636 183.13794 95.127705 181.50302 97.107422 181.47656 z M 201.60938 183.30273 C 205.67199 183.29204 209.0364 186.71327 208.95703 190.78125 C 208.88106 194.74257 205.51342 197.99823 201.5332 197.95703 C 197.57188 197.91568 194.26299 194.5604 194.30078 190.59375 C 194.32762 186.61772 197.64012 183.31785 201.60938 183.30273 z M 32.939453 183.30469 C 37.01265 183.28069 40.375052 186.67006 40.318359 190.74609 C 40.265068 194.70742 36.907452 197.98544 32.935547 197.95898 C 28.975354 197.92966 25.666016 194.59155 25.666016 190.62891 C 25.667531 186.66089 28.975481 183.32736 32.939453 183.30469 z M 117.16992 212.63281 C 121.24463 212.5635 124.63672 215.91762 124.63672 219.98828 C 124.625 223.95361 121.30564 227.27199 117.33789 227.28711 C 113.37241 227.30045 110.02403 224.00238 109.98242 220.04102 C 109.94085 216.07036 113.21124 212.6982 117.16992 212.63281 z "
       transform="matrix(0.26458333,0,0,0.26458333,62.889685,105.99927)" />
  </g>
</svg>
