<?xml version="1.0" encoding="UTF-8" standalone="no"?>
<svg
   xmlns:dc="http://purl.org/dc/elements/1.1/"
   xmlns:cc="http://creativecommons.org/ns#"
   xmlns:rdf="http://www.w3.org/1999/02/22-rdf-syntax-ns#"
   xmlns:svg="http://www.w3.org/2000/svg"
   xmlns="http://www.w3.org/2000/svg"
   width="79.258408mm"
   height="93.480309mm"
   viewBox="0 0 79.258408 93.480309"
   version="1.1"
   id="svg3414">
  <defs
     id="defs3408">
    <clipPath
       clipPathUnits="userSpaceOnUse"
       id="clipPath3262">
      <path
         d="M 0,8332.427 H 14187.635 V 0 H 0 Z"
         id="path3260" />
    </clipPath>
  </defs>
  <metadata
     id="metadata3411">
    <rdf:RDF>
      <cc:Work
         rdf:about="">
        <dc:format>image/svg+xml</dc:format>
        <dc:type
           rdf:resource="http://purl.org/dc/dcmitype/StillImage" />
        <dc:title></dc:title>
      </cc:Work>
    </rdf:RDF>
  </metadata>
  <g
     id="layer1"
     transform="translate(-61.149522,-91.506375)">
    <g
       id="g3471">
      <path
         d="m 96.662384,154.24802 c -1.217436,0.56233 -2.344561,1.10067 -3.486503,1.6062 -2.178402,0.9652 -4.058002,0.30868 -5.181952,-1.77447 -1.234723,-2.28918 -2.471561,-4.57765 -3.737681,-6.84954 -0.133703,-0.24024 -0.449439,-0.47307 -0.717903,-0.52775 -1.383947,-0.28328 -2.784827,-0.4826 -4.168775,-0.76588 -0.464961,-0.0952 -0.682977,0.0109 -0.913694,0.42086 -4.026958,7.15892 -8.071555,14.30796 -12.110508,21.45982 -0.09384,0.16546 -0.171803,0.33973 -0.2921,0.57962 0.334081,0 0.557742,-3.5e-4 0.781756,0 3.873499,3.5e-4 7.747352,0.0138 11.620852,-0.008 0.925336,-0.006 1.556808,0.36442 2.003425,1.15112 0.748594,1.31797 1.51765,2.62431 2.277533,3.93594 1.086556,1.87536 2.172406,3.75108 3.299531,5.69736 0.145344,-0.23107 0.256469,-0.39617 0.355953,-0.56833 0.79763,-1.38394 1.59385,-2.7693 2.389363,-4.15466 3.151364,-5.48887 6.304492,-10.97668 9.445625,-16.47155 0.115711,-0.20249 0.2286,-0.53693 0.141464,-0.7045 -0.528814,-1.01247 -1.116542,-1.9946 -1.706386,-3.02577 m 38.851416,14.14956 c -0.54363,-0.96202 -1.01353,-1.7974 -1.48661,-2.63066 -3.6322,-6.39374 -7.26828,-12.78502 -10.88707,-19.18617 -0.21131,-0.37395 -0.40887,-0.45332 -0.81844,-0.37042 -1.46509,0.29598 -2.93794,0.55633 -4.41184,0.80575 -0.41805,0.0709 -0.67346,0.24976 -0.88195,0.63358 -1.20297,2.21404 -2.50613,4.37586 -3.64031,6.62341 -1.11619,2.21227 -3.63044,2.6229 -5.38727,1.70039 -2.22885,-1.17052 -4.52191,-2.21827 -6.77757,-3.33869 -0.40993,-0.20391 -0.75353,-0.26741 -1.14194,0.14181 5.10928,8.86249 10.22526,17.73661 15.38887,26.69329 0.18168,-0.30868 0.29739,-0.49777 0.40605,-0.69039 1.72967,-3.06952 3.47133,-6.13198 5.17807,-9.2142 0.46144,-0.83326 1.09855,-1.18216 2.04012,-1.17687 3.85303,0.0219 7.70643,0.009 11.55911,0.009 z M 110.39073,95.483357 c -2.6289,1.204384 -5.18336,2.360084 -7.72407,3.546123 -1.13912,0.531636 -2.23908,0.538338 -3.365851,-0.01976 -2.073981,-1.026936 -4.157839,-2.034469 -6.238169,-3.048705 -0.417689,-0.203553 -0.838906,-0.400756 -1.289403,-0.615598 -0.155222,0.271992 -0.287867,0.499886 -0.415925,0.73025 -1.214261,2.184753 -2.438047,4.364573 -3.637844,6.557433 -0.623006,1.13877 -1.54305,1.82492 -2.824339,2.04717 -2.542822,0.44062 -5.080706,0.9137 -7.628114,1.3268 -0.608894,0.0988 -0.752828,0.31397 -0.6731,0.91193 0.332317,2.49802 0.578203,5.00803 0.931333,7.50288 0.197203,1.39382 -0.155575,2.52659 -1.132769,3.52813 -1.760361,1.80516 -3.486503,3.64349 -5.225697,5.46911 -0.137936,0.14464 -0.267406,0.29775 -0.413456,0.46073 0.160514,0.18662 0.288572,0.34361 0.425097,0.49318 1.739548,1.90959 3.475567,3.822 5.222523,5.72453 0.800452,0.87207 1.129594,1.88242 0.967316,3.05153 -0.239536,1.72508 -0.48648,3.44875 -0.727075,5.17348 -0.154516,1.10984 -0.303389,2.22003 -0.456494,3.34081 0.202847,0.0593 0.335844,0.11112 0.47378,0.13652 2.638778,0.49072 5.271911,1.01389 7.919156,1.45098 1.315861,0.21731 2.205919,0.90593 2.809875,2.04117 0.567972,1.0668 1.12783,2.13819 1.693686,3.20605 0.737305,1.39135 1.47708,2.78094 2.240491,4.21781 0.223309,-0.0988 0.407811,-0.17604 0.588786,-0.26106 2.372078,-1.11548 4.748389,-2.2225 7.113764,-3.35174 1.154639,-0.55104 2.277889,-0.54963 3.425469,0.0176 2.33151,1.15323 4.67219,2.28706 7.01005,3.42723 0.15734,0.0766 0.32314,0.13618 0.4953,0.20814 0.12524,-0.21519 0.23072,-0.38946 0.32985,-0.56762 1.25271,-2.25707 2.50825,-4.51308 3.75426,-6.77404 0.59267,-1.07456 1.4859,-1.74166 2.68428,-1.95932 1.53177,-0.27799 3.07129,-0.51188 4.60728,-0.76765 1.20544,-0.20073 2.41053,-0.40604 3.64949,-0.61524 -0.0272,-0.28787 -0.0434,-0.50941 -0.0695,-0.72955 -0.30833,-2.58409 -0.61207,-5.16854 -0.93063,-7.75123 -0.15169,-1.22555 0.20356,-2.2606 1.07492,-3.13231 0.57996,-0.57962 1.14441,-1.17475 1.7145,-1.76389 1.36701,-1.41182 2.73297,-2.82399 4.11797,-4.2545 -0.16263,-0.1845 -0.2928,-0.33902 -0.43003,-0.48754 -1.78118,-1.92617 -3.56059,-3.85516 -5.34741,-5.77674 -0.77611,-0.83432 -1.10702,-1.82209 -0.96167,-2.93652 0.27517,-2.11279 0.59619,-4.21922 0.89464,-6.32883 0.1076,-0.76024 0.20567,-1.52224 0.30833,-2.28636 -0.18062,-0.0512 -0.27693,-0.0854 -0.37606,-0.10512 -2.65218,-0.52635 -5.29978,-1.0788 -7.95937,-1.56316 -1.21709,-0.2219 -2.04329,-0.88865 -2.61973,-1.9244 -0.43815,-0.7874 -0.84455,-1.5928 -1.26683,-2.38937 -0.90064,-1.698274 -1.80269,-3.396193 -2.73861,-5.159377 m 16.17063,49.839747 c 1.99002,3.50131 3.95252,6.95748 5.91749,10.41258 2.51178,4.41749 5.02497,8.83426 7.53886,13.25034 0.94756,1.6644 0.10584,3.08186 -1.83691,3.08257 -4.59281,0.002 -9.18563,0.01 -13.77809,-0.013 -0.48754,-0.002 -0.72002,0.1658 -0.94438,0.56973 -2.05035,3.68971 -4.12927,7.36318 -6.17926,11.05324 -0.40252,0.7246 -0.87348,1.30139 -1.77094,1.3081 -0.89677,0.007 -1.39277,-0.5641 -1.8034,-1.27494 -4.19206,-7.25735 -8.39012,-14.51116 -12.58712,-21.76533 -0.11077,-0.19156 -0.2286,-0.37853 -0.38911,-0.64382 -0.15275,0.23812 -0.27481,0.41416 -0.38276,0.59831 -4.225928,7.21395 -8.451148,14.42826 -12.674603,21.64362 -0.923572,1.57797 -2.497314,1.59314 -3.412067,0.01 -2.090208,-3.61986 -4.174772,-7.24324 -6.237463,-10.87896 -0.252589,-0.44486 -0.511528,-0.62301 -1.041048,-0.62019 -4.571999,0.0247 -9.14541,-0.0402 -13.715999,0.0413 -1.780822,0.0317 -2.615142,-1.6577 -1.8034,-3.0734 4.47428,-7.8038 8.864247,-15.65593 13.282083,-23.49183 0.09984,-0.17709 0.191205,-0.35948 0.30233,-0.56973 -0.149577,-0.0931 -0.281869,-0.17992 -0.418041,-0.26 -1.476728,-0.86325 -2.145595,-2.29905 -1.900414,-4.00297 0.370769,-2.57563 0.710847,-5.15585 1.091494,-7.73042 0.05856,-0.39511 -0.05009,-0.64382 -0.308327,-0.91969 -1.710267,-1.82527 -3.368323,-3.70064 -5.115631,-5.48922 -1.442508,-1.47673 -1.812219,-3.96593 0.02893,-5.75698 1.776589,-1.72861 3.431822,-3.58175 5.155847,-5.3654 0.282222,-0.29175 0.387703,-0.57326 0.336903,-0.97931 -0.320322,-2.56187 -0.602192,-5.12904 -0.928159,-7.6902 -0.287513,-2.25531 1.015295,-4.05024 3.251906,-4.4383 2.563636,-0.44485 5.127625,-0.88935 7.684558,-1.37089 0.267406,-0.0504 0.57785,-0.29987 0.716492,-0.54328 1.286933,-2.262017 2.536472,-4.544842 3.804708,-6.817437 1.135239,-2.033411 3.030361,-2.620433 5.112808,-1.6002 2.31775,1.135239 4.64185,2.258484 6.953603,3.406423 0.34748,0.172508 0.62547,0.175683 0.97437,0.01058 2.24014,-1.060097 4.48169,-2.118078 6.74229,-3.134078 0.56938,-0.255764 1.20121,-0.458964 1.81822,-0.505178 1.5307,-0.114652 2.6998,0.5461 3.44064,1.905 1.28517,2.356203 2.56575,4.715228 3.83187,7.08166 0.19015,0.3556 0.41416,0.53904 0.82691,0.61665 2.51601,0.47378 5.02603,0.98073 7.53745,1.48026 2.25002,0.44732 3.50026,2.13748 3.20781,4.40796 -0.32738,2.54035 -0.68757,5.07682 -1.0668,7.60977 -0.0741,0.49706 0.0296,0.83749 0.37465,1.20226 1.71767,1.81822 3.40889,3.66113 5.10716,5.49769 1.5875,1.71662 1.57057,3.86751 -0.0388,5.55449 -1.75507,1.83938 -3.50238,3.68617 -5.2705,5.51286 -0.27411,0.28328 -0.33796,0.54821 -0.28999,0.92815 0.32209,2.54142 0.63148,5.08459 0.91934,7.63024 0.20144,1.77941 -0.44556,3.16829 -2.06551,4.12115"
         style="fill:#8e2781;fill-opacity:1;fill-rule:nonzero;stroke:none;stroke-width:0.352778"
         id="path3266" />
      <path
         d="m 100.76427,109.27954 c -8.103305,-0.0314 -14.78668,6.60365 -14.813844,14.7066 -0.02752,8.12624 6.584244,14.82725 14.666034,14.865 8.11953,0.0381 14.83465,-6.57754 14.87628,-14.65545 0.0423,-8.19997 -6.55814,-14.8844 -14.72847,-14.91615 m -0.0384,-3.66854 c 10.18822,0.0141 18.44498,8.2991 18.43616,18.50002 -0.009,10.15224 -8.35201,18.43934 -18.53741,18.41289 -10.083094,-0.0261 -18.358908,-8.36507 -18.344444,-18.4838 0.01446,-10.15823 8.306505,-18.44322 18.445694,-18.42911"
         style="fill:#8e2781;fill-opacity:1;fill-rule:nonzero;stroke:none;stroke-width:0.352778"
         id="path3270" />
      <path
         d="m 98.053493,126.45612 c 1.670756,-2.03024 3.269897,-3.97404 4.869387,-5.91714 0.87207,-1.05975 1.74167,-2.1209 2.61797,-3.17677 0.8322,-1.00294 2.00625,-1.1818 2.92241,-0.45437 0.91793,0.72848 0.99836,1.98155 0.16616,2.99543 -2.88537,3.51367 -5.77462,7.02381 -8.671633,10.5283 -0.826558,0.99977 -1.976613,1.10702 -2.981677,0.28822 -1.444625,-1.17686 -2.880784,-2.36502 -4.312356,-3.55811 -0.942622,-0.78529 -1.101725,-2.00907 -0.3937,-2.88467 0.728486,-0.90099 1.960739,-0.98848 2.947106,-0.18556 0.935919,0.7613 1.8542,1.54411 2.836333,2.36467"
         style="fill:#8e2781;fill-opacity:1;fill-rule:nonzero;stroke:none;stroke-width:0.352778"
         id="path3274" />
      <path
         d="m 110.39715,171.68376 6.75428,-13.50857 16.6871,2.97956"
         style="fill:none;stroke:#8e2781;stroke-width:1.05833;stroke-linecap:round;stroke-linejoin:round;stroke-miterlimit:10;stroke-dasharray:none;stroke-opacity:1"
         id="path3324" />
      <path
         d="m 67.932184,162.60953 14.328069,-4.77591 9.692569,13.9065"
         style="fill:none;stroke:#8e2781;stroke-width:1.05833;stroke-linecap:round;stroke-linejoin:round;stroke-miterlimit:10;stroke-dasharray:none;stroke-opacity:1"
         id="path3328" />
    </g>
  </g>
</svg>
