<?xml version="1.0" encoding="UTF-8"?>
<svg width="264.74mm" height="111.65mm" version="1.1" viewBox="0 0 264.73608 111.65474" xmlns="http://www.w3.org/2000/svg" xmlns:cc="http://creativecommons.org/ns#" xmlns:dc="http://purl.org/dc/elements/1.1/" xmlns:rdf="http://www.w3.org/1999/02/22-rdf-syntax-ns#">
<metadata>
<rdf:RDF>
<cc:Work rdf:about="">
<dc:format>image/svg+xml</dc:format>
<dc:type rdf:resource="http://purl.org/dc/dcmitype/StillImage"/>
<dc:title/>
</cc:Work>
</rdf:RDF>
</metadata>
<g transform="translate(18.892 -79.283)">
<g transform="matrix(.35278 0 0 -.35278 67.074 158.73)">
<path d="m0 0v3.943h-38.7v-52.549h38.7v3.943h-34.757v20.359h30.072v3.943h-30.072v20.361z" fill="#fff"/>
</g>
<g transform="matrix(.35278 0 0 -.35278 115.2 174.51)">
<path d="m0 0h-14.253v44.662h14.253c6.146 0 11.432-2.201 15.711-6.544 4.363-4.429 6.484-9.593 6.484-15.787v-0.068c0-6.259-2.118-11.422-6.48-15.782-4.302-4.301-9.589-6.481-15.715-6.481m26.139 22.331c0 7.162-2.593 13.386-7.706 18.499-4.918 4.918-10.864 7.505-17.682 7.695v0.149h-19.014v-52.55h18.197c7.162 0 13.385 2.594 18.499 7.708 5.113 5.112 7.706 11.337 7.706 18.499" fill="#fff"/>
</g>
<g transform="matrix(.35278 0 0 -.35278 41.482 189.32)">
<path d="m0 0c-4.167 0-7.589 1.16-10.059 3.244l-3.185-3.751c3.273-2.619 7.767-4.077 13.125-4.077 7.56 0 11.518 2.917 11.518 7.203 0 4.792-4.821 6.13-11.637 6.696-3.72 0.298-6.13 0.477-6.13 1.876 0 1.487 2.945 1.874 5.387 1.874 3.243-0.03 6.042-0.683 8.362-2.321l3.066 3.78c-2.857 2.025-6.965 3.096-11.428 3.096-6.608 0-11.43-2.442-11.43-6.905 0-4.643 5.625-6.014 11.815-6.548 4.286-0.357 5.953-0.805 5.953-2.143 0-1.37-1.786-2.024-5.357-2.024" fill="#fff"/>
</g>
<g transform="matrix(.35278 0 0 -.35278 106.16 183.35)">
<path d="m0 0v-11.012c0-6.34 4.346-10.507 12.112-10.507 7.77 0 12.086 4.167 12.086 10.507v11.012h-6.072v-10.536c0-3.631-1.994-5.983-6.014-5.983-4.016 0-6.041 2.352-6.041 5.983v10.536z" fill="#fff"/>
</g>
<path d="m138.31 186.7h-5.0186v1.6274h5.0186z" fill="#fff"/>
<g transform="matrix(.35278 0 0 -.35278 89.357 174.89)">
<path d="m0 0c-6.534 0-11.964 2.252-16.597 6.888-4.636 4.634-6.889 10.063-6.889 16.596 0 6.535 2.253 11.964 6.889 16.597 4.635 4.637 10.063 6.89 16.597 6.89 6.532 0 11.961-2.253 16.597-6.89 4.635-4.634 6.887-10.064 6.887-16.597 0-6.531-2.252-11.961-6.887-16.596-4.635-4.636-10.065-6.888-16.597-6.888m27.495 23.484c0 7.524-2.707 14.045-8.046 19.384-5.34 5.339-11.861 8.046-19.382 8.046-7.59 0-14.113-2.709-19.385-8.05-5.291-5.361-7.976-11.881-7.976-19.38 0-7.496 2.685-14.017 7.976-19.378 5.271-5.34 11.794-8.05 19.385-8.05 7.522 0 14.043 2.707 19.382 8.046 5.339 5.34 8.046 11.861 8.046 19.382" fill="#fff"/>
</g>
<path d="m86.168 188.32h5.019v-1.6274h-5.019z" fill="#fff"/>
<g transform="matrix(.35278 0 0 -.35278 117.95 182.51)">
<path d="m0 0 7.052 5h-7.29l-4.079-5z" fill="#fff"/>
</g>
<g transform="matrix(.35278 0 0 -.35278 210.32 158.75)">
<path d="m0 0h14.254c6.146 0 11.432-2.201 15.709-6.543 4.365-4.433 6.486-9.595 6.486-15.788v-0.067c0-6.258-2.12-11.421-6.482-15.783-4.3-4.3-9.586-6.481-15.713-6.481h-14.254zm32.685-40.83c5.114 5.112 7.708 11.337 7.708 18.499s-2.594 13.386-7.708 18.499c-4.919 4.918-10.865 7.505-17.683 7.695v0.149h-19.014v-52.55h18.197c7.162 0 13.386 2.594 18.5 7.708" fill="#fff"/>
</g>
<g transform="matrix(.35278 0 0 -.35278 210.83 188.97)">
<path d="m0 0h-14.019v15.953h-6.071v-20.834h20.09z" fill="#fff"/>
</g>
<g transform="matrix(.35278 0 0 -.35278 194.98 169.98)">
<path d="m0 0 12.019 29.148 12.016-29.148zm30.882-16.706h4.353l-23.216 56.18-23.219-56.18h4.347l5.296 12.762h27.281z" fill="#fff"/>
</g>
<g transform="matrix(.35278 0 0 -.35278 185.09 184.97)">
<path d="m0 0h8.157c2.173 0 3.748-0.595 3.748-2.619s-1.575-2.619-3.748-2.619h-8.157zm0.031-9.643h6.132l5.505-6.577h7.055l-6.13 7.084c3.272 0.952 5.475 3.154 5.475 6.636 0 4.762-4.138 7.114-9.465 7.114h-14.614v-20.834h6.042z" fill="#fff"/>
</g>
<g transform="matrix(.35278 0 0 -.35278 187.04 175.87)">
<path d="m0 0v48.606h18.464v3.944h-40.943v-3.944h18.536v-48.606z" fill="#fff"/>
</g>
<g transform="matrix(.35278 0 0 -.35278 199.99 187.02)">
<path d="m0 0c0-3.928-2.829-6.16-7.412-6.16-4.585 0-7.411 2.232-7.411 6.16 0 3.929 2.856 6.161 7.411 6.161 4.583 0 7.412-2.232 7.412-6.161m-20.983 0c0-7.054 5.327-11.102 13.571-11.102 8.245 0 13.602 4.048 13.602 11.102 0 7.055-5.357 11.103-13.602 11.103-8.244 0-13.571-4.048-13.571-11.103" fill="#fff"/>
</g>
<g transform="matrix(.35278 0 0 -.35278 159.72 187.02)">
<path d="m0 0c0-3.928-2.826-6.16-7.411-6.16-4.583 0-7.409 2.232-7.409 6.16 0 3.929 2.857 6.161 7.409 6.161 4.585 0 7.411-2.232 7.411-6.161m-20.983 0c0-7.054 5.329-11.102 13.572-11.102 8.245 0 13.602 4.048 13.602 11.102 0 7.055-5.357 11.103-13.602 11.103-8.243 0-13.572-4.048-13.572-11.103" fill="#fff"/>
</g>
<g transform="matrix(.35278 0 0 -.35278 140.43 158.73)">
<path d="m0 0v3.943h-38.701v-52.549h38.701v3.943h-34.758v20.359h30.073v3.943h-30.073v20.361z" fill="#fff"/>
</g>
<g transform="matrix(.35278 0 0 -.35278 147.39 184.85)">
<path d="m0 0c2.8 0 4.912-1.011 6.279-3.154l5.239 2.678c-1.874 2.976-6.041 5.418-11.429 5.418-8.096 0-13.392-4.078-13.392-11.103 0-7.024 5.296-11.101 13.154-11.101 5.626 0 9.823 2.38 11.758 5.447l-5.211 2.678c-1.456-2.231-3.598-3.184-6.398-3.184-4.285 0-7.144 2.172-7.144 6.16 0 3.989 2.859 6.161 7.144 6.161" fill="#fff"/>
</g>
<g transform="matrix(.35278 0 0 -.35278 163.78 158.73)">
<path d="m0 0v3.943h-38.7v-52.549h38.7v3.943h-34.757v20.359h30.072v3.943h-30.072v20.361z" fill="#fff"/>
</g>
<g transform="matrix(.35278 0 0 -.35278 175.28 173.82)">
<path d="m0 0c-2.693-2.052-6.135-3.091-10.231-3.091-5.968 0-11.032 1.548-15.477 4.733l-0.665 0.477-2.31-3.231 0.667-0.475c5.072-3.615 11.055-5.448 17.785-5.448 5.105 0 9.432 1.385 12.863 4.116 3.537 2.815 5.332 6.456 5.332 10.821 0 7.444-4.295 12.3-12.767 14.437l-9.638 2.512c-2.762 0.706-4.965 1.868-6.548 3.451-1.531 1.531-2.273 3.407-2.273 5.737 0 2.961 1.18 5.279 3.608 7.084 2.494 1.855 5.554 2.755 9.356 2.755 5.407 0 10.188-1.368 14.207-4.068l0.676-0.454 2.209 3.258-0.69 0.456c-4.686 3.101-10.135 4.694-16.199 4.742v0.01h-0.253v-9e-3c-4.598-0.046-8.564-1.306-11.784-3.755-3.32-2.528-5.005-5.898-5.005-10.019 0-3.262 1.107-6.058 3.285-8.308 2.133-2.203 5.001-3.786 8.524-4.701l9.702-2.578c3.179-0.862 5.523-2.082 7.171-3.728 1.622-1.621 2.41-3.852 2.41-6.822 0-3.288-1.293-5.874-3.955-7.902" fill="#fff"/>
</g>
<g transform="matrix(.35278 0 0 -.35278 123.47 187.77)">
<path d="m0 0 3.63 7.382 3.602-7.382zm11.311-8.305h6.459l-10.776 20.835h-6.637l-10.775-20.835h6.37l1.963 3.989h11.43z" fill="#fff"/>
</g>
<path d="m116.56 190.7h2.1424v-7.3498h-2.1424z" fill="#fff"/>
<g transform="matrix(.35278 0 0 -.35278 100.24 187.94)">
<path d="m0 0h6.904v-1.874c-1.457-1.341-3.481-1.847-6.041-1.847-5.059 0-7.917 2.232-7.917 6.34 0 4.079 2.768 6.31 7.829 6.31 2.796 0 4.672-0.714 6.457-2.322l4.435 3.274c-2.172 2.024-5.892 3.84-11.042 3.84-8.541 0-13.841-4.047-13.841-11.102 0-7.054 5.3-11.102 13.841-11.102 5.565 0 9.674 1.847 11.906 4.614v8.124h-12.531z" fill="#fff"/>
</g>
<g transform="matrix(.35278 0 0 -.35278 241.65 172.46)">
<path d="m0 0c-4.636-4.635-10.065-6.888-16.599-6.888-6.531 0-11.961 2.253-16.596 6.888-4.636 4.635-6.889 10.065-6.889 16.596 0 6.533 2.253 11.963 6.889 16.597 4.636 4.637 10.065 6.89 16.596 6.89 6.533 0 11.962-2.253 16.599-6.89 4.636-4.634 6.889-10.064 6.889-16.597 0-6.531-2.253-11.961-6.889-16.596m2.853 35.98c-5.34 5.339-11.862 8.046-19.383 8.046-7.591 0-14.113-2.709-19.385-8.05-5.291-5.36-7.975-11.88-7.975-19.38 0-7.498 2.684-14.018 7.975-19.378 5.271-5.34 11.793-8.05 19.385-8.05 7.523 0 14.045 2.707 19.383 8.046 5.337 5.34 8.044 11.859 8.044 19.382 0 7.524-2.707 14.045-8.044 19.384" fill="#fff"/>
</g>
<g transform="matrix(.35278 0 0 -.35278 51.36 171.03)">
<path d="m0 0c0 7.444-4.296 12.301-12.768 14.437l-9.639 2.512c-2.76 0.706-4.964 1.867-6.548 3.451-1.53 1.531-2.273 3.407-2.273 5.737 0 2.961 1.18 5.278 3.608 7.083 2.495 1.856 5.555 2.756 9.356 2.756 5.408 0 10.189-1.368 14.207-4.068l0.676-0.454 2.209 3.258-0.689 0.455c-4.687 3.102-10.136 4.695-16.2 4.743v0.01h-0.251v-0.01c-4.599-0.045-8.564-1.305-11.785-3.754-3.321-2.529-5.006-5.9-5.006-10.019 0-3.261 1.107-6.056 3.286-8.308 2.133-2.203 5.003-3.786 8.523-4.702l9.704-2.577c3.179-0.862 5.524-2.082 7.17-3.727 1.622-1.623 2.409-3.854 2.409-6.823 0-3.289-1.293-5.874-3.956-7.904-2.689-2.05-6.132-3.089-10.229-3.089-5.968 0-11.031 1.548-15.478 4.733l-0.665 0.477-2.309-3.231 0.667-0.475c5.072-3.615 11.055-5.448 17.785-5.448 5.107 0 9.433 1.385 12.863 4.116 3.538 2.816 5.333 6.457 5.333 10.821" fill="#fff"/>
</g>
<g transform="matrix(.35278 0 0 -.35278 170.1 187.84)">
<path d="m0 0-12.351 12.739h-6.429v-20.835h5.864v13.691l13.453-13.691h5.327v20.835h-5.864z" fill="#fff"/>
</g>
<g transform="matrix(.35278 0 0 -.35278 176.49 190.7)">
<path d="m0 0h6.071v15.982h8.661v4.852h-23.335v-4.852h8.603z" fill="#fff"/>
</g>
<g transform="matrix(.35278 0 0 -.35278 46.093 185.06)">
<path d="m0 0h8.603v-15.982h6.072v15.982h8.66v4.852h-23.335z" fill="#fff"/>
</g>
<g transform="matrix(.35278 0 0 -.35278 15.983 172.46)">
<path d="m0 0c-4.633-4.635-10.063-6.888-16.597-6.888-6.533 0-11.963 2.253-16.596 6.888-4.636 4.634-6.888 10.064-6.888 16.596 0 6.534 2.252 11.964 6.888 16.597 4.634 4.637 10.063 6.89 16.596 6.89 6.534 0 11.962-2.253 16.597-6.89 4.636-4.633 6.889-10.063 6.889-16.597 0-6.532-2.253-11.962-6.889-16.596m2.854 35.98c-5.341 5.339-11.863 8.046-19.382 8.046-7.592 0-14.115-2.709-19.387-8.05-5.291-5.362-7.975-11.882-7.975-19.38 0-7.495 2.684-14.016 7.975-19.378 5.271-5.34 11.794-8.05 19.387-8.05 7.52 0 14.043 2.707 19.382 8.046 5.338 5.341 8.046 11.862 8.046 19.382 0 7.522-2.708 14.044-8.046 19.384" fill="#fff"/>
</g>
<g transform="matrix(.35278 0 0 -.35278 .041433 173.47)">
<path d="m0 0 0.577 0.578-2.775 2.777-0.578-0.563c-4.662-4.531-10.273-6.827-16.673-6.827-6.534 0-11.964 2.252-16.597 6.888-4.636 4.634-6.889 10.064-6.889 16.596 0 6.534 2.253 11.964 6.889 16.597 4.634 4.637 10.063 6.89 16.597 6.89 6.485 0 12.115-2.341 16.731-6.957l0.591-0.59 2.691 2.809-0.564 0.566c-5.384 5.384-11.929 8.115-19.449 8.115-7.523 0-14.043-2.707-19.384-8.046-5.338-5.339-8.045-11.861-8.045-19.384s2.707-14.043 8.045-19.382c5.34-5.339 11.86-8.046 19.384-8.046 7.612 0 14.156 2.685 19.449 7.979" fill="#fff"/>
</g>
<g transform="matrix(.35278 0 0 -.35278 21.414 190.94)">
<path d="m0 0c7.263 0 10.982 4.078 10.982 9.852v11.667h-6.072v-11.191c0-3.274-1.369-5.328-4.971-5.328-2.32 0-3.779 0.775-5.058 2.381l-4.078-3.541c1.993-2.412 4.881-3.84 9.197-3.84" fill="#fff"/>
</g>
<g transform="matrix(.35278 0 0 -.35278 36.656 157.33)">
<path d="m0 0h-3.943v-44.888l-37.066 48.945v-56.607h3.944v44.822l37.065-48.878z" fill="#fff"/>
</g>
<g transform="matrix(.35278 0 0 -.35278 27.012 183.35)">
<path d="m0 0v-11.012c0-6.34 4.346-10.507 12.113-10.507 7.769 0 12.085 4.167 12.085 10.507v11.012h-6.071v-10.536c0-3.631-1.995-5.983-6.014-5.983-4.016 0-6.041 2.352-6.041 5.983v10.536z" fill="#fff"/>
</g>
<g transform="matrix(.35278 0 0 -.35278 76.348 187.77)">
<path d="m0 0 3.633 7.382 3.6-7.382zm0.357 12.53-10.772-20.835h6.367l1.966 3.989h11.43l1.963-3.989h6.459l-10.774 20.835z" fill="#fff"/>
</g>
<g transform="matrix(.35278 0 0 -.35278 76.066 174.85)">
<path d="m0 0c2.637 2.637 3.974 6.258 3.974 10.763l-0.139 38.899h-3.939v-38.969c0-3.379-0.947-6.039-2.817-7.908-1.868-1.869-4.528-2.816-7.907-2.816-2.929 0-5.475 1.061-7.568 3.155l-0.579 0.577-2.784-2.784 0.577-0.578c2.862-2.862 6.369-4.313 10.421-4.313 4.504 0 8.124 1.337 10.761 3.974" fill="#fff"/>
</g>
<path d="m71.58 183.35h-2.1417v7.3498h2.1417z" fill="#fff"/>
<path d="m55.608 190.7h2.1417v-7.3498h-2.1417z" fill="#fff"/>
<g transform="matrix(.35278 0 0 -.35278 68.114 189.02)">
<path d="m0 0-5.208 2.678c-1.459-2.231-3.602-3.183-6.399-3.183-4.287 0-7.144 2.172-7.144 6.16s2.857 6.16 7.144 6.16c2.797 0 4.91-1.011 6.28-3.154l5.239 2.678c-1.876 2.976-6.043 5.418-11.43 5.418-8.095 0-13.394-4.078-13.394-11.102s5.299-11.102 13.157-11.102c5.624 0 9.819 2.381 11.755 5.447" fill="#fff"/>
</g>
<g transform="matrix(.35278 0 0 -.35278 3.798 105.76)">
<path d="m0 0v-117.94h42.88v85.77h107.21v-85.77h42.885v117.94z" fill="#ffd300"/>
</g>
<g transform="matrix(.35278 0 0 -.35278 155.07 105.76)">
<path d="m0 0v-117.94h42.88v85.77h107.21v-85.77h42.885v117.94z" fill="#ec1c24"/>
</g>
<path d="m83.219 94.412h-7.5636v7.5639h7.5636zm45.384 22.694h-30.254v30.28h30.254zm117.24 30.28v3.7606h-264.74v-3.7606h105.9l0.0124-37.844h15.083c1.8496-4.4418 6.2258-7.5667 11.337-7.5667 5.1118 0 9.488 3.1249 11.337 7.5667h15.174v37.844zm-177.75-52.975h-7.5636v7.5639h7.5636zm30.254 0h-7.5632v7.5639h7.5632zm-52.941 7.5639h7.3903v-7.5639h-7.3903zm90.745-7.5639h-7.53v7.5639h7.53zm-90.745-10.335v6.5532h136.14v-7.6641h3.7821v-3.683h-143.71v3.683h3.7814zm136.13 10.335h-7.6666v7.5639h7.6666zm-15.127 0h-7.5636v7.5639h7.5636zm-22.691 0h7.5632v7.5639h-7.5632z" fill="#0064ff"/>
</g>
</svg>
