<?xml version="1.0" encoding="UTF-8" standalone="no"?>
<svg
   xmlns:dc="http://purl.org/dc/elements/1.1/"
   xmlns:cc="http://creativecommons.org/ns#"
   xmlns:rdf="http://www.w3.org/1999/02/22-rdf-syntax-ns#"
   xmlns:svg="http://www.w3.org/2000/svg"
   xmlns="http://www.w3.org/2000/svg"
   width="50.769661mm"
   height="58.471153mm"
   viewBox="0 0 50.76966 58.471153"
   version="1.1"
   id="svg45055">
  <defs
     id="defs45049">
    <clipPath
       clipPathUnits="userSpaceOnUse"
       id="clipPath11368">
      <path
         d="M 0,11416.068 H 11251.086 V 0 H 0 Z"
         id="path11366" />
    </clipPath>
    <clipPath
       clipPathUnits="userSpaceOnUse"
       id="clipPath11528">
      <path
         d="M 0,11416.068 H 11251.086 V 0 H 0 Z"
         id="path11526" />
    </clipPath>
  </defs>
  <metadata
     id="metadata45052">
    <rdf:RDF>
      <cc:Work
         rdf:about="">
        <dc:format>image/svg+xml</dc:format>
        <dc:type
           rdf:resource="http://purl.org/dc/dcmitype/StillImage" />
        <dc:title></dc:title>
      </cc:Work>
    </rdf:RDF>
  </metadata>
  <path
     d="M 16.818503,0.1571625 H 0.1571625 V 58.313989 H 26.563636 V 2.2004513"
     style="fill:none;stroke:#ffffff;stroke-width:0.314325;stroke-linecap:round;stroke-linejoin:round;stroke-miterlimit:10;stroke-dasharray:none;stroke-opacity:1"
     id="path11372" />
  <path
     d="M 26.563636,29.60705 H 50.612497 V 2.5147759"
     style="fill:none;stroke:#ffffff;stroke-width:0.314325;stroke-linecap:round;stroke-linejoin:round;stroke-miterlimit:10;stroke-dasharray:none;stroke-opacity:1"
     id="path11376" />
  <path
     d="m 17.132792,11.159595 c 0,0 -2.200628,2.514953 -2.829278,2.82963 -0.62865,0.313973 -0.942975,0.942623 -0.942975,1.885598 0,0.943327 1.2573,3.45828 1.2573,4.401255 0,0.943328 0.943328,1.88595 1.571978,1.571978 0.62865,-0.314678 0.942975,-1.257653 1.88595,-0.314678 0.943328,0.943328 0.943328,1.571978 0.629003,2.514953 -0.314678,0.943328 -1.571978,2.82963 -1.571978,3.772605 0,0.942975 1.886303,2.5146 1.571978,3.143603 -0.314678,0.62865 0.314325,3.772253 0.314325,3.772253 0,0 -1.886303,1.886302 -1.886303,2.514952 0,0.62865 0,5.343878 -0.314325,5.658556 -0.314325,0.314325 -3.457928,2.514953 -3.457928,3.457928 0,0.943327 -1.257652,3.772252 -1.571977,4.086577 -0.314325,0.314325 -0.942975,4.400903 -1.2573,4.400903 -0.314325,0 -1.2576527,0.314678 -1.5719777,-0.313972 -0.314325,-0.629003 -1.571625,-3.143603 -1.8859498,-3.458281 -0.314325,-0.314325 -0.314325,-1.88595 -0.314325,-2.200275 0,-0.314325 1.5716248,-4.401255 1.2572998,-6.287558 -0.314325,-1.88595 -0.314325,-1.571625 0.314325,-2.514953 0.62865,-0.942622 0.942975,-2.828925 0,-3.457575 -0.942975,-0.629002 -3.1436028,-2.82963 -3.1436028,-3.457927 0,-0.62865 0,-1.571978 0.943328,-3.143603 0.942975,-1.571978 0.942975,-1.886303 0,-2.82963 -0.943328,-0.942975 -2.200628,-2.200275 -1.571978,-3.143603 0.62865,-0.942975 4.0865778,-4.086578 4.0865778,-5.658556 0,-1.571625 -0.942975,-5.658202 -0.314325,-6.60153 0.62865,-0.942975 0,-1.8859497 0.942975,-2.5149527 0.9433277,-0.62865 3.1439547,-2.514952 4.0869297,-2.514952 0.942975,0 3.143603,-0.62865 3.772253,0.314677 0.62865,0.942975 2.514953,2.514953 3.143603,2.514953 0.62865,0 4.401255,1.5716247 4.086577,2.5149527 -0.314325,0.942975 -0.942975,1.2573 -1.2573,1.2573 -0.314325,0 -5.97288,-2.200628 -5.97288,-2.200628 z"
     style="fill:none;stroke:#7ae2f9;stroke-width:1.05833;stroke-linecap:round;stroke-linejoin:round;stroke-miterlimit:10;stroke-dasharray:none;stroke-opacity:1"
     id="path11484" />
  <path
     d="m 29.707309,14.932201 c 0,0 0.314325,-3.457928 1.2573,-3.772253 0.943328,-0.314325 0.943328,-0.942975 2.829278,-0.942975 1.886302,0 3.143602,0.62865 3.143602,-0.3146767 0,-0.942975 -0.314325,-0.942975 0.943328,-1.2573 1.2573,-0.314325 2.829278,-0.62865 2.200275,-1.257653 -0.62865,-0.62865 -2.829278,-2.200275 -2.5146,-2.514953 0.314325,-0.313972 1.571625,-1.8859498 2.5146,-1.571625 0.943328,0.314325 4.715581,2.514953 4.401256,2.829278 -0.314325,0.314325 -0.943328,3.45828 0,3.772253 0.942975,0.3146767 4.400902,1.8863017 4.400902,2.2006267 0,0.314325 -0.314325,1.257653 -0.942975,1.257653 -0.62865,0 -1.571625,-1.571978 -2.514952,-1.257653 -0.942975,0.314325 -1.2573,1.571978 -1.2573,2.829278 0,1.2573 0.62865,5.343878 -0.629003,5.343878 -1.2573,0 -1.571625,-0.62865 -2.5146,0 -0.943328,0.629002 -2.514953,1.257652 -3.457928,2.20098 -0.943328,0.942975 -1.257653,2.514953 -2.200628,2.828925 -0.943327,0.314678 -1.886302,0.314678 -2.829277,0 -0.942975,-0.313972 -1.571978,-0.942975 -2.200628,-1.571625 -0.62865,-0.62865 -1.2573,-0.943328 -0.62865,-1.886303 0.62865,-0.942975 3.457928,-1.571977 1.571625,-3.772252 -1.88595,-2.200628 -1.571625,-3.143603 -1.571625,-3.143603 z"
     style="fill:none;stroke:#7ae2f9;stroke-width:1.05833;stroke-linecap:round;stroke-linejoin:round;stroke-miterlimit:10;stroke-dasharray:none;stroke-opacity:1"
     id="path11488" />
</svg>
