<?xml version="1.0" encoding="UTF-8" standalone="no"?>
<svg
   xmlns:dc="http://purl.org/dc/elements/1.1/"
   xmlns:cc="http://creativecommons.org/ns#"
   xmlns:rdf="http://www.w3.org/1999/02/22-rdf-syntax-ns#"
   xmlns:svg="http://www.w3.org/2000/svg"
   xmlns="http://www.w3.org/2000/svg"
   width="198.96666mm"
   height="112.78978mm"
   viewBox="0 0 198.96666 112.78978"
   version="1.1"
   id="svg863">
  <defs
     id="defs857">
    <clipPath
       clipPathUnits="userSpaceOnUse"
       id="clipPath102">
      <path
         d="m 1163.959,1550.146 c -59.624,0 -107.959,-48.335 -107.959,-107.959 v 0 -55.081 c 0,-59.625 48.335,-107.959 107.959,-107.959 v 0 h 348.082 c 59.624,0 107.959,48.334 107.959,107.959 v 0 55.081 c 0,59.624 -48.335,107.959 -107.959,107.959 v 0 z"
         id="path100" />
    </clipPath>
    <linearGradient
       x1="0"
       y1="0"
       x2="1"
       y2="0"
       gradientUnits="userSpaceOnUse"
       gradientTransform="matrix(198.96666,0,0,198.96666,0.30238512,169.61165)"
       spreadMethod="pad"
       id="linearGradient112">
      <stop
         style="stop-opacity:1;stop-color:#e27c1c"
         offset="0"
         id="stop108" />
      <stop
         style="stop-opacity:1;stop-color:#f0be3e"
         offset="1"
         id="stop110" />
    </linearGradient>
  </defs>
  <metadata
     id="metadata860">
    <rdf:RDF>
      <cc:Work
         rdf:about="">
        <dc:format>image/svg+xml</dc:format>
        <dc:type
           rdf:resource="http://purl.org/dc/dcmitype/StillImage" />
        <dc:title></dc:title>
      </cc:Work>
    </rdf:RDF>
  </metadata>
  <g
     id="layer1"
     transform="translate(-6.2484969,-103.31542)">
    <g
       id="g927"
       transform="translate(5.9461118,-1.3075522)">
      <path
         d="m 38.38792,121.81033 c -21.034021,0 -38.08553488,17.05151 -38.08553488,38.08554 v 0 19.43135 c 0,21.03437 17.05151388,38.08553 38.08553488,38.08553 v 0 h 122.79559 c 21.03402,0 38.08554,-17.05116 38.08554,-38.08553 v 0 -19.43135 c 0,-21.03403 -17.05152,-38.08554 -38.08554,-38.08554 v 0 z"
         style="fill:url(#linearGradient112);stroke:none;stroke-width:0.352778"
         id="path114" />
      <path
         d="m 24.948864,122.67531 c 0,2.75625 -2.242608,4.99921 -4.999214,4.99921 -2.756252,0 -4.998861,-2.24296 -4.998861,-4.99921 0,-2.75625 2.242609,-4.99921 4.998861,-4.99921 2.756606,0 4.999214,2.24296 4.999214,4.99921 m -4.999214,6.68408 c -3.685469,0 -6.68408,-2.99861 -6.68408,-6.68408 0,-3.68547 2.998611,-6.68408 6.68408,-6.68408 3.685822,0 6.684433,2.99861 6.684433,6.68408 0,3.68547 -2.998611,6.68408 -6.684433,6.68408 m 0,-16.03445 c -5.155494,0 -9.350022,4.19452 -9.350022,9.35037 0,5.15585 4.194528,9.35037 9.350022,9.35037 5.155847,0 9.350375,-4.19452 9.350375,-9.35037 0,-5.15585 -4.194528,-9.35037 -9.350375,-9.35037 m 0,20.38526 c -6.084711,0 -11.0345356,-4.95018 -11.0345356,-11.03489 0,-6.08471 4.9498246,-11.03489 11.0345356,-11.03489 6.085064,0 11.034889,4.95018 11.034889,11.03489 0,6.08471 -4.949825,11.03489 -11.034889,11.03489 m 0,-24.73607 c -7.554383,0 -13.70083,6.14644 -13.70083,13.70118 0,7.55474 6.146447,13.70118 13.70083,13.70118 7.554736,0 13.701183,-6.14644 13.701183,-13.70118 0,-7.55474 -6.146447,-13.70118 -13.701183,-13.70118 m 0,29.08723 c -8.4836,0 -15.3860494,-6.90245 -15.3860494,-15.38605 0,-8.4836 6.9024494,-15.38605 15.3860494,-15.38605 8.483953,0 15.386403,6.90245 15.386403,15.38605 0,8.4836 -6.90245,15.38605 -15.386403,15.38605 m 0,-33.43839 c -9.9536246,0 -18.051991,8.09836 -18.051991,18.05234 0,9.95398 8.0983664,18.05234 18.051991,18.05234 9.953978,0 18.052344,-8.09836 18.052344,-18.05234 0,-9.95398 -8.098366,-18.05234 -18.052344,-18.05234"
         style="fill:#ffffff;fill-opacity:1;fill-rule:nonzero;stroke:none;stroke-width:0.352778"
         id="path164" />
      <text
         style="font-variant:normal;font-weight:bold;font-stretch:normal;font-size:10.5833px;font-family:Helvetica;-inkscape-font-specification:Helvetica-Bold;writing-mode:lr-tb;fill:#ffffff;fill-opacity:1;fill-rule:nonzero;stroke:none;stroke-width:0.352777"
         id="text256"
         x="22.050749"
         y="151.86147"><tspan
           x="22.050749 24.569584 30.612665 33.713581 39.174583 42.868164 48.329163 53.790169 59.833248 65.29425 67.813087 73.856171 79.899254 82.418083 87.879089 93.922173 97.023087 102.48408 105.00292 111.046 114.14692 117.8405 123.3015 128.7625 131.28133 136.74232 142.7854 145.88632 151.92941 155.62299 158.14183 164.18491 169.6459 175.689 181.14998 186.61099"
           y="151.86147"
           id="tspan248"
           style="stroke-width:0.352777">Intervención ante otras autoridades</tspan><tspan
           x="41.143082 46.604084 52.647167 61.632412 64.151253 70.194336 72.713165 78.174164 81.275085 84.968674 90.429665 93.530586 96.049416 101.51041 106.97142 112.43243 114.95125 120.99434 123.51316 126.032 132.07509 138.11816 140.63699 146.09799 148.61682 154.07784 156.59666 162.05766 167.51866"
           y="164.56146"
           id="tspan250"
           style="stroke-width:0.352777">administrativas o judiciales</tspan><tspan
           x="35.55508 38.655998 44.116997 50.160084 56.203167 61.664165 67.125168 69.643997 75.105003 78.798584 84.841667 90.302673 92.821503 98.282494 100.80134 109.78658 115.24758 121.29067 123.80951 129.27049 132.37141 136.06499 141.526 147.56908 153.61217 159.07317 161.592 167.63509 173.09608"
           y="177.26147"
           id="tspan252"
           style="stroke-width:0.352777">(consejeros y magistrados de</tspan><tspan
           x="35.025913 38.126831 41.820415 44.339249 50.382332 56.425415 62.468498 67.929504 70.448334 75.909332 81.370338 84.471252 86.990082 93.033173 98.494171 102.18775 107.64875 110.16759 115.62858 121.67167 124.1905 126.70934 129.22816 134.09648 139.5575 145.01851 147.53732 153.58041 159.62349 162.14233 168.18539 173.64641"
           y="189.96147"
           id="tspan254"
           style="stroke-width:0.352777">tribunales) para agilización de</tspan></text>
      <text
         style="font-variant:normal;font-weight:bold;font-stretch:normal;font-size:10.5833px;font-family:Helvetica;-inkscape-font-specification:Helvetica-Bold;writing-mode:lr-tb;fill:#ffffff;fill-opacity:1;fill-rule:nonzero;stroke:none;stroke-width:0.352777"
         id="text260"
         x="59.82267"
         y="202.66147"><tspan
           x="59.82267 62.92358 66.617172 72.078171 81.063416 83.582253 86.683174 92.144165 97.605164 100.124 105.585 108.10384 113.56483 119.60792 122.12675 127.58775 133.04875 136.74232 142.78542 148.82849 148.40517"
           y="202.66147"
           id="tspan258"
           style="stroke-width:0.352777">trámites a su cargo </tspan></text>
    </g>
  </g>
</svg>
