<?xml version="1.0" encoding="UTF-8" standalone="no"?>
<svg
   xmlns:dc="http://purl.org/dc/elements/1.1/"
   xmlns:cc="http://creativecommons.org/ns#"
   xmlns:rdf="http://www.w3.org/1999/02/22-rdf-syntax-ns#"
   xmlns:svg="http://www.w3.org/2000/svg"
   xmlns="http://www.w3.org/2000/svg"
   width="198.96652mm"
   height="102.32935mm"
   viewBox="0 0 198.96652 102.32935"
   version="1.1"
   id="svg321">
  <defs
     id="defs315">
    <clipPath
       clipPathUnits="userSpaceOnUse"
       id="clipPath22">
      <path
         d="m 385.96,2150.146 c -59.625,0 -107.96,-48.335 -107.96,-107.96 v 0 -31.08 c 0,-59.624 48.335,-107.96 107.96,-107.96 v 0 h 319.08 c 59.625,0 107.96,48.336 107.96,107.96 v 0 31.08 c 0,59.625 -48.335,107.96 -107.96,107.96 v 0 z"
         id="path20" />
    </clipPath>
    <linearGradient
       x1="0"
       y1="0"
       x2="1"
       y2="0"
       gradientUnits="userSpaceOnUse"
       gradientTransform="matrix(188.73611,0,0,188.73611,-24.64407,142.91199)"
       spreadMethod="pad"
       id="linearGradient32">
      <stop
         style="stop-opacity:1;stop-color:#036e6e"
         offset="0"
         id="stop28" />
      <stop
         style="stop-opacity:1;stop-color:#11e9ef"
         offset="1"
         id="stop30" />
    </linearGradient>
  </defs>
  <metadata
     id="metadata318">
    <rdf:RDF>
      <cc:Work
         rdf:about="">
        <dc:format>image/svg+xml</dc:format>
        <dc:type
           rdf:resource="http://purl.org/dc/dcmitype/StillImage" />
        <dc:title></dc:title>
      </cc:Work>
    </rdf:RDF>
  </metadata>
  <g
     id="layer1"
     transform="translate(24.64407,-84.150769)">
    <g
       id="g379">
      <path
         d="m 13.441818,99.344009 c -21.0343744,0 -38.085888,17.051511 -38.085888,38.085891 v 0 10.96433 c 0,21.03402 17.0515136,38.08589 38.085888,38.08589 v 0 H 126.00615 c 21.03437,0 38.08589,-17.05187 38.08589,-38.08589 v 0 -10.96433 c 0,-21.03438 -17.05152,-38.085891 -38.08589,-38.085891 v 0 z"
         style="fill:url(#linearGradient32);stroke:none;stroke-width:0.352778"
         id="path34" />
      <path
         d="m 165.69441,121.78477 c -0.11042,-0.0762 -1.62983,-1.1236 -1.51977,-1.04775 l 0.005,-0.007 -0.009,-0.005 c 2.73156,-4.07917 4.07706,-9.23961 4.17266,-14.17109 h 4.77555 c -0.16898,5.92208 -2.84762,11.42154 -7.42456,15.23083 m -5.57248,3.31152 c 0.78141,-0.58984 1.51518,-1.31445 1.40441,-1.20861 2.32763,-2.22744 1.63901,-2.3742 2.28671,-1.95122 0.55844,0.36513 0.99271,0.68722 0.88159,0.6089 -0.17286,0.12735 -0.34361,0.25788 -0.51929,0.37923 -1.38783,0.9585 -2.43664,1.52612 -4.05342,2.1717 m -8.9923,0.9398 c -2.25708,-1.6958 -3.61809,-6.98499 -3.58423,-6.86752 3.46146,-0.86854 6.6802,-0.82021 9.94834,0 -0.24906,0.65123 -2.02212,7.39599 -4.97417,7.39599 -0.22084,0 -1.50283,-0.61313 -1.38994,-0.52847 m -10.78477,-3.49073 c 1.57374,-1.10737 1.02235,-1.00224 2.0447,0.17392 2.29905,2.47826 3.15559,2.65994 2.04082,2.18334 -1.65665,-0.71473 -2.73333,-1.36137 -4.08552,-2.35726 m -8.42469,-15.99142 h 4.77591 c 0.0952,4.91984 1.4732,10.13989 4.17265,14.17109 l -0.01,0.005 0.005,0.007 c -0.15522,0.10724 0.56303,-0.38806 -1.51941,1.04775 -4.57694,-3.80929 -7.25558,-9.30875 -7.42492,-15.23083 m 7.42492,-16.426389 c 0.11006,0.0762 1.62983,1.124303 1.51941,1.048103 l -0.005,0.0078 0.009,0.0053 c -2.76084,4.123266 -4.07847,9.343326 -4.17195,14.170376 h -4.77591 c 0.16934,-5.922432 2.84798,-11.422237 7.42492,-15.231532 m 5.57141,-3.311172 c -0.78105,0.591256 -1.50953,1.310217 -1.39876,1.204031 -2.33045,2.227791 -1.64006,2.383366 -2.29623,1.952625 -0.53481,-0.34925 -0.98778,-0.684389 -0.87665,-0.606073 1.62913,-1.199797 2.83492,-1.855963 4.57164,-2.550583 m 12.57724,5.927372 c -3.33693,0.837495 -6.56449,0.849136 -9.94834,0 0.0515,-0.1143 1.04634,-4.152194 2.90125,-6.227233 l 0.0734,-0.07726 c 0.77505,-0.8382 1.4485,-1.018117 1.33597,-0.965553 3.59657,-1.296811 5.98064,8.255353 5.63774,7.270044 m 3.55741,-5.541786 c 1.48378,0.68192 2.5146,1.3335 3.64349,2.164997 -0.11183,0.07726 -0.38665,0.304095 -1.22873,0.830439 -1.13806,-1.500716 -2.33009,-2.536825 -2.22602,-2.441575 -1.06822,-0.976136 -1.76248,-1.273527 -0.18874,-0.553861 m 2.07257,32.90994 c -2.95487,-1.53635 -3.40431,-1.47461 -4.17089,-1.78823 l 0.002,-0.007 -0.005,-0.001 c 0.87877,-3.6636 1.29505,-7.86624 1.33279,-11.76126 h 6.8513 c -0.0861,4.64256 -1.27388,9.50736 -4.00967,13.55796 m -25.21797,-13.55796 h 6.8513 c 0.037,3.8227 0.44344,8.05286 1.33315,11.76126 l -0.005,0.001 0.002,0.007 -0.22754,0.0843 c -2.38796,0.76553 -4.05342,1.75366 -3.94335,1.70392 -2.66665,-3.94829 -3.92148,-8.79546 -4.01003,-13.55796 m 4.01073,-14.753522 c 2.96581,1.543756 3.40078,1.4732 4.17019,1.787878 l -0.002,0.0078 0.005,0.0011 c -0.88124,3.673475 -1.29717,8.050044 -1.33315,11.761964 h -6.8513 c 0.0882,-4.75403 1.32292,-9.589912 4.01073,-13.558662 m 25.21691,13.558662 h -6.8513 c -0.037,-3.82234 -0.44344,-8.054623 -1.33279,-11.761964 l 0.005,-0.0011 -0.002,-0.0078 c 3.37255,-1.253419 4.2806,-1.83515 4.17018,-1.787878 2.69981,3.986742 3.92289,8.844142 4.01038,13.558662 M 155.55134,85.801437 c 2.78624,0.826206 5.05531,2.672292 6.86047,5.015795 -2.56328,1.341261 -3.56094,1.518708 -3.76414,1.60408 -1.59561,-5.457119 -2.84727,-6.1341 -3.09633,-6.619875 m 2.2278,8.114242 c 0.92886,3.882319 1.26118,7.684201 1.29504,11.443401 h -13.10887 c 0.0353,-3.89784 0.40429,-7.720184 1.29505,-11.443401 3.37644,0.8382 6.94866,0.886178 10.51878,0 m -8.29099,-8.114242 c -0.0882,0.110773 -0.3877,0.486481 -0.29915,0.375709 -2.0126,2.774597 -2.59363,5.723114 -2.79718,6.244166 -2.58798,-0.872066 -3.87456,-1.652058 -3.76449,-1.60408 1.79564,-2.330803 4.0513,-4.182886 6.86082,-5.015795 m -7e-4,40.310153 c -2.82787,-0.84279 -5.0599,-2.67758 -6.86012,-5.01615 2.54529,-1.33103 3.45899,-1.48907 3.76484,-1.60443 1.79635,5.49345 2.98521,6.55778 3.09528,6.62058 m -2.22709,-8.11495 c -0.91652,-3.83081 -1.25977,-7.52157 -1.29505,-11.4427 h 13.10887 c -0.0339,3.76061 -0.3623,7.5438 -1.29504,11.4427 -3.61562,-0.90064 -7.1628,-0.83608 -10.51878,0 m 8.29169,8.11495 c 1.89759,-2.72239 2.08985,-3.4283 3.09492,-6.62058 0.23248,0.0928 1.50883,0.39052 3.58951,1.50742 l 0.17533,0.097 c -1.80551,2.34597 -4.05694,4.18077 -6.85976,5.01615 m 17.56692,-20.75251 h -4.77555 c -0.0938,-4.84787 -1.39947,-10.029468 -4.17195,-14.170373 l 0.008,-0.0053 -0.005,-0.0078 c 0.15311,-0.105128 -0.55527,0.383469 1.51977,-1.048103 4.57694,3.809295 7.25558,9.3091 7.42456,15.231526 m 1.18675,0 c -0.16757,-6.195476 -2.92771,-11.950692 -7.65987,-15.981179 l 0.0169,-0.01341 c -0.11112,-0.08819 -1.07068,-0.851606 -0.95955,-0.763411 l -0.0159,0.0127 c -7.95796,-6.056489 -18.657,-5.843764 -26.33521,0 l -0.0159,-0.0127 c -0.11113,0.08819 -1.05375,0.8382 -0.94263,0.750005 l -0.0169,0.01341 0.0169,0.01341 c -4.73216,4.030487 -7.49229,9.785703 -7.65986,15.981185 h -0.0169 v 1.19486 h 0.0169 c 0.16757,6.19478 2.9277,11.9507 7.65986,15.98048 l -0.0169,0.0134 c 0.11077,0.0882 1.07033,0.85196 0.95956,0.76341 l 0.0159,-0.0127 c 7.73289,5.88539 18.43476,6.01274 26.33521,0 l 0.0159,0.0127 c 0.11077,-0.0882 1.05339,-0.8382 0.94262,-0.75001 l 0.0169,-0.0134 -0.0169,-0.0134 c 4.73216,-4.02978 7.4923,-9.7857 7.65987,-15.98048 h 0.0169 v -1.19486 z"
         style="fill:#ffffff;fill-opacity:1;fill-rule:nonzero;stroke:none;stroke-width:0.352778"
         id="path146" />
      <text
         style="font-variant:normal;font-weight:bold;font-stretch:normal;font-size:10.5833px;font-family:Helvetica;-inkscape-font-specification:Helvetica-Bold;writing-mode:lr-tb;fill:#ffffff;fill-opacity:1;fill-rule:nonzero;stroke:none;stroke-width:0.352777"
         id="text284"
         x="-6.0777683"
         y="136.95164"><tspan
           x="-6.0777683 0.55798131 6.6010647 9.1198997 11.638733 17.099728 19.618565 22.719479 28.762566 34.805649 37.324478 43.367561 48.828568 51.347397 56.808395 62.851479 68.894562 74.35556 79.816566 85.85965 88.960564 95.003647 100.46465 102.98349 105.50232 111.54539 115.23898 117.75781 123.8009 126.31973 131.78073 137.82382 143.28482"
           y="136.95164"
           id="tspan280"
           style="stroke-width:0.352777">Solicitud de conceptos jurídicos</tspan><tspan
           x="-4.5220184 -1.4211026 4.6219826 10.665066 13.183899 16.87748 22.338482 24.857315 30.318314 35.779312 38.298149 44.341225 50.384315 55.845314 61.888397 67.93148 73.392479 75.911308 81.372314 87.41539 93.458473 95.977318 98.49614 103.95714 106.47598 109.57689 115.61998 121.66307 127.12405 129.6429 135.68599 141.72906"
           y="149.65164"
           id="tspan282"
           style="stroke-width:0.352777">(no relacionados con la función</tspan></text>
      <text
         style="font-variant:normal;font-weight:bold;font-stretch:normal;font-size:10.5833px;font-family:Helvetica;-inkscape-font-specification:Helvetica-Bold;writing-mode:lr-tb;fill:#ffffff;fill-opacity:1;fill-rule:nonzero;stroke:none;stroke-width:0.352777"
         id="text288"
         x="0.34631521"
         y="162.35164"><tspan
           x="0.34631521 5.8073139 11.850399 17.893482 23.354481 29.397564 31.916397 35.017311 37.536148 42.997147 48.458153 50.976982 57.020065 62.481064 64.999901 67.51873 72.979729 75.498566 82.7164 88.759476 92.453056 98.496147 104.53923 108.23282 113.6938 119.1548 121.67365 127.71672 133.75981 136.86073 136.43739"
           y="162.35164"
           id="tspan286"
           style="stroke-width:0.352777">consultiva de la Corporación) </tspan></text>
    </g>
  </g>
</svg>
