<?xml version="1.0" encoding="UTF-8" standalone="no"?>
<svg
   xmlns:dc="http://purl.org/dc/elements/1.1/"
   xmlns:cc="http://creativecommons.org/ns#"
   xmlns:rdf="http://www.w3.org/1999/02/22-rdf-syntax-ns#"
   xmlns:svg="http://www.w3.org/2000/svg"
   xmlns="http://www.w3.org/2000/svg"
   width="189.11581mm"
   height="92.481003mm"
   viewBox="0 0 189.11581 92.481003"
   version="1.1"
   id="svg659">
  <defs
     id="defs653">
    <clipPath
       clipPathUnits="userSpaceOnUse"
       id="clipPath62">
      <path
         d="m 1192.959,1850.146 c -59.624,0 -107.959,-48.335 -107.959,-107.959 v 0 -31.081 c 0,-59.625 48.335,-107.959 107.959,-107.959 v 0 h 319.082 c 59.624,0 107.959,48.334 107.959,107.959 v 0 31.081 c 0,59.624 -48.335,107.959 -107.959,107.959 v 0 z"
         id="path60" />
    </clipPath>
    <linearGradient
       x1="0"
       y1="0"
       x2="1"
       y2="0"
       gradientUnits="userSpaceOnUse"
       gradientTransform="matrix(188.73611,0,0,188.73611,-25.38654,193.09069)"
       spreadMethod="pad"
       id="linearGradient72">
      <stop
         style="stop-opacity:1;stop-color:#a31261"
         offset="0"
         id="stop68" />
      <stop
         style="stop-opacity:1;stop-color:#d82583"
         offset="1"
         id="stop70" />
    </linearGradient>
  </defs>
  <metadata
     id="metadata656">
    <rdf:RDF>
      <cc:Work
         rdf:about="">
        <dc:format>image/svg+xml</dc:format>
        <dc:type
           rdf:resource="http://purl.org/dc/dcmitype/StillImage" />
        <dc:title></dc:title>
      </cc:Work>
    </rdf:RDF>
  </metadata>
  <g
     id="layer1"
     transform="translate(-13.529628,-109.14601)">
    <g
       id="g705"
       transform="translate(39.295866,-35.031453)">
      <path
         d="m 12.698996,149.52271 c -21.034022,0 -38.085536,17.05151 -38.085536,38.08554 v 0 10.96468 c 0,21.03438 17.051514,38.08554 38.085536,38.08554 v 0 H 125.26403 c 21.03402,0 38.08554,-17.05116 38.08554,-38.08554 v 0 -10.96468 c 0,-21.03403 -17.05152,-38.08554 -38.08554,-38.08554 v 0 z"
         style="fill:url(#linearGradient72);stroke:none;stroke-width:0.352778"
         id="path74" />
      <path
         d="m -19.033614,162.87425 c -3.303764,-3.30376 -3.303764,-8.66033 0,-11.9641 3.303763,-3.30412 8.660341,-3.30412 11.9644571,0 3.303764,3.30377 3.303764,8.66034 -3.43e-4,11.9641 -3.3037641,3.30377 -8.6603421,3.30377 -11.9641061,0 m 14.9729471,-14.97294 c -4.965347,-4.96535 -13.0157361,-4.96499 -17.9810831,2.6e-4 -4.9657,4.9657 -4.966052,13.01574 -7.14e-4,17.98144 4.601281,4.60093 11.846277,4.93007 16.8356131,1.00506 l 2.274359,2.27436 -0.787048,0.7874 14.0892389,14.08924 c 0.56515,0.5648 1.481667,0.5648 2.046465,0 l 1.67922,-1.67922 c 0.56515,-0.5648 0.56515,-1.48167 0,-2.04646 l -14.08923686,-14.08924 -0.787048,0.78704 -2.27471104,-2.27436 c 3.92500404,-4.98933 3.59586404,-12.23468 -1.005064,-16.83561"
         style="fill:#ffffff;fill-opacity:1;fill-rule:nonzero;stroke:none;stroke-width:0.352777"
         id="path150" />
      <text
         style="font-variant:normal;font-weight:bold;font-stretch:normal;font-size:10.5833px;font-family:Helvetica;-inkscape-font-specification:Helvetica-Bold;writing-mode:lr-tb;white-space:pre;inline-size:119.445;fill:#ffffff;fill-opacity:1;fill-rule:nonzero;stroke:none;stroke-width:0.352777"
         id="text240"
         x="13.982074"
         y="195.28792"
         transform="translate(2.6226111,1.3347054)"
         xml:space="preserve"><tspan
           x="13.982074"
           y="195.28792"><tspan
             style="stroke-width:0.352777">Consultadeprocesos</tspan></tspan></text>
    </g>
  </g>
</svg>
