<?xml version="1.0" encoding="UTF-8" standalone="no"?>
<svg
   xmlns:dc="http://purl.org/dc/elements/1.1/"
   xmlns:cc="http://creativecommons.org/ns#"
   xmlns:rdf="http://www.w3.org/1999/02/22-rdf-syntax-ns#"
   xmlns:svg="http://www.w3.org/2000/svg"
   xmlns="http://www.w3.org/2000/svg"
   width="194.89555mm"
   height="98.071945mm"
   viewBox="0 0 194.89555 98.071945"
   version="1.1"
   id="svg557">
  <defs
     id="defs551">
    <clipPath
       clipPathUnits="userSpaceOnUse"
       id="clipPath42">
      <path
         d="m 383.96,1850.146 c -59.625,0 -107.96,-48.335 -107.96,-107.959 v 0 -31.081 c 0,-59.625 48.335,-107.959 107.96,-107.959 v 0 h 319.08 c 59.624,0 107.96,48.334 107.96,107.959 v 0 31.081 c 0,59.624 -48.336,107.959 -107.96,107.959 v 0 z"
         id="path40" />
    </clipPath>
    <linearGradient
       x1="0"
       y1="0"
       x2="1"
       y2="0"
       gradientUnits="userSpaceOnUse"
       gradientTransform="matrix(188.73611,0,0,188.73611,14.000567,143.18847)"
       spreadMethod="pad"
       id="linearGradient52">
      <stop
         style="stop-opacity:1;stop-color:#4b35a0"
         offset="0"
         id="stop48" />
      <stop
         style="stop-opacity:1;stop-color:#6d4ac6"
         offset="1"
         id="stop50" />
    </linearGradient>
  </defs>
  <metadata
     id="metadata554">
    <rdf:RDF>
      <cc:Work
         rdf:about="">
        <dc:format>image/svg+xml</dc:format>
        <dc:type
           rdf:resource="http://purl.org/dc/dcmitype/StillImage" />
        <dc:title></dc:title>
      </cc:Work>
    </rdf:RDF>
  </metadata>
  <g
     id="layer1"
     transform="translate(-14.000567,-88.684303)">
    <g
       id="g612">
      <path
         d="m 52.086455,99.62049 c -21.034375,0 -38.085888,17.05151 -38.085888,38.08554 v 0 10.96468 c 0,21.03438 17.051513,38.08554 38.085888,38.08554 v 0 H 164.65079 c 21.03402,0 38.08588,-17.05116 38.08588,-38.08554 v 0 -10.96468 c 0,-21.03403 -17.05186,-38.08554 -38.08588,-38.08554 v 0 z"
         style="fill:url(#linearGradient52);stroke:none;stroke-width:0.352778"
         id="path54" />
      <path
         d="m 195.51738,107.61965 c 0,3.06881 -2.48779,5.5566 -5.5566,5.5566 -3.06917,0 -5.55696,-2.48779 -5.55696,-5.5566 0,-3.06881 2.48779,-5.5566 5.55696,-5.5566 3.06881,0 5.5566,2.48779 5.5566,5.5566 m -5.5566,7.6768 c -4.24004,0 -7.6768,-3.43676 -7.6768,-7.6768 0,-4.23968 3.43676,-7.676797 7.6768,-7.676797 4.23968,0 7.67679,3.437117 7.67679,7.676797 0,4.24004 -3.43711,7.6768 -7.67679,7.6768 m 0,-16.514236 c -4.88068,0 -8.83744,3.956756 -8.83744,8.837436 0,4.88068 3.95676,8.83744 8.83744,8.83744 4.88033,0 8.83708,-3.95676 8.83708,-8.83744 0,-4.88068 -3.95675,-8.837436 -8.83708,-8.837436 m 0,20.183826 c -6.26639,0 -11.34639,-5.08 -11.34639,-11.34639 0,-6.26639 5.08,-11.346391 11.34639,-11.346391 6.26639,0 11.34604,5.080001 11.34604,11.346391 0,6.26639 -5.07965,11.34639 -11.34604,11.34639 m 18.37725,-14.10405 -1.88207,-0.26882 c -0.16334,-0.89394 -0.40111,-1.7593 -0.69991,-2.5975 l 1.49895,-1.17652 c 0.25435,-0.19967 0.32315,-0.55597 0.16122,-0.83608 l -2.1142,-3.662186 c -0.16192,-0.280106 -0.50482,-0.398639 -0.80468,-0.277989 l -1.76354,0.707672 c -0.58314,-0.684389 -1.21955,-1.3208 -1.90394,-1.903942 l 0.70767,-1.763536 c 0.1203,-0.300214 0.002,-0.643114 -0.27799,-0.804686 l -3.66218,-2.11455 c -0.28011,-0.161572 -0.63641,-0.09278 -0.83609,0.161572 l -1.17651,1.498953 c -0.83855,-0.298803 -1.70356,-0.536928 -2.5975,-0.699911 l -0.26917,-1.882422 c -0.0455,-0.31997 -0.31962,-0.557742 -0.64312,-0.557742 h -4.22874 c -0.3235,0 -0.59761,0.237772 -0.64312,0.557742 l -0.26917,1.882422 c -0.89393,0.162983 -1.75895,0.401108 -2.5975,0.699911 l -1.17651,-1.498953 c -0.19932,-0.254352 -0.55563,-0.323144 -0.83573,-0.161572 l -3.66254,2.11455 c -0.27975,0.161572 -0.39829,0.504472 -0.27799,0.804686 l 0.70767,1.763536 c -0.68439,0.583142 -1.32045,1.219553 -1.90359,1.903942 l -1.76389,-0.707672 c -0.29986,-0.12065 -0.64276,-0.0021 -0.80468,0.277989 l -2.1142,3.662186 c -0.16157,0.28011 -0.0928,0.63641 0.16157,0.83608 l 1.4986,1.17652 c -0.29845,0.8382 -0.53657,1.70356 -0.69956,2.5975 l -1.88242,0.26882 c -0.31997,0.0459 -0.55774,0.31997 -0.55774,0.64311 v 4.2291 c 0,0.32314 0.23777,0.59725 0.55774,0.64311 l 1.88242,0.26882 c 0.16299,0.89394 0.40076,1.7593 0.69956,2.5975 l -1.4986,1.17652 c -0.25435,0.19967 -0.32314,0.55597 -0.16157,0.83608 l 2.1142,3.66219 c 0.16192,0.2801 0.50482,0.39864 0.80468,0.27834 l 1.76389,-0.70803 c 0.58279,0.68474 1.2192,1.32116 1.90359,1.90394 l -0.70767,1.76354 c -0.1203,0.30021 -0.002,0.64311 0.27799,0.80469 l 3.66254,2.11455 c 0.2801,0.16157 0.63641,0.0928 0.83573,-0.16158 l 1.17651,-1.4986 c 0.83855,0.29881 1.70357,0.53658 2.5975,0.69956 l 0.26917,1.88243 c 0.0455,0.31996 0.31962,0.55774 0.64312,0.55774 h 4.22874 c 0.3235,0 0.59761,-0.23778 0.64312,-0.55774 l 0.26917,-1.88243 c 0.89394,-0.16298 1.75895,-0.40075 2.5975,-0.69956 l 1.17651,1.4986 c 0.19968,0.25436 0.55598,0.32315 0.83609,0.16158 l 3.66218,-2.11455 c 0.28011,-0.16158 0.39829,-0.50448 0.27799,-0.80469 l -0.70767,-1.76354 c 0.68439,-0.58314 1.3208,-1.21955 1.90394,-1.90394 l 1.76354,0.70803 c 0.29986,0.1203 0.64276,0.002 0.80468,-0.27834 l 2.1142,-3.66219 c 0.16193,-0.28011 0.0931,-0.63641 -0.16122,-0.83608 l -1.49895,-1.17616 c 0.2988,-0.83856 0.53657,-1.70392 0.69991,-2.59786 l 1.88207,-0.26882 c 0.32032,-0.0459 0.55809,-0.31997 0.55809,-0.64311 v -4.2291 c 0,-0.32314 -0.23777,-0.59725 -0.55809,-0.64311"
         style="fill:#ffffff;fill-opacity:1;fill-rule:nonzero;stroke:none;stroke-width:0.352778"
         id="path154" />
      <text
         style="font-variant:normal;font-weight:bold;font-stretch:normal;font-size:10.5833px;font-family:Helvetica;-inkscape-font-specification:Helvetica-Bold;writing-mode:lr-tb;fill:#ffffff;fill-opacity:1;fill-rule:nonzero;stroke:none;stroke-width:0.352777"
         id="text274"
         x="45.242176"
         y="142.7632"><tspan
           x="45.242176 47.761013 53.804089 56.90501 62.948093 66.64167 75.626923 81.087929 86.54892 89.067764 95.11084 101.15392 103.67275 109.13376 115.17684 121.21992 124.91351 130.37451 132.89334 138.35434 140.87315 146.91626 152.37726 158.42033 163.88133 166.40018 171.86118"
           y="142.7632"
           id="tspan272"
           style="stroke-width:0.352777">Información sobre vigencia</tspan></text>
      <text
         style="font-variant:normal;font-weight:bold;font-stretch:normal;font-size:10.5833px;font-family:Helvetica;-inkscape-font-specification:Helvetica-Bold;writing-mode:lr-tb;fill:#ffffff;fill-opacity:1;fill-rule:nonzero;stroke:none;stroke-width:0.352777"
         id="text278"
         x="83.691429"
         y="155.46318"><tspan
           x="83.691429 89.734505 95.195511 97.71434 103.75742 109.80051 113.49409 122.47935 127.94034 133.40134 132.97801 132.55467"
           y="155.46318"
           id="tspan276"
           style="stroke-width:0.352777">de normas  </tspan></text>
    </g>
  </g>
</svg>
