<?xml version="1.0" encoding="UTF-8" standalone="no"?>
<svg
   xmlns:dc="http://purl.org/dc/elements/1.1/"
   xmlns:cc="http://creativecommons.org/ns#"
   xmlns:rdf="http://www.w3.org/1999/02/22-rdf-syntax-ns#"
   xmlns:svg="http://www.w3.org/2000/svg"
   xmlns="http://www.w3.org/2000/svg"
   width="78.989029mm"
   height="76.234138mm"
   viewBox="0 0 78.989029 76.234138"
   version="1.1"
   id="svg3408">
  <defs
     id="defs3402" />
  <metadata
     id="metadata3405">
    <rdf:RDF>
      <cc:Work
         rdf:about="">
        <dc:format>image/svg+xml</dc:format>
        <dc:type
           rdf:resource="http://purl.org/dc/dcmitype/StillImage" />
        <dc:title></dc:title>
      </cc:Work>
    </rdf:RDF>
  </metadata>
  <g
     id="layer1"
     transform="translate(-66.269856,-92.538128)">
    <path
       id="path2954"
       style="fill:#8e2781;fill-opacity:1;fill-rule:nonzero;stroke:none;stroke-width:1.33333"
       d="m 527.67773,349.75586 c -0.82018,0.009 -1.64061,0.0257 -2.46093,0.0254 -83.34134,-0.0295 -166.68406,-0.0228 -250.02539,-0.0215 -14.67867,10e-4 -19.11333,2.88721 -24.72266,16.06054 v 196.29297 c 5.45155,13.08455 10.00746,16.05528 24.67187,16.05664 29.62267,0.004 59.24524,0.13919 88.86524,-0.125 5.30266,-0.048 6.3168,1.40254 5.35547,6.33985 -3.45734,17.78932 -10.7425,23.99522 -28.92383,24.03906 -1.76933,0.004 -3.53935,-0.0417 -5.30469,0.0195 -8.636,0.30002 -14.68328,6.26757 -14.7207,14.49023 -0.0387,8.64401 5.98189,14.84867 14.97656,14.87891 31.16933,0.10016 62.34105,0.043 93.51172,0.043 11.49468,0.004 22.98974,0.0646 34.48438,-0.0234 9.27469,-0.0693 15.482,-5.80862 15.63281,-14.22461 0.15866,-8.93333 -5.95614,-14.97194 -15.38281,-15.17187 -1.5467,-0.034 -3.09397,-0.008 -4.64063,-0.0117 -18.27069,-0.036 -25.9135,-6.63434 -29.02148,-24.67969 -0.73335,-4.26266 0.13942,-5.71175 4.83007,-5.67773 30.06267,0.20938 60.12802,0.11485 90.19336,0.10351 16.824,-0.008 24.00782,-7.27753 24.00782,-24.26953 0.004,-60.32398 0.0149,-120.64929 -0.008,-180.97461 -0.004,-11.92533 -4.63248,-19.07278 -13.95117,-22.30078 -2.448,-0.848 -4.90663,-0.89695 -7.36719,-0.86914 z m -127.67382,9.50391 h 0.002 c 41.77934,0 83.55918,-0.007 125.33984,0.008 10.54133,0.003 13.97096,3.3524 13.97852,13.8164 0.0268,49.93869 -0.0412,99.87579 0.10547,149.81446 0.012,4.43066 -0.87754,5.96179 -5.71485,6.12695 -5.70803,0.19465 -4.625,-3.13616 -4.625,-6.29883 -0.009,-47.72935 -0.004,-95.4556 -0.008,-143.18359 -0.001,-9.34403 -0.47054,-9.82617 -9.61719,-9.82617 -79.80268,-0.003 -159.60553,-0.003 -239.4082,0 -9.33733,0 -9.65883,0.32454 -9.66016,9.7539 -0.004,47.50798 -0.002,95.01546 0.002,142.52344 10e-4,3.61867 1.10534,7.1471 -5.22266,7.06055 -6.52666,-0.088 -5.00319,-3.97747 -5.00586,-7.41211 -0.0359,-49.49601 -0.0328,-98.9929 -0.0195,-148.49024 0.003,-10.48133 3.39023,-13.8806 13.85156,-13.88476 42.00068,-0.0163 84.00129,-0.008 126.00196,-0.008 z m -113.63868,19.79101 c 37.80134,0.25058 75.60358,0.13477 113.40625,0.13477 37.58132,0 75.16415,0.10164 112.74414,-0.11719 5.19735,-0.0307 7.15121,0.77509 7.11719,6.64844 -0.2759,45.51866 -0.23371,91.03993 -0.0391,136.55859 0.0213,5.08664 -1.08458,6.6616 -6.47656,6.64649 -75.60401,-0.19503 -151.20913,-0.20007 -226.81446,0.008 -5.52133,0.0147 -6.42432,-1.75085 -6.40429,-6.71485 0.17726,-45.51998 0.18703,-91.03993 -0.0156,-136.55859 -0.0227,-5.12398 1.14109,-6.63948 6.48242,-6.60547 z m 103.81446,10.54883 c -22.09999,0 -44.19821,-0.007 -66.29688,0.004 -8.24802,0.005 -8.54749,0.30084 -8.54883,8.6875 -0.003,28.49597 0.0129,56.99422 0.0234,85.49023 0.004,9.69286 0.009,9.70439 9.43164,9.70703 31.60267,0.005 63.20533,0.002 94.80664,0.002 14.76,0 14.75843,3.6e-4 19.53711,14.34571 0.20799,0.62664 0.52726,1.21726 0.75781,1.83594 1.71867,4.61465 4.69632,4.5911 8.32032,2.2871 2.77334,-1.7653 4.12914,-6.81814 7.73047,-5.63281 3.00132,0.98933 5.11761,4.65923 7.62695,7.14453 0.94133,0.93067 1.91311,1.83536 2.81445,2.80469 2.81197,3.02672 5.6008,3.0239 8.49414,0.0879 3.72133,-3.77333 7.34181,-7.66668 11.28711,-11.19336 4.27155,-3.816 4.35787,-7.25543 0.006,-10.93945 -1.344,-1.13866 -2.39564,-2.63931 -3.79297,-3.69531 -5.11869,-3.86801 -7.17633,-7.2724 -0.70703,-12.31641 4.52935,-3.53065 3.32065,-7.1424 -2.16601,-9.15039 -3.29466,-1.20533 -6.62855,-2.54317 -10.06055,-3.08984 -4.52266,-0.71732 -5.37373,-3.07311 -5.32422,-7.25977 0.23206,-19.87869 0.14479,-39.76124 0.15234,-59.64258 0.003,-9.43687 -0.0513,-9.47461 -9.77929,-9.47461 -21.43733,-0.003 -42.87454,-0.002 -64.31055,-0.002 z m 58.04687,9.39453 c 5.21734,-0.052 6.80137,1.27104 6.55078,6.53906 -0.42803,9.0251 -0.0906,9.04492 -9.25195,9.04492 h -55.65625 c -19.87599,10e-6 -39.75424,-0.12426 -59.62891,0.0957 -4.36266,0.0493 -5.60106,-1.18404 -5.51171,-5.55469 0.20533,-9.99488 -0.0422,-9.99805 10.20312,-9.99805 h 31.80274 c 27.16534,0 54.33083,0.14518 81.49218,-0.12695 z m -119.02734,25.10547 c 40.44533,0.11339 80.89124,0.10079 121.33789,0.0195 3.01867,-0.007 4.27676,0.61925 4.21289,3.97656 -0.20674,10.81202 -0.0762,21.63106 -0.0762,33.31641 -7.55868,-2.3147 -14.24078,-4.42938 -20.96875,-6.38672 -2.5067,-0.72933 -5.17753,-1.61905 -7.49219,0.59961 -2.37468,2.27599 -1.29945,4.91773 -0.57812,7.40039 1.65467,5.69601 3.44734,11.35173 5.2207,17.01172 0.79865,2.55069 0.67329,3.90392 -2.74805,3.89258 -33.15197,-0.11528 -66.30503,-0.12032 -99.45703,0.008 -3.51999,0.012 -3.84009,-1.4897 -3.82422,-4.3457 0.0987,-17.01067 0.14003,-34.0239 -0.0293,-51.03321 -0.0347,-3.44802 0.91434,-4.46654 4.40234,-4.45898 z m 30.68164,19.9668 c -6.28167,-0.001 -12.56371,0.01 -18.8457,0.0371 -4.08,0.0187 -5.87348,2.25855 -5.79883,6.31054 0.0999,5.50666 0.19335,11.0228 -0.0293,16.52149 -0.19466,4.79066 1.81065,6.89426 6.58399,6.79297 5.94799,-0.127 11.90285,-0.0315 17.85351,-0.0391 l -0.002,0.004 c 6.392,-0.008 12.78377,0.0166 19.17578,-0.0137 3.61867,-0.0173 5.8387,-1.47581 5.78125,-5.50781 -0.0877,-6.16668 -0.009,-12.33591 -0.0312,-18.50391 -0.016,-3.85202 -2.21511,-5.55702 -5.8418,-5.56836 -6.28199,-0.0195 -12.56404,-0.0322 -18.8457,-0.0332 z m 11.71094,9.49804 c 3.63073,0.0942 3.55986,2.39787 3.57226,5.33789 0.0147,3.116 0.18018,5.66111 -4.28515,5.17578 -3.48801,-0.37984 -7.05075,-0.0762 -10.58008,-0.0762 -3.088,0 -6.17967,-0.0925 -9.26367,0.0273 -3.63867,0.14135 -6.57806,0.61216 -6.49805,-5.0625 0.076,-5.33998 2.46897,-5.48681 6.43164,-5.36133 6.61067,0.20561 13.24766,0.29946 19.84766,-0.0312 0.27608,-0.0138 0.53334,-0.0161 0.77539,-0.01 z m 65.39062,12.79883 c 11.43334,3.41201 21.96397,6.553 32.72266,9.76367 -6.80134,8.01733 -6.76253,8.67547 0.55078,15.99414 1.24668,1.24933 2.37283,2.66428 3.77148,3.71094 3.35339,2.50934 3.41995,4.37067 0.30664,7.63867 -3.42402,3.59335 -5.27197,2.35421 -7.66796,-0.56445 -0.97471,-1.18798 -2.17487,-2.19059 -3.26954,-3.28125 -7.32,-7.29067 -8.25578,-7.35437 -16.67578,-0.73438 -3.18134,-10.62931 -6.29959,-21.04332 -9.73828,-32.52734 z m 95.59766,71.83789 c 5.51599,-0.0293 7.53138,1.38947 6.80469,6.91211 -0.42785,3.25735 -0.0594,6.61637 -0.082,9.92969 -0.0707,9.99333 -3.60928,13.59583 -13.52929,13.59961 -49.28002,0.0189 -98.56048,0.008 -147.8418,0.008 -34.47467,0 -68.95049,0.007 -103.42383,-0.004 -10.96666,-0.003 -14.29068,-3.29305 -14.33203,-14.0957 -0.064,-16.21867 -0.0641,-16.21875 15.83594,-16.21875 h 123.97461 c 44.19866,0 88.39777,0.10385 132.59375,-0.13086 z M 385.23633,548.75 c -3.22269,-0.005 -5.02433,1.65158 -5.05078,4.76758 -0.0253,3.17998 1.88437,4.72227 5.06836,4.71094 4.83201,-0.0189 9.66212,-0.004 14.49414,-0.004 4.83201,0 9.66408,-0.015 14.49609,0.004 3.192,0.012 5.08102,-1.55055 5.05078,-4.72657 -0.0306,-3.12 -1.84967,-4.75573 -5.06836,-4.75195 -9.66266,0.0202 -19.32624,0.0151 -28.99023,0 z m 31.07422,29.38867 c 2.77867,-0.0307 3.80699,0.81263 3.99218,3.69531 0.60401,9.33865 3.3581,18.02016 9.83008,26.38282 h -60.46289 c 5.828,-8.46667 9.14755,-17.35469 9.57422,-27.13868 0.12934,-2.98389 1.94213,-2.90417 4.02344,-2.90039 11.01468,0.0216 22.02965,0.0807 33.04297,-0.0391 z m 44.79101,39.7461 c 3.95732,-0.008 8.15651,0.0619 8.16406,5.2539 0.007,5.23797 -4.25699,5.22925 -8.17968,5.22656 -40.90798,-0.0202 -81.81725,-0.0189 -122.72656,0 -3.91467,10e-4 -8.17282,0.0491 -8.1543,-5.24023 0.0187,-5.24734 4.24121,-5.24389 8.17187,-5.23633 20.34401,0.034 40.68527,0.0156 61.0293,0.0156 v -0.002 c 20.56399,0 41.12996,0.0236 61.69531,-0.0176 z"
       transform="scale(0.26458333)" />
  </g>
</svg>
