<?xml version="1.0" encoding="UTF-8" standalone="no"?>
<svg
   xmlns:dc="http://purl.org/dc/elements/1.1/"
   xmlns:cc="http://creativecommons.org/ns#"
   xmlns:rdf="http://www.w3.org/1999/02/22-rdf-syntax-ns#"
   xmlns:svg="http://www.w3.org/2000/svg"
   xmlns="http://www.w3.org/2000/svg"
   width="84.868385mm"
   height="84.891594mm"
   viewBox="0 0 84.868385 84.891594"
   version="1.1"
   id="svg3476">
  <defs
     id="defs3470" />
  <metadata
     id="metadata3473">
    <rdf:RDF>
      <cc:Work
         rdf:about="">
        <dc:format>image/svg+xml</dc:format>
        <dc:type
           rdf:resource="http://purl.org/dc/dcmitype/StillImage" />
        <dc:title></dc:title>
      </cc:Work>
    </rdf:RDF>
  </metadata>
  <g
     id="layer1"
     transform="translate(-31.567919,-85.052682)">
    <path
       id="path2970"
       style="fill:#8e2781;fill-opacity:1;fill-rule:nonzero;stroke:none;stroke-width:1.33333"
       d="m 379.85938,321.45898 c -53.99331,0.0652 -107.98909,0.0409 -161.98243,0.0488 -6.736,10e-4 -8.78812,2.06655 -8.79492,8.81055 -0.0173,15.08 -0.0841,30.15961 0.0586,45.23828 0.0267,2.78934 -0.92713,4.41143 -3.11914,6.02344 -28.30399,20.81465 -38.09951,58.91263 -23.46484,90.91797 1.00133,2.19065 2.08866,4.34181 2.97266,6.17383 -1.81867,2.02268 -3.37097,3.7517 -4.9043,5.45703 -4.864,-3.92803 -7.49517,-4.40262 -10.45117,-2.0293 -2.84401,2.28401 -3.02227,5.44084 -0.0996,10.91016 -0.82667,0.56001 -2.04789,1.13527 -2.94922,2.03125 -13.74934,13.68933 -27.46726,27.41047 -41.16992,41.14648 -5.94533,5.95997 -7.99772,13.12009 -5.76172,21.21875 4.436,16.07732 24.10137,21.20885 36.10937,9.38086 13.90534,-13.69731 27.63906,-27.57007 41.40039,-41.41406 0.88934,-0.89602 1.37417,-2.19599 2.04883,-3.30664 0.26134,0.51333 0.52444,1.02831 0.78711,1.54297 2.61733,0.44265 5.23516,0.88466 8.53516,1.44335 v 3.53711 c 0.002,34.95198 -0.004,69.90409 0.006,104.85743 0.003,6.78667 2.03871,8.8541 8.74804,8.85546 71.17467,0.008 142.34682,0.008 213.52149,0.004 6.52532,0 8.67836,-2.12345 8.67969,-8.57812 0.006,-84.04933 -0.006,-168.09849 0.0449,-252.14649 10e-4,-3.38664 -1.01582,-5.97401 -3.45313,-8.38867 -16.10536,-15.96133 -32.14172,-31.99276 -48.09375,-48.10742 -2.496,-2.52134 -5.13596,-3.63225 -8.66796,-3.62696 z m -157.62696,13.2754 h 153.57813 v 3.55468 c -10e-4,12.86 -0.003,25.72008 -0.002,38.58008 10e-4,6.76802 2.05608,8.86146 8.71875,8.86524 12.85735,0.005 25.71492,0.003 38.57227,0.004 h 3.72656 v 243.3457 H 222.32812 V 511.69336 c 5.46534,1.34532 10.91929,3.04923 16.50196,4.00391 41.04933,7.01733 80.03552,-21.31087 86.24219,-62.68555 0.432,-2.87199 1.5391,-3.28881 4.00976,-3.28125 21.624,0.0718 43.24709,0.0576 64.87109,0.0273 5.78268,-0.008 9.15034,-4.4687 6.90235,-9.08203 -1.4027,-2.87603 -3.90218,-3.70287 -6.96485,-3.69531 -21.27467,0.0453 -42.54698,0.0228 -63.82031,0.0215 h -4.01172 c -0.63066,-4.19864 -1.23068,-8.20119 -1.91601,-12.75586 h 3.79297 c 21.624,0 43.24709,0.009 64.87109,-0.0254 1.49866,-0.003 3.0785,-0.0731 4.47852,-0.53711 2.884,-0.95467 4.33024,-3.25191 4.18359,-6.19726 -0.144,-2.92664 -1.73288,-5.10647 -4.71289,-5.81445 -1.45467,-0.3447 -3.01217,-0.3561 -4.52148,-0.35743 -23.02535,-0.02 -46.0528,-0.0571 -69.07813,0.0469 -2.596,0.012 -3.95758,-0.74516 -5.01758,-3.14649 -1.40133,-3.17469 -3.33457,-6.11365 -5.36523,-9.73632 10.42799,0 20.34119,-0.0364 30.25586,0.0195 3.136,0.0173 5.5066,-1.11183 6.69726,-4.0625 1.772,-4.39601 -1.36785,-8.65128 -6.47851,-8.67774 -12.97333,-0.0627 -25.94988,0.0602 -38.92188,-0.11328 -1.888,-0.0254 -4.09046,-0.83466 -5.59179,-2 -22.332,-17.32 -46.84129,-21.47925 -73.61329,-12.53125 -0.66266,0.22133 -1.31823,0.46309 -1.99023,0.64844 -0.204,0.056 -0.4531,-0.0468 -0.89844,-0.10547 z m 166.41406,10.53515 c 9.12533,9.12533 18.46939,18.46876 27.60938,27.60742 -8.11465,0 -17.03701,0.0395 -25.95703,-0.0898 -0.56134,-0.008 -1.57252,-1.31659 -1.58008,-2.03125 -0.11036,-8.71867 -0.0723,-17.43833 -0.0723,-25.48633 z m -70.49609,14.67383 c -8.4575,0.006 -16.91381,0.0579 -25.36914,0.19726 -2.01733,0.0333 -4.70952,1.77011 -5.85352,3.52344 -2.70266,4.14667 0.69802,9.10117 6.16602,9.20117 8.28,0.14933 16.56499,0.0391 24.84766,0.0391 v -0.01 c 8.516,0 17.03159,0.095 25.54492,-0.041 4.09333,-0.0653 6.80118,-2.93708 6.70117,-6.56641 -0.0973,-3.50267 -2.76006,-6.24446 -6.66406,-6.26563 -8.45734,-0.0447 -16.91555,-0.0845 -25.37305,-0.0781 z m -67.28516,19.42578 c 34.47334,-0.0533 62.40531,27.83354 62.42383,62.32422 0.0187,34.20265 -27.98603,62.20117 -62.2207,62.20117 -34.43867,0 -62.53757,-28.04765 -62.46289,-62.34765 0.0733,-34.26399 27.97177,-62.12558 62.25976,-62.17774 z m 125.4336,96.15625 c -3.79883,10e-4 -7.59654,0.008 -11.39453,0.008 -6.18002,0.007 -8.22461,2.0154 -8.22461,8.13672 -0.0151,16.484 0,32.96718 0,49.45117 l -0.0137,0.008 c 0,16.7173 -0.0128,33.435 0.0137,50.15234 0.008,5.32932 2.14671,7.56818 7.33203,7.60937 7.94664,0.0601 15.89515,0.0707 23.8418,0 4.81065,-0.044 7.22707,-2.3094 7.24218,-7.08007 0.0673,-33.668 0.0663,-67.33787 0.0156,-101.00586 -0.008,-4.96267 -2.46268,-7.23318 -7.41602,-7.25586 -3.79867,-0.0208 -7.59765,-0.0249 -11.39648,-0.0234 z m -6.61719,12.93945 h 12.32422 v 89.35352 h -12.32422 z m -176.87109,1.45704 c 3.4,3.43732 6.41739,6.49013 9.66406,9.77148 -0.95067,1.01333 -1.94687,2.0741 -3.04688,3.24609 -2.972,-3.264 -5.84939,-6.42442 -9.16406,-10.06445 0.39467,-0.45732 1.36554,-1.58244 2.54688,-2.95312 z m -13.94922,11.37304 c 4.25066,4.29869 8.16724,8.25925 12.2539,12.39258 -0.22133,0.264 -0.54878,0.71932 -0.93945,1.11133 -14.10667,14.12266 -28.20989,28.24767 -42.33789,42.34765 -3.48133,3.47335 -7.36904,4.1658 -11.0957,2.11914 -5.19867,-2.85467 -6.10895,-9.4781 -1.73828,-13.96874 6.10399,-6.2747 12.36092,-12.39901 18.54492,-18.59766 8.40266,-8.424 16.79783,-16.85761 25.3125,-25.4043 z m 145.59961,6.2793 c -3.857,-0.001 -7.71431,0.0105 -11.57032,0.0371 -5.27999,0.0373 -7.50441,2.20877 -7.51953,7.43945 -0.0385,22.79599 -0.0378,45.5901 0,68.38477 0.007,5.23064 2.23431,7.40556 7.51563,7.44336 7.59602,0.062 15.19367,0.0421 22.79101,0.0156 5.95733,-0.0213 8.03957,-2.07325 8.05469,-7.97461 0.034,-11.10535 0.0156,-22.21046 0.0156,-33.31445 l -0.006,-0.006 c 0,-11.45734 0.0256,-22.91121 -0.0156,-34.36719 -0.02,-5.45333 -2.19467,-7.59086 -7.69336,-7.62109 -3.85733,-0.0219 -7.71526,-0.0359 -11.57226,-0.0371 z M 318.48828,520.5 h 12.13867 v 57.38867 h -12.13867 z m -45.17187,12.64453 c -3.97267,-10e-4 -7.94529,0.0131 -11.91797,0.041 -4.87597,0.0347 -7.38566,2.43993 -7.41211,7.33593 -0.076,14.37468 -0.076,28.75037 0,43.125 0.028,4.96003 2.41875,7.20622 7.4414,7.24024 7.82801,0.0559 15.65637,0.0491 23.48438,0 5.28132,-0.0333 7.46976,-2.22017 7.5,-7.4375 0.0454,-7.128 0.0137,-14.2574 0.0137,-21.38672 l -0.006,0.008 c 0,-7.24531 0.0432,-14.49296 -0.0195,-21.73828 -0.04,-4.72267 -2.41401,-7.09231 -7.16601,-7.13086 -3.97267,-0.0376 -7.94531,-0.0553 -11.91797,-0.0566 z m -6.27344,13.14649 h 12.36914 v 31.52734 h -12.36914 z m -12.03125,57.54101 c -0.526,0.002 -1.05093,0.0163 -1.57227,0.0664 -3.36133,0.32266 -5.86107,3.03171 -5.86523,6.28906 -0.005,3.07601 2.36081,5.85478 5.49414,6.32812 1.032,0.1561 2.09839,0.084 3.15039,0.084 25.812,0.004 51.62221,0.004 77.43555,0.004 19.504,0 39.00966,-6.3e-4 58.51367,-0.002 0.70133,0 1.40023,0.0132 2.10156,-0.002 4.35198,-0.0907 7.25611,-2.64726 7.26367,-6.39258 0.009,-3.75466 -2.84886,-6.35169 -7.24218,-6.35547 -23.12533,-0.0302 -46.24967,-0.0143 -69.375,-0.0156 v 0.004 c -22.77467,0 -45.55151,-0.003 -68.32618,0 -0.52533,0 -1.05212,-0.01 -1.57812,-0.008 z"
       transform="scale(0.26458333)" />
  </g>
</svg>
