<?xml version="1.0" encoding="UTF-8" standalone="no"?>
<svg
   xmlns:dc="http://purl.org/dc/elements/1.1/"
   xmlns:cc="http://creativecommons.org/ns#"
   xmlns:rdf="http://www.w3.org/1999/02/22-rdf-syntax-ns#"
   xmlns:svg="http://www.w3.org/2000/svg"
   xmlns="http://www.w3.org/2000/svg"
   width="109.81245mm"
   height="113.23031mm"
   viewBox="0 0 109.81245 113.23031"
   version="1.1"
   id="svg3550">
  <defs
     id="defs3544" />
  <metadata
     id="metadata3547">
    <rdf:RDF>
      <cc:Work
         rdf:about="">
        <dc:format>image/svg+xml</dc:format>
        <dc:type
           rdf:resource="http://purl.org/dc/dcmitype/StillImage" />
        <dc:title></dc:title>
      </cc:Work>
    </rdf:RDF>
  </metadata>
  <g
     id="layer1"
     transform="translate(-54.706903,-101.37875)">
    <path
       id="path2988"
       style="fill:#8e2781;fill-opacity:1;fill-rule:nonzero;stroke:none;stroke-width:1.33333"
       d="m 444.57422,383.16602 c -11.69624,0.13087 -19.4588,6.01149 -26.75781,19.27148 -8.98398,16.32 -11.94449,34.47636 -15.39649,52.42969 -0.36669,1.90133 0.90071,4.95959 2.44336,6.23828 6.56803,5.45201 15.89056,2.70102 18.72656,-5.32031 0.98933,-2.79602 1.25786,-5.83985 2.08985,-8.70118 4.228,-14.53867 8.15141,-29.30656 20.02343,-39.94921 8.48667,-7.60532 18.09804,-4.39557 19.49805,6.92578 0.87867,7.09066 0.57788,14.59094 -0.71679,21.62695 -1.88667,10.25197 -5.19428,20.23796 -7.79297,30.36328 -1.11867,4.36003 -0.0641,7.84791 4.72656,9.22656 4.44797,1.2827 8.84632,0.59102 10.29297,-4.07031 4.69066,-15.11603 10.27806,-30.18108 12.6914,-45.70508 2.03736,-13.10536 0.78758,-27.02447 -10.95507,-36.89648 -2.15335,-0.62132 -4.30686,-1.24388 -6.46289,-1.86524 -3.092,-0.61065 -6.21078,-1.11431 -9.27344,-1.84765 -4.90166,-1.17334 -9.23797,-1.77019 -13.13672,-1.72656 z M 400.2168,475.9082 c -7.01634,0.01 -13.92028,1.3651 -20.46094,5.1211 -10.57467,6.07336 -21.18388,12.99781 -29.67188,21.61914 -19.57466,19.88001 -32.45062,44.09778 -40.75195,70.75781 -1.152,4.91066 -2.49245,9.78372 -3.42578,14.73437 -4.46667,23.73737 1.06596,45.75778 16.64063,63.3711 11.31999,12.80269 25.40763,24.02333 40.15429,32.75 29.46667,17.43734 73.36732,12.45216 99.7793,-9.25586 3.70001,-3.03999 7.4212,-6.58936 9.72656,-10.69336 8.04265,-14.31734 16.71736,-28.47679 22.83203,-43.63281 8.82002,-21.86533 9.25272,-45.19868 6.55274,-68.41602 -0.65201,-5.61199 -2.68803,-11.45086 -5.52539,-16.35351 -16.95731,-29.29202 -41.31075,-49.30133 -74.71875,-57.05469 -6.98733,-1.62132 -14.11453,-2.95726 -21.13086,-2.94727 z m -136.62891,15.64063 c -20.48945,-0.21966 -36.21772,8.96489 -47.71484,26.00586 -17.89467,26.52132 -8.53027,60.66692 20.3164,74.07226 3.544,1.64667 7.33315,2.77458 11.00782,4.14258 0.0318,-0.0996 0.0657,-0.19813 0.0976,-0.29883 3.05067,0.88131 6.05154,2.03374 9.1582,2.59375 11.68667,2.10932 22.58461,-7.51771 22.08594,-19.3457 -0.31467,-7.45735 -2.87681,-9.12205 -10.27148,-8.85937 -6.80267,0.244 -13.89164,0.15295 -20.43164,-1.48438 -14.87334,-3.72401 -20.84934,-18.85542 -13.5,-32.33008 8.83333,-16.19467 22.56023,-22.24902 40.3789,-17.81836 1.45067,0.36 2.90505,0.69902 4.37305,0.98438 4.96667,0.964 9.47918,0.35438 12.08984,-4.57227 2.568,-4.84403 0.80757,-9.11249 -2.64843,-12.75781 -6.212,-6.55468 -14.02469,-9.92673 -22.94336,-10.28125 -0.67088,-0.0267 -1.3371,-0.0437 -1.99805,-0.0508 z m 147.31445,2.60156 c 6.05033,0.0731 12.2412,1.06398 18.60157,3.20899 13.61469,4.59068 26.25116,11.35584 35.95117,22.0332 4.84399,5.33465 9.52435,12.13182 11.01367,18.97851 7.32136,33.65065 5.59084,66.89136 -11.78516,97.35938 -22.608,39.64664 -51.66777,46.73222 -93.39843,26.29492 -16.524,-8.09333 -28.80457,-22.43321 -40.97657,-36.08789 -6.36802,-7.14531 -8.00693,-16.45303 -6.57226,-25.87305 1.768,-11.62133 4.09399,-23.15742 6.47265,-36.35742 4.41867,-10.09599 9.17173,-21.65485 14.51172,-32.9375 4.76134,-10.06001 12.39813,-17.86744 22.07813,-23.2168 14.09899,-7.79124 28.64157,-13.58918 44.10351,-13.40234 z m -3.4082,19.00781 c -13.2022,0.068 -25.64373,6.34178 -36.02148,19.25977 -14.02534,17.46002 -25.33164,36.89461 -33.93164,61.78125 -3.80267,6.65601 -0.67096,15.62599 4.37304,24.75 11.30133,20.44532 30.28385,28.99476 51.5625,34.13476 8.4587,2.04133 16.87336,1.13916 24.60938,-2.6875 23.89066,-11.82001 41.14677,-28.92148 46.27344,-56.52148 5.30135,-28.52266 0.18168,-52.35702 -25.29297,-69.81836 C 428.49,516.8064 417.76252,513.10533 407.49414,513.1582 Z m -1.96875,23.59571 c 4.86952,-0.004 9.85562,1.36333 14.87695,3.95507 5.09065,2.62935 9.9543,5.983 14.29297,9.73633 13.988,12.10265 17.5509,29.14832 10.01758,48.65235 -5.12133,13.26398 -13.8091,24.39119 -23.89844,34.14453 -8.93601,8.63867 -19.90948,8.18822 -31.16015,4.60156 -5.976,-2.60935 -12.17348,-4.8082 -17.88282,-7.9082 -12.29066,-6.67064 -18.45062,-19.40197 -16.89062,-33.36328 1.60533,-14.36667 6.94901,-27.11645 16.76367,-37.73243 4.924,-5.32535 10.32286,-10.25952 15.85352,-14.96484 5.69849,-4.84724 11.76653,-7.1166 18.02734,-7.12109 z m -6.16992,18.53906 c -1.06813,0.0406 -2.10656,0.18007 -3.08789,0.44141 -11.21465,2.99066 -19.24505,10.75752 -24.37305,20.85351 -7.936,15.62801 -2.64464,31.03392 12.58203,38.89258 2.15199,1.10933 4.41025,2.011 6.57422,3.09765 5.95869,2.99188 11.92271,2.71512 17.77734,-0.1289 11.86001,-5.76 19.64283,-15.12818 23.66016,-26.66016 4.40134,-14.87735 1.41505,-21.96922 -11.51562,-28.81054 -3.95335,-2.09201 -7.70172,-4.84499 -11.90039,-6.125 -3.03599,-0.92702 -6.51242,-1.68225 -9.7168,-1.56055 z m 1.83203,17.04687 c 1.64393,0.0437 3.414,0.33947 5.3125,0.88672 8.91598,2.57069 12.12722,7.94855 9.75391,16.33789 -2.56267,9.06131 -13.45077,15.96542 -21.63477,13.71875 -7.16001,-1.96535 -10.46094,-8.89809 -8.09961,-17.02343 2.77115,-9.54527 7.54429,-14.10945 14.66797,-13.91993 z m 150.63281,3.22071 c -5.38262,0.14919 -9.55771,2.86047 -11.05273,7.52148 -2.30264,7.18534 0.782,13.01765 8.88867,16.12695 7.67467,2.94271 15.48125,5.53973 23.19727,8.37305 13.93999,5.12001 23.19436,18.42548 22.85156,32.74414 -0.19733,8.304 -3.49006,12.78561 -11.41406,15.26563 -11.46002,3.58533 -22.74384,3.3477 -33.97852,-1.26563 -7.76799,-3.18931 -15.65829,-6.13923 -23.6543,-8.69922 -5.87867,-1.88266 -8.84631,0.10974 -10.43164,5.90039 -1.99332,7.28667 0.0817,13.58797 6.95899,17.16797 22.79599,11.86934 46.71802,14.6933 70.94336,5.47461 15.84136,-6.02664 25.3241,-18.50247 27.27343,-35.50781 1.99601,-17.41599 -3.30005,-32.59505 -18.58007,-42.20703 -11.59733,-7.296 -24.24835,-12.92105 -36.42969,-19.28906 -0.25334,0.48268 -0.50849,0.96458 -0.76172,1.44726 -2.69333,-0.77733 -5.37609,-1.5922 -8.08008,-2.32422 -2.00766,-0.54266 -3.93626,-0.77824 -5.73047,-0.72851 z M 338.24805,709.46094 c -2.20891,0.0266 -5.64336,4.12705 -8.19336,6.51953 -1.29467,1.21334 -2.16195,3.10108 -2.72461,4.84375 -4.34933,13.46135 -8.95584,26.8576 -12.70117,40.48828 -2.24001,8.15599 0.16634,15.92142 5.40234,22.63477 6.98267,8.95332 15.38387,16.28451 25.5332,21.42187 24.82267,12.56667 49.05753,4.12317 60.40821,-21.24219 3.42134,-7.64266 5.92045,-15.69778 8.84179,-23.56445 -0.26933,-0.0881 -0.53867,-0.17756 -0.80664,-0.26562 2.016,-6.98933 4.44037,-13.8922 5.92969,-20.99219 1.28666,-6.13467 0.0227,-11.98015 -5.66797,-15.88281 -5.89198,-4.0427 -12.0413,-2.1867 -14.30664,4.58398 -1.35333,4.04931 -1.90848,8.36167 -2.98047,12.51367 -2.00534,7.76001 -3.41919,15.76643 -6.33789,23.17578 -6.76399,17.17198 -24.63363,23.80327 -39.9043,15.44727 -8.71733,-4.77067 -12.06072,-11.8616 -9.77539,-21.48828 2.02667,-8.53599 4.76877,-16.924 6.38477,-25.5293 0.864,-4.59734 1.07409,-9.87773 -0.39258,-14.17773 -1.19467,-3.51066 -4.91315,-7.53885 -8.28515,-8.4375 -0.13575,-0.0362 -0.27657,-0.0506 -0.42383,-0.0488 z"
       transform="scale(0.26458333)" />
  </g>
</svg>
