<?xml version="1.0" encoding="UTF-8" standalone="no"?>
<svg
   xmlns:dc="http://purl.org/dc/elements/1.1/"
   xmlns:cc="http://creativecommons.org/ns#"
   xmlns:rdf="http://www.w3.org/1999/02/22-rdf-syntax-ns#"
   xmlns:svg="http://www.w3.org/2000/svg"
   xmlns="http://www.w3.org/2000/svg"
   width="89.799896mm"
   height="98.38633mm"
   viewBox="0 0 89.799896 98.38633"
   version="1.1"
   id="svg3943">
  <defs
     id="defs3937" />
  <metadata
     id="metadata3940">
    <rdf:RDF>
      <cc:Work
         rdf:about="">
        <dc:format>image/svg+xml</dc:format>
        <dc:type
           rdf:resource="http://purl.org/dc/dcmitype/StillImage" />
        <dc:title></dc:title>
      </cc:Work>
    </rdf:RDF>
  </metadata>
  <g
     id="layer1"
     transform="translate(-33.719179,-107.2878)">
    <path
       id="path3064"
       style="fill:#8e2781;fill-opacity:1;fill-rule:nonzero;stroke:none;stroke-width:1.33333"
       d="m 360.02734,405.50391 c -40.77865,0 -81.55727,5e-4 -122.33593,0.0156 -4.684,10e-4 -7.11763,2.43146 -7.13086,7.07813 v 18.86523 118.64844 c 0,25.48131 4.4e-4,50.96201 0.0137,76.44336 0.001,0.89597 0.0354,1.8283 0.27539,2.68164 0.83866,2.9893 3.14954,4.56055 6.68555,4.56055 12.792,0.0151 25.58619,0.0156 38.38086,0.0156 h 1.83007 v 13.78711 H 166.25195 V 465.68945 h 22.50586 c 8.636,0.004 17.27221,0.0377 25.90821,-0.0156 2.568,-0.0147 4.65856,-1.12357 5.86523,-3.49024 2.324,-4.55867 -0.86372,-9.50781 -6.15039,-9.50781 -18.068,-0.0189 -36.13512,0 -54.20313,0 -0.476,0 -0.96364,0.0124 -1.43164,0.10156 -3.548,0.67469 -5.50586,3.19195 -5.50586,7.11328 v 108.40821 c 0,28.29864 0.0386,56.59784 -0.0547,84.89648 -0.0147,4.49069 3.03397,7.42906 7.41797,7.41016 28.19733,-0.13606 56.39703,-0.10585 84.5957,-0.11719 12.73866,-0.004 25.47875,0.0415 38.21875,0.0566 4.89866,0.005 7.33008,-2.46552 7.33008,-7.4082 v -17.43164 -1.7832 h 38.62304 v 1.83593 c 0,5.91734 -0.0132,11.83465 0,17.75196 0.012,4.56268 2.47882,7.02199 7.02149,7.03711 5.7,0.0151 11.40156,0.0137 17.10156,0.0137 35.44936,0 70.90088,10e-4 106.35156,-0.0137 4.32,-0.001 6.97071,-2.65428 6.97071,-6.96094 v -13.90235 c 0.0113,-35.11869 0.0273,-70.23681 0.0273,-105.35547 0,-24.73466 -0.041,-49.47041 -0.041,-74.20507 -0.003,-4.84135 -2.54252,-7.44532 -7.33984,-7.44532 -7.67335,-0.004 -15.34817,0.0176 -23.02148,0.0176 -10.34268,0 -20.68345,-0.0137 -31.02344,-0.0137 -1.96267,0.001 -3.66938,0.71241 -4.9707,2.17774 -1.83735,2.07201 -2.18852,4.50426 -1.08985,6.98828 1.20401,2.72398 3.53599,3.85156 6.44531,3.85156 h 46.03907 1.89258 V 647.5957 H 342.32812 v -13.78125 l 0.0117,-0.0215 h 2.23438 c 12.68534,0 25.36873,0.0151 38.05273,0 4.29869,-0.005 6.84817,-2.58628 6.86328,-6.87695 v -9.90821 c -0.0132,-16.31198 -0.0527,-32.62293 -0.0527,-48.93359 0,-23.50137 0.0391,-47.00195 0.0391,-70.50195 V 412.6582 c 0,-4.65199 -2.46201,-7.15429 -7.08203,-7.15429 -7.45599,-0.0151 -14.91118,0 -22.36719,0 z m -116.54101,12.9414 H 376.39648 V 620.83594 H 243.48633 Z m 68.2539,10.26758 c -2.67333,-0.009 -4.69853,1.28598 -5.89453,3.69531 -3.66666,7.38531 -7.34448,14.76567 -10.89648,22.20703 -0.576,1.20798 -1.30385,1.61584 -2.47852,1.78516 -8.05733,1.16134 -16.1053,2.39428 -24.16797,3.51563 -2.904,0.40399 -4.82755,1.88436 -5.71289,4.62304 -0.86666,2.67999 0.1,4.91296 2.0293,6.79297 5.83733,5.68532 11.67169,11.37083 17.54102,17.02149 0.86398,0.83066 1.1089,1.68125 0.90625,2.83593 -1.19867,6.81332 -2.35287,13.6319 -3.51953,20.44922 -0.28534,1.67868 -0.73498,3.35042 -0.82032,5.03711 -0.256,5.09065 5.18043,8.17734 9.8711,5.69336 7.29066,-3.85867 14.59624,-7.68916 21.8789,-11.5625 0.87467,-0.46556 1.58757,-0.52022 2.49024,-0.0176 2.97466,1.65336 5.99972,3.22317 9.01172,4.8125 4.376,2.30801 8.74924,4.61913 13.14257,6.89649 2.38534,1.2373 4.81456,1.14524 6.94922,-0.44141 2.16401,-1.60936 3.01339,-3.85639 2.52539,-6.62305 -1.408,-7.96667 -2.69058,-15.95539 -4.14258,-23.91406 -0.27866,-1.52402 0.11864,-2.47959 1.16797,-3.49023 5.87334,-5.64934 11.7085,-11.33782 17.53516,-17.03516 1.308,-1.27733 2.02198,-2.85334 1.97266,-4.72266 -0.0173,-3.08798 -2.25061,-5.72692 -5.33594,-6.26562 -1.468,-0.25731 -2.9433,-0.46722 -4.41797,-0.67774 -6.85067,-0.98267 -13.70197,-1.96915 -20.55664,-2.92382 -1.07733,-0.15066 -1.72495,-0.56553 -2.23828,-1.63086 -3.60134,-7.47202 -7.29666,-14.89859 -10.97266,-22.33594 -1.196,-2.41867 -3.19652,-3.71705 -5.86719,-3.72461 z m -0.0371,21.10156 c 1.29467,2.58535 2.47015,4.9133 3.63282,7.25196 1.25333,2.52136 2.51437,5.0414 3.73437,7.58007 1.20133,2.50133 3.25316,3.61688 5.92383,3.96875 4.8,0.63069 9.58567,1.36776 14.375,2.06641 0.34534,0.0506 0.6832,0.16249 0.72852,0.17383 -2.724,2.87467 -5.48963,5.80204 -8.26563,8.7207 -0.476,0.50136 -0.93495,1.03937 -1.48828,1.44336 -3.756,2.736 -4.00635,6.3484 -3.04102,10.53906 0.98667,4.28398 1.548,8.66478 2.36133,13.38477 -1.27333,-0.63466 -2.28977,-1.11991 -3.28711,-1.64258 -3.9,-2.04264 -7.79531,-4.0992 -11.69531,-6.14453 -1.98533,-1.04398 -3.96317,-1.02518 -5.95117,0.0215 -4.42267,2.328 -8.85707,4.63843 -13.28906,6.95313 -0.41734,0.21865 -0.84423,0.41785 -1.60157,0.78711 0.31734,-1.95198 0.5832,-3.6326 0.86719,-5.30859 0.62,-3.67068 1.21729,-7.34389 1.89063,-11.00391 0.44666,-2.41731 -0.26261,-4.40848 -1.97461,-6.08985 -3.64533,-3.58132 -7.30218,-7.15473 -10.96485,-10.71874 -0.224,-0.21861 -0.54628,-0.33402 -0.82226,-0.49805 0.0784,-0.15663 0.15405,-0.314 0.23242,-0.47071 5.048,-0.73734 10.08444,-1.57445 15.14844,-2.17578 3.18,-0.37867 5.25232,-1.89817 6.59765,-4.77148 2.16267,-4.61866 4.47801,-9.16508 6.88867,-14.06641 z m -117.54687,42.23047 c -2.12783,-0.003 -4.25615,-0.002 -6.38281,0.0234 -3.78667,0.044 -6.66318,2.91503 -6.64844,6.51367 0.0147,3.58534 2.78793,6.39347 6.55859,6.41992 8.45467,0.0593 16.90862,0.0324 25.36329,0.01 1.916,-0.005 3.70458,-0.51654 5.03124,-2.00586 1.828,-2.05066 2.34734,-4.45683 1.25,-6.96484 -1.14133,-2.60535 -3.2684,-3.98255 -6.17773,-3.98633 -4.204,-0.005 -8.40866,-0.002 -12.61133,-0.002 v 0.006 c -2.12733,0 -4.25498,-0.0102 -6.38281,-0.0137 z m 212.95703,0.0195 c -4.08401,0.0107 -6.90184,2.73945 -6.88672,6.57813 0.012,3.73066 2.83221,6.34841 6.90821,6.37109 4.10131,0.0227 8.20337,0.004 12.30468,0.004 h 12.46289 c 1.81066,0 3.49006,-0.40911 4.85938,-1.67578 2.016,-1.86535 2.75005,-4.82531 1.63672,-7.30664 -1.20802,-2.69201 -3.42674,-3.96497 -6.35742,-3.96875 -8.30933,-0.014 -16.61973,-0.0246 -24.92774,-0.002 z m -219.2793,25.83203 c -3.84,0.007 -6.71383,2.78507 -6.70703,6.42774 0.007,3.64532 2.86455,6.40688 6.69922,6.42578 4.20933,0.0189 8.41762,0.004 12.62695,0.004 v 0.006 h 6.23243 c 2.13066,0 4.26191,0.015 6.39257,-0.004 3.98667,-0.0387 6.77558,-2.73591 6.7461,-6.50391 -0.0267,-3.72268 -2.78628,-6.34595 -6.73828,-6.35351 -8.41734,-0.0165 -16.83329,-0.0171 -25.25196,-0.002 z m 244.38672,0 c -8.41202,-0.0124 -16.82494,-0.0132 -25.23828,0.002 -3.92799,0.005 -6.74049,2.66784 -6.74804,6.33984 -0.007,3.82934 2.72525,6.49686 6.72656,6.51953 4.20533,0.0227 8.41186,0.004 12.61718,0.004 V 530.75 c 4.25999,0 8.52064,0.0341 12.7793,-0.01 3.86,-0.0387 6.55147,-2.79714 6.50196,-6.5625 -0.048,-3.63998 -2.81735,-6.27747 -6.63868,-6.28125 z m -82.91211,25.69532 c -1.86283,0.003 -3.72522,0.0169 -5.58789,0.0176 -20.296,-10e-6 -40.59329,0.004 -60.89062,0.008 -5.91333,0 -11.8269,-0.0489 -17.74024,0.0312 -3.90266,0.0533 -6.68044,2.85938 -6.65625,6.49804 0.0267,3.70398 2.94045,6.4004 6.92579,6.4004 h 44.74804 v 0.002 h 3.03711 c 13.85067,0 27.70145,0.002 41.55078,-0.002 3.62667,-10e-4 6.24091,-2.06347 6.76758,-5.30079 0.66,-4.06533 -2.2504,-7.50153 -6.56641,-7.60547 -1.86199,-0.0444 -3.72505,-0.0522 -5.58789,-0.0488 z m -68.12304,30.05859 c -1.1435,-0.005 -2.28583,0.008 -3.42383,0.0801 -3.98134,0.2533 -6.51579,2.93485 -6.36914,6.54687 0.15466,3.85599 2.87121,6.35547 6.92187,6.35547 10.54134,0.003 21.08305,0.002 31.62305,0.002 v -0.002 c 10.76,0 21.52063,0.0149 32.2793,-0.008 2.632,-0.005 4.58348,-1.26433 5.77148,-3.59766 1.13467,-2.22667 0.93708,-4.40207 -0.43359,-6.49804 -1.52667,-2.33069 -3.83329,-2.85547 -6.39063,-2.85547 -18.85066,10e-4 -37.69949,10e-4 -56.54883,0.004 -1.14266,0 -2.28618,-0.0227 -3.42968,-0.0273 z m -16.34766,97.37695 c -7.3666,0.13292 -14.4909,1.94077 -21.27148,5.5625 -6.52001,3.48269 -12.75738,7.49637 -19.10938,11.29102 -10.82933,6.4707 -21.64589,12.9623 -32.47656,19.43164 -9.04133,5.4 -18.09529,10.77926 -27.14063,16.16992 -4.84666,2.88934 -9.68582,5.79168 -14.53515,8.67969 -6.44934,3.84 -12.91761,7.64762 -19.34961,11.51562 -3.52667,2.12134 -4.51226,6.06065 -2.4336,9.33399 1.94533,3.06531 5.84479,3.72588 9.30079,1.64453 6.248,-3.76267 12.5152,-7.49395 18.7832,-11.22461 8.644,-5.14533 17.30398,-10.26657 25.94531,-15.41992 10.97067,-6.54399 21.92982,-13.1107 32.89649,-19.66406 7.99733,-4.77997 15.99333,-9.5602 24,-14.32422 3.84133,-2.28665 7.54665,-4.87284 11.58398,-6.74219 15.18133,-7.02663 33.79165,-2.49893 44.34766,10.56641 3.70533,4.58668 8.4559,6.89919 14.36523,6.50586 9.78133,-0.65065 19.55532,-1.40831 29.33398,-2.09766 4.14534,-0.29201 8.29208,-0.71756 12.44141,-0.74024 5.064,-0.028 9.39805,4.18385 9.58203,8.92383 0.18,4.61333 -3.91591,9.18335 -8.78125,9.56055 -11.79333,0.91465 -23.59134,1.7318 -35.38867,2.5918 -4.40667,0.32266 -8.81546,0.60798 -13.2168,1 -3.912,0.34802 -6.31312,3.34829 -5.95312,7.26562 0.312,3.36934 3.49448,5.85435 7.14648,5.58789 1.16934,-0.0854 2.34239,-0.13138 3.51172,-0.21679 14.18267,-1.03733 28.35754,-2.16861 42.54688,-3.08594 7.23066,-0.46934 13.31515,-3.02814 18.03515,-8.60547 0.98934,-1.16931 1.80034,-2.59187 3.01367,-3.44922 5.16934,-3.65998 10.46057,-7.14437 15.69922,-10.70703 8.05603,-5.47733 16.08266,-11.00026 24.16797,-16.43359 2.9427,-1.97734 5.70078,-4.33171 9.30078,-5.15039 5.46135,-1.24268 10.38356,-0.21891 14.76758,3.34374 -0.14551,0.21313 -0.18424,0.31882 -0.26172,0.37891 -11.78532,9.12265 -23.5719,18.24408 -35.36523,27.35742 -9.69199,7.48664 -19.44517,14.89462 -29.0625,22.47461 -3.84267,3.02801 -7.89539,5.35628 -12.77539,6.15625 -4.148,0.68134 -8.27549,1.48094 -12.41016,2.23828 -12.03733,2.204 -24.08004,4.38688 -36.10937,6.63086 -5.64667,1.05468 -11.09965,0.61521 -16.07032,-2.35547 -5.93733,-3.54799 -11.71226,-7.37076 -17.57226,-11.05078 -3.95467,-2.48402 -7.73643,-5.37124 -12.3711,-6.47656 -8.268,-1.97201 -16.18455,-1.96481 -23.19921,4.00586 -9.64934,8.21601 -19.47655,16.22348 -29.19922,24.35547 -2.89734,2.424 -3.27365,6.56859 -0.95899,9.25391 2.44134,2.83332 6.60588,2.99712 9.56055,0.39843 1.08,-0.94934 2.19998,-1.84697 3.30664,-2.76562 8.15067,-6.768 16.29232,-13.54755 24.45899,-20.29688 1.54266,-1.27468 2.94881,-2.78237 5.13281,-3.03711 4.22266,-0.49066 8.12733,0.24622 11.75,2.57422 6.85333,4.40266 13.75858,8.72152 20.64258,13.07617 6.93066,4.38535 14.45972,6.57285 22.65039,5.51953 6.116,-0.78667 12.17986,-1.99269 18.25586,-3.08203 10.26,-1.83866 20.49824,-3.79865 30.76757,-5.58398 7.2,-1.25201 14.06785,-3.09085 19.97852,-7.76953 9.51735,-7.53468 19.20638,-14.85486 28.81836,-22.26953 8.55602,-6.6 17.10755,-13.20512 25.6582,-19.81446 5.94267,-4.59201 11.91625,-9.14305 17.79492,-13.8164 2.58936,-2.05731 3.04577,-5.51324 1.3711,-8.36524 -0.432,-0.7333 -0.90517,-1.44836 -1.42383,-2.12304 -7.464,-9.74533 -17.21816,-13.84807 -29.41016,-11.88672 -5.12798,0.82666 -9.45952,3.34881 -13.6582,6.27148 -8.03735,5.59469 -16.16683,11.05594 -24.26953,16.5586 -2.89731,1.968 -5.82565,3.89197 -8.82031,5.89062 -0.17334,-0.36401 -0.30939,-0.5834 -0.38672,-0.82227 -3.08267,-9.56001 -13.00985,-15.88078 -23.08985,-15.1621 -4.252,0.30398 -8.50581,0.54894 -12.75781,0.85546 -9.19066,0.66535 -18.37884,1.41026 -27.57617,1.96094 -1.16133,0.068 -2.79591,-0.49236 -3.50391,-1.3457 -8.108,-9.78399 -18.30893,-15.94977 -30.82226,-18.20313 -3.43959,-0.61874 -6.8371,-0.90416 -10.18555,-0.84375 z"
       transform="scale(0.26458333)" />
  </g>
</svg>
