<?xml version="1.0" encoding="UTF-8" standalone="no"?>
<svg
   xmlns:dc="http://purl.org/dc/elements/1.1/"
   xmlns:cc="http://creativecommons.org/ns#"
   xmlns:rdf="http://www.w3.org/1999/02/22-rdf-syntax-ns#"
   xmlns:svg="http://www.w3.org/2000/svg"
   xmlns="http://www.w3.org/2000/svg"
   width="89.799896mm"
   height="98.385162mm"
   viewBox="0 0 89.799896 98.385162"
   version="1.1"
   id="svg3649">
  <defs
     id="defs3643" />
  <metadata
     id="metadata3646">
    <rdf:RDF>
      <cc:Work
         rdf:about="">
        <dc:format>image/svg+xml</dc:format>
        <dc:type
           rdf:resource="http://purl.org/dc/dcmitype/StillImage" />
        <dc:title></dc:title>
      </cc:Work>
    </rdf:RDF>
  </metadata>
  <g
     id="layer1"
     transform="translate(-40.809185,-91.031941)">
    <path
       id="path3014"
       style="fill:#8e2781;fill-opacity:1;fill-rule:nonzero;stroke:none;stroke-width:1.33333"
       d="m 386.82227,344.06445 c -40.77865,0 -81.55533,5.1e-4 -122.33399,0.0156 -4.684,0 -7.11568,2.42818 -7.1289,7.07617 v 18.86719 118.64648 c 0,25.47999 -0.002,50.964 0.0117,76.44531 0,0.89602 0.0354,1.8283 0.27539,2.68165 0.83867,2.98801 3.15088,4.55859 6.68555,4.55859 12.79333,0.0151 25.58815,0.0156 38.38281,0.0156 h 1.83008 V 586.1582 H 193.04883 V 404.24805 h 22.50586 c 8.63733,0.004 17.27353,0.0377 25.9082,-0.0156 2.568,-0.016 4.65919,-1.12357 5.86719,-3.49023 2.324,-4.55868 -0.86435,-9.49465 -6.15235,-9.50977 -18.06666,-0.0189 -36.13512,0 -54.20312,0 -0.47734,0 -0.96302,0.0135 -1.42969,0.10156 -3.548,0.67465 -5.50781,3.19327 -5.50781,7.11329 v 108.4082 c 0,28.29864 0.0406,56.59975 -0.0527,84.89844 -0.0147,4.49064 3.03396,7.4271 7.41796,7.4082 28.19734,-0.1338 56.39314,-0.10402 84.5918,-0.11914 12.74,-0.003 25.48266,0.0435 38.22266,0.0586 4.89733,0.004 7.32812,-2.46552 7.32812,-7.4082 v -17.43164 -1.7832 h 38.6211 v 1.83789 c 0,5.9173 -0.0132,11.83461 0,17.75195 0.0133,4.56265 2.48273,7.02004 7.02539,7.03516 5.7,0.0151 11.39962,0.0156 17.09961,0.0156 35.45068,0 70.90087,-5.1e-4 106.35156,-0.0156 4.32,-10e-4 6.9707,-2.65365 6.9707,-6.95899 v -13.9043 c 0.0113,-35.11865 0.0273,-70.23677 0.0273,-105.35546 1e-5,-24.73467 -0.041,-49.46846 -0.041,-74.20313 -10e-4,-4.84267 -2.54057,-7.44922 -7.33789,-7.44922 -7.67467,0 -15.34877,0.0195 -23.02344,0.0195 -10.34132,0 -20.68275,-0.0156 -31.02539,-0.0156 -1.96002,0 -3.66679,0.71436 -4.9668,2.17969 -1.83734,2.07201 -2.19046,4.5043 -1.09179,6.98828 1.20533,2.72402 3.5373,3.85156 6.44531,3.85156 h 46.03906 1.89258 v 181.89453 h -111.4043 v -13.7793 l 0.01,-0.0176 h 2.23437 c 12.68267,0 25.3668,0.0151 38.05079,0 4.29599,-0.005 6.85194,-2.58629 6.86328,-6.87696 0.0151,-3.30266 0.0156,-6.60749 0.0156,-9.91015 -0.0268,-16.31199 -0.0547,-32.62161 -0.0547,-48.9336 0,-23.5 0.0274,-47.00003 0.0274,-70.5 V 351.2168 c 0,-4.65067 -2.46201,-7.15235 -7.08203,-7.15235 -7.45599,-0.0151 -14.91312,0 -22.36914,0 z M 270.2832,357 H 403.19531 V 559.39258 H 270.2832 Z m 68.25391,10.26758 c -2.67333,-0.008 -4.69915,1.28598 -5.89649,3.69531 -3.66666,7.38531 -7.34386,14.76762 -10.89453,22.20899 -0.576,1.20797 -1.30189,1.61583 -2.47656,1.78515 -8.05733,1.16134 -16.1053,2.39428 -24.16797,3.51563 -2.904,0.40399 -4.82755,1.88436 -5.71289,4.62304 -0.86666,2.67999 0.0986,4.91101 2.0293,6.79102 5.836,5.68532 11.67168,11.37278 17.54101,17.02344 0.86399,0.83066 1.10696,1.6793 0.9043,2.83398 -1.2,6.81199 -2.35286,13.63385 -3.51953,20.45117 -0.28667,1.67868 -0.73302,3.34715 -0.81836,5.03516 -0.256,5.09064 5.17847,8.17734 9.86914,5.69336 7.29066,-3.85867 14.59624,-7.68854 21.87891,-11.56055 0.876,-0.46556 1.58818,-0.52217 2.49218,-0.0195 2.97467,1.65199 5.99777,3.22258 9.00977,4.81055 4.37734,2.30936 8.7512,4.62303 13.14453,6.90039 2.38534,1.2373 4.81394,1.14524 6.94727,-0.44141 2.16533,-1.60936 3.01472,-3.85835 2.52539,-6.625 -1.408,-7.96668 -2.69058,-15.95672 -4.14258,-23.91406 -0.27867,-1.52402 0.1173,-2.47896 1.16797,-3.48828 5.87333,-5.64934 11.70789,-11.33782 17.5332,-17.03516 1.30802,-1.27733 2.02261,-2.85334 1.97461,-4.72266 -0.0187,-3.08798 -2.24927,-5.72951 -5.33594,-6.26953 -1.468,-0.25598 -2.94331,-0.46375 -4.41796,-0.67578 -6.8507,-0.98135 -13.70331,-1.96915 -20.55665,-2.92383 -1.07866,-0.15065 -1.72495,-0.56357 -2.23828,-1.6289 -3.60133,-7.47201 -7.29665,-14.89859 -10.97265,-22.33594 -1.196,-2.41866 -3.19786,-3.71862 -5.86719,-3.72656 z m -0.0352,21.10156 c 1.29467,2.58535 2.46953,4.91525 3.63086,7.25391 1.25467,2.52136 2.51571,5.03945 3.73438,7.57812 1.20133,2.50265 3.25316,3.61801 5.92383,3.96875 4.8,0.63201 9.58628,1.36776 14.37695,2.06641 0.34533,0.0506 0.68184,0.16249 0.72851,0.17383 -2.724,2.87599 -5.49291,5.80203 -8.26757,8.7207 -0.47601,0.50135 -0.93495,1.04132 -1.48829,1.44531 -3.756,2.736 -4.00572,6.34645 -3.03906,10.53711 0.98667,4.28398 1.54543,8.66673 2.35742,13.38672 -1.27333,-0.63466 -2.28782,-1.12123 -3.28515,-1.64258 -3.9,-2.04264 -7.79336,-4.10115 -11.69336,-6.14648 -1.98533,-1.04398 -3.96512,-1.02323 -5.95313,0.0234 -4.424,2.328 -8.85511,4.6371 -13.28711,6.95312 -0.41733,0.21732 -0.84618,0.41634 -1.60351,0.78711 0.31733,-1.95198 0.58319,-3.6326 0.86719,-5.30859 0.62,-3.67068 1.21729,-7.34389 1.89062,-11.00391 0.44667,-2.41731 -0.26199,-4.41044 -1.97265,-6.0918 -3.64667,-3.58133 -7.30414,-7.15278 -10.9668,-10.71679 -0.224,-0.21861 -0.54629,-0.33597 -0.82227,-0.5 0.0774,-0.15716 0.15573,-0.31348 0.23438,-0.47071 5.048,-0.73735 10.08248,-1.57313 15.14648,-2.17578 3.18,-0.37735 5.25428,-1.89817 6.59961,-4.77148 2.16267,-4.61866 4.47801,-9.16508 6.88867,-14.06641 z m -117.55078,42.23047 c -2.1275,-0.003 -4.25419,-0.002 -6.38086,0.0234 -3.78666,0.0454 -6.66166,2.91503 -6.64843,6.51367 0.016,3.58401 2.78792,6.39346 6.55859,6.41992 8.45466,0.0582 16.90861,0.0344 25.36328,0.0117 1.916,-0.005 3.70458,-0.51654 5.03125,-2.00586 1.82666,-2.05066 2.34733,-4.45682 1.25,-6.96484 -1.14133,-2.60535 -3.2684,-3.98451 -6.17773,-3.98828 -4.20401,-0.005 -8.40929,0 -12.61329,0 v 0.004 c -2.12733,0 -4.25531,-0.0102 -6.38281,-0.0137 z m 212.95899,0.0195 c -4.08533,0.0107 -6.90184,2.7414 -6.88672,6.58008 0.0133,3.73066 2.83085,6.34842 6.9082,6.37109 4.10132,0.0227 8.20337,0.004 12.30469,0.004 h 12.46484 c 1.81066,0 3.48942,-0.40911 4.85742,-1.67578 2.01733,-1.86667 2.75201,-4.82531 1.63868,-7.30664 -1.20802,-2.69201 -3.4287,-3.96497 -6.35938,-3.96875 -8.30933,-0.014 -16.61973,-0.0266 -24.92773,-0.004 z m 25.10937,25.83203 c -8.41334,-0.009 -16.8263,-0.009 -25.23828,0.002 -3.92799,0.005 -6.74049,2.6698 -6.74805,6.3418 -0.008,3.82934 2.72267,6.4949 6.72266,6.51758 4.20665,0.0227 8.41444,0.004 12.62109,0.004 v -0.01 c 4.25866,0 8.51869,0.0321 12.77735,-0.0117 3.85999,-0.0387 6.55304,-2.79714 6.5039,-6.5625 -0.048,-3.63999 -2.81734,-6.27747 -6.63867,-6.28125 z m -244.38672,0.002 c -3.84133,0.008 -6.71383,2.78702 -6.70703,6.42969 0.005,3.644 2.86455,6.40493 6.69922,6.42383 4.20934,0.0189 8.417,0.004 12.625,0.004 v 0.006 h 6.23242 c 2.13067,0 4.26254,0.0188 6.39453,-0.004 3.98667,-0.0373 6.77407,-2.73455 6.7461,-6.50391 -0.0267,-3.72132 -2.78629,-6.34595 -6.73828,-6.35351 -8.41734,-0.014 -16.83462,-0.0171 -25.25196,-0.002 z m 161.47266,25.69532 c -1.86267,0.003 -3.72523,0.0176 -5.58789,0.0176 -20.29733,0 -40.59134,0.004 -60.88867,0.008 -5.91334,0 -11.8269,-0.0489 -17.74024,0.0312 -3.90266,0.0533 -6.68044,2.85938 -6.65625,6.49804 0.0267,3.70398 2.9385,6.4004 6.92383,6.4004 h 44.75 v 0.002 h 3.03516 c 13.85066,0 27.70208,0.002 41.55273,-0.002 3.62668,-10e-4 6.23832,-2.06347 6.76367,-5.30079 0.65998,-4.06533 -2.24909,-7.50153 -6.5664,-7.60546 -1.86135,-0.0439 -3.72328,-0.0522 -5.58594,-0.0488 z m -161.47266,1.89648 c -3.84133,0.007 -6.71383,2.78507 -6.70703,6.42774 0.005,3.64531 2.86455,6.40688 6.69922,6.42578 4.20934,0.0189 8.417,0.004 12.625,0.004 v 0.006 h 6.23242 c 2.13067,0 4.26254,0.015 6.39453,-0.004 3.98667,-0.0387 6.77407,-2.73591 6.7461,-6.50391 -0.0267,-3.72268 -2.78629,-6.34596 -6.73828,-6.35351 -8.41734,-0.0165 -16.83462,-0.0171 -25.25196,-0.002 z m 218.23242,0 c -3.84132,0.007 -6.71654,2.78507 -6.70898,6.42774 0.007,3.64531 2.86459,6.40688 6.69922,6.42578 4.20933,0.0189 8.41894,0.004 12.62695,0.004 v 0.006 h 6.23242 c 2.12931,0 4.26191,0.015 6.39258,-0.004 3.98669,-0.0387 6.77633,-2.73591 6.7461,-6.50391 -0.0267,-3.72268 -2.7863,-6.34596 -6.73829,-6.35351 -8.41734,-0.0165 -16.83265,-0.0171 -25.25,-0.002 z m -218.23242,27.5918 c -3.84133,0.007 -6.71383,2.78702 -6.70703,6.42969 0.005,3.64531 2.86455,6.40493 6.69922,6.42382 4.20934,0.0189 8.417,0.004 12.625,0.004 v 0.008 h 6.23242 c 2.13067,0 4.26254,0.015 6.39453,-0.004 3.98667,-0.0373 6.77407,-2.73591 6.7461,-6.50391 -0.0267,-3.72268 -2.78629,-6.34791 -6.73828,-6.35547 -8.41734,-0.0165 -16.83462,-0.0171 -25.25196,-0.002 z m 218.23242,0 c -3.84132,0.007 -6.71654,2.78702 -6.70898,6.42969 0.007,3.64531 2.86459,6.40493 6.69922,6.42382 4.20933,0.0189 8.41894,0.004 12.62695,0.004 v 0.008 h 6.23242 c 2.12931,0 4.26191,0.015 6.39258,-0.004 3.98669,-0.0373 6.77633,-2.73591 6.7461,-6.50391 -0.0267,-3.72268 -2.7863,-6.34791 -6.73829,-6.35547 -8.41734,-0.0165 -16.83265,-0.0171 -25.25,-0.002 z m -124.88281,0.56836 c -1.14316,-0.005 -2.28583,0.009 -3.42383,0.082 -3.98133,0.2533 -6.51446,2.93486 -6.36914,6.54687 0.156,3.85599 2.87121,6.35411 6.92188,6.35547 10.54,0.003 21.08305,0.002 31.62305,0.002 v -0.002 c 10.76,0 21.51929,0.0149 32.27929,-0.008 2.632,-0.005 4.58215,-1.26433 5.77149,-3.59766 1.13466,-2.22667 0.93841,-4.40207 -0.4336,-6.49804 -1.52533,-2.33201 -3.83134,-2.85547 -6.38867,-2.85547 -18.85067,10e-4 -37.70011,6.3e-4 -56.55078,0.002 -1.14267,7.6e-4 -2.28652,-0.0227 -3.42969,-0.0273 z m -16.34765,97.3789 c -7.36691,0.13293 -14.49182,1.94077 -21.27149,5.5625 -6.52,3.48269 -12.75738,7.49637 -19.10937,11.29102 -10.82934,6.4707 -21.64785,12.9623 -32.47852,19.43164 -9.04,5.4 -18.09334,10.7773 -27.13867,16.16797 -4.848,2.88933 -9.68582,5.79363 -14.53516,8.68164 -6.44933,3.84 -12.91761,7.6463 -19.34961,11.51563 -3.52666,2.12001 -4.51226,6.06064 -2.43359,9.33398 1.94533,3.06531 5.84478,3.72588 9.30078,1.64453 6.248,-3.76267 12.51654,-7.49395 18.7832,-11.22461 8.64534,-5.14533 17.30532,-10.26657 25.94532,-15.41992 10.972,-6.54399 21.92981,-13.11266 32.89648,-19.66602 7.99734,-4.77996 15.99334,-9.55887 24,-14.32422 3.84133,-2.28532 7.54665,-4.87415 11.58398,-6.74218 15.18134,-7.02664 33.79166,-2.49698 44.34766,10.56836 3.70533,4.58668 8.4559,6.89724 14.36524,6.5039 9.78133,-0.65064 19.55531,-1.40831 29.33398,-2.09765 4.14667,-0.29333 8.29401,-0.71756 12.44336,-0.74024 5.064,-0.028 9.39683,4.18517 9.58203,8.92383 0.18002,4.61465 -3.91653,9.18335 -8.7832,9.56055 -11.79199,0.91464 -23.59134,1.7318 -35.38867,2.59179 -4.40667,0.32266 -8.81547,0.60799 -13.2168,1 -3.912,0.34802 -6.31313,3.34966 -5.95313,7.26563 0.312,3.3707 3.49644,5.85435 7.14844,5.58789 1.16933,-0.0854 2.34043,-0.12943 3.50977,-0.21484 14.18267,-1.03866 28.35949,-2.16924 42.54882,-3.08789 7.23067,-0.46802 13.31259,-3.02751 18.03126,-8.60352 0.99068,-1.16931 1.80228,-2.59382 3.01562,-3.45117 5.16934,-3.66131 10.46252,-7.1457 15.70117,-10.70703 8.05603,-5.47866 16.08202,-10.99831 24.16602,-16.43164 2.94402,-1.97734 5.7021,-4.33366 9.30078,-5.15235 5.46266,-1.24267 10.3855,-0.21695 14.76953,3.34571 -0.14665,0.2135 -0.18619,0.31685 -0.26367,0.37695 -11.78532,9.12264 -23.57253,18.24543 -35.36719,27.35742 -9.69067,7.488 -19.44383,14.89657 -29.0625,22.47656 -3.84132,3.02801 -7.89478,5.35628 -12.77344,6.15625 -4.14799,0.68002 -8.27549,1.48094 -12.41015,2.23828 -12.03733,2.204 -24.07809,4.38688 -36.10743,6.63086 -5.64666,1.05468 -11.10097,0.61521 -16.07031,-2.35547 -5.93733,-3.54799 -11.71226,-7.37076 -17.57226,-11.05078 -3.95467,-2.48402 -7.73705,-5.37124 -12.37305,-6.47656 -8.268,-1.97201 -16.18589,-1.96481 -23.19922,4.00586 -9.65067,8.21469 -19.47655,16.22348 -29.19922,24.35547 -2.89866,2.424 -3.27231,6.56859 -0.95898,9.25391 2.44267,2.83332 6.60588,2.99576 9.56054,0.39843 1.07867,-0.94934 2.19998,-1.84892 3.30665,-2.76757 8.15066,-6.76801 16.29427,-13.5456 24.46093,-20.29493 1.54134,-1.27468 2.94686,-2.78237 5.13086,-3.03711 4.22267,-0.49202 8.12734,0.24427 11.75,2.57227 6.85334,4.40133 13.75858,8.72347 20.64258,13.07812 6.93067,4.38535 14.45839,6.5709 22.65039,5.51758 6.116,-0.78667 12.18119,-1.99074 18.25586,-3.08008 10.26,-1.83998 20.49823,-3.79864 30.76758,-5.58398 7.2,-1.25201 14.06782,-3.09281 19.97851,-7.77148 9.51735,-7.53468 19.20638,-14.85486 28.81836,-22.26954 8.55602,-6.6 17.10755,-13.20316 25.65821,-19.8125 5.94134,-4.59201 11.91561,-9.14438 17.79297,-13.8164 2.59067,-2.05731 3.04771,-5.5152 1.37304,-8.36719 -0.432,-0.7333 -0.90648,-1.44641 -1.42383,-2.12109 -7.464,-9.74533 -17.21815,-13.84807 -29.41015,-11.88672 -5.12799,0.82666 -9.45757,3.34818 -13.65625,6.26953 -8.03736,5.59601 -16.17014,11.05789 -24.27149,16.56055 -2.89863,1.96667 -5.82564,3.89002 -8.82031,5.88867 -0.17329,-0.36401 -0.30728,-0.58145 -0.38476,-0.82031 -3.08266,-9.56002 -13.01181,-15.88079 -23.0918,-15.16211 -4.252,0.30398 -8.50777,0.54743 -12.75977,0.85546 -9.18933,0.66403 -18.37493,1.40967 -27.57226,1.95899 -1.16133,0.0693 -2.79787,-0.49041 -3.50586,-1.34375 -8.108,-9.78399 -18.30698,-15.95113 -30.82031,-18.20313 -3.43959,-0.61874 -6.83891,-0.90416 -10.1875,-0.84375 z"
       transform="scale(0.26458333)" />
  </g>
</svg>
