<?xml version="1.0" encoding="UTF-8" standalone="no"?>
<svg
   xmlns:dc="http://purl.org/dc/elements/1.1/"
   xmlns:cc="http://creativecommons.org/ns#"
   xmlns:rdf="http://www.w3.org/1999/02/22-rdf-syntax-ns#"
   xmlns:svg="http://www.w3.org/2000/svg"
   xmlns="http://www.w3.org/2000/svg"
   width="72.20623mm"
   height="79.658257mm"
   viewBox="0 0 72.20623 79.658257"
   version="1.1"
   id="svg3477">
  <defs
     id="defs3471" />
  <metadata
     id="metadata3474">
    <rdf:RDF>
      <cc:Work
         rdf:about="">
        <dc:format>image/svg+xml</dc:format>
        <dc:type
           rdf:resource="http://purl.org/dc/dcmitype/StillImage" />
        <dc:title></dc:title>
      </cc:Work>
    </rdf:RDF>
  </metadata>
  <g
     id="layer1"
     transform="translate(-57.634937,-108.30708)">
    <path
       id="path2922"
       style="fill:#8e2781;fill-opacity:1;fill-rule:nonzero;stroke:none;stroke-width:1.33333"
       d="m 353.37305,409.34961 c -0.24534,0.076 -0.48567,0.18801 -0.73633,0.22656 -8.46934,1.26936 -13.77469,6.27297 -15.55469,14.57031 -0.096,0.44535 -0.81302,0.98408 -1.31836,1.08008 -3.41467,0.65998 -6.87539,1.09499 -10.27539,1.82032 -21.58533,4.60131 -40.91151,13.94222 -57.96484,27.93554 -3.68534,3.024 -7.12841,6.34299 -10.45508,9.32031 1.84267,1.85602 3.47418,3.49803 5.10352,5.13672 26.68533,-27.22401 59.51229,-35.86591 75.26562,-37.2539 0.312,0.744 0.61107,1.51692 0.95508,2.26757 3.432,7.52134 10.83951,11.8263 18.46484,10.73829 8.15467,-1.16266 14.24993,-7.36036 15.44727,-15.70703 1.08133,-7.53336 -3.17755,-15.28265 -10.32422,-18.39063 -2.01333,-0.8747 -4.27388,-1.1788 -6.42188,-1.74414 z m 1,7.01758 c 5.97733,-0.0493 11.10444,4.99281 11.14843,10.96484 0.0453,5.96799 -5.0231,11.07082 -11.00976,11.08594 -6.00533,0.0147 -11.07385,-5.00808 -11.09766,-10.99609 -0.024,-6.13732 4.79765,-11.00254 10.95899,-11.05469 z m 33.25,11.45117 c -0.65598,2.46799 -1.23614,4.65399 -1.82813,6.88867 29.73997,7.52935 53.81558,23.35061 72.1836,47.78125 -8.22668,8.97336 -5.58671,20.27287 -0.47071,25.38086 6.31733,6.30535 15.671,7.39467 23.09766,2.41602 7.05732,-4.73201 9.61404,-14.1101 6.02734,-22.30078 -1.69598,-3.87599 -4.61236,-6.63572 -8.3457,-8.51172 -4.65335,-2.33866 -9.4555,-2.49227 -14.27149,-0.62696 -19.72267,-25.65063 -44.88454,-42.94202 -76.39257,-51.02734 z m -148.76953,47.98437 c -6.197,0.19975 -11.93793,3.28222 -15.04493,8.61719 -4.184,7.18401 -2.86887,16.1496 3.3418,21.9336 0.98933,0.92133 1.06656,1.57906 0.58789,2.76171 -5.97867,14.78268 -9.27718,30.15322 -9.83984,46.08789 -0.41067,11.60402 1.14697,23.02572 3.54297,34.34571 0.63866,3.02003 1.49415,5.99663 2.27148,9.08594 2.284,-0.65999 4.30671,-1.24637 6.4707,-1.87305 -4.28,-14.27067 -5.58136,-28.73974 -4.83203,-43.42774 0.75067,-14.69869 3.84526,-28.8717 9.41992,-42.51171 2.80667,0 5.54007,0.33411 8.16407,-0.0605 7.968,-1.2 14.02032,-8.18626 14.59765,-16.23828 0.504,-7.03064 -4.99477,-15.81289 -12.41211,-17.93555 -2.08633,-0.597 -4.20191,-0.85174 -6.26757,-0.78516 z m 0.94726,6.34961 c 6.24,0.02 11.20524,5.12636 11.14258,11.45704 -0.0573,5.75334 -5.00517,10.39194 -11.0625,10.37304 -6.10533,-0.0213 -11.28855,-5.01555 -11.26172,-10.85156 0.0267,-5.87599 5.24164,-10.99741 11.18164,-10.97852 z m 231.08008,2.35938 c 5.67598,-0.04 10.52906,4.86755 10.5918,10.71289 0.0613,5.79466 -4.90244,10.80588 -10.67578,10.7832 -6.11067,-0.0266 -10.91433,-4.70891 -10.95704,-10.68359 -0.0413,-5.86798 4.96237,-10.76866 11.04102,-10.8125 z m -86.34961,10.99023 c -4.4175,0.0911 -8.91318,1.30394 -13.10352,3.83594 -0.97866,0.59059 -1.64834,0.57405 -2.65234,0.082 -9.364,-4.58279 -18.81794,-4.64379 -28.22461,-0.17578 -1.348,0.64139 -2.25224,0.61129 -3.51758,-0.082 -5.17733,-2.83869 -10.65467,-4.15989 -16.63867,-3.39453 -14.98933,1.91463 -25.87602,16.7549 -23.05469,31.60156 3.07601,16.19467 18.39055,25.76428 34.31055,21.4043 0.87067,-0.23868 1.4096,-0.10037 2.07227,0.48633 11.99733,10.61178 29.41155,10.58257 41.57422,0.004 0.43866,-0.3815 1.28005,-0.53394 1.88671,-0.45117 2.56399,0.34534 5.11136,0.82005 7.66602,1.24805 v 0.002 c 16.06934,-0.18935 28.59747,-14.18308 26.9668,-30.31641 -1.48499,-14.684 -14.03266,-24.51738 -27.28516,-24.24414 z m -29.93164,6.90625 c 13.1,0.0627 23.83019,10.94394 23.77539,24.11328 -0.0533,13.06133 -10.86156,23.76266 -23.96289,23.73243 -13.17334,-0.032 -23.88482,-10.80812 -23.85156,-23.9961 0.0333,-13.11866 10.91106,-23.91084 24.03906,-23.84961 z m -30.83594,0.006 c 3.2341,-0.065 6.4598,0.68541 9.3418,2.31641 -9.92933,11.43333 -11.9927,23.71201 -4.58203,37.13867 -6.03734,2.64533 -16.2079,-0.94065 -20.86524,-7.33398 -5.58266,-7.66398 -4.99527,-18.16067 1.41407,-25.30469 3.88749,-4.33498 9.30123,-6.7081 14.6914,-6.81641 z m 61.60352,0.0449 c 4.4383,0.0703 9.00215,1.7519 12.59765,4.91016 7.22533,6.34534 9.19384,16.23665 4.86719,24.47266 -4.31335,8.21333 -13.71398,12.70783 -22.47265,10.5625 3.30266,-6.06267 5.17672,-12.4151 4.24609,-19.3711 -0.9227,-6.89866 -3.98693,-12.71331 -8.84961,-17.75195 2.78484,-1.95651 6.15932,-2.87695 9.61133,-2.82227 z m 100.69922,22.97071 c -2.42665,0.65998 -4.60891,1.25437 -6.57422,1.78906 0.98664,5.87599 2.15013,11.52453 2.85547,17.22852 2.76264,22.35998 -0.39608,43.92389 -8.9961,64.72656 -0.45331,1.09727 -0.96578,1.29521 -2.06445,1.14062 -3.99198,-0.56133 -7.89229,-0.19966 -11.54297,1.65235 -7.09731,3.60397 -11.09254,12.03047 -9.2832,19.50781 2.09998,8.67333 8.95484,14.15302 17.63086,14.0918 7.42397,-0.052 13.45176,-4.26991 16.39843,-11.11524 2.372,-5.50666 1.37001,-15.5483 -3.64062,-19.51367 -1.07467,-0.85066 -1.04412,-1.59227 -0.55078,-2.76562 5.42664,-12.936 8.74779,-26.39403 9.86914,-40.38868 0.16932,-2.11332 0.37945,-4.22589 0.57031,-6.33789 v -10.92578 c -0.0854,-0.50664 -0.22537,-1.00957 -0.24805,-1.51758 -0.316,-7.81466 -1.41815,-15.51968 -3.21679,-23.125 -0.34934,-1.48403 -0.79635,-2.9446 -1.20703,-4.44726 z m -81.92383,23.09179 c -2.63732,5.10664 -5.20355,10.07901 -7.79688,15.09766 -6.50267,-2.31734 -12.88754,-4.59103 -19.29687,-6.875 -0.34133,0.60265 -0.60365,1.04469 -0.84766,1.49805 -5.396,10.01866 -10.96051,19.95211 -16.08984,30.10547 -1.71467,3.39065 -3.63502,5.00217 -7.42969,4.32617 -1.008,-0.17866 -1.62853,-0.34717 -2.14453,-1.3125 -5.89733,-11.04801 -11.85039,-22.06583 -17.78906,-33.08985 -0.264,-0.49065 -0.53977,-0.9754 -0.84375,-1.52343 -6.50267,2.31469 -12.88717,4.58831 -19.3125,6.875 -2.64134,-5.11469 -5.20888,-10.08894 -7.79688,-15.09961 -0.45067,0.13039 -0.79813,0.21335 -1.13281,0.33203 -5.72667,2.03735 -11.48211,3.99942 -17.16211,6.16211 -2.30267,0.87734 -4.61328,1.94592 -6.61328,3.36328 -5.828,4.12932 -9.09013,10.09008 -10.07813,16.96875 -1.40133,9.76932 -2.19183,19.62587 -3.20117,29.45117 -0.13051,1.26535 -0.0176,2.55686 -0.0176,4.01953 h 23.34766 c -0.32933,5.40665 -0.64678,10.62377 -0.9668,15.89844 h 131.91797 c -0.32666,-5.36134 -0.64459,-10.60871 -0.97265,-15.99805 h 23.23046 c -0.28932,-1.92264 -0.70295,-3.69751 -0.80273,-5.49218 -0.51602,-9.35203 -1.32119,-18.68449 -3.17187,-27.86719 -0.96133,-4.76531 -2.44996,-9.47339 -5.72461,-13.30274 -2.79466,-3.27065 -6.27726,-5.58052 -10.33594,-7.00586 -5.78,-2.03198 -11.56234,-4.05557 -17.34766,-6.07421 -0.51866,-0.18142 -1.05843,-0.30094 -1.62109,-0.45704 z m -102.60742,7.74805 c 1.67733,3.19733 3.34811,6.38036 5.05078,9.62305 -0.60933,0.38532 -1.13368,0.71043 -1.65235,1.04492 -8.26266,5.31334 -11.82138,13.32677 -13.02539,22.68945 -0.45066,3.5 -0.86561,7.00339 -1.34961,10.49805 -0.04,0.29197 -0.47385,0.7584 -0.72851,0.75977 -5.392,0.0453 -10.78452,0.0332 -16.36719,0.0332 0.244,-3.11067 0.4134,-6.05442 0.71875,-8.98242 0.484,-4.64803 0.88543,-9.31388 1.63477,-13.92188 1.35066,-8.304 5.30415,-14.634 13.79882,-17.38867 3.94267,-1.27865 7.79592,-2.83814 11.91993,-4.35547 z m 106.41406,0.75586 c 5.48799,2.28533 11.06445,4.18637 16.23242,6.87305 5.6267,2.92667 8.04113,8.44842 8.89844,14.42578 1.03869,7.24131 1.56665,14.55582 2.30664,21.83984 0.045,0.46001 0.004,0.92788 0.004,1.67188 l -9.10546,0.002 c -2.13067,0 -4.2626,-0.062 -6.39063,0.0234 -1.14531,0.0453 -1.4861,-0.34793 -1.60742,-1.47461 -0.4907,-4.59334 -0.76958,-9.24548 -1.74023,-13.74414 -1.76667,-8.19334 -5.73989,-15.0842 -13.22657,-19.49219 -0.12809,-0.0761 -0.22522,-0.2065 -0.45312,-0.42383 1.63869,-3.12797 3.29,-6.2785 5.08203,-9.70117 z m -79.33594,8.39453 c 0.40267,0.71067 0.71849,1.24054 1.00781,1.7832 5.576,10.45335 11.16322,20.89972 16.69922,31.37305 0.55067,1.04266 1.11981,1.51266 2.36914,1.48242 3.744,-0.10091 7.49233,-0.0853 11.23633,-0.008 1.11067,0.0227 1.65572,-0.39285 2.15039,-1.32617 5.596,-10.56 11.23013,-21.09857 16.85547,-31.64258 0.26665,-0.49863 0.55047,-0.98891 0.89063,-1.59961 5.38669,1.85337 10.77352,3.56872 16.04687,5.58203 2.18933,0.83736 4.34569,2.05692 6.15234,3.54493 4.76402,3.92265 6.6804,9.54326 7.53907,15.30859 1.25465,8.424 1.83971,16.94703 2.70507,25.42969 0.068,0.65601 0.0883,1.31913 0.13477,2.06445 H 296.01367 c 0.232,-3.14668 0.35379,-6.20246 0.70313,-9.23047 0.60666,-5.26397 1.5787,-10.49413 1.9707,-15.77148 0.308,-4.14131 1.32009,-7.97277 3.21875,-11.60743 1.856,-3.556 4.47291,-6.55404 8.12891,-8.13671 6.07866,-2.63335 12.34345,-4.84077 18.57812,-7.2461 z m -90.41797,42 c -3.04853,0.0506 -6.12734,0.8818 -8.96484,2.5293 -7.636,4.43467 -10.19221,13.62959 -7.04688,21.57226 1.64534,4.16002 4.36899,7.28072 8.20899,9.44336 4.976,2.80404 10.17421,2.90481 15.43554,0.93946 18.64667,23.84534 42.09638,40.43024 71.34571,48.76758 0.636,-2.22267 1.21984,-4.25675 1.83984,-6.41407 -27.65333,-8.05466 -49.96004,-23.59965 -67.60937,-45.98633 7.58133,-8.44531 5.84281,-18.80766 0.52148,-24.76367 -3.6525,-4.08831 -8.64958,-6.17227 -13.73047,-6.08789 z m 1.25977,7.33008 c 5.85333,0.14668 10.5617,5.03357 10.42969,10.82422 -0.14267,6.32935 -4.76096,11.17456 -10.51563,11.0332 -6.33467,-0.15602 -11.6492,-5.44134 -11.47852,-11.41601 0.16934,-5.93866 5.32846,-10.5975 11.56446,-10.44141 z m 229.10742,1.84375 c 6.28668,0.0213 11.0082,4.85203 11.05469,11.27734 0.032,4.58669 -3.91885,11.03357 -11.29883,10.96289 -6.04532,10e-4 -10.99924,-4.97596 -10.97656,-11.02929 0.024,-6.18134 5.07935,-11.23362 11.2207,-11.21094 z m -22.66797,34.69727 c -20.74934,20.28532 -45.49915,32.5586 -74.3125,36.61328 -2.908,-9.70666 -12.04257,-14.92156 -21.00391,-12.90821 -8.62933,1.93731 -14.6062,9.72229 -14.01953,18.29297 0.59867,8.74133 7.70325,16.30258 15.89258,17.0586 8.388,0.77465 17.45619,-4.67227 19.13086,-15.51758 30.82134,-4.13734 56.99038,-17.40043 78.81836,-38.8711 -1.61333,-1.67202 -3.04454,-3.1546 -4.50586,-4.66796 z m -91.48437,30.61718 c 5.95333,-0.0267 11.07806,5.04161 11.11132,10.98828 0.0333,5.93333 -5.05138,11.07335 -10.99804,11.11719 -5.92267,0.0454 -11.03665,-5.01662 -11.11133,-11.00195 -0.072,-5.90136 5.05405,-11.07706 10.99805,-11.10352 z"
       transform="scale(0.26458333)" />
  </g>
</svg>
