<?xml version="1.0" encoding="UTF-8" standalone="no"?>
<svg
   xmlns:dc="http://purl.org/dc/elements/1.1/"
   xmlns:cc="http://creativecommons.org/ns#"
   xmlns:rdf="http://www.w3.org/1999/02/22-rdf-syntax-ns#"
   xmlns:svg="http://www.w3.org/2000/svg"
   xmlns="http://www.w3.org/2000/svg"
   width="91.837906mm"
   height="77.515381mm"
   viewBox="0 0 91.837906 77.515381"
   version="1.1"
   id="svg3406">
  <defs
     id="defs3400" />
  <metadata
     id="metadata3403">
    <rdf:RDF>
      <cc:Work
         rdf:about="">
        <dc:format>image/svg+xml</dc:format>
        <dc:type
           rdf:resource="http://purl.org/dc/dcmitype/StillImage" />
        <dc:title></dc:title>
      </cc:Work>
    </rdf:RDF>
  </metadata>
  <g
     id="layer1"
     transform="translate(-48.987145,-95.337332)">
    <path
       id="path2910"
       style="fill:#8e2781;fill-opacity:1;fill-rule:nonzero;stroke:none;stroke-width:1.33333"
       d="m 358.59961,360.33008 c -2.65467,-1.7e-4 -5.30889,0.0161 -7.96289,0.0508 -9.37334,0.12267 -16.21809,6.97312 -16.33008,16.31445 -0.0505,4.17868 0.09,8.36317 -0.082,12.53516 -0.04,0.95467 -0.84203,2.50892 -1.58203,2.70508 -7.82667,2.08134 -15.7102,3.94407 -23.88086,5.9414 -2.36667,-4.00531 -4.83388,-8.30139 -7.42188,-12.52539 -4.98533,-8.13868 -14.28533,-10.58217 -22.63867,-5.96484 -4.348,2.40268 -8.64636,4.89529 -12.95703,7.36328 -9.048,5.17867 -11.49676,14.36259 -6.24609,23.41992 2.35866,4.06802 4.73329,8.12669 6.39062,10.9707 -6.296,6.61735 -12.1142,12.73259 -18.1582,19.08594 -3.87404,-2.19167 -8.06116,-4.60316 -12.29102,-6.9414 -9.068,-5.01332 -18.21116,-2.50659 -23.53515,6.4414 -2.48267,4.172 -4.93547,8.36293 -7.35547,12.57227 -4.70134,8.18003 -2.32505,17.45927 5.76562,22.30859 3.776,2.26133 7.71502,4.25728 11.42969,6.61328 0.78267,0.49599 1.46156,2.17361 1.24024,3.07227 -1.67467,6.78667 -3.65358,13.49683 -5.37891,20.27148 -0.44,1.72267 -1.08374,2.42439 -2.92774,2.3711 -4.40133,-0.12435 -8.81217,-0.13166 -13.21484,-0.0156 -8.47466,0.22133 -15.37332,6.20258 -16.08398,14.0586 -0.30531,3.364 -0.25093,6.7742 -0.15625,10.1582 0.092,3.23199 2.3524,5.41697 5.3164,5.45703 2.95067,0.0413 5.25623,-2.11497 5.46289,-5.32031 0.15069,-2.36398 0.0463,-4.74324 0.0996,-7.11524 0.10267,-4.53464 1.86289,-6.31011 6.46289,-6.35547 5.98667,-0.0605 11.97232,0.005 17.95899,-0.0332 4.51467,-0.028 5.74232,-1.42169 6.84765,-5.79101 2.45734,-9.71732 5.10535,-19.38974 7.91602,-29.00977 1.22667,-4.19732 0.77053,-6.20408 -3.10547,-8.44141 -5.18267,-2.99202 -10.42584,-5.88099 -15.58984,-8.90234 -3.88933,-2.27467 -4.49173,-4.56721 -2.28907,-8.42188 2.29734,-4.01865 4.66201,-7.99984 7.02735,-11.97851 2.25733,-3.80134 4.9121,-4.57022 8.77344,-2.43555 5.13733,2.84134 10.21603,5.78797 15.33203,8.66797 4.4,2.47869 5.96733,1.92809 9.38867,-1.58789 6.91467,-7.104 13.99794,-14.0538 21.22461,-20.8418 3.524,-3.31067 4.12224,-5.03947 1.6289,-9.35546 -2.88,-4.98535 -5.85927,-9.91548 -8.72461,-14.91016 -2.23333,-3.89201 -1.64786,-6.27754 2.10547,-8.49219 4.18001,-2.46799 8.40025,-4.87042 12.65625,-7.20508 3.672,-2.01199 6.41655,-1.24089 8.56055,2.3418 3.132,5.23332 6.15855,10.52744 9.31055,15.74609 2.01867,3.34133 4.01298,3.81362 7.70898,2.79493 10.09867,-2.78533 20.22539,-5.4769 30.38672,-8.01954 3.948,-0.988 5.43562,-2.37266 5.46094,-6.41796 0.0374,-5.9867 -0.0252,-11.9756 0.0215,-17.96094 0.0333,-4.26667 1.96598,-6.23236 6.19532,-6.29102 4.63066,-0.0626 9.26253,-0.0302 13.89453,-0.0117 5.18666,0.02 6.97411,1.76914 6.99414,6.86914 0.0227,5.53467 -9.5e-4,11.06949 0.006,16.60547 0.005,4.99068 1.26068,6.13866 6.02734,7.30664 9.84669,2.4107 19.64569,5.02976 29.40039,7.78711 4.24532,1.20133 6.10397,0.77475 8.44531,-3.14257 2.95333,-4.944 5.83332,-9.93021 8.77735,-14.88086 2.40933,-4.04935 4.96429,-4.81417 8.98828,-2.60352 4.156,2.28401 8.27868,4.6284 12.36133,7.03906 3.83735,2.26534 4.45144,4.59549 2.24609,8.43946 -2.97865,5.19069 -6.08074,10.3112 -9.05273,15.50586 -2.11601,3.696 -1.47153,5.69875 1.56445,8.58007 7.35466,6.98 14.61796,14.06232 21.72461,21.29297 3.192,3.24533 4.88027,3.84624 8.84961,1.62891 5.22531,-2.91731 10.39363,-5.9333 15.62695,-8.83594 3.91601,-2.17202 6.57117,-1.45583 8.8125,2.29883 2.31602,3.87734 4.5999,7.77497 6.86523,11.68164 2.46932,4.25733 1.93253,6.48162 -2.27148,8.93359 -5.1693,3.01471 -10.41058,5.90102 -15.58789,8.90235 -3.66266,2.12402 -4.11741,4.17556 -2.94141,8.21289 2.80135,9.624 5.47838,19.28718 7.92774,29.00586 1.14399,4.54133 2.32566,5.87576 7.09765,5.89843 5.87335,0.0251 11.74779,-0.0259 17.6211,0.0273 4.756,0.0413 6.55873,1.87658 6.60937,6.56055 0.0268,2.37067 -0.0952,4.7533 0.082,7.11328 0.2267,3.03866 2.46736,5.07939 5.30469,5.11718 2.95336,0.0387 5.26793,-2.14165 5.45313,-5.32031 0.12359,-2.13864 0.0388,-4.29216 0.0312,-6.4375 -0.0307,-11.39335 -6.48308,-17.88994 -17.81641,-17.92773 -4.61601,-0.014 -9.23399,-0.002 -13.55664,-0.002 -2.29334,-7.94135 -4.52932,-15.50455 -6.58398,-23.11523 -0.18936,-0.70001 0.55516,-2.08558 1.25781,-2.51758 3.652,-2.24802 7.46293,-4.23403 11.15625,-6.41406 8.64669,-5.10267 10.98866,-14.29214 5.91797,-23.02149 -2.21065,-3.80666 -4.45312,-7.5971 -6.67578,-11.39843 -5.78264,-9.88933 -14.74061,-12.3383 -24.72461,-6.73828 -4.008,2.24798 -7.99868,4.52892 -11.55469,6.54492 -6.15065,-6.46798 -11.9711,-12.58932 -18.14844,-19.08399 1.92268,-3.292 4.56445,-7.61938 7.00977,-12.05273 4.44933,-8.06532 1.83075,-17.31014 -6.14258,-21.93945 -4.58801,-2.66533 -9.18527,-5.31909 -13.83594,-7.8711 -8.19866,-4.5 -17.45954,-2.03717 -22.38086,5.9375 -2.25335,3.65065 -4.46023,7.33499 -6.51758,11.09766 -0.88531,1.61726 -1.76101,1.8116 -3.48632,1.32226 -6.83468,-1.93867 -13.70119,-3.7809 -20.61719,-5.40625 -2.02798,-0.47735 -2.49987,-1.3488 -2.44922,-3.21679 0.10885,-3.95067 0.0539,-7.90604 0.0312,-11.85938 -0.0573,-9.83067 -6.79045,-16.68958 -16.53711,-16.79492 -2.654,-0.0287 -5.30822,-0.0448 -7.96289,-0.0449 z m 0.10547,59.72461 c -4.77734,-0.003 -8.4858,2.31649 -9.98047,6.75781 -2.17866,6.47467 -5.90998,9.92119 -13.05664,9.9707 -4.4,0.0307 -7.45711,2.99075 -8.89844,7.21875 -1.452,4.25602 -0.71028,8.45319 2.76172,11.11719 6.13467,4.70536 7.26788,10.24594 5.17187,17.36328 -1.20666,4.1 0.66042,7.81028 4.09376,10.40625 3.44399,2.60402 7.26973,2.96075 11.17773,1.10742 2.24,-1.06265 4.28603,-2.57495 6.58203,-3.45898 1.26267,-0.48533 3.0233,-0.49198 4.2793,0 2.39866,0.94001 4.52724,2.54831 6.89258,3.59766 7.24133,3.21199 15.28036,-2.10553 15.2539,-10.32422 -0.0427,-0.34931 0.001,-1.06629 -0.22656,-1.6836 -2.57465,-6.96801 -0.72014,-12.36942 5.11719,-16.99609 3.43468,-2.72266 4.21443,-6.86962 2.75976,-11.12695 -1.444,-4.22536 -4.49382,-7.19047 -8.89648,-7.22071 -7.14135,-0.0533 -10.88597,-3.48478 -13.05664,-9.96875 -1.49067,-4.44933 -5.20128,-6.75708 -9.97461,-6.75976 z m 0.004,10.99609 c 2.05067,4.33999 3.87422,7.92446 5.43555,11.61914 0.80933,1.91331 2.05358,2.73619 4.01758,2.98828 3.77467,0.48533 7.53352,1.10303 12.13086,1.79102 -3.23601,3.34001 -5.94255,6.2693 -8.81055,9.0293 -1.43866,1.38531 -1.99592,2.69059 -1.55859,4.75195 0.83866,3.95463 1.32113,7.98354 2.09179,12.88086 -3.88799,-2.14001 -7.23443,-3.81457 -10.39843,-5.78125 -2.096,-1.30466 -3.81206,-1.25747 -5.88672,0.0332 -3.12667,1.94264 -6.42813,3.60129 -10.32813,5.75195 0.75191,-4.80311 1.55962,-8.85966 1.93555,-12.95507 0.132,-1.43335 -0.35969,-3.3864 -1.31836,-4.37305 -2.808,-2.88801 -5.99454,-5.40827 -9.0332,-8.07227 0.272,-0.43869 0.54307,-0.87775 0.8164,-1.3164 3.49467,-0.55336 6.97557,-1.25001 10.49024,-1.61133 2.60267,-0.26801 4.2722,-1.14026 5.26953,-3.79492 1.324,-3.52267 3.18649,-6.84674 5.14648,-10.94141 z m 101.4629,51.43555 c -1.21719,-0.0286 -2.60728,0.31451 -4.13477,1.04101 -8.05467,3.83067 -16.10483,7.66679 -24.13281,11.55078 -6.14533,2.972 -8.64986,7.81162 -7.95118,14.59961 0.0986,0.95736 -0.66761,2.61379 -1.46093,2.95508 -5.91734,2.55198 -11.78003,2.48782 -17.5,-0.85351 -5.35068,-3.12401 -10.4611,-7.40392 -16.25977,-8.86524 -11.97866,-3.01867 -24.47227,-2.48392 -36.57226,-0.41992 -3.972,0.67601 -7.73874,1.91553 -11.94141,1.69141 -10.09733,-0.53602 -18.87577,3.74733 -27.53711,8.25 -5.55333,2.88665 -11.25226,3.08263 -16.93359,0.52929 -0.988,-0.44402 -1.62655,-1.76252 -2.31055,-2.75586 -1.93333,-2.80667 -3.16769,-6.79794 -5.81836,-8.27929 -9.048,-5.05467 -18.56441,-9.27968 -27.95508,-13.70899 -2.292,-1.08 -4.77904,-0.50994 -5.98437,1.63672 -0.87333,1.55331 -1.17265,3.89117 -0.69531,5.58985 0.372,1.32396 2.18118,2.51199 3.61718,3.22265 7.376,3.65197 14.85167,7.09641 22.26367,10.67774 4.59867,2.22402 4.61431,2.3532 2.29297,6.75586 -2.844,5.39198 -5.71688,10.77028 -8.57422,16.15429 -6.984,13.16266 -13.97607,26.3202 -20.9414,39.49219 -0.964,1.82132 -2.09506,3.60949 -4.40039,2.4375 -5.59734,-2.84534 -11.07539,-5.9233 -16.77539,-9.00195 3.848,-7.39333 7.50785,-14.37545 11.11718,-21.38477 1.99734,-3.87866 1.38667,-6.85052 -1.63867,-8.47851 -2.996,-1.61333 -5.89973,-0.45103 -7.92773,3.37695 -4.44,8.37868 -8.83311,16.78356 -13.17578,25.21289 -2.08134,4.03997 -1.32588,6.53511 2.57812,8.70312 6.51333,3.61599 13.03791,7.21677 19.61524,10.7168 7.948,4.23065 15.83049,1.79619 20.0625,-6.14648 5.892,-11.05735 11.73347,-22.14356 17.60546,-33.21289 3.74267,-7.056 7.5009,-14.10396 11.2129,-21.08399 0.656,0.065 1.01331,0.0219 1.30664,0.14063 10.13867,4.1173 19.80618,3.1118 29.24218,-2.32422 3.25334,-1.87465 6.87799,-3.10234 10.33399,-4.625 -0.35467,1.31868 -1.06785,1.97077 -1.83985,2.55078 -6.04133,4.55199 -12.14161,9.02968 -18.12695,13.65234 -3.81733,2.94932 -6.06387,6.80782 -5.0332,11.78516 1,4.83201 4.52958,7.71873 9.01758,8.66406 4.46533,0.94137 9.15818,1.16273 13.74218,1.08789 7.156,-0.11735 13.12865,-3.83568 19.05664,-7.34765 1.91201,-1.13333 3.32476,-1.05673 5.2461,0.002 27.78134,15.31332 55.61474,30.53178 83.41211,45.81445 1.45999,0.80266 3.26771,1.70748 3.92773,3.04883 0.85085,1.73201 1.47655,4.31302 0.75391,5.84766 -0.60401,1.28001 -3.35837,2.29672 -5.04102,2.14062 -2.48269,-0.23066 -4.98841,-1.35657 -7.26172,-2.53125 -11.12934,-5.75599 -22.18427,-11.65588 -33.26562,-17.5039 -1.09867,-0.58001 -2.15557,-1.25845 -3.29688,-1.73047 -2.84534,-1.17733 -5.67463,-0.25226 -7.02929,2.20507 -1.46665,2.65868 -0.70459,5.63049 1.96875,7.36915 1.03733,0.67468 2.17999,1.1882 3.27734,1.76953 8.37865,4.43867 16.75877,8.87107 25.13477,13.3164 2.46799,1.30934 3.12803,3.37404 2.4707,5.99805 -0.65601,2.62397 -2.68286,3.28431 -4.9375,3.13086 -1.51068,-0.10265 -3.108,-0.59561 -4.44531,-1.32227 -8.232,-4.47469 -16.40052,-9.0652 -24.58985,-13.61718 -0.78935,-0.43869 -1.56585,-0.9004 -2.36718,-1.31641 -3.75066,-1.944 -6.89322,-1.27989 -8.44922,1.77344 -1.50534,2.95064 -0.37098,5.79325 3.17968,7.78125 6.00668,3.364 12.09796,6.58376 18.00196,10.12109 1.30533,0.78267 2.95579,2.85472 2.70898,3.94141 -0.40664,1.8 -1.9483,4.20521 -3.51367,4.67187 -2.08664,0.62 -4.98781,0.26141 -6.95312,-0.78125 -6.37467,-3.38267 -12.4578,-7.31197 -18.70313,-10.94531 -3.26133,-1.89732 -6.32285,-1.25971 -7.99219,1.45898 -1.69066,2.75331 -0.65937,5.94378 2.64063,7.95313 3.85733,2.34932 7.88278,4.45573 11.55078,7.06641 1.32,0.93864 2.61788,3.11396 2.47656,4.58593 -0.16267,1.68802 -1.59331,3.77315 -3.08398,4.70118 -2.82,1.75732 -5.74346,0.82943 -8.57813,-0.86524 -27.716,-16.56933 -55.47732,-33.06139 -83.22265,-49.58008 -3.86667,-2.30131 -7.09329,-1.95448 -8.89063,0.99219 -1.828,2.99467 -0.67616,6.01035 3.20117,8.31836 27.94134,16.62932 55.87604,33.26773 83.83203,49.87305 11.52801,6.84669 23.68232,2.1429 27.6543,-10.6211 0.0587,-0.18803 0.29182,-0.32074 0.53711,-0.57812 9.63999,0.50933 16.8893,-2.93834 19.83594,-12.81836 14.72001,-0.33865 17.56459,-2.04399 21.30859,-12.94531 1.93334,0.39333 3.67401,0.85513 5.44336,1.08984 11.82531,1.56797 20.93273,-8.95278 17.41406,-20.07813 -1.94536,-6.15201 0.41088,-12.19402 5.96289,-15.52734 1.68533,-1.01072 3.1239,-1.21963 5.00391,-0.20898 3.66531,1.972 7.71439,2.30552 11.42773,0.4082 7.63601,-3.90399 15.13863,-8.07519 22.61329,-12.2832 2.58391,-1.45467 3.55957,-4.03049 2.21289,-6.70118 -4.78001,-9.47198 -9.66465,-18.8944 -14.75,-28.20507 -1.39064,-2.54533 -4.04122,-3.1711 -6.81055,-1.8711 -2.6329,1.23731 -3.69835,4.01218 -2.625,6.85352 0.43601,1.15468 1.06472,2.24048 1.63672,3.34179 3.37334,6.48269 6.75695,12.96353 10.29297,19.74219 -5.69333,3.08266 -11.09944,6.08273 -16.57813,8.94141 -2.28797,1.19335 -3.51116,-0.31414 -4.50586,-2.1875 -10.05997,-18.93997 -20.12031,-37.87839 -30.23633,-56.78906 -1.372,-2.56532 -0.90688,-4.00396 1.81446,-5.25196 7.8,-3.57199 15.49856,-7.36187 23.22656,-11.08984 3.92005,-1.89067 5.33741,-4.67476 3.99609,-7.71875 -0.90418,-2.04999 -2.45182,-3.12806 -4.48046,-3.17578 z m -79.92579,29.67383 c 4.37866,-0.0987 7.70704,2.21662 11.20703,4.22461 2.64,1.51336 5.23034,3.11399 7.84766,4.66601 9.16932,5.43731 18.57426,5.60112 28.1836,1.25977 0.60268,-0.27202 1.24673,-0.45527 2.16406,-0.78711 8.22398,15.49735 16.40992,30.9238 24.7539,46.64648 -6.13731,3.19068 -10.32063,8.05628 -12.97265,14.48828 -11.28665,-6.18398 -22.25486,-12.18333 -33.21485,-18.19531 -18.01065,-9.88135 -36.03386,-19.73753 -54.00586,-29.68555 -2.76266,-1.53154 -5.1912,-1.63636 -7.92187,0.0156 -3.47333,2.10134 -7.0765,3.99615 -10.67383,5.88281 -5.568,2.91999 -11.46127,3.07288 -17.47461,1.79688 -0.38266,-0.0813 -0.70463,-0.44784 -1.41797,-0.92383 3.40934,-2.612 6.59678,-5.06984 9.80078,-7.50586 8.88667,-6.76267 17.73475,-13.57575 26.71875,-20.20508 1.336,-0.98532 3.31182,-1.49005 5.00782,-1.53125 7.32933,-0.1731 14.66871,0.0149 21.99804,-0.14648 z"
       transform="scale(0.26458333)" />
  </g>
</svg>
