<?xml version="1.0" encoding="UTF-8" standalone="no"?>
<svg
   xmlns:dc="http://purl.org/dc/elements/1.1/"
   xmlns:cc="http://creativecommons.org/ns#"
   xmlns:rdf="http://www.w3.org/1999/02/22-rdf-syntax-ns#"
   xmlns:svg="http://www.w3.org/2000/svg"
   xmlns="http://www.w3.org/2000/svg"
   width="98.82515mm"
   height="94.943298mm"
   viewBox="0 0 98.82515 94.943298"
   version="1.1"
   id="svg3832">
  <defs
     id="defs3826" />
  <metadata
     id="metadata3829">
    <rdf:RDF>
      <cc:Work
         rdf:about="">
        <dc:format>image/svg+xml</dc:format>
        <dc:type
           rdf:resource="http://purl.org/dc/dcmitype/StillImage" />
        <dc:title></dc:title>
      </cc:Work>
    </rdf:RDF>
  </metadata>
  <g
     id="layer1"
     transform="translate(-48.404896,-111.4565)">
    <path
       id="path3112"
       style="fill:#8e2781;fill-opacity:1;fill-rule:nonzero;stroke:none;stroke-width:1.33333"
       d="m 354.23438,421.26367 c -0.78,-0.0707 -1.60377,0.22464 -2.39844,0.38867 -12.508,2.59333 -23.83887,16.32978 -23.26953,28.20313 4.38666,0.54531 8.7747,1.08342 13.4707,1.66211 4.34933,-15.38268 11.43605,-18.93072 26.24805,-13.4707 1.15333,0.42667 2.86817,0.0499 4.07617,-0.49805 10.468,-4.74267 18.57712,-1.8771 23.45312,8.4082 0.27734,0.58401 0.62985,1.13216 0.92578,1.66016 4.51465,-1.51336 8.80372,-2.9498 13.37305,-4.48047 -4.47333,-11.40798 -11.49295,-20.18272 -23.93164,-21.4707 -10.53865,-1.09202 -21.29126,0.56566 -31.94726,-0.40235 z m -75.40821,5.67578 c -7.265,-0.17875 -14.5414,1.54108 -21.80273,5.67774 -0.81334,0.46401 -1.71319,0.82307 -2.61719,1.06836 -12.06533,3.26933 -18.62186,11.55091 -19.64453,23.57226 -0.70267,8.24534 0.29569,16.63635 0.54101,25.15235 5.30934,-1.37469 9.98767,-2.58559 14.98633,-3.87891 -0.18397,-1.18335 -0.43256,-2.34807 -0.53515,-3.52344 -0.424,-4.84135 -1.23222,-9.69864 -1.10157,-14.52929 0.212,-7.724 3.77601,-11.54624 11.13868,-13.43555 1.768,-0.45468 3.36312,-1.55288 5.06445,-2.29688 2.20533,-0.96665 4.3573,-2.3505 6.66797,-2.72656 9.12133,-1.48135 17.81678,-0.43372 25.43945,5.40625 0.416,0.32001 0.94005,0.76865 1.38672,0.74219 5.17733,-0.32931 10.3496,-0.73603 16.07227,-1.16406 -3.42401,-6.42664 -7.73076,-11.42015 -13.85743,-14.35352 -7.21866,-3.45566 -14.47328,-5.53218 -21.73828,-5.71094 z m 186.20899,8.45508 c -0.76971,0.0152 -1.546,0.0498 -2.32813,0.10156 -8.41466,0.55733 -15.92598,3.57071 -22.47265,9.47071 4.248,2.02798 8.04585,4.03199 12.00585,5.63867 1.54666,0.62649 3.58513,0.84338 5.17579,0.41406 5.62401,-1.51986 11.20927,-1.91679 16.83593,-0.35547 11.66268,3.236 19.35106,14.94491 19.33594,28.85156 -0.005,4.40402 0.6171,8.81239 1.06641,13.20704 0.0653,0.63201 0.66053,1.50149 1.22851,1.74414 3.90667,1.66666 7.87092,3.19487 12.37891,4.99218 0.20655,-3.42398 0.59997,-6.50168 0.5293,-9.56836 -0.10133,-4.44 -0.58466,-8.86932 -0.82618,-13.30664 -1.34073,-24.74576 -19.06883,-41.66189 -42.92968,-41.18945 z m -43.23243,21.42969 c -12.14116,0.0557 -23.31819,5.04696 -33.98828,11.77734 -3.73867,2.35733 -6.36058,7.36376 -8.16992,11.70508 -3.37333,8.10667 -2.59454,16.73513 -0.94922,25.20313 0.16536,0.84933 1.03983,1.91657 1.83985,2.22461 4.1173,1.588 8.31715,2.96026 13.20117,4.65624 -0.24,-2.788 -0.44315,-5.27061 -0.66992,-7.75195 -0.41866,-4.56797 -1.31563,-9.14792 -1.17579,-13.69726 0.26,-8.472 3.64416,-12.15608 11.79883,-14.08008 0.91333,-0.21464 1.95645,-0.3958 2.64844,-0.95313 8.16669,-6.58666 17.23199,-5.35882 26.27734,-2.82812 7.51333,2.1013 11.99437,7.54543 14.31836,14.82812 0.5627,1.76398 0.81446,3.6284 1.23047,5.53907 2.35333,-0.19873 4.49456,-0.45252 6.64258,-0.53907 2.27467,-0.0896 4.55647,-0.0195 7.11914,-0.0195 v -0.002 c -0.37198,-15.82133 -10.41505,-28.70725 -25.40039,-33.66992 -5.07412,-1.68113 -9.97176,-2.41438 -14.72266,-2.39258 z m -112.33789,4.71094 c -2.85505,-0.0261 -5.7344,0.27469 -8.6289,0.86718 -10.964,2.24266 -19.7495,7.69666 -25.29883,17.91797 4.45867,1.91335 8.627,3.7007 13.01367,5.58203 8.84933,-10.48399 19.75059,-12.57252 32.0586,-6.56054 1.67599,0.81876 4.01407,1.09755 5.83007,0.68554 10.46,-2.37467 19.23,4.59871 18.88867,15.33204 -0.12266,3.86399 -0.43905,7.71959 -0.67773,11.76757 5.09467,-0.76535 9.71175,-1.45829 14.34375,-2.15429 0.28267,-3.60802 0.67972,-6.97173 0.78906,-10.34375 0.54667,-16.95867 -15.89693,-31.78934 -32.82226,-29.72266 -1.13334,0.13856 -2.45347,0.10755 -3.4668,-0.3418 -4.58167,-2.03249 -9.27087,-2.98586 -14.0293,-3.02929 z m -52.14843,31.12109 c -17.77469,0.13246 -33.00313,10.98928 -40.23438,28.62305 -4.65466,11.34931 -3.10179,23.40575 -4.70312,35.09375 -0.009,0.0639 0.18328,0.15335 0.2207,0.18359 4.27333,-2.28 8.41064,-4.79226 12.80664,-6.71094 2.312,-1.00932 3.10707,-2.07825 2.67773,-4.49023 -1.35999,-7.632 0.28707,-14.84419 3.67774,-21.63086 5.46267,-10.93198 14.4274,-16.59854 26.6914,-16.625 12.248,-0.0266 21.20603,5.54663 26.80469,16.44531 3.096,6.02933 4.98116,12.5345 3.92383,19.20117 -1.15867,7.30133 1.69881,11.55998 7.88281,14.08399 1.44667,-5.75732 2.40669,-11.79694 4.55469,-17.37696 1.52933,-3.97065 1.55661,-7.48948 0.58594,-11.38281 -5.16933,-20.76533 -20.35278,-33.77421 -41.30078,-35.29687 -1.206,-0.0877 -2.40291,-0.12602 -3.58789,-0.11719 z m 226.55273,14.60742 c -0.54275,0.004 -1.0861,0.0228 -1.63281,0.0586 -8.02133,0.52667 -15.79293,0.54607 -23.82227,0.0234 -19.07066,-1.24267 -34.98516,16.00344 -34.09179,35.83008 0.58397,12.90936 0.12063,25.75163 -2.63672,38.37695 -0.83464,3.81869 0.28842,5.73135 2.92578,7.08204 2.73464,-5.53335 4.4824,-11.71887 8.28906,-16.13086 5.18801,-6.01467 6.49748,-12.38806 6.02149,-19.74805 -0.212,-3.23868 -0.072,-6.49881 -0.21485,-9.74414 -0.71199,-16.18934 13.58998,-26.00393 28.22461,-19.19727 2.47869,1.15317 4.32275,1.08123 6.77344,-0.0508 14.71597,-6.80001 29.36995,3.58887 28.14062,19.74219 -0.2434,3.19465 -0.0352,6.42409 -0.0352,9.49609 4.70532,0.96 9.1717,1.87031 14.37304,2.93164 l -0.002,-0.002 c 0,-5.88933 0.19357,-11.30382 -0.0332,-16.70117 -0.72075,-17.22437 -15.45401,-32.09662 -32.2793,-31.9668 z M 363.2207,519.48828 c -1.34172,-0.0222 -2.70035,10e-4 -4.07226,0.0723 -12.796,0.66398 -23.5513,6.74218 -34.2793,12.46484 -4.112,2.19334 -7.17647,7.30064 -9.48047,11.72461 -3.996,7.66802 -3.87172,16.19428 -3.01172,24.6543 0.50133,4.94532 0.66874,9.93841 1.41407,14.84375 0.81467,5.35997 0.87381,11.13539 4.25781,13.91406 3.484,-2.74269 6.71032,-5.22461 9.84765,-7.80859 0.52401,-0.43068 1.00408,-1.34704 0.94141,-1.98438 -0.59066,-6.13599 -1.44897,-12.24858 -1.93164,-18.39258 -0.33868,-4.30669 -0.54409,-8.67861 -0.21875,-12.97461 0.656,-8.67333 5.14032,-13.50157 13.59766,-15.43359 1.42667,-0.32534 3.10605,-0.55145 4.13672,-1.43945 6.47066,-5.5773 14.18445,-5.8596 21.92578,-4.90625 20.25865,2.49199 29.8502,15.23993 27.21289,35.55859 -0.14967,1.14667 -0.0195,2.32887 -0.0195,3.38086 4.52934,1.33867 8.77365,2.5935 13.32031,3.9375 1.98134,-9.92534 2.3019,-19.53215 -0.96875,-29.02149 -6.04375,-17.55124 -22.54601,-28.25724 -42.67188,-28.58984 z M 241.6543,561.1543 c -18.18926,0.54121 -33.45861,15.84827 -32.94336,35.45703 0.26933,10.25866 -0.0966,20.59661 -1.08594,30.80859 -0.89734,9.27065 -2.59605,18.54812 -8.74805,26.24414 -0.55998,0.70265 -0.36198,2.56083 0.16602,3.49414 3.62,6.38933 8.93419,10.78585 16.01953,12.95118 1.02666,0.31464 2.0147,0.75659 3.83203,1.44726 -3.27467,1.04534 -5.56706,1.85111 -7.90039,2.50977 -12.34133,3.48533 -20.79492,11.05975 -25.15625,23.25976 -6.62533,18.52267 -2.19841,28.19491 16.79492,33.24024 10.40267,2.76264 21.24661,4.73636 31.97461,5.20703 16.06267,0.70533 32.19749,-0.18328 48.29883,-0.53516 1.39733,-0.032 3.48725,-0.74001 4.03125,-1.77734 2.35067,-4.47867 4.2464,-9.19818 6.42773,-14.10352 -21.97866,3.60132 -43.87204,4.36126 -65.74804,1.47461 -8.944,-1.17868 -17.74868,-3.53094 -26.52735,-5.71094 -1.45999,-0.36264 -3.46762,-2.54076 -3.51562,-3.93945 -0.34667,-10.17199 5.8316,-18.99186 15.32226,-22.5332 5.82267,-2.17202 11.90603,-3.80624 17.44336,-6.54492 10.14667,-5.01865 13.74495,-12.40966 12.59961,-24.04297 -9.07733,-0.93067 -18.65879,1.29016 -27.32812,-3.53516 1.39467,-4.392 2.76575,-8.08105 3.73242,-11.87305 3.88132,-15.24396 4.38231,-30.77808 3.93164,-46.41406 -0.45467,-15.77201 13.929,-25.22774 28.125,-18.48242 2.632,1.25053 4.59105,1.05169 7.12305,-0.12695 14.39066,-6.70935 28.86708,3.74262 28.09375,19.66797 -0.43867,9.03068 -0.28551,18.19872 0.78515,27.16406 1.20667,10.11598 3.74364,20.07264 5.79297,30.55664 -7.85067,4.444 -17.48948,1.94894 -26.52148,3.1289 -0.576,13.2 3.13357,19.68356 14.3789,24.93555 3.05067,1.42534 6.28192,2.55794 9.53125,3.44727 9.23334,2.52669 17.522,6.10707 20.11133,16.8164 4.66134,-1.88001 8.88385,-3.58559 13.11719,-5.29492 -4.51333,-16.47069 -17.52112,-22.3916 -32.31445,-26.59961 9.37866,-2.58535 16.10927,-7.92501 20.47461,-16.54101 -5.85067,-6.36934 -8.31251,-14.32144 -9.08985,-22.58008 -1.15066,-12.24269 -1.85997,-24.55887 -2.02929,-36.85352 -0.32134,-23.26533 -21.14941,-39.20931 -43.44141,-32.94531 -1.68133,0.47214 -3.73493,0.3842 -5.43359,-0.0918 -3.48688,-0.97896 -6.95584,-1.38538 -10.32422,-1.28515 z m 235.95312,3.45312 c -1.72006,-0.002 -3.45083,0.0829 -5.1875,0.22656 -16.68933,1.38403 -30.29889,12.77467 -33.04687,28.22266 -0.88819,4.98399 -0.57057,10.27962 -0.14258,15.37695 0.73731,8.73865 1.94982,17.44124 3.08984,26.14258 0.14533,1.11734 1.00083,2.16325 1.60352,3.19922 2.00266,3.44402 4.11701,6.82585 6.04101,10.3125 1.82933,3.31332 3.27161,6.85153 5.23828,10.07422 4.97866,8.16533 2.88537,14.30982 -6.16796,17.53516 -5.47601,1.95065 -10.98878,3.81354 -16.38477,5.96289 -1.34132,0.53333 -2.74683,1.81396 -3.35351,3.11132 -1.71198,3.66267 -3.02723,7.51117 -4.61524,11.58985 2.18132,0.744 4.19173,1.60581 6.28906,2.06445 0.95732,0.20935 2.20314,-0.15979 3.11914,-0.64648 2.71601,-1.44 5.19429,-3.40415 8.01563,-4.55078 5.12799,-2.08668 10.57129,-3.41969 15.64062,-5.625 10.86403,-4.73069 17.27943,-18.26993 14.38477,-29.75391 -0.25467,-1.01333 -0.96432,-1.91192 -1.45898,-2.86523 -3.284,-6.31869 -6.50199,-12.67424 -9.88868,-18.93555 -1.11598,-2.06532 -2.781,-3.82818 -3.98632,-5.85352 -1.18935,-1.99336 -2.86955,-4.08904 -3.02149,-6.23437 -0.53722,-7.66265 -0.41368,-15.36946 -0.74023,-23.05078 -0.27069,-6.37867 1.74783,-11.69027 6.5625,-15.90625 7.65335,-6.69869 21.44874,-8.12353 29.33007,-3.10352 2.03468,1.29732 5.28304,0.80206 7.98438,0.91016 2.36931,0.0945 4.90157,-0.68041 7.10156,-0.0937 7.2107,1.924 12.41573,9.35707 12.20899,16.78906 -0.23335,8.38265 -0.32873,16.77465 -0.85938,25.13867 -0.11868,1.88266 -1.69529,3.72788 -2.7793,5.47852 -1.31066,2.11336 -3.0778,3.97632 -4.17382,6.18164 -2.40265,4.83065 -3.65752,10.49193 -6.9375,14.55859 -4.40928,5.46535 -4.9932,10.94105 -4.08789,17.37305 1.296,9.1813 5.33819,16.13093 14.32617,19.48828 4.81334,1.79732 9.65349,3.55447 14.57617,5.00781 7.98799,2.35601 12.23929,7.9789 14.47266,15.60156 2.73463,9.33336 2.43752,10.07994 -7.03711,12.66797 -21.16936,5.78533 -42.77954,6.36605 -64.51954,5.22071 -1.65868,-0.0877 -3.31848,-0.1765 -5.23046,-0.2793 1.45065,4.11999 2.98276,7.60859 3.85742,11.25391 0.62268,2.59067 1.71623,3.41478 4.32422,3.57617 17.67598,1.084 35.26899,0.12367 52.625,-3.09766 7.74799,-1.43868 15.35972,-4.22921 22.65039,-7.31055 5.28933,-2.23464 8.71017,-6.75559 8.99023,-13.01562 0.75466,-16.90265 -9.20038,-32.0434 -25.03906,-37.91406 -5.06668,-1.87866 -10.28326,-3.4031 -15.22461,-5.56446 -4.55199,-1.99064 -5.95105,-9.25424 -3.48437,-13.59961 2.99735,-5.27731 5.49529,-10.83755 8.27929,-16.24023 0.78399,-1.52134 1.61412,-3.10598 2.77149,-4.33398 4.11598,-4.36268 6.06278,-9.51596 6.22265,-15.44532 0.21332,-7.96399 0.32585,-15.9346 0.72852,-23.89062 0.93199,-18.48533 -15.71455,-34.3045 -34.08789,-32.3125 -1.28134,0.13863 -2.78467,0.19332 -3.88867,-0.33203 -4.86301,-2.31494 -9.92967,-3.10248 -15.08985,-3.10938 z M 377.125,586.05078 c -6.37434,0.1315 -12.71814,1.41212 -18.99414,4.05078 -3.21333,1.35069 -6.18109,3.39961 -9.48242,4.40625 -10.87734,3.31601 -18.11103,10.2871 -21.06836,21.14844 -1.36533,5.02001 -1.97511,10.42028 -1.8711,15.62695 0.17601,8.75732 0.9828,17.52175 1.9668,26.23242 0.35333,3.13331 1.1595,6.91482 3.1875,9.02149 5.144,5.34002 6.74256,12.11186 9.22656,18.58789 0.48267,1.25597 0.98627,2.59135 1.82227,3.61133 2.95333,3.60801 3.09084,7.87865 3.4375,12.22265 0.276,3.44667 -1.09631,5.37501 -4.18164,6.42969 -4.73333,1.61734 -9.4066,3.42964 -14.19727,4.84961 -17.68666,5.24803 -25.76779,18.2494 -28.59179,35.38672 -1.78134,10.80934 1.39741,16.93921 11.21875,21.7832 3.736,1.84267 7.73176,3.31026 11.75976,4.37696 18.20667,4.82264 36.86281,5.8459 62.74414,6.30859 7.868,-0.80534 22.9091,-1.69878 37.70508,-4.10547 8.5307,-1.38799 16.87105,-4.72438 24.90039,-8.12305 5.39467,-2.28532 8.91154,-7.02956 9.20899,-13.3789 0.87329,-18.68134 -10.0145,-35.14695 -27.5625,-41.62695 -5.45201,-2.01204 -10.98136,-3.8118 -16.41602,-5.86915 -1.16799,-0.44133 -2.97215,-1.58753 -2.95703,-2.38085 0.0827,-4.26135 -0.007,-8.7087 1.19922,-12.72071 1.69334,-5.63202 4.4365,-10.95374 6.8125,-16.37109 0.62933,-1.43467 1.3196,-2.9874 2.40625,-4.05274 4.396,-4.30401 6.53453,-9.5671 7.0332,-15.56445 0.56931,-6.84132 1.05357,-13.68973 1.51758,-20.53906 1.46532,-21.692 -10.95637,-40.11223 -31.65234,-46.46289 -6.39334,-1.96201 -12.79754,-2.97916 -19.17188,-2.84766 z m -0.18945,14.34375 c 2.46927,-0.004 4.96229,0.2096 7.45312,0.53711 22.40001,2.94663 32.87942,19.0817 28.2461,42.70703 -0.60817,3.10534 -0.59853,6.36997 -0.55469,9.55664 0.0506,3.6 -0.80138,6.40836 -3.83203,8.84571 -1.92669,1.5493 -3.41205,4.14456 -4.16407,6.56054 -1.92797,6.20134 -3.46644,12.38062 -7.73046,17.69532 -1.60332,1.99865 -1.32195,5.62831 -1.61524,8.54296 -1.74667,17.35469 1.82069,22.71339 18.49805,28.10938 3.99197,1.29067 8.01173,2.50862 11.92773,4.00195 9.89333,3.77601 17.30912,15.6032 16.1211,26.14453 -0.16664,1.484 -2.20007,3.51967 -3.74805,3.95703 -8.05467,2.27199 -16.13605,4.79421 -24.38672,5.93555 -11.92002,1.65067 -23.99324,2.1887 -31.94922,2.85938 -22.67333,-0.68134 -41.20932,-1.49338 -59.22265,-6.69336 -10.45734,-3.01867 -11.31363,-4.52014 -8.26563,-14.88282 2.54267,-8.64132 7.27395,-15.22298 16.50195,-17.95898 6.33467,-1.87865 12.53359,-4.27787 18.65625,-6.7832 7.34533,-3.00533 10.69942,-8.84456 10.60743,-16.66992 -0.0507,-4.33335 -0.23336,-8.67087 -0.55469,-12.99219 -0.0947,-1.28534 -0.54424,-2.81241 -1.37891,-3.73242 -4.48133,-4.93735 -5.74355,-11.18833 -7.71289,-17.23633 -0.88933,-2.732 -3.32923,-4.93025 -4.86523,-7.49024 -1.20534,-2.01067 -2.71091,-4.1232 -3.01758,-6.33789 -0.92267,-6.65333 -1.62484,-13.36687 -1.82617,-20.07617 -0.14801,-4.95069 0.12208,-10.03048 1.10742,-14.86914 1.41333,-6.93468 6.4111,-10.60787 13.14844,-12.31055 2.40133,-0.60665 4.79394,-1.70817 6.86328,-3.07617 4.94175,-3.26606 10.26095,-4.33502 15.69336,-4.34375 z"
       transform="scale(0.26458333)" />
  </g>
</svg>
