<?xml version="1.0" encoding="UTF-8" standalone="no"?>
<svg
   xmlns:dc="http://purl.org/dc/elements/1.1/"
   xmlns:cc="http://creativecommons.org/ns#"
   xmlns:rdf="http://www.w3.org/1999/02/22-rdf-syntax-ns#"
   xmlns:svg="http://www.w3.org/2000/svg"
   xmlns="http://www.w3.org/2000/svg"
   width="77.899887mm"
   height="80.578377mm"
   viewBox="0 0 77.899887 80.578377"
   version="1.1"
   id="svg3756">
  <defs
     id="defs3750" />
  <metadata
     id="metadata3753">
    <rdf:RDF>
      <cc:Work
         rdf:about="">
        <dc:format>image/svg+xml</dc:format>
        <dc:type
           rdf:resource="http://purl.org/dc/dcmitype/StillImage" />
        <dc:title></dc:title>
      </cc:Work>
    </rdf:RDF>
  </metadata>
  <g
     id="layer1"
     transform="translate(-65.037682,-96.534009)">
    <path
       id="path3100"
       style="fill:#8e2781;fill-opacity:1;fill-rule:nonzero;stroke:none;stroke-width:1.33333"
       d="m 358.00391,364.85547 c -6.01467,-0.12134 -8.75684,4.16023 -10.6875,9.24023 -18.15467,47.75333 -36.35569,95.48914 -54.54102,143.23047 -5.58933,14.67334 -11.1513,29.35759 -16.7793,44.01758 -1.98266,5.16801 -3.39046,10.32112 1.40821,14.67578 4.86133,4.4106 9.75002,2.21458 14.66601,-0.30273 29.168,-14.93469 60.55489,-18.22772 92.68555,-17.45703 4.62002,0.11066 9.25184,0.41062 13.83984,0.94531 5.69197,0.66399 11.54704,0.6173 14.20703,7.80664 0.95203,2.57469 4.96101,4.01813 8.26368,6.49414 -4.01734,5.96802 -8.11624,12.13602 -12.29493,18.24805 -9.70798,14.19866 -19.49107,28.34781 -29.17773,42.5625 -8.53468,12.52267 -5.53799,22.21325 8.44336,27.58789 4.95466,1.90401 9.9021,3.82956 14.88477,5.65625 11.59865,4.25064 21.14758,1.11353 28.18359,-9.14649 13.71598,-20.00001 27.51134,-39.94805 41.11133,-60.02539 2.19201,-3.23599 3.90348,-5.05 8.41015,-3.80469 6.61867,1.82669 12.66758,-1.84273 16.12891,-8.60937 0.98801,-1.93334 1.76835,-3.97543 2.79102,-6.30078 15.87465,4.612 21.94275,1.54227 27.63476,-13.40039 3.15065,-8.26666 6.29926,-16.53276 9.44727,-24.80078 6.53068,-17.14534 4.89071,-21.81032 -10.69727,-30.43164 5.19999,-20.24134 3.89633,-22.73194 -15.84766,-30.25196 -15.70798,-5.98133 -31.308,-12.27429 -47.19336,-17.73828 -4.23065,-1.45466 -9.33516,-0.30598 -14.03515,-0.47266 -1.99468,-0.072 -4.4491,0.21841 -5.89844,-0.79492 -32.78664,-22.89467 -60.16613,-50.43889 -74.99414,-88.54687 -1.84133,-4.736 -4.71099,-8.2742 -9.95898,-8.38086 z m -0.39063,24.17578 c 0.87067,1.17468 1.30416,1.61908 1.57617,2.14844 17.35334,33.70798 42.76938,60.15013 73.69336,81.57812 4.32533,2.99736 5.41709,6.34149 3.48242,11.29883 -6.98668,17.90532 -13.97292,35.82148 -20.46093,53.91211 -2.36134,6.58802 -6.15997,7.98718 -12.61328,7.17383 -32.33602,-4.07199 -64.22541,-1.90846 -95.44141,7.88086 -4.676,1.46668 -9.26605,3.21387 -14.63672,5.08984 21.624,-56.7733 42.85239,-112.5087 64.40039,-169.08203 z m -62.70312,9.4082 c -1.89534,-0.098 -3.91211,0.65685 -5.91211,2.10352 -12.516,9.05333 -22.47739,20.34367 -29.88672,33.90234 -0.93734,1.71602 -2.12846,3.29617 -3.20313,4.9375 -2.36133,6.2027 -4.72327,12.40477 -7.08593,18.60742 -1.068,8.89735 -2.81539,17.78125 -2.99805,26.69727 -0.15999,7.84532 1.2484,15.75002 2.3164,23.58203 0.688,5.03599 3.64405,8.2483 9.10938,7.04297 5.49067,-1.21198 6.2503,-5.18825 5.29297,-10.24023 -6.45333,-34.08802 2.9306,-63.11762 28.19726,-86.9336 2.23734,-2.10667 4.72912,-3.95222 7.17579,-5.82422 3.93866,-3.01198 5.27897,-6.83681 2.18164,-10.85547 -1.51867,-1.97066 -3.29217,-2.92152 -5.1875,-3.01953 z m 15.20898,28.56836 c -1.9955,-0.0107 -4.0993,0.89645 -6.16797,2.45313 -10.52133,7.91864 -17.87532,18.1536 -22.47265,30.43359 -4.53067,12.05333 -5.67308,24.387 -3.06641,37.04297 1.02,4.95602 3.53138,8.39449 8.99805,7.36914 5.54399,-1.03865 6.39974,-5.25505 5.5664,-10.17773 -3.632,-21.44535 2.85001,-39.11843 19.88867,-52.75977 3.92001,-3.13867 6.17549,-6.9013 2.77149,-11.30664 -1.63467,-2.11533 -3.52208,-3.04402 -5.51758,-3.05469 z m 145.35938,49.18164 c 19.536,7.44 38.67587,14.73079 58.47851,22.27344 -10.43335,27.38933 -20.62713,54.15983 -30.98047,81.33984 -19.61869,-7.47201 -38.91054,-14.82013 -58.47851,-22.27343 10.35065,-27.18002 20.60978,-54.11187 30.98047,-81.33985 z m 67.5371,49.98633 c 0.53333,1.81467 1.96319,3.94725 1.45118,5.39258 -3.8253,10.82801 -7.9162,21.56669 -12.26953,32.19336 -0.54535,1.33334 -3.09096,1.84945 -4.71094,2.74414 -0.45067,-1.61601 -1.64532,-3.46992 -1.22266,-4.80859 1.73201,-5.46668 3.95868,-10.77655 6,-16.14454 2.04401,-5.36802 3.87966,-10.83096 6.26367,-16.04296 0.67866,-1.48532 2.94828,-2.24201 4.48828,-3.33399 z m -87.24609,52.29297 c 8.70729,3.31574 16.67003,6.34939 24.52149,9.33984 -0.0797,0.864 0.0308,1.39201 -0.17969,1.70118 -14.10267,20.76801 -28.13522,41.58709 -42.53125,62.14843 -1.25465,1.79199 -5.28207,3.14039 -7.41406,2.53907 -6.88933,-1.93868 -13.49585,-4.88312 -20.97852,-7.73243 15.95599,-23.29202 31.34468,-45.75474 46.58203,-67.99609 z"
       transform="scale(0.26458333)" />
  </g>
</svg>
